<?xml version="1.0" standalone="no"?>
<!DOCTYPE svg PUBLIC "-//W3C//DTD SVG 1.1//EN" "http://www.w3.org/Graphics/SVG/1.1/DTD/svg11.dtd">
<!--Generator: Xara Designer (www.xara.com), SVG filter version: 6.0.0.4-->
<svg stroke-width="0.501" stroke-linejoin="bevel" fill-rule="evenodd" xmlns:xlink="http://www.w3.org/1999/xlink" xmlns="http://www.w3.org/2000/svg" version="1.1" overflow="visible" width="495.75pt" height="88.5pt" viewBox="0 0 495.75 88.5">
 <defs>
	</defs>
 <g id="Document" fill="none" stroke="black" font-family="Times New Roman" font-size="16" transform="scale(1 -1)">
  <g id="Spread" transform="translate(0 -88.5)">
   <g id="Page background">
    <path d="M 0.004,88.499 L 0.004,0 L 495.745,0 L 495.745,88.499 L 0.004,88.499 Z" stroke-linejoin="bevel" stroke="none" stroke-width="0" marker-start="none" marker-end="none" stroke-miterlimit="79.8403193612775"/>
   </g>
   <g id="MouseOff">
    <path d="M 12.907,74.246 C 11.525,75.426 11.302,77.5 12.429,78.949 C 13.589,80.44 15.741,80.709 17.232,79.55 C 18.724,78.39 18.992,76.238 17.833,74.746 C 17.688,74.561 17.527,74.393 17.354,74.245 C 19.477,74.239 20.966,69.196 20.722,67.543 L 9.541,67.543 C 9.468,69.434 10.033,73.918 12.907,74.246 Z" fill="#007f7f" stroke="none" stroke-width="0.15" stroke-linejoin="round" stroke-linecap="round" marker-start="none" marker-end="none" stroke-miterlimit="79.8403193612775"/>
    <path d="M 25.144,74.246 C 23.761,75.426 23.538,77.5 24.666,78.949 C 25.826,80.44 27.978,80.709 29.469,79.55 C 30.96,78.39 31.228,76.238 30.069,74.746 C 29.924,74.561 29.763,74.393 29.59,74.245 C 31.713,74.239 33.203,69.196 32.959,67.543 L 21.777,67.543 C 21.704,69.434 22.269,73.918 25.144,74.246 Z" fill="#007f7f" stroke="none" stroke-width="0.15" stroke-linejoin="round" stroke-linecap="round" marker-start="none" marker-end="none" stroke-miterlimit="79.8403193612775"/>
    <path d="M 37.38,74.246 C 35.997,75.426 35.775,77.5 36.902,78.949 C 38.062,80.44 40.214,80.709 41.705,79.55 C 43.196,78.39 43.465,76.238 42.306,74.746 C 42.16,74.561 42,74.393 41.827,74.245 C 43.949,74.239 45.439,69.196 45.195,67.543 L 34.013,67.543 C 33.941,69.434 34.505,73.918 37.38,74.246 Z" fill="#007f7f" stroke="none" stroke-width="0.15" stroke-linejoin="round" stroke-linecap="round" marker-start="none" marker-end="none" stroke-miterlimit="79.8403193612775"/>
    <path d="M 49.616,74.246 C 48.234,75.426 48.011,77.5 49.138,78.949 C 50.298,80.44 52.45,80.709 53.942,79.55 C 55.433,78.39 55.701,76.238 54.542,74.746 C 54.397,74.561 54.236,74.393 54.063,74.245 C 56.186,74.239 57.675,69.196 57.431,67.543 L 46.25,67.543 C 46.177,69.434 46.742,73.918 49.616,74.246 Z" fill="#007f7f" stroke="none" stroke-width="0.15" stroke-linejoin="round" stroke-linecap="round" marker-start="none" marker-end="none" stroke-miterlimit="79.8403193612775"/>
    <path d="M 61.853,74.246 C 60.47,75.426 60.247,77.5 61.375,78.949 C 62.535,80.44 64.687,80.709 66.178,79.55 C 67.669,78.39 67.938,76.238 66.778,74.746 C 66.633,74.561 66.473,74.393 66.3,74.245 C 68.422,74.239 69.912,69.196 69.668,67.543 L 58.486,67.543 C 58.414,69.434 58.978,73.918 61.853,74.246 Z" fill="#007f7f" stroke="none" stroke-width="0.15" stroke-linejoin="round" stroke-linecap="round" marker-start="none" marker-end="none" stroke-miterlimit="79.8403193612775"/>
    <path d="M 74.089,74.246 C 72.707,75.426 72.484,77.5 73.611,78.949 C 74.771,80.44 76.923,80.709 78.414,79.55 C 79.906,78.39 80.174,76.238 79.015,74.746 C 78.87,74.561 78.709,74.393 78.536,74.245 C 80.659,74.239 82.148,69.196 81.904,67.543 L 70.723,67.543 C 70.65,69.434 71.215,73.918 74.089,74.246 Z" fill="#007f7f" stroke="none" stroke-width="0.15" stroke-linejoin="round" stroke-linecap="round" marker-start="none" marker-end="none" stroke-miterlimit="79.8403193612775"/>
    <path d="M 86.326,74.246 C 84.943,75.426 84.72,77.5 85.848,78.949 C 87.008,80.44 89.16,80.709 90.651,79.55 C 92.142,78.39 92.41,76.238 91.251,74.746 C 91.106,74.561 90.945,74.393 90.772,74.245 C 92.895,74.239 94.384,69.196 94.141,67.543 L 82.959,67.543 C 82.886,69.434 83.451,73.918 86.326,74.246 Z" fill="#007f7f" stroke="none" stroke-width="0.15" stroke-linejoin="round" stroke-linecap="round" marker-start="none" marker-end="none" stroke-miterlimit="79.8403193612775"/>
    <path d="M 98.562,74.246 C 97.179,75.426 96.957,77.5 98.084,78.949 C 99.244,80.44 101.396,80.709 102.887,79.55 C 104.378,78.39 104.647,76.238 103.488,74.746 C 103.342,74.561 103.182,74.393 103.009,74.245 C 105.131,74.239 106.621,69.196 106.377,67.543 L 95.195,67.543 C 95.123,69.434 95.687,73.918 98.562,74.246 Z" fill="#007f7f" stroke="none" stroke-width="0.15" stroke-linejoin="round" stroke-linecap="round" marker-start="none" marker-end="none" stroke-miterlimit="79.8403193612775"/>
    <path d="M 110.798,74.246 C 109.416,75.426 109.193,77.5 110.32,78.949 C 111.48,80.44 113.632,80.709 115.124,79.55 C 116.615,78.39 116.883,76.238 115.724,74.746 C 115.579,74.561 115.418,74.393 115.245,74.245 C 117.368,74.239 118.857,69.196 118.613,67.543 L 107.432,67.543 C 107.359,69.434 107.924,73.918 110.798,74.246 Z" fill="#007f7f" stroke="none" stroke-width="0.15" stroke-linejoin="round" stroke-linecap="round" marker-start="none" marker-end="none" stroke-miterlimit="79.8403193612775"/>
    <path d="M 123.035,74.246 C 121.652,75.426 121.429,77.5 122.557,78.949 C 123.717,80.44 125.869,80.709 127.36,79.55 C 128.851,78.39 129.119,76.238 127.96,74.746 C 127.815,74.561 127.654,74.393 127.481,74.245 C 129.604,74.239 131.094,69.196 130.85,67.543 L 119.668,67.543 C 119.596,69.434 120.16,73.918 123.035,74.246 Z" fill="#007f7f" stroke="none" stroke-width="0.15" stroke-linejoin="round" stroke-linecap="round" marker-start="none" marker-end="none" stroke-miterlimit="79.8403193612775"/>
    <path d="M 135.271,74.246 C 133.888,75.426 133.666,77.5 134.793,78.949 C 135.953,80.44 138.105,80.709 139.596,79.55 C 141.087,78.39 141.356,76.238 140.197,74.746 C 140.051,74.561 139.891,74.393 139.718,74.245 C 141.84,74.239 143.33,69.196 143.086,67.543 L 131.904,67.543 C 131.832,69.434 132.396,73.918 135.271,74.246 Z" fill="#007f7f" stroke="none" stroke-width="0.15" stroke-linejoin="round" stroke-linecap="round" marker-start="none" marker-end="none" stroke-miterlimit="79.8403193612775"/>
    <path d="M 147.508,74.246 C 146.125,75.426 145.902,77.5 147.029,78.949 C 148.189,80.44 150.341,80.709 151.833,79.55 C 153.324,78.39 153.592,76.238 152.433,74.746 C 152.288,74.561 152.127,74.393 151.954,74.245 C 154.077,74.239 155.566,69.196 155.322,67.543 L 144.141,67.543 C 144.068,69.434 144.633,73.918 147.508,74.246 Z" fill="#007f7f" stroke="none" stroke-width="0.15" stroke-linejoin="round" stroke-linecap="round" marker-start="none" marker-end="none" stroke-miterlimit="79.8403193612775"/>
    <path d="M 159.744,74.246 C 158.361,75.426 158.138,77.5 159.266,78.949 C 160.426,80.44 162.578,80.709 164.069,79.55 C 165.56,78.39 165.829,76.238 164.669,74.746 C 164.524,74.561 164.364,74.393 164.191,74.245 C 166.313,74.239 167.803,69.196 167.559,67.543 L 156.377,67.543 C 156.305,69.434 156.869,73.918 159.744,74.246 Z" fill="#007f7f" stroke="none" stroke-width="0.15" stroke-linejoin="round" stroke-linecap="round" marker-start="none" marker-end="none" stroke-miterlimit="79.8403193612775"/>
    <path d="M 171.98,74.246 C 170.598,75.426 170.375,77.5 171.502,78.949 C 172.662,80.44 174.814,80.709 176.305,79.55 C 177.797,78.39 178.065,76.238 176.906,74.746 C 176.761,74.561 176.6,74.393 176.427,74.245 C 178.55,74.239 180.039,69.196 179.795,67.543 L 168.614,67.543 C 168.541,69.434 169.106,73.918 171.98,74.246 Z" fill="#007f7f" stroke="none" stroke-width="0.15" stroke-linejoin="round" stroke-linecap="round" marker-start="none" marker-end="none" stroke-miterlimit="79.8403193612775"/>
    <path d="M 184.217,74.246 C 182.834,75.426 182.611,77.5 183.739,78.949 C 184.899,80.44 187.051,80.709 188.542,79.55 C 190.033,78.39 190.301,76.238 189.142,74.746 C 188.997,74.561 188.836,74.393 188.663,74.245 C 190.786,74.239 192.276,69.196 192.032,67.543 L 180.85,67.543 C 180.777,69.434 181.342,73.918 184.217,74.246 Z" fill="#007f7f" stroke="none" stroke-width="0.15" stroke-linejoin="round" stroke-linecap="round" marker-start="none" marker-end="none" stroke-miterlimit="79.8403193612775"/>
    <path d="M 196.453,74.246 C 195.07,75.426 194.848,77.5 195.975,78.949 C 197.135,80.44 199.287,80.709 200.778,79.55 C 202.269,78.39 202.538,76.238 201.379,74.746 C 201.233,74.561 201.073,74.393 200.9,74.245 C 203.022,74.239 204.512,69.196 204.268,67.543 L 193.086,67.543 C 193.014,69.434 193.578,73.918 196.453,74.246 Z" fill="#007f7f" stroke="none" stroke-width="0.15" stroke-linejoin="round" stroke-linecap="round" marker-start="none" marker-end="none" stroke-miterlimit="79.8403193612775"/>
    <path d="M 208.689,74.246 C 207.307,75.426 207.084,77.5 208.211,78.949 C 209.371,80.44 211.523,80.709 213.015,79.55 C 214.506,78.39 214.774,76.238 213.615,74.746 C 213.47,74.561 213.309,74.393 213.136,74.245 C 215.259,74.239 216.748,69.196 216.504,67.543 L 205.323,67.543 C 205.25,69.434 205.815,73.918 208.689,74.246 Z" fill="#007f7f" stroke="none" stroke-width="0.15" stroke-linejoin="round" stroke-linecap="round" marker-start="none" marker-end="none" stroke-miterlimit="79.8403193612775"/>
    <path d="M 220.926,74.246 C 219.543,75.426 219.32,77.5 220.448,78.949 C 221.608,80.44 223.76,80.709 225.251,79.55 C 226.742,78.39 227.011,76.238 225.851,74.746 C 225.706,74.561 225.545,74.393 225.372,74.245 C 227.495,74.239 228.985,69.196 228.741,67.543 L 217.559,67.543 C 217.487,69.434 218.051,73.918 220.926,74.246 Z" fill="#007f7f" stroke="none" stroke-width="0.15" stroke-linejoin="round" stroke-linecap="round" marker-start="none" marker-end="none" stroke-miterlimit="79.8403193612775"/>
    <path d="M 233.162,74.246 C 231.779,75.426 231.557,77.5 232.684,78.949 C 233.844,80.44 235.996,80.709 237.487,79.55 C 238.979,78.39 239.247,76.238 238.088,74.746 C 237.943,74.561 237.782,74.393 237.609,74.245 C 239.731,74.239 241.221,69.196 240.977,67.543 L 229.796,67.543 C 229.723,69.434 230.287,73.918 233.162,74.246 Z" fill="#007f7f" stroke="none" stroke-width="0.15" stroke-linejoin="round" stroke-linecap="round" marker-start="none" marker-end="none" stroke-miterlimit="79.8403193612775"/>
    <path d="M 245.399,74.246 C 244.016,75.426 243.793,77.5 244.921,78.949 C 246.081,80.44 248.232,80.709 249.724,79.55 C 251.215,78.39 251.483,76.238 250.324,74.746 C 250.179,74.561 250.018,74.393 249.845,74.245 C 251.968,74.239 253.457,69.196 253.214,67.543 L 242.032,67.543 C 241.959,69.434 242.524,73.918 245.399,74.246 Z" fill="#007f7f" stroke="none" stroke-width="0.15" stroke-linejoin="round" stroke-linecap="round" marker-start="none" marker-end="none" stroke-miterlimit="79.8403193612775"/>
    <path d="M 12.907,54.53 C 11.525,55.711 11.302,57.784 12.429,59.234 C 13.589,60.725 15.741,60.994 17.232,59.834 C 18.724,58.674 18.992,56.522 17.833,55.031 C 17.688,54.845 17.527,54.678 17.354,54.53 C 19.477,54.524 20.966,49.481 20.722,47.827 L 9.541,47.827 C 9.468,49.719 10.033,54.202 12.907,54.53 Z" fill="#007f7f" stroke="none" stroke-width="0.15" stroke-linejoin="round" stroke-linecap="round" marker-start="none" marker-end="none" stroke-miterlimit="79.8403193612775"/>
    <path d="M 25.144,54.53 C 23.761,55.711 23.538,57.784 24.666,59.234 C 25.826,60.725 27.978,60.994 29.469,59.834 C 30.96,58.674 31.228,56.522 30.069,55.031 C 29.924,54.845 29.763,54.678 29.59,54.53 C 31.713,54.524 33.203,49.481 32.959,47.827 L 21.777,47.827 C 21.704,49.719 22.269,54.202 25.144,54.53 Z" fill="#007f7f" stroke="none" stroke-width="0.15" stroke-linejoin="round" stroke-linecap="round" marker-start="none" marker-end="none" stroke-miterlimit="79.8403193612775"/>
    <path d="M 37.38,54.53 C 35.997,55.711 35.775,57.784 36.902,59.234 C 38.062,60.725 40.214,60.994 41.705,59.834 C 43.196,58.674 43.465,56.522 42.306,55.031 C 42.16,54.845 42,54.678 41.827,54.53 C 43.949,54.524 45.439,49.481 45.195,47.827 L 34.013,47.827 C 33.941,49.719 34.505,54.202 37.38,54.53 Z" fill="#007f7f" stroke="none" stroke-width="0.15" stroke-linejoin="round" stroke-linecap="round" marker-start="none" marker-end="none" stroke-miterlimit="79.8403193612775"/>
    <path d="M 49.616,54.53 C 48.234,55.711 48.011,57.784 49.138,59.234 C 50.298,60.725 52.45,60.994 53.942,59.834 C 55.433,58.674 55.701,56.522 54.542,55.031 C 54.397,54.845 54.236,54.678 54.063,54.53 C 56.186,54.524 57.675,49.481 57.431,47.827 L 46.25,47.827 C 46.177,49.719 46.742,54.202 49.616,54.53 Z" fill="#007f7f" stroke="none" stroke-width="0.15" stroke-linejoin="round" stroke-linecap="round" marker-start="none" marker-end="none" stroke-miterlimit="79.8403193612775"/>
    <path d="M 61.853,54.53 C 60.47,55.711 60.247,57.784 61.375,59.234 C 62.535,60.725 64.687,60.994 66.178,59.834 C 67.669,58.674 67.938,56.522 66.778,55.031 C 66.633,54.845 66.473,54.678 66.3,54.53 C 68.422,54.524 69.912,49.481 69.668,47.827 L 58.486,47.827 C 58.414,49.719 58.978,54.202 61.853,54.53 Z" fill="#007f7f" stroke="none" stroke-width="0.15" stroke-linejoin="round" stroke-linecap="round" marker-start="none" marker-end="none" stroke-miterlimit="79.8403193612775"/>
    <path d="M 74.089,54.53 C 72.707,55.711 72.484,57.784 73.611,59.234 C 74.771,60.725 76.923,60.994 78.414,59.834 C 79.906,58.674 80.174,56.522 79.015,55.031 C 78.87,54.845 78.709,54.678 78.536,54.53 C 80.659,54.524 82.148,49.481 81.904,47.827 L 70.723,47.827 C 70.65,49.719 71.215,54.202 74.089,54.53 Z" fill="#007f7f" stroke="none" stroke-width="0.15" stroke-linejoin="round" stroke-linecap="round" marker-start="none" marker-end="none" stroke-miterlimit="79.8403193612775"/>
    <path d="M 86.326,54.53 C 84.943,55.711 84.72,57.784 85.848,59.234 C 87.008,60.725 89.16,60.994 90.651,59.834 C 92.142,58.674 92.41,56.522 91.251,55.031 C 91.106,54.845 90.945,54.678 90.772,54.53 C 92.895,54.524 94.384,49.481 94.141,47.827 L 82.959,47.827 C 82.886,49.719 83.451,54.202 86.326,54.53 Z" fill="#007f7f" stroke="none" stroke-width="0.15" stroke-linejoin="round" stroke-linecap="round" marker-start="none" marker-end="none" stroke-miterlimit="79.8403193612775"/>
    <path d="M 98.562,54.53 C 97.179,55.711 96.957,57.784 98.084,59.234 C 99.244,60.725 101.396,60.994 102.887,59.834 C 104.378,58.674 104.647,56.522 103.488,55.031 C 103.342,54.845 103.182,54.678 103.009,54.53 C 105.131,54.524 106.621,49.481 106.377,47.827 L 95.195,47.827 C 95.123,49.719 95.687,54.202 98.562,54.53 Z" fill="#007f7f" stroke="none" stroke-width="0.15" stroke-linejoin="round" stroke-linecap="round" marker-start="none" marker-end="none" stroke-miterlimit="79.8403193612775"/>
    <path d="M 110.798,54.53 C 109.416,55.711 109.193,57.784 110.32,59.234 C 111.48,60.725 113.632,60.994 115.124,59.834 C 116.615,58.674 116.883,56.522 115.724,55.031 C 115.579,54.845 115.418,54.678 115.245,54.53 C 117.368,54.524 118.857,49.481 118.613,47.827 L 107.432,47.827 C 107.359,49.719 107.924,54.202 110.798,54.53 Z" fill="#007f7f" stroke="none" stroke-width="0.15" stroke-linejoin="round" stroke-linecap="round" marker-start="none" marker-end="none" stroke-miterlimit="79.8403193612775"/>
    <path d="M 123.035,54.53 C 121.652,55.711 121.429,57.784 122.557,59.234 C 123.717,60.725 125.869,60.994 127.36,59.834 C 128.851,58.674 129.119,56.522 127.96,55.031 C 127.815,54.845 127.654,54.678 127.481,54.53 C 129.604,54.524 131.094,49.481 130.85,47.827 L 119.668,47.827 C 119.596,49.719 120.16,54.202 123.035,54.53 Z" fill="#007f7f" stroke="none" stroke-width="0.15" stroke-linejoin="round" stroke-linecap="round" marker-start="none" marker-end="none" stroke-miterlimit="79.8403193612775"/>
    <path d="M 135.271,54.53 C 133.888,55.711 133.666,57.784 134.793,59.234 C 135.953,60.725 138.105,60.994 139.596,59.834 C 141.087,58.674 141.356,56.522 140.197,55.031 C 140.051,54.845 139.891,54.678 139.718,54.53 C 141.84,54.524 143.33,49.481 143.086,47.827 L 131.904,47.827 C 131.832,49.719 132.396,54.202 135.271,54.53 Z" fill="#007f7f" stroke="none" stroke-width="0.15" stroke-linejoin="round" stroke-linecap="round" marker-start="none" marker-end="none" stroke-miterlimit="79.8403193612775"/>
    <path d="M 147.508,54.53 C 146.125,55.711 145.902,57.784 147.029,59.234 C 148.189,60.725 150.341,60.994 151.833,59.834 C 153.324,58.674 153.592,56.522 152.433,55.031 C 152.288,54.845 152.127,54.678 151.954,54.53 C 154.077,54.524 155.566,49.481 155.322,47.827 L 144.141,47.827 C 144.068,49.719 144.633,54.202 147.508,54.53 Z" fill="#007f7f" stroke="none" stroke-width="0.15" stroke-linejoin="round" stroke-linecap="round" marker-start="none" marker-end="none" stroke-miterlimit="79.8403193612775"/>
    <path d="M 159.744,54.53 C 158.361,55.711 158.138,57.784 159.266,59.234 C 160.426,60.725 162.578,60.994 164.069,59.834 C 165.56,58.674 165.829,56.522 164.669,55.031 C 164.524,54.845 164.364,54.678 164.191,54.53 C 166.313,54.524 167.803,49.481 167.559,47.827 L 156.377,47.827 C 156.305,49.719 156.869,54.202 159.744,54.53 Z" fill="#007f7f" stroke="none" stroke-width="0.15" stroke-linejoin="round" stroke-linecap="round" marker-start="none" marker-end="none" stroke-miterlimit="79.8403193612775"/>
    <path d="M 171.98,54.53 C 170.598,55.711 170.375,57.784 171.502,59.234 C 172.662,60.725 174.814,60.994 176.305,59.834 C 177.797,58.674 178.065,56.522 176.906,55.031 C 176.761,54.845 176.6,54.678 176.427,54.53 C 178.55,54.524 180.039,49.481 179.795,47.827 L 168.614,47.827 C 168.541,49.719 169.106,54.202 171.98,54.53 Z" fill="#007f7f" stroke="none" stroke-width="0.15" stroke-linejoin="round" stroke-linecap="round" marker-start="none" marker-end="none" stroke-miterlimit="79.8403193612775"/>
    <path d="M 184.217,54.53 C 182.834,55.711 182.611,57.784 183.739,59.234 C 184.899,60.725 187.051,60.994 188.542,59.834 C 190.033,58.674 190.301,56.522 189.142,55.031 C 188.997,54.845 188.836,54.678 188.663,54.53 C 190.786,54.524 192.276,49.481 192.032,47.827 L 180.85,47.827 C 180.777,49.719 181.342,54.202 184.217,54.53 Z" fill="#007f7f" stroke="none" stroke-width="0.15" stroke-linejoin="round" stroke-linecap="round" marker-start="none" marker-end="none" stroke-miterlimit="79.8403193612775"/>
    <path d="M 196.453,54.53 C 195.07,55.711 194.848,57.784 195.975,59.234 C 197.135,60.725 199.287,60.994 200.778,59.834 C 202.269,58.674 202.538,56.522 201.379,55.031 C 201.233,54.845 201.073,54.678 200.9,54.53 C 203.022,54.524 204.512,49.481 204.268,47.827 L 193.086,47.827 C 193.014,49.719 193.578,54.202 196.453,54.53 Z" fill="#ff8200" stroke="none" stroke-width="0.15" stroke-linejoin="round" stroke-linecap="round" marker-start="none" marker-end="none" stroke-miterlimit="79.8403193612775"/>
    <path d="M 208.689,54.53 C 207.307,55.711 207.084,57.784 208.211,59.234 C 209.371,60.725 211.523,60.994 213.015,59.834 C 214.506,58.674 214.774,56.522 213.615,55.031 C 213.47,54.845 213.309,54.678 213.136,54.53 C 215.259,54.524 216.748,49.481 216.504,47.827 L 205.323,47.827 C 205.25,49.719 205.815,54.202 208.689,54.53 Z" fill="#007f7f" stroke="none" stroke-width="0.15" stroke-linejoin="round" stroke-linecap="round" marker-start="none" marker-end="none" stroke-miterlimit="79.8403193612775"/>
    <path d="M 220.926,54.53 C 219.543,55.711 219.32,57.784 220.448,59.234 C 221.608,60.725 223.76,60.994 225.251,59.834 C 226.742,58.674 227.011,56.522 225.851,55.031 C 225.706,54.845 225.545,54.678 225.372,54.53 C 227.495,54.524 228.985,49.481 228.741,47.827 L 217.559,47.827 C 217.487,49.719 218.051,54.202 220.926,54.53 Z" fill="#007f7f" stroke="none" stroke-width="0.15" stroke-linejoin="round" stroke-linecap="round" marker-start="none" marker-end="none" stroke-miterlimit="79.8403193612775"/>
    <path d="M 233.162,54.53 C 231.779,55.711 231.557,57.784 232.684,59.234 C 233.844,60.725 235.996,60.994 237.487,59.834 C 238.979,58.674 239.247,56.522 238.088,55.031 C 237.943,54.845 237.782,54.678 237.609,54.53 C 239.731,54.524 241.221,49.481 240.977,47.827 L 229.796,47.827 C 229.723,49.719 230.287,54.202 233.162,54.53 Z" fill="#007f7f" stroke="none" stroke-width="0.15" stroke-linejoin="round" stroke-linecap="round" marker-start="none" marker-end="none" stroke-miterlimit="79.8403193612775"/>
    <path d="M 245.399,54.53 C 244.016,55.711 243.793,57.784 244.921,59.234 C 246.081,60.725 248.232,60.994 249.724,59.834 C 251.215,58.674 251.483,56.522 250.324,55.031 C 250.179,54.845 250.018,54.678 249.845,54.53 C 251.968,54.524 253.457,49.481 253.214,47.827 L 242.032,47.827 C 241.959,49.719 242.524,54.202 245.399,54.53 Z" fill="#007f7f" stroke="none" stroke-width="0.15" stroke-linejoin="round" stroke-linecap="round" marker-start="none" marker-end="none" stroke-miterlimit="79.8403193612775"/>
    <path d="M 12.907,35.073 C 11.525,36.253 11.302,38.327 12.429,39.777 C 13.589,41.268 15.741,41.536 17.232,40.377 C 18.724,39.217 18.992,37.065 17.833,35.574 C 17.688,35.388 17.527,35.221 17.354,35.072 C 19.477,35.066 20.966,30.023 20.722,28.37 L 9.541,28.37 C 9.468,30.262 10.033,34.745 12.907,35.073 Z" fill="#007f7f" stroke="none" stroke-width="0.15" stroke-linejoin="round" stroke-linecap="round" marker-start="none" marker-end="none" stroke-miterlimit="79.8403193612775"/>
    <path d="M 25.144,35.073 C 23.761,36.253 23.538,38.327 24.666,39.777 C 25.826,41.268 27.978,41.536 29.469,40.377 C 30.96,39.217 31.228,37.065 30.069,35.574 C 29.924,35.388 29.763,35.221 29.59,35.072 C 31.713,35.066 33.203,30.023 32.959,28.37 L 21.777,28.37 C 21.704,30.262 22.269,34.745 25.144,35.073 Z" fill="#007f7f" stroke="none" stroke-width="0.15" stroke-linejoin="round" stroke-linecap="round" marker-start="none" marker-end="none" stroke-miterlimit="79.8403193612775"/>
    <path d="M 37.38,35.073 C 35.997,36.253 35.775,38.327 36.902,39.777 C 38.062,41.268 40.214,41.536 41.705,40.377 C 43.196,39.217 43.465,37.065 42.306,35.574 C 42.16,35.388 42,35.221 41.827,35.072 C 43.949,35.066 45.439,30.023 45.195,28.37 L 34.013,28.37 C 33.941,30.262 34.505,34.745 37.38,35.073 Z" fill="#007f7f" stroke="none" stroke-width="0.15" stroke-linejoin="round" stroke-linecap="round" marker-start="none" marker-end="none" stroke-miterlimit="79.8403193612775"/>
    <path d="M 49.616,35.073 C 48.234,36.253 48.011,38.327 49.138,39.777 C 50.298,41.268 52.45,41.536 53.942,40.377 C 55.433,39.217 55.701,37.065 54.542,35.574 C 54.397,35.388 54.236,35.221 54.063,35.072 C 56.186,35.066 57.675,30.023 57.431,28.37 L 46.25,28.37 C 46.177,30.262 46.742,34.745 49.616,35.073 Z" fill="#007f7f" stroke="none" stroke-width="0.15" stroke-linejoin="round" stroke-linecap="round" marker-start="none" marker-end="none" stroke-miterlimit="79.8403193612775"/>
    <path d="M 61.853,35.073 C 60.47,36.253 60.247,38.327 61.375,39.777 C 62.535,41.268 64.687,41.536 66.178,40.377 C 67.669,39.217 67.938,37.065 66.778,35.574 C 66.633,35.388 66.473,35.221 66.3,35.072 C 68.422,35.066 69.912,30.023 69.668,28.37 L 58.486,28.37 C 58.414,30.262 58.978,34.745 61.853,35.073 Z" fill="#007f7f" stroke="none" stroke-width="0.15" stroke-linejoin="round" stroke-linecap="round" marker-start="none" marker-end="none" stroke-miterlimit="79.8403193612775"/>
    <path d="M 74.089,35.073 C 72.707,36.253 72.484,38.327 73.611,39.777 C 74.771,41.268 76.923,41.536 78.414,40.377 C 79.906,39.217 80.174,37.065 79.015,35.574 C 78.87,35.388 78.709,35.221 78.536,35.072 C 80.659,35.066 82.148,30.023 81.904,28.37 L 70.723,28.37 C 70.65,30.262 71.215,34.745 74.089,35.073 Z" fill="#007f7f" stroke="none" stroke-width="0.15" stroke-linejoin="round" stroke-linecap="round" marker-start="none" marker-end="none" stroke-miterlimit="79.8403193612775"/>
    <path d="M 86.326,35.073 C 84.943,36.253 84.72,38.327 85.848,39.777 C 87.008,41.268 89.16,41.536 90.651,40.377 C 92.142,39.217 92.41,37.065 91.251,35.574 C 91.106,35.388 90.945,35.221 90.772,35.072 C 92.895,35.066 94.384,30.023 94.141,28.37 L 82.959,28.37 C 82.886,30.262 83.451,34.745 86.326,35.073 Z" fill="#007f7f" stroke="none" stroke-width="0.15" stroke-linejoin="round" stroke-linecap="round" marker-start="none" marker-end="none" stroke-miterlimit="79.8403193612775"/>
    <path d="M 98.562,35.073 C 97.179,36.253 96.957,38.327 98.084,39.777 C 99.244,41.268 101.396,41.536 102.887,40.377 C 104.378,39.217 104.647,37.065 103.488,35.574 C 103.342,35.388 103.182,35.221 103.009,35.072 C 105.131,35.066 106.621,30.023 106.377,28.37 L 95.195,28.37 C 95.123,30.262 95.687,34.745 98.562,35.073 Z" fill="#007f7f" stroke="none" stroke-width="0.15" stroke-linejoin="round" stroke-linecap="round" marker-start="none" marker-end="none" stroke-miterlimit="79.8403193612775"/>
    <path d="M 110.798,35.073 C 109.416,36.253 109.193,38.327 110.32,39.777 C 111.48,41.268 113.632,41.536 115.124,40.377 C 116.615,39.217 116.883,37.065 115.724,35.574 C 115.579,35.388 115.418,35.221 115.245,35.072 C 117.368,35.066 118.857,30.023 118.613,28.37 L 107.432,28.37 C 107.359,30.262 107.924,34.745 110.798,35.073 Z" fill="#007f7f" stroke="none" stroke-width="0.15" stroke-linejoin="round" stroke-linecap="round" marker-start="none" marker-end="none" stroke-miterlimit="79.8403193612775"/>
    <path d="M 123.035,35.073 C 121.652,36.253 121.429,38.327 122.557,39.777 C 123.717,41.268 125.869,41.536 127.36,40.377 C 128.851,39.217 129.119,37.065 127.96,35.574 C 127.815,35.388 127.654,35.221 127.481,35.072 C 129.604,35.066 131.094,30.023 130.85,28.37 L 119.668,28.37 C 119.596,30.262 120.16,34.745 123.035,35.073 Z" fill="#007f7f" stroke="none" stroke-width="0.15" stroke-linejoin="round" stroke-linecap="round" marker-start="none" marker-end="none" stroke-miterlimit="79.8403193612775"/>
    <path d="M 135.271,35.073 C 133.888,36.253 133.666,38.327 134.793,39.777 C 135.953,41.268 138.105,41.536 139.596,40.377 C 141.087,39.217 141.356,37.065 140.197,35.574 C 140.051,35.388 139.891,35.221 139.718,35.072 C 141.84,35.066 143.33,30.023 143.086,28.37 L 131.904,28.37 C 131.832,30.262 132.396,34.745 135.271,35.073 Z" fill="#007f7f" stroke="none" stroke-width="0.15" stroke-linejoin="round" stroke-linecap="round" marker-start="none" marker-end="none" stroke-miterlimit="79.8403193612775"/>
    <path d="M 147.508,35.073 C 146.125,36.253 145.902,38.327 147.029,39.777 C 148.189,41.268 150.341,41.536 151.833,40.377 C 153.324,39.217 153.592,37.065 152.433,35.574 C 152.288,35.388 152.127,35.221 151.954,35.072 C 154.077,35.066 155.566,30.023 155.322,28.37 L 144.141,28.37 C 144.068,30.262 144.633,34.745 147.508,35.073 Z" fill="#007f7f" stroke="none" stroke-width="0.15" stroke-linejoin="round" stroke-linecap="round" marker-start="none" marker-end="none" stroke-miterlimit="79.8403193612775"/>
    <path d="M 159.744,35.073 C 158.361,36.253 158.138,38.327 159.266,39.777 C 160.426,41.268 162.578,41.536 164.069,40.377 C 165.56,39.217 165.829,37.065 164.669,35.574 C 164.524,35.388 164.364,35.221 164.191,35.072 C 166.313,35.066 167.803,30.023 167.559,28.37 L 156.377,28.37 C 156.305,30.262 156.869,34.745 159.744,35.073 Z" fill="#007f7f" stroke="none" stroke-width="0.15" stroke-linejoin="round" stroke-linecap="round" marker-start="none" marker-end="none" stroke-miterlimit="79.8403193612775"/>
    <path d="M 171.98,35.073 C 170.598,36.253 170.375,38.327 171.502,39.777 C 172.662,41.268 174.814,41.536 176.305,40.377 C 177.797,39.217 178.065,37.065 176.906,35.574 C 176.761,35.388 176.6,35.221 176.427,35.072 C 178.55,35.066 180.039,30.023 179.795,28.37 L 168.614,28.37 C 168.541,30.262 169.106,34.745 171.98,35.073 Z" fill="#007f7f" stroke="none" stroke-width="0.15" stroke-linejoin="round" stroke-linecap="round" marker-start="none" marker-end="none" stroke-miterlimit="79.8403193612775"/>
    <path d="M 184.217,35.073 C 182.834,36.253 182.611,38.327 183.739,39.777 C 184.899,41.268 187.051,41.536 188.542,40.377 C 190.033,39.217 190.301,37.065 189.142,35.574 C 188.997,35.388 188.836,35.221 188.663,35.072 C 190.786,35.066 192.276,30.023 192.032,28.37 L 180.85,28.37 C 180.777,30.262 181.342,34.745 184.217,35.073 Z" fill="#007f7f" stroke="none" stroke-width="0.15" stroke-linejoin="round" stroke-linecap="round" marker-start="none" marker-end="none" stroke-miterlimit="79.8403193612775"/>
    <path d="M 196.453,35.073 C 195.07,36.253 194.848,38.327 195.975,39.777 C 197.135,41.268 199.287,41.536 200.778,40.377 C 202.269,39.217 202.538,37.065 201.379,35.574 C 201.233,35.388 201.073,35.221 200.9,35.072 C 203.022,35.066 204.512,30.023 204.268,28.37 L 193.086,28.37 C 193.014,30.262 193.578,34.745 196.453,35.073 Z" fill="#007f7f" stroke="none" stroke-width="0.15" stroke-linejoin="round" stroke-linecap="round" marker-start="none" marker-end="none" stroke-miterlimit="79.8403193612775"/>
    <path d="M 208.689,35.073 C 207.307,36.253 207.084,38.327 208.211,39.777 C 209.371,41.268 211.523,41.536 213.015,40.377 C 214.506,39.217 214.774,37.065 213.615,35.574 C 213.47,35.388 213.309,35.221 213.136,35.072 C 215.259,35.066 216.748,30.023 216.504,28.37 L 205.323,28.37 C 205.25,30.262 205.815,34.745 208.689,35.073 Z" fill="#007f7f" stroke="none" stroke-width="0.15" stroke-linejoin="round" stroke-linecap="round" marker-start="none" marker-end="none" stroke-miterlimit="79.8403193612775"/>
    <path d="M 220.926,35.073 C 219.543,36.253 219.32,38.327 220.448,39.777 C 221.608,41.268 223.76,41.536 225.251,40.377 C 226.742,39.217 227.011,37.065 225.851,35.574 C 225.706,35.388 225.545,35.221 225.372,35.072 C 227.495,35.066 228.985,30.023 228.741,28.37 L 217.559,28.37 C 217.487,30.262 218.051,34.745 220.926,35.073 Z" fill="#007f7f" stroke="none" stroke-width="0.15" stroke-linejoin="round" stroke-linecap="round" marker-start="none" marker-end="none" stroke-miterlimit="79.8403193612775"/>
    <path d="M 233.162,35.073 C 231.779,36.253 231.557,38.327 232.684,39.777 C 233.844,41.268 235.996,41.536 237.487,40.377 C 238.979,39.217 239.247,37.065 238.088,35.574 C 237.943,35.388 237.782,35.221 237.609,35.072 C 239.731,35.066 241.221,30.023 240.977,28.37 L 229.796,28.37 C 229.723,30.262 230.287,34.745 233.162,35.073 Z" fill="#007f7f" stroke="none" stroke-width="0.15" stroke-linejoin="round" stroke-linecap="round" marker-start="none" marker-end="none" stroke-miterlimit="79.8403193612775"/>
    <path d="M 245.399,35.073 C 244.016,36.253 243.793,38.327 244.921,39.777 C 246.081,41.268 248.232,41.536 249.724,40.377 C 251.215,39.217 251.483,37.065 250.324,35.574 C 250.179,35.388 250.018,35.221 249.845,35.072 C 251.968,35.066 253.457,30.023 253.214,28.37 L 242.032,28.37 C 241.959,30.262 242.524,34.745 245.399,35.073 Z" fill="#007f7f" stroke="none" stroke-width="0.15" stroke-linejoin="round" stroke-linecap="round" marker-start="none" marker-end="none" stroke-miterlimit="79.8403193612775"/>
    <path d="M 12.907,14.762 C 11.525,15.943 11.302,18.016 12.429,19.466 C 13.589,20.957 15.741,21.225 17.232,20.066 C 18.724,18.906 18.992,16.754 17.833,15.263 C 17.688,15.077 17.527,14.91 17.354,14.761 C 19.477,14.756 20.966,9.713 20.722,8.059 L 9.541,8.059 C 9.468,9.951 10.033,14.434 12.907,14.762 Z" fill="#007f7f" stroke="none" stroke-width="0.15" stroke-linejoin="round" stroke-linecap="round" marker-start="none" marker-end="none" stroke-miterlimit="79.8403193612775"/>
    <path d="M 25.144,14.762 C 23.761,15.943 23.538,18.016 24.666,19.466 C 25.826,20.957 27.978,21.225 29.469,20.066 C 30.96,18.906 31.228,16.754 30.069,15.263 C 29.924,15.077 29.763,14.91 29.59,14.761 C 31.713,14.756 33.203,9.713 32.959,8.059 L 21.777,8.059 C 21.704,9.951 22.269,14.434 25.144,14.762 Z" fill="#007f7f" stroke="none" stroke-width="0.15" stroke-linejoin="round" stroke-linecap="round" marker-start="none" marker-end="none" stroke-miterlimit="79.8403193612775"/>
    <path d="M 37.38,14.762 C 35.997,15.943 35.775,18.016 36.902,19.466 C 38.062,20.957 40.214,21.225 41.705,20.066 C 43.196,18.906 43.465,16.754 42.306,15.263 C 42.16,15.077 42,14.91 41.827,14.761 C 43.949,14.756 45.439,9.713 45.195,8.059 L 34.013,8.059 C 33.941,9.951 34.505,14.434 37.38,14.762 Z" fill="#007f7f" stroke="none" stroke-width="0.15" stroke-linejoin="round" stroke-linecap="round" marker-start="none" marker-end="none" stroke-miterlimit="79.8403193612775"/>
    <path d="M 49.616,14.762 C 48.234,15.943 48.011,18.016 49.138,19.466 C 50.298,20.957 52.45,21.225 53.942,20.066 C 55.433,18.906 55.701,16.754 54.542,15.263 C 54.397,15.077 54.236,14.91 54.063,14.761 C 56.186,14.756 57.675,9.713 57.431,8.059 L 46.25,8.059 C 46.177,9.951 46.742,14.434 49.616,14.762 Z" fill="#007f7f" stroke="none" stroke-width="0.15" stroke-linejoin="round" stroke-linecap="round" marker-start="none" marker-end="none" stroke-miterlimit="79.8403193612775"/>
    <path d="M 61.853,14.762 C 60.47,15.943 60.247,18.016 61.375,19.466 C 62.535,20.957 64.687,21.225 66.178,20.066 C 67.669,18.906 67.938,16.754 66.778,15.263 C 66.633,15.077 66.473,14.91 66.3,14.761 C 68.422,14.756 69.912,9.713 69.668,8.059 L 58.486,8.059 C 58.414,9.951 58.978,14.434 61.853,14.762 Z" fill="#007f7f" stroke="none" stroke-width="0.15" stroke-linejoin="round" stroke-linecap="round" marker-start="none" marker-end="none" stroke-miterlimit="79.8403193612775"/>
    <path d="M 74.089,14.762 C 72.707,15.943 72.484,18.016 73.611,19.466 C 74.771,20.957 76.923,21.225 78.414,20.066 C 79.906,18.906 80.174,16.754 79.015,15.263 C 78.87,15.077 78.709,14.91 78.536,14.761 C 80.659,14.756 82.148,9.713 81.904,8.059 L 70.723,8.059 C 70.65,9.951 71.215,14.434 74.089,14.762 Z" fill="#007f7f" stroke="none" stroke-width="0.15" stroke-linejoin="round" stroke-linecap="round" marker-start="none" marker-end="none" stroke-miterlimit="79.8403193612775"/>
    <path d="M 86.326,14.762 C 84.943,15.943 84.72,18.016 85.848,19.466 C 87.008,20.957 89.16,21.225 90.651,20.066 C 92.142,18.906 92.41,16.754 91.251,15.263 C 91.106,15.077 90.945,14.91 90.772,14.761 C 92.895,14.756 94.384,9.713 94.141,8.059 L 82.959,8.059 C 82.886,9.951 83.451,14.434 86.326,14.762 Z" fill="#007f7f" stroke="none" stroke-width="0.15" stroke-linejoin="round" stroke-linecap="round" marker-start="none" marker-end="none" stroke-miterlimit="79.8403193612775"/>
    <path d="M 98.562,14.762 C 97.179,15.943 96.957,18.016 98.084,19.466 C 99.244,20.957 101.396,21.225 102.887,20.066 C 104.378,18.906 104.647,16.754 103.488,15.263 C 103.342,15.077 103.182,14.91 103.009,14.761 C 105.131,14.756 106.621,9.713 106.377,8.059 L 95.195,8.059 C 95.123,9.951 95.687,14.434 98.562,14.762 Z" fill="#007f7f" stroke="none" stroke-width="0.15" stroke-linejoin="round" stroke-linecap="round" marker-start="none" marker-end="none" stroke-miterlimit="79.8403193612775"/>
    <path d="M 110.798,14.762 C 109.416,15.943 109.193,18.016 110.32,19.466 C 111.48,20.957 113.632,21.225 115.124,20.066 C 116.615,18.906 116.883,16.754 115.724,15.263 C 115.579,15.077 115.418,14.91 115.245,14.761 C 117.368,14.756 118.857,9.713 118.613,8.059 L 107.432,8.059 C 107.359,9.951 107.924,14.434 110.798,14.762 Z" fill="#007f7f" stroke="none" stroke-width="0.15" stroke-linejoin="round" stroke-linecap="round" marker-start="none" marker-end="none" stroke-miterlimit="79.8403193612775"/>
    <path d="M 123.035,14.762 C 121.652,15.943 121.429,18.016 122.557,19.466 C 123.717,20.957 125.869,21.225 127.36,20.066 C 128.851,18.906 129.119,16.754 127.96,15.263 C 127.815,15.077 127.654,14.91 127.481,14.761 C 129.604,14.756 131.094,9.713 130.85,8.059 L 119.668,8.059 C 119.596,9.951 120.16,14.434 123.035,14.762 Z" fill="#007f7f" stroke="none" stroke-width="0.15" stroke-linejoin="round" stroke-linecap="round" marker-start="none" marker-end="none" stroke-miterlimit="79.8403193612775"/>
    <path d="M 135.271,14.762 C 133.888,15.943 133.666,18.016 134.793,19.466 C 135.953,20.957 138.105,21.225 139.596,20.066 C 141.087,18.906 141.356,16.754 140.197,15.263 C 140.051,15.077 139.891,14.91 139.718,14.761 C 141.84,14.756 143.33,9.713 143.086,8.059 L 131.904,8.059 C 131.832,9.951 132.396,14.434 135.271,14.762 Z" fill="#007f7f" stroke="none" stroke-width="0.15" stroke-linejoin="round" stroke-linecap="round" marker-start="none" marker-end="none" stroke-miterlimit="79.8403193612775"/>
    <path d="M 147.508,14.762 C 146.125,15.943 145.902,18.016 147.029,19.466 C 148.189,20.957 150.341,21.225 151.833,20.066 C 153.324,18.906 153.592,16.754 152.433,15.263 C 152.288,15.077 152.127,14.91 151.954,14.761 C 154.077,14.756 155.566,9.713 155.322,8.059 L 144.141,8.059 C 144.068,9.951 144.633,14.434 147.508,14.762 Z" fill="#007f7f" stroke="none" stroke-width="0.15" stroke-linejoin="round" stroke-linecap="round" marker-start="none" marker-end="none" stroke-miterlimit="79.8403193612775"/>
    <path d="M 159.744,14.762 C 158.361,15.943 158.138,18.016 159.266,19.466 C 160.426,20.957 162.578,21.225 164.069,20.066 C 165.56,18.906 165.829,16.754 164.669,15.263 C 164.524,15.077 164.364,14.91 164.191,14.761 C 166.313,14.756 167.803,9.713 167.559,8.059 L 156.377,8.059 C 156.305,9.951 156.869,14.434 159.744,14.762 Z" fill="#007f7f" stroke="none" stroke-width="0.15" stroke-linejoin="round" stroke-linecap="round" marker-start="none" marker-end="none" stroke-miterlimit="79.8403193612775"/>
    <path d="M 171.98,14.762 C 170.598,15.943 170.375,18.016 171.502,19.466 C 172.662,20.957 174.814,21.225 176.305,20.066 C 177.797,18.906 178.065,16.754 176.906,15.263 C 176.761,15.077 176.6,14.91 176.427,14.761 C 178.55,14.756 180.039,9.713 179.795,8.059 L 168.614,8.059 C 168.541,9.951 169.106,14.434 171.98,14.762 Z" fill="#007f7f" stroke="none" stroke-width="0.15" stroke-linejoin="round" stroke-linecap="round" marker-start="none" marker-end="none" stroke-miterlimit="79.8403193612775"/>
    <path d="M 184.217,14.762 C 182.834,15.943 182.611,18.016 183.739,19.466 C 184.899,20.957 187.051,21.225 188.542,20.066 C 190.033,18.906 190.301,16.754 189.142,15.263 C 188.997,15.077 188.836,14.91 188.663,14.761 C 190.786,14.756 192.276,9.713 192.032,8.059 L 180.85,8.059 C 180.777,9.951 181.342,14.434 184.217,14.762 Z" fill="#007f7f" stroke="none" stroke-width="0.15" stroke-linejoin="round" stroke-linecap="round" marker-start="none" marker-end="none" stroke-miterlimit="79.8403193612775"/>
    <path d="M 196.453,14.762 C 195.07,15.943 194.848,18.016 195.975,19.466 C 197.135,20.957 199.287,21.225 200.778,20.066 C 202.269,18.906 202.538,16.754 201.379,15.263 C 201.233,15.077 201.073,14.91 200.9,14.761 C 203.022,14.756 204.512,9.713 204.268,8.059 L 193.086,8.059 C 193.014,9.951 193.578,14.434 196.453,14.762 Z" fill="#007f7f" stroke="none" stroke-width="0.15" stroke-linejoin="round" stroke-linecap="round" marker-start="none" marker-end="none" stroke-miterlimit="79.8403193612775"/>
    <path d="M 208.689,14.762 C 207.307,15.943 207.084,18.016 208.211,19.466 C 209.371,20.957 211.523,21.225 213.015,20.066 C 214.506,18.906 214.774,16.754 213.615,15.263 C 213.47,15.077 213.309,14.91 213.136,14.761 C 215.259,14.756 216.748,9.713 216.504,8.059 L 205.323,8.059 C 205.25,9.951 205.815,14.434 208.689,14.762 Z" fill="#007f7f" stroke="none" stroke-width="0.15" stroke-linejoin="round" stroke-linecap="round" marker-start="none" marker-end="none" stroke-miterlimit="79.8403193612775"/>
    <path d="M 220.926,14.762 C 219.543,15.943 219.32,18.016 220.448,19.466 C 221.608,20.957 223.76,21.225 225.251,20.066 C 226.742,18.906 227.011,16.754 225.851,15.263 C 225.706,15.077 225.545,14.91 225.372,14.761 C 227.495,14.756 228.985,9.713 228.741,8.059 L 217.559,8.059 C 217.487,9.951 218.051,14.434 220.926,14.762 Z" fill="#007f7f" stroke="none" stroke-width="0.15" stroke-linejoin="round" stroke-linecap="round" marker-start="none" marker-end="none" stroke-miterlimit="79.8403193612775"/>
    <path d="M 233.162,14.762 C 231.779,15.943 231.557,18.016 232.684,19.466 C 233.844,20.957 235.996,21.225 237.487,20.066 C 238.979,18.906 239.247,16.754 238.088,15.263 C 237.943,15.077 237.782,14.91 237.609,14.761 C 239.731,14.756 241.221,9.713 240.977,8.059 L 229.796,8.059 C 229.723,9.951 230.287,14.434 233.162,14.762 Z" fill="#007f7f" stroke="none" stroke-width="0.15" stroke-linejoin="round" stroke-linecap="round" marker-start="none" marker-end="none" stroke-miterlimit="79.8403193612775"/>
    <path d="M 245.399,14.762 C 244.016,15.943 243.793,18.016 244.921,19.466 C 246.081,20.957 248.232,21.225 249.724,20.066 C 251.215,18.906 251.483,16.754 250.324,15.263 C 250.179,15.077 250.018,14.91 249.845,14.761 C 251.968,14.756 253.457,9.713 253.214,8.059 L 242.032,8.059 C 241.959,9.951 242.524,14.434 245.399,14.762 Z" fill="#007f7f" stroke="none" stroke-width="0.15" stroke-linejoin="round" stroke-linecap="round" marker-start="none" marker-end="none" stroke-miterlimit="79.8403193612775"/>
    <path d="M 282.641,61.755 C 279.857,64.131 279.409,68.306 281.679,71.224 C 284.014,74.227 288.347,74.767 291.349,72.433 C 294.351,70.097 294.891,65.765 292.558,62.763 C 292.265,62.389 291.942,62.052 291.594,61.753 C 295.867,61.742 298.867,51.589 298.375,48.259 L 275.863,48.259 C 275.716,52.068 276.853,61.094 282.641,61.755 Z" fill="#ff8200" stroke="none" stroke-width="0.302" stroke-linejoin="round" stroke-linecap="round" marker-start="none" marker-end="none" stroke-miterlimit="79.8403193612775"/>
    <g id="Group" fill-rule="nonzero" stroke-linejoin="round" stroke-linecap="round" stroke="none" stroke-width="0.306" fill="#000000" stroke-miterlimit="79.8403193612775">
     <g id="Group_1">
      <path d="M 308.763,60.675 L 308.763,71.408 L 310.41,71.408 L 310.41,66.146 L 314.904,71.408 L 316.567,71.408 L 312.234,66.347 L 317.395,60.675 L 315.422,60.675 L 310.41,66.146 L 310.41,60.675 L 308.763,60.675 Z" marker-start="none" marker-end="none"/>
      <path d="M 322.615,60.675 L 322.615,72.646 L 319.11,72.646 L 319.11,73.883 L 324.271,73.883 L 324.271,60.675 L 322.615,60.675 Z" marker-start="none" marker-end="none"/>
      <path d="M 334.969,61.771 C 333.97,60.935 332.975,60.516 331.983,60.516 C 331.152,60.516 330.467,60.754 329.929,61.228 C 329.391,61.702 329.122,62.301 329.121,63.026 C 329.122,63.969 329.541,64.727 330.377,65.301 C 331.213,65.875 332.318,66.163 333.689,66.163 L 334.709,66.163 L 334.709,66.941 C 334.709,67.582 334.567,68.039 334.283,68.313 C 333.999,68.586 333.527,68.722 332.869,68.722 C 331.916,68.722 330.928,68.455 329.908,67.919 L 329.908,69.333 C 331.079,69.752 332.178,69.96 333.204,69.96 C 334.359,69.96 335.174,69.732 335.651,69.274 C 336.127,68.818 336.365,68.028 336.366,66.907 L 336.366,63.102 C 336.365,62.555 336.424,62.182 336.542,61.985 C 336.658,61.787 336.879,61.688 337.202,61.688 C 337.308,61.688 337.481,61.716 337.721,61.771 L 337.871,60.784 C 337.32,60.606 336.901,60.516 336.617,60.516 C 335.803,60.516 335.254,60.935 334.969,61.771 Z M 334.709,62.842 L 334.709,65.134 L 334.216,65.134 C 331.958,65.134 330.828,64.523 330.828,63.302 C 330.828,62.862 330.973,62.508 331.264,62.239 C 331.553,61.972 331.938,61.838 332.418,61.838 C 333.137,61.838 333.901,62.172 334.709,62.842 Z" marker-start="none" marker-end="none"/>
      <path d="M 340.882,60.675 L 340.882,69.76 L 342.53,69.76 L 342.53,68.053 C 343.367,69.325 344.49,69.96 345.902,69.96 C 346.398,69.96 346.961,69.891 347.591,69.752 L 347.591,67.175 L 346.353,67.175 L 346.353,68.438 C 346.108,68.494 345.884,68.521 345.684,68.521 C 345.054,68.521 344.5,68.375 344.024,68.083 C 343.547,67.79 343.049,67.292 342.53,66.59 L 342.53,60.675 L 340.882,60.675 Z" marker-start="none" marker-end="none"/>
      <path d="M 355.612,61.771 C 354.614,60.935 353.619,60.516 352.627,60.516 C 351.795,60.516 351.111,60.754 350.573,61.228 C 350.035,61.702 349.766,62.301 349.765,63.026 C 349.766,63.969 350.184,64.727 351.021,65.301 C 351.857,65.875 352.961,66.163 354.332,66.163 L 355.353,66.163 L 355.353,66.941 C 355.353,67.582 355.211,68.039 354.926,68.313 C 354.642,68.586 354.171,68.722 353.513,68.722 C 352.56,68.722 351.572,68.455 350.551,67.919 L 350.551,69.333 C 351.723,69.752 352.822,69.96 353.848,69.96 C 355.002,69.96 355.817,69.732 356.294,69.274 C 356.771,68.818 357.009,68.028 357.01,66.907 L 357.01,63.102 C 357.009,62.555 357.068,62.182 357.185,61.985 C 357.302,61.787 357.523,61.688 357.846,61.688 C 357.952,61.688 358.125,61.716 358.365,61.771 L 358.515,60.784 C 357.963,60.606 357.545,60.516 357.26,60.516 C 356.446,60.516 355.897,60.935 355.612,61.771 Z M 355.353,62.842 L 355.353,65.134 L 354.859,65.134 C 352.601,65.134 351.472,64.523 351.472,63.302 C 351.472,62.862 351.617,62.508 351.907,62.239 C 352.197,61.972 352.582,61.838 353.062,61.838 C 353.78,61.838 354.545,62.172 355.353,62.842 Z" marker-start="none" marker-end="none"/>
     </g>
    </g>
    <path d="M 309.788,52.037 L 309.788,49.735 C 309.788,48.84 310.515,48.114 311.41,48.114 L 386.478,48.114 C 387.373,48.114 388.1,48.84 388.1,49.735 L 388.1,52.037 C 388.1,52.931 387.373,53.658 386.478,53.658 L 311.41,53.658 C 310.515,53.658 309.788,52.931 309.788,52.037 Z" fill="#b2b2b2" stroke="none" stroke-linecap="round" stroke-linejoin="round" stroke-width="0.302" marker-start="none" marker-end="none" stroke-miterlimit="79.8403193612775"/>
    <path d="M 309.788,42.535 L 309.788,40.233 C 309.788,39.338 310.515,38.612 311.41,38.612 L 371.795,38.612 C 372.69,38.612 373.416,39.338 373.416,40.233 L 373.416,42.535 C 373.416,43.43 372.69,44.156 371.795,44.156 L 311.41,44.156 C 310.515,44.156 309.788,43.43 309.788,42.535 Z" fill="#b2b2b2" stroke="none" stroke-linecap="round" stroke-linejoin="round" stroke-width="0.302" marker-start="none" marker-end="none" stroke-miterlimit="79.8403193612775"/>
    <path d="M 309.787,32.579 L 309.787,30.278 C 309.787,29.383 310.514,28.656 311.409,28.656 L 380.361,28.656 C 381.256,28.656 381.983,29.383 381.983,30.278 L 381.983,32.579 C 381.983,33.474 381.256,34.201 380.361,34.201 L 311.409,34.201 C 310.514,34.201 309.787,33.474 309.787,32.579 Z" fill="#b2b2b2" stroke="none" stroke-linecap="round" stroke-linejoin="round" stroke-width="0.302" marker-start="none" marker-end="none" stroke-miterlimit="79.8403193612775"/>
    <path d="M 308.763,22.224 L 308.763,19.923 C 308.763,19.028 309.489,18.301 310.384,18.301 L 362.816,18.301 C 363.71,18.301 364.437,19.028 364.437,19.923 L 364.437,22.224 C 364.437,23.119 363.71,23.846 362.816,23.846 L 310.384,23.846 C 309.489,23.846 308.763,23.119 308.763,22.224 Z" fill="#b2b2b2" stroke="none" stroke-linecap="round" stroke-linejoin="round" stroke-width="0.302" marker-start="none" marker-end="none" stroke-miterlimit="79.8403193612775"/>
   </g>
  </g>
 </g>
</svg>
