<?xml version="1.0" standalone="no"?>
<!DOCTYPE svg PUBLIC "-//W3C//DTD SVG 1.1//EN" "http://www.w3.org/Graphics/SVG/1.1/DTD/svg11.dtd">
<!--Generator: Xara Designer (www.xara.com), SVG filter version: 6.0.0.4-->
<svg stroke-width="0.501" stroke-linejoin="bevel" fill-rule="evenodd" xmlns:xlink="http://www.w3.org/1999/xlink" xmlns="http://www.w3.org/2000/svg" version="1.1" overflow="visible" width="495.75pt" height="105pt" viewBox="0 0 495.75 105">
 <defs>
	</defs>
 <g id="Document" fill="none" stroke="black" font-family="Times New Roman" font-size="16" transform="scale(1 -1)">
  <g id="Spread" transform="translate(0 -105)">
   <g id="Page background">
    <path d="M 0,104.999 L 0,0 L 495.749,0 L 495.749,104.999 L 0,104.999 Z" stroke-linejoin="bevel" stroke="none" stroke-width="0" marker-start="none" marker-end="none" stroke-miterlimit="79.8403193612775"/>
   </g>
   <g id="MouseOff">
    <path d="M 13.669,89.385 C 11.974,90.832 11.701,93.374 13.083,95.151 C 14.505,96.979 17.143,97.308 18.971,95.887 C 20.799,94.465 21.128,91.827 19.707,89.999 C 19.529,89.771 19.332,89.566 19.12,89.384 C 21.722,89.377 23.548,83.195 23.249,81.168 L 9.542,81.168 C 9.453,83.487 10.145,88.983 13.669,89.385 Z" fill="#00bfbf" stroke="none" stroke-width="0.184" stroke-linejoin="round" stroke-linecap="round" marker-start="none" marker-end="none" stroke-miterlimit="79.8403193612775"/>
    <path d="M 28.669,89.385 C 26.974,90.832 26.701,93.374 28.083,95.151 C 29.505,96.979 32.143,97.308 33.971,95.887 C 35.799,94.465 36.128,91.827 34.707,89.999 C 34.529,89.771 34.332,89.566 34.12,89.384 C 36.722,89.377 38.548,83.195 38.249,81.168 L 24.542,81.168 C 24.453,83.487 25.145,88.983 28.669,89.385 Z" fill="#00bfbf" stroke="none" stroke-width="0.184" stroke-linejoin="round" stroke-linecap="round" marker-start="none" marker-end="none" stroke-miterlimit="79.8403193612775"/>
    <path d="M 43.669,89.385 C 41.974,90.832 41.701,93.374 43.083,95.151 C 44.505,96.979 47.143,97.308 48.971,95.887 C 50.799,94.465 51.128,91.827 49.707,89.999 C 49.529,89.771 49.332,89.566 49.12,89.384 C 51.722,89.377 53.548,83.195 53.249,81.168 L 39.542,81.168 C 39.453,83.487 40.145,88.983 43.669,89.385 Z" fill="#00bfbf" stroke="none" stroke-width="0.184" stroke-linejoin="round" stroke-linecap="round" marker-start="none" marker-end="none" stroke-miterlimit="79.8403193612775"/>
    <path d="M 58.669,89.385 C 56.974,90.832 56.701,93.374 58.083,95.151 C 59.505,96.979 62.143,97.308 63.971,95.887 C 65.799,94.465 66.128,91.827 64.707,89.999 C 64.529,89.771 64.332,89.566 64.12,89.384 C 66.722,89.377 68.548,83.195 68.249,81.168 L 54.542,81.168 C 54.453,83.487 55.145,88.983 58.669,89.385 Z" fill="#00bfbf" stroke="none" stroke-width="0.184" stroke-linejoin="round" stroke-linecap="round" marker-start="none" marker-end="none" stroke-miterlimit="79.8403193612775"/>
    <path d="M 73.669,89.385 C 71.974,90.832 71.701,93.374 73.083,95.151 C 74.505,96.979 77.143,97.308 78.971,95.887 C 80.799,94.465 81.128,91.827 79.707,89.999 C 79.529,89.771 79.332,89.566 79.12,89.384 C 81.722,89.377 83.548,83.195 83.249,81.168 L 69.542,81.168 C 69.453,83.487 70.145,88.983 73.669,89.385 Z" fill="#00bfbf" stroke="none" stroke-width="0.184" stroke-linejoin="round" stroke-linecap="round" marker-start="none" marker-end="none" stroke-miterlimit="79.8403193612775"/>
    <path d="M 88.669,89.385 C 86.974,90.832 86.701,93.374 88.083,95.151 C 89.505,96.979 92.143,97.308 93.971,95.887 C 95.799,94.465 96.128,91.827 94.707,89.999 C 94.529,89.771 94.332,89.566 94.12,89.384 C 96.722,89.377 98.548,83.195 98.249,81.168 L 84.542,81.168 C 84.453,83.487 85.145,88.983 88.669,89.385 Z" fill="#00bfbf" stroke="none" stroke-width="0.184" stroke-linejoin="round" stroke-linecap="round" marker-start="none" marker-end="none" stroke-miterlimit="79.8403193612775"/>
    <path d="M 103.669,89.385 C 101.974,90.832 101.701,93.374 103.083,95.151 C 104.505,96.979 107.143,97.308 108.971,95.887 C 110.799,94.465 111.128,91.827 109.707,89.999 C 109.529,89.771 109.332,89.566 109.12,89.384 C 111.722,89.377 113.548,83.195 113.249,81.168 L 99.542,81.168 C 99.453,83.487 100.145,88.983 103.669,89.385 Z" fill="#00bfbf" stroke="none" stroke-width="0.184" stroke-linejoin="round" stroke-linecap="round" marker-start="none" marker-end="none" stroke-miterlimit="79.8403193612775"/>
    <path d="M 118.669,89.385 C 116.974,90.832 116.701,93.374 118.083,95.151 C 119.505,96.979 122.143,97.308 123.971,95.887 C 125.799,94.465 126.128,91.827 124.707,89.999 C 124.529,89.771 124.332,89.566 124.12,89.384 C 126.722,89.377 128.548,83.195 128.249,81.168 L 114.542,81.168 C 114.453,83.487 115.145,88.983 118.669,89.385 Z" fill="#00bfbf" stroke="none" stroke-width="0.184" stroke-linejoin="round" stroke-linecap="round" marker-start="none" marker-end="none" stroke-miterlimit="79.8403193612775"/>
    <path d="M 133.669,89.385 C 131.974,90.832 131.701,93.374 133.083,95.151 C 134.505,96.979 137.143,97.308 138.971,95.887 C 140.799,94.465 141.128,91.827 139.707,89.999 C 139.529,89.771 139.332,89.566 139.12,89.384 C 141.722,89.377 143.548,83.195 143.249,81.168 L 129.542,81.168 C 129.453,83.487 130.145,88.983 133.669,89.385 Z" fill="#00bfbf" stroke="none" stroke-width="0.184" stroke-linejoin="round" stroke-linecap="round" marker-start="none" marker-end="none" stroke-miterlimit="79.8403193612775"/>
    <path d="M 148.669,89.385 C 146.974,90.832 146.701,93.374 148.083,95.151 C 149.505,96.979 152.143,97.308 153.971,95.887 C 155.799,94.465 156.128,91.827 154.707,89.999 C 154.529,89.771 154.332,89.566 154.12,89.384 C 156.722,89.377 158.548,83.195 158.249,81.168 L 144.542,81.168 C 144.453,83.487 145.145,88.983 148.669,89.385 Z" fill="#00bfbf" stroke="none" stroke-width="0.184" stroke-linejoin="round" stroke-linecap="round" marker-start="none" marker-end="none" stroke-miterlimit="79.8403193612775"/>
    <path d="M 163.669,89.385 C 161.974,90.832 161.701,93.374 163.083,95.151 C 164.505,96.979 167.143,97.308 168.971,95.887 C 170.799,94.465 171.128,91.827 169.707,89.999 C 169.529,89.771 169.332,89.566 169.12,89.384 C 171.722,89.377 173.548,83.195 173.249,81.168 L 159.542,81.168 C 159.453,83.487 160.145,88.983 163.669,89.385 Z" fill="#00bfbf" stroke="none" stroke-width="0.184" stroke-linejoin="round" stroke-linecap="round" marker-start="none" marker-end="none" stroke-miterlimit="79.8403193612775"/>
    <path d="M 178.669,89.385 C 176.974,90.832 176.701,93.374 178.083,95.151 C 179.505,96.979 182.143,97.308 183.971,95.887 C 185.799,94.465 186.128,91.827 184.707,89.999 C 184.529,89.771 184.332,89.566 184.12,89.384 C 186.722,89.377 188.548,83.195 188.249,81.168 L 174.542,81.168 C 174.453,83.487 175.145,88.983 178.669,89.385 Z" fill="#00bfbf" stroke="none" stroke-width="0.184" stroke-linejoin="round" stroke-linecap="round" marker-start="none" marker-end="none" stroke-miterlimit="79.8403193612775"/>
    <path d="M 193.669,89.385 C 191.974,90.832 191.701,93.374 193.083,95.151 C 194.505,96.979 197.143,97.308 198.971,95.887 C 200.799,94.465 201.128,91.827 199.707,89.999 C 199.529,89.771 199.332,89.566 199.12,89.384 C 201.722,89.377 203.548,83.195 203.249,81.168 L 189.542,81.168 C 189.453,83.487 190.145,88.983 193.669,89.385 Z" fill="#00bfbf" stroke="none" stroke-width="0.184" stroke-linejoin="round" stroke-linecap="round" marker-start="none" marker-end="none" stroke-miterlimit="79.8403193612775"/>
    <path d="M 208.669,89.385 C 206.974,90.832 206.701,93.374 208.083,95.151 C 209.505,96.979 212.143,97.308 213.971,95.887 C 215.799,94.465 216.128,91.827 214.707,89.999 C 214.529,89.771 214.332,89.566 214.12,89.384 C 216.722,89.377 218.548,83.195 218.249,81.168 L 204.542,81.168 C 204.453,83.487 205.145,88.983 208.669,89.385 Z" fill="#00bfbf" stroke="none" stroke-width="0.184" stroke-linejoin="round" stroke-linecap="round" marker-start="none" marker-end="none" stroke-miterlimit="79.8403193612775"/>
    <path d="M 223.669,89.385 C 221.974,90.832 221.701,93.374 223.083,95.151 C 224.505,96.979 227.143,97.308 228.971,95.887 C 230.799,94.465 231.128,91.827 229.707,89.999 C 229.529,89.771 229.332,89.566 229.12,89.384 C 231.722,89.377 233.548,83.195 233.249,81.168 L 219.542,81.168 C 219.453,83.487 220.145,88.983 223.669,89.385 Z" fill="#00bfbf" stroke="none" stroke-width="0.184" stroke-linejoin="round" stroke-linecap="round" marker-start="none" marker-end="none" stroke-miterlimit="79.8403193612775"/>
    <path d="M 238.669,89.385 C 236.974,90.832 236.701,93.374 238.083,95.151 C 239.505,96.979 242.143,97.308 243.971,95.887 C 245.799,94.465 246.128,91.827 244.707,89.999 C 244.529,89.771 244.332,89.566 244.12,89.384 C 246.722,89.377 248.548,83.195 248.249,81.168 L 234.542,81.168 C 234.453,83.487 235.145,88.983 238.669,89.385 Z" fill="#00bfbf" stroke="none" stroke-width="0.184" stroke-linejoin="round" stroke-linecap="round" marker-start="none" marker-end="none" stroke-miterlimit="79.8403193612775"/>
    <path d="M 253.669,89.385 C 251.974,90.832 251.701,93.374 253.083,95.151 C 254.505,96.979 257.143,97.308 258.971,95.887 C 260.799,94.465 261.128,91.827 259.707,89.999 C 259.529,89.771 259.332,89.566 259.12,89.384 C 261.722,89.377 263.548,83.195 263.249,81.168 L 249.542,81.168 C 249.453,83.487 250.145,88.983 253.669,89.385 Z" fill="#00bfbf" stroke="none" stroke-width="0.184" stroke-linejoin="round" stroke-linecap="round" marker-start="none" marker-end="none" stroke-miterlimit="79.8403193612775"/>
    <path d="M 268.669,89.385 C 266.974,90.832 266.701,93.374 268.083,95.151 C 269.505,96.979 272.143,97.308 273.971,95.887 C 275.799,94.465 276.128,91.827 274.707,89.999 C 274.529,89.771 274.332,89.566 274.12,89.384 C 276.722,89.377 278.548,83.195 278.249,81.168 L 264.542,81.168 C 264.453,83.487 265.145,88.983 268.669,89.385 Z" fill="#00bfbf" stroke="none" stroke-width="0.184" stroke-linejoin="round" stroke-linecap="round" marker-start="none" marker-end="none" stroke-miterlimit="79.8403193612775"/>
    <path d="M 283.669,89.385 C 281.974,90.832 281.701,93.374 283.083,95.151 C 284.505,96.979 287.143,97.308 288.971,95.887 C 290.799,94.465 291.128,91.827 289.707,89.999 C 289.529,89.771 289.332,89.566 289.12,89.384 C 291.722,89.377 293.548,83.195 293.249,81.168 L 279.542,81.168 C 279.453,83.487 280.145,88.983 283.669,89.385 Z" fill="#00bfbf" stroke="none" stroke-width="0.184" stroke-linejoin="round" stroke-linecap="round" marker-start="none" marker-end="none" stroke-miterlimit="79.8403193612775"/>
    <path d="M 298.669,89.385 C 296.974,90.832 296.701,93.374 298.083,95.151 C 299.505,96.979 302.143,97.308 303.971,95.887 C 305.799,94.465 306.128,91.827 304.707,89.999 C 304.529,89.771 304.332,89.566 304.12,89.384 C 306.722,89.377 308.548,83.195 308.249,81.168 L 294.542,81.168 C 294.453,83.487 295.145,88.983 298.669,89.385 Z" fill="#00bfbf" stroke="none" stroke-width="0.184" stroke-linejoin="round" stroke-linecap="round" marker-start="none" marker-end="none" stroke-miterlimit="79.8403193612775"/>
    <path d="M 13.669,65.217 C 11.974,66.664 11.701,69.206 13.083,70.983 C 14.505,72.811 17.143,73.14 18.971,71.719 C 20.799,70.297 21.128,67.659 19.707,65.831 C 19.529,65.603 19.332,65.398 19.12,65.216 C 21.722,65.209 23.548,59.027 23.249,57 L 9.542,57 C 9.453,59.319 10.145,64.815 13.669,65.217 Z" fill="#00bfbf" stroke="none" stroke-width="0.184" stroke-linejoin="round" stroke-linecap="round" marker-start="none" marker-end="none" stroke-miterlimit="79.8403193612775"/>
    <path d="M 28.669,65.217 C 26.974,66.664 26.701,69.206 28.083,70.983 C 29.505,72.811 32.143,73.14 33.971,71.719 C 35.799,70.297 36.128,67.659 34.707,65.831 C 34.529,65.603 34.332,65.398 34.12,65.216 C 36.722,65.209 38.548,59.027 38.249,57 L 24.542,57 C 24.453,59.319 25.145,64.815 28.669,65.217 Z" fill="#00bfbf" stroke="none" stroke-width="0.184" stroke-linejoin="round" stroke-linecap="round" marker-start="none" marker-end="none" stroke-miterlimit="79.8403193612775"/>
    <path d="M 43.669,65.217 C 41.974,66.664 41.701,69.206 43.083,70.983 C 44.505,72.811 47.143,73.14 48.971,71.719 C 50.799,70.297 51.128,67.659 49.707,65.831 C 49.529,65.603 49.332,65.398 49.12,65.216 C 51.722,65.209 53.548,59.027 53.249,57 L 39.542,57 C 39.453,59.319 40.145,64.815 43.669,65.217 Z" fill="#00bfbf" stroke="none" stroke-width="0.184" stroke-linejoin="round" stroke-linecap="round" marker-start="none" marker-end="none" stroke-miterlimit="79.8403193612775"/>
    <path d="M 58.669,65.217 C 56.974,66.664 56.701,69.206 58.083,70.983 C 59.505,72.811 62.143,73.14 63.971,71.719 C 65.799,70.297 66.128,67.659 64.707,65.831 C 64.529,65.603 64.332,65.398 64.12,65.216 C 66.722,65.209 68.548,59.027 68.249,57 L 54.542,57 C 54.453,59.319 55.145,64.815 58.669,65.217 Z" fill="#00bfbf" stroke="none" stroke-width="0.184" stroke-linejoin="round" stroke-linecap="round" marker-start="none" marker-end="none" stroke-miterlimit="79.8403193612775"/>
    <path d="M 73.669,65.217 C 71.974,66.664 71.701,69.206 73.083,70.983 C 74.505,72.811 77.143,73.14 78.971,71.719 C 80.799,70.297 81.128,67.659 79.707,65.831 C 79.529,65.603 79.332,65.398 79.12,65.216 C 81.722,65.209 83.548,59.027 83.249,57 L 69.542,57 C 69.453,59.319 70.145,64.815 73.669,65.217 Z" fill="#00bfbf" stroke="none" stroke-width="0.184" stroke-linejoin="round" stroke-linecap="round" marker-start="none" marker-end="none" stroke-miterlimit="79.8403193612775"/>
    <path d="M 88.669,65.217 C 86.974,66.664 86.701,69.206 88.083,70.983 C 89.505,72.811 92.143,73.14 93.971,71.719 C 95.799,70.297 96.128,67.659 94.707,65.831 C 94.529,65.603 94.332,65.398 94.12,65.216 C 96.722,65.209 98.548,59.027 98.249,57 L 84.542,57 C 84.453,59.319 85.145,64.815 88.669,65.217 Z" fill="#00bfbf" stroke="none" stroke-width="0.184" stroke-linejoin="round" stroke-linecap="round" marker-start="none" marker-end="none" stroke-miterlimit="79.8403193612775"/>
    <path d="M 103.669,65.217 C 101.974,66.664 101.701,69.206 103.083,70.983 C 104.505,72.811 107.143,73.14 108.971,71.719 C 110.799,70.297 111.128,67.659 109.707,65.831 C 109.529,65.603 109.332,65.398 109.12,65.216 C 111.722,65.209 113.548,59.027 113.249,57 L 99.542,57 C 99.453,59.319 100.145,64.815 103.669,65.217 Z" fill="#00bfbf" stroke="none" stroke-width="0.184" stroke-linejoin="round" stroke-linecap="round" marker-start="none" marker-end="none" stroke-miterlimit="79.8403193612775"/>
    <path d="M 118.669,65.217 C 116.974,66.664 116.701,69.206 118.083,70.983 C 119.505,72.811 122.143,73.14 123.971,71.719 C 125.799,70.297 126.128,67.659 124.707,65.831 C 124.529,65.603 124.332,65.398 124.12,65.216 C 126.722,65.209 128.548,59.027 128.249,57 L 114.542,57 C 114.453,59.319 115.145,64.815 118.669,65.217 Z" fill="#00bfbf" stroke="none" stroke-width="0.184" stroke-linejoin="round" stroke-linecap="round" marker-start="none" marker-end="none" stroke-miterlimit="79.8403193612775"/>
    <path d="M 133.669,65.217 C 131.974,66.664 131.701,69.206 133.083,70.983 C 134.505,72.811 137.143,73.14 138.971,71.719 C 140.799,70.297 141.128,67.659 139.707,65.831 C 139.529,65.603 139.332,65.398 139.12,65.216 C 141.722,65.209 143.548,59.027 143.249,57 L 129.542,57 C 129.453,59.319 130.145,64.815 133.669,65.217 Z" fill="#00bfbf" stroke="none" stroke-width="0.184" stroke-linejoin="round" stroke-linecap="round" marker-start="none" marker-end="none" stroke-miterlimit="79.8403193612775"/>
    <path d="M 148.669,65.217 C 146.974,66.664 146.701,69.206 148.083,70.983 C 149.505,72.811 152.143,73.14 153.971,71.719 C 155.799,70.297 156.128,67.659 154.707,65.831 C 154.529,65.603 154.332,65.398 154.12,65.216 C 156.722,65.209 158.548,59.027 158.249,57 L 144.542,57 C 144.453,59.319 145.145,64.815 148.669,65.217 Z" fill="#00bfbf" stroke="none" stroke-width="0.184" stroke-linejoin="round" stroke-linecap="round" marker-start="none" marker-end="none" stroke-miterlimit="79.8403193612775"/>
    <path d="M 163.669,65.217 C 161.974,66.664 161.701,69.206 163.083,70.983 C 164.505,72.811 167.143,73.14 168.971,71.719 C 170.799,70.297 171.128,67.659 169.707,65.831 C 169.529,65.603 169.332,65.398 169.12,65.216 C 171.722,65.209 173.548,59.027 173.249,57 L 159.542,57 C 159.453,59.319 160.145,64.815 163.669,65.217 Z" fill="#00bfbf" stroke="none" stroke-width="0.184" stroke-linejoin="round" stroke-linecap="round" marker-start="none" marker-end="none" stroke-miterlimit="79.8403193612775"/>
    <path d="M 178.669,65.217 C 176.974,66.664 176.701,69.206 178.083,70.983 C 179.505,72.811 182.143,73.14 183.971,71.719 C 185.799,70.297 186.128,67.659 184.707,65.831 C 184.529,65.603 184.332,65.398 184.12,65.216 C 186.722,65.209 188.548,59.027 188.249,57 L 174.542,57 C 174.453,59.319 175.145,64.815 178.669,65.217 Z" fill="#00bfbf" stroke="none" stroke-width="0.184" stroke-linejoin="round" stroke-linecap="round" marker-start="none" marker-end="none" stroke-miterlimit="79.8403193612775"/>
    <path d="M 193.669,65.217 C 191.974,66.664 191.701,69.206 193.083,70.983 C 194.505,72.811 197.143,73.14 198.971,71.719 C 200.799,70.297 201.128,67.659 199.707,65.831 C 199.529,65.603 199.332,65.398 199.12,65.216 C 201.722,65.209 203.548,59.027 203.249,57 L 189.542,57 C 189.453,59.319 190.145,64.815 193.669,65.217 Z" fill="#00bfbf" stroke="none" stroke-width="0.184" stroke-linejoin="round" stroke-linecap="round" marker-start="none" marker-end="none" stroke-miterlimit="79.8403193612775"/>
    <path d="M 208.669,65.217 C 206.974,66.664 206.701,69.206 208.083,70.983 C 209.505,72.811 212.143,73.14 213.971,71.719 C 215.799,70.297 216.128,67.659 214.707,65.831 C 214.529,65.603 214.332,65.398 214.12,65.216 C 216.722,65.209 218.548,59.027 218.249,57 L 204.542,57 C 204.453,59.319 205.145,64.815 208.669,65.217 Z" fill="#00bfbf" stroke="none" stroke-width="0.184" stroke-linejoin="round" stroke-linecap="round" marker-start="none" marker-end="none" stroke-miterlimit="79.8403193612775"/>
    <path d="M 223.669,65.217 C 221.974,66.664 221.701,69.206 223.083,70.983 C 224.505,72.811 227.143,73.14 228.971,71.719 C 230.799,70.297 231.128,67.659 229.707,65.831 C 229.529,65.603 229.332,65.398 229.12,65.216 C 231.722,65.209 233.548,59.027 233.249,57 L 219.542,57 C 219.453,59.319 220.145,64.815 223.669,65.217 Z" fill="#00bfbf" stroke="none" stroke-width="0.184" stroke-linejoin="round" stroke-linecap="round" marker-start="none" marker-end="none" stroke-miterlimit="79.8403193612775"/>
    <path d="M 238.669,65.217 C 236.974,66.664 236.701,69.206 238.083,70.983 C 239.505,72.811 242.143,73.14 243.971,71.719 C 245.799,70.297 246.128,67.659 244.707,65.831 C 244.529,65.603 244.332,65.398 244.12,65.216 C 246.722,65.209 248.548,59.027 248.249,57 L 234.542,57 C 234.453,59.319 235.145,64.815 238.669,65.217 Z" fill="#ff8200" stroke="none" stroke-width="0.184" stroke-linejoin="round" stroke-linecap="round" marker-start="none" marker-end="none" stroke-miterlimit="79.8403193612775"/>
    <path d="M 253.669,65.217 C 251.974,66.664 251.701,69.206 253.083,70.983 C 254.505,72.811 257.143,73.14 258.971,71.719 C 260.799,70.297 261.128,67.659 259.707,65.831 C 259.529,65.603 259.332,65.398 259.12,65.216 C 261.722,65.209 263.548,59.027 263.249,57 L 249.542,57 C 249.453,59.319 250.145,64.815 253.669,65.217 Z" fill="#00bfbf" stroke="none" stroke-width="0.184" stroke-linejoin="round" stroke-linecap="round" marker-start="none" marker-end="none" stroke-miterlimit="79.8403193612775"/>
    <path d="M 268.669,65.217 C 266.974,66.664 266.701,69.206 268.083,70.983 C 269.505,72.811 272.143,73.14 273.971,71.719 C 275.799,70.297 276.128,67.659 274.707,65.831 C 274.529,65.603 274.332,65.398 274.12,65.216 C 276.722,65.209 278.548,59.027 278.249,57 L 264.542,57 C 264.453,59.319 265.145,64.815 268.669,65.217 Z" fill="#00bfbf" stroke="none" stroke-width="0.184" stroke-linejoin="round" stroke-linecap="round" marker-start="none" marker-end="none" stroke-miterlimit="79.8403193612775"/>
    <path d="M 283.669,65.217 C 281.974,66.664 281.701,69.206 283.083,70.983 C 284.505,72.811 287.143,73.14 288.971,71.719 C 290.799,70.297 291.128,67.659 289.707,65.831 C 289.529,65.603 289.332,65.398 289.12,65.216 C 291.722,65.209 293.548,59.027 293.249,57 L 279.542,57 C 279.453,59.319 280.145,64.815 283.669,65.217 Z" fill="#00bfbf" stroke="none" stroke-width="0.184" stroke-linejoin="round" stroke-linecap="round" marker-start="none" marker-end="none" stroke-miterlimit="79.8403193612775"/>
    <path d="M 298.669,65.217 C 296.974,66.664 296.701,69.206 298.083,70.983 C 299.505,72.811 302.143,73.14 303.971,71.719 C 305.799,70.297 306.128,67.659 304.707,65.831 C 304.529,65.603 304.332,65.398 304.12,65.216 C 306.722,65.209 308.548,59.027 308.249,57 L 294.542,57 C 294.453,59.319 295.145,64.815 298.669,65.217 Z" fill="#00bfbf" stroke="none" stroke-width="0.184" stroke-linejoin="round" stroke-linecap="round" marker-start="none" marker-end="none" stroke-miterlimit="79.8403193612775"/>
    <path d="M 13.669,41.365 C 11.974,42.812 11.701,45.354 13.083,47.131 C 14.505,48.959 17.143,49.288 18.971,47.867 C 20.799,46.445 21.128,43.807 19.707,41.979 C 19.529,41.751 19.332,41.546 19.12,41.364 C 21.722,41.357 23.548,35.175 23.249,33.148 L 9.542,33.148 C 9.453,35.467 10.145,40.963 13.669,41.365 Z" fill="#00bfbf" stroke="none" stroke-width="0.184" stroke-linejoin="round" stroke-linecap="round" marker-start="none" marker-end="none" stroke-miterlimit="79.8403193612775"/>
    <path d="M 28.669,41.365 C 26.974,42.812 26.701,45.354 28.083,47.131 C 29.505,48.959 32.143,49.288 33.971,47.867 C 35.799,46.445 36.128,43.807 34.707,41.979 C 34.529,41.751 34.332,41.546 34.12,41.364 C 36.722,41.357 38.548,35.175 38.249,33.148 L 24.542,33.148 C 24.453,35.467 25.145,40.963 28.669,41.365 Z" fill="#00bfbf" stroke="none" stroke-width="0.184" stroke-linejoin="round" stroke-linecap="round" marker-start="none" marker-end="none" stroke-miterlimit="79.8403193612775"/>
    <path d="M 43.669,41.365 C 41.974,42.812 41.701,45.354 43.083,47.131 C 44.505,48.959 47.143,49.288 48.971,47.867 C 50.799,46.445 51.128,43.807 49.707,41.979 C 49.529,41.751 49.332,41.546 49.12,41.364 C 51.722,41.357 53.548,35.175 53.249,33.148 L 39.542,33.148 C 39.453,35.467 40.145,40.963 43.669,41.365 Z" fill="#00bfbf" stroke="none" stroke-width="0.184" stroke-linejoin="round" stroke-linecap="round" marker-start="none" marker-end="none" stroke-miterlimit="79.8403193612775"/>
    <path d="M 58.669,41.365 C 56.974,42.812 56.701,45.354 58.083,47.131 C 59.505,48.959 62.143,49.288 63.971,47.867 C 65.799,46.445 66.128,43.807 64.707,41.979 C 64.529,41.751 64.332,41.546 64.12,41.364 C 66.722,41.357 68.548,35.175 68.249,33.148 L 54.542,33.148 C 54.453,35.467 55.145,40.963 58.669,41.365 Z" fill="#00bfbf" stroke="none" stroke-width="0.184" stroke-linejoin="round" stroke-linecap="round" marker-start="none" marker-end="none" stroke-miterlimit="79.8403193612775"/>
    <path d="M 73.669,41.365 C 71.974,42.812 71.701,45.354 73.083,47.131 C 74.505,48.959 77.143,49.288 78.971,47.867 C 80.799,46.445 81.128,43.807 79.707,41.979 C 79.529,41.751 79.332,41.546 79.12,41.364 C 81.722,41.357 83.548,35.175 83.249,33.148 L 69.542,33.148 C 69.453,35.467 70.145,40.963 73.669,41.365 Z" fill="#00bfbf" stroke="none" stroke-width="0.184" stroke-linejoin="round" stroke-linecap="round" marker-start="none" marker-end="none" stroke-miterlimit="79.8403193612775"/>
    <path d="M 88.669,41.365 C 86.974,42.812 86.701,45.354 88.083,47.131 C 89.505,48.959 92.143,49.288 93.971,47.867 C 95.799,46.445 96.128,43.807 94.707,41.979 C 94.529,41.751 94.332,41.546 94.12,41.364 C 96.722,41.357 98.548,35.175 98.249,33.148 L 84.542,33.148 C 84.453,35.467 85.145,40.963 88.669,41.365 Z" fill="#00bfbf" stroke="none" stroke-width="0.184" stroke-linejoin="round" stroke-linecap="round" marker-start="none" marker-end="none" stroke-miterlimit="79.8403193612775"/>
    <path d="M 103.669,41.365 C 101.974,42.812 101.701,45.354 103.083,47.131 C 104.505,48.959 107.143,49.288 108.971,47.867 C 110.799,46.445 111.128,43.807 109.707,41.979 C 109.529,41.751 109.332,41.546 109.12,41.364 C 111.722,41.357 113.548,35.175 113.249,33.148 L 99.542,33.148 C 99.453,35.467 100.145,40.963 103.669,41.365 Z" fill="#00bfbf" stroke="none" stroke-width="0.184" stroke-linejoin="round" stroke-linecap="round" marker-start="none" marker-end="none" stroke-miterlimit="79.8403193612775"/>
    <path d="M 118.669,41.365 C 116.974,42.812 116.701,45.354 118.083,47.131 C 119.505,48.959 122.143,49.288 123.971,47.867 C 125.799,46.445 126.128,43.807 124.707,41.979 C 124.529,41.751 124.332,41.546 124.12,41.364 C 126.722,41.357 128.548,35.175 128.249,33.148 L 114.542,33.148 C 114.453,35.467 115.145,40.963 118.669,41.365 Z" fill="#00bfbf" stroke="none" stroke-width="0.184" stroke-linejoin="round" stroke-linecap="round" marker-start="none" marker-end="none" stroke-miterlimit="79.8403193612775"/>
    <path d="M 133.669,41.365 C 131.974,42.812 131.701,45.354 133.083,47.131 C 134.505,48.959 137.143,49.288 138.971,47.867 C 140.799,46.445 141.128,43.807 139.707,41.979 C 139.529,41.751 139.332,41.546 139.12,41.364 C 141.722,41.357 143.548,35.175 143.249,33.148 L 129.542,33.148 C 129.453,35.467 130.145,40.963 133.669,41.365 Z" fill="#00bfbf" stroke="none" stroke-width="0.184" stroke-linejoin="round" stroke-linecap="round" marker-start="none" marker-end="none" stroke-miterlimit="79.8403193612775"/>
    <path d="M 148.669,41.365 C 146.974,42.812 146.701,45.354 148.083,47.131 C 149.505,48.959 152.143,49.288 153.971,47.867 C 155.799,46.445 156.128,43.807 154.707,41.979 C 154.529,41.751 154.332,41.546 154.12,41.364 C 156.722,41.357 158.548,35.175 158.249,33.148 L 144.542,33.148 C 144.453,35.467 145.145,40.963 148.669,41.365 Z" fill="#00bfbf" stroke="none" stroke-width="0.184" stroke-linejoin="round" stroke-linecap="round" marker-start="none" marker-end="none" stroke-miterlimit="79.8403193612775"/>
    <path d="M 163.669,41.365 C 161.974,42.812 161.701,45.354 163.083,47.131 C 164.505,48.959 167.143,49.288 168.971,47.867 C 170.799,46.445 171.128,43.807 169.707,41.979 C 169.529,41.751 169.332,41.546 169.12,41.364 C 171.722,41.357 173.548,35.175 173.249,33.148 L 159.542,33.148 C 159.453,35.467 160.145,40.963 163.669,41.365 Z" fill="#00bfbf" stroke="none" stroke-width="0.184" stroke-linejoin="round" stroke-linecap="round" marker-start="none" marker-end="none" stroke-miterlimit="79.8403193612775"/>
    <path d="M 178.669,41.365 C 176.974,42.812 176.701,45.354 178.083,47.131 C 179.505,48.959 182.143,49.288 183.971,47.867 C 185.799,46.445 186.128,43.807 184.707,41.979 C 184.529,41.751 184.332,41.546 184.12,41.364 C 186.722,41.357 188.548,35.175 188.249,33.148 L 174.542,33.148 C 174.453,35.467 175.145,40.963 178.669,41.365 Z" fill="#00bfbf" stroke="none" stroke-width="0.184" stroke-linejoin="round" stroke-linecap="round" marker-start="none" marker-end="none" stroke-miterlimit="79.8403193612775"/>
    <path d="M 193.669,41.365 C 191.974,42.812 191.701,45.354 193.083,47.131 C 194.505,48.959 197.143,49.288 198.971,47.867 C 200.799,46.445 201.128,43.807 199.707,41.979 C 199.529,41.751 199.332,41.546 199.12,41.364 C 201.722,41.357 203.548,35.175 203.249,33.148 L 189.542,33.148 C 189.453,35.467 190.145,40.963 193.669,41.365 Z" fill="#00bfbf" stroke="none" stroke-width="0.184" stroke-linejoin="round" stroke-linecap="round" marker-start="none" marker-end="none" stroke-miterlimit="79.8403193612775"/>
    <path d="M 208.669,41.365 C 206.974,42.812 206.701,45.354 208.083,47.131 C 209.505,48.959 212.143,49.288 213.971,47.867 C 215.799,46.445 216.128,43.807 214.707,41.979 C 214.529,41.751 214.332,41.546 214.12,41.364 C 216.722,41.357 218.548,35.175 218.249,33.148 L 204.542,33.148 C 204.453,35.467 205.145,40.963 208.669,41.365 Z" fill="#00bfbf" stroke="none" stroke-width="0.184" stroke-linejoin="round" stroke-linecap="round" marker-start="none" marker-end="none" stroke-miterlimit="79.8403193612775"/>
    <path d="M 223.669,41.365 C 221.974,42.812 221.701,45.354 223.083,47.131 C 224.505,48.959 227.143,49.288 228.971,47.867 C 230.799,46.445 231.128,43.807 229.707,41.979 C 229.529,41.751 229.332,41.546 229.12,41.364 C 231.722,41.357 233.548,35.175 233.249,33.148 L 219.542,33.148 C 219.453,35.467 220.145,40.963 223.669,41.365 Z" fill="#00bfbf" stroke="none" stroke-width="0.184" stroke-linejoin="round" stroke-linecap="round" marker-start="none" marker-end="none" stroke-miterlimit="79.8403193612775"/>
    <path d="M 238.669,41.365 C 236.974,42.812 236.701,45.354 238.083,47.131 C 239.505,48.959 242.143,49.288 243.971,47.867 C 245.799,46.445 246.128,43.807 244.707,41.979 C 244.529,41.751 244.332,41.546 244.12,41.364 C 246.722,41.357 248.548,35.175 248.249,33.148 L 234.542,33.148 C 234.453,35.467 235.145,40.963 238.669,41.365 Z" fill="#00bfbf" stroke="none" stroke-width="0.184" stroke-linejoin="round" stroke-linecap="round" marker-start="none" marker-end="none" stroke-miterlimit="79.8403193612775"/>
    <path d="M 253.669,41.365 C 251.974,42.812 251.701,45.354 253.083,47.131 C 254.505,48.959 257.143,49.288 258.971,47.867 C 260.799,46.445 261.128,43.807 259.707,41.979 C 259.529,41.751 259.332,41.546 259.12,41.364 C 261.722,41.357 263.548,35.175 263.249,33.148 L 249.542,33.148 C 249.453,35.467 250.145,40.963 253.669,41.365 Z" fill="#00bfbf" stroke="none" stroke-width="0.184" stroke-linejoin="round" stroke-linecap="round" marker-start="none" marker-end="none" stroke-miterlimit="79.8403193612775"/>
    <path d="M 268.669,41.365 C 266.974,42.812 266.701,45.354 268.083,47.131 C 269.505,48.959 272.143,49.288 273.971,47.867 C 275.799,46.445 276.128,43.807 274.707,41.979 C 274.529,41.751 274.332,41.546 274.12,41.364 C 276.722,41.357 278.548,35.175 278.249,33.148 L 264.542,33.148 C 264.453,35.467 265.145,40.963 268.669,41.365 Z" fill="#00bfbf" stroke="none" stroke-width="0.184" stroke-linejoin="round" stroke-linecap="round" marker-start="none" marker-end="none" stroke-miterlimit="79.8403193612775"/>
    <path d="M 283.669,41.365 C 281.974,42.812 281.701,45.354 283.083,47.131 C 284.505,48.959 287.143,49.288 288.971,47.867 C 290.799,46.445 291.128,43.807 289.707,41.979 C 289.529,41.751 289.332,41.546 289.12,41.364 C 291.722,41.357 293.548,35.175 293.249,33.148 L 279.542,33.148 C 279.453,35.467 280.145,40.963 283.669,41.365 Z" fill="#00bfbf" stroke="none" stroke-width="0.184" stroke-linejoin="round" stroke-linecap="round" marker-start="none" marker-end="none" stroke-miterlimit="79.8403193612775"/>
    <path d="M 298.669,41.365 C 296.974,42.812 296.701,45.354 298.083,47.131 C 299.505,48.959 302.143,49.288 303.971,47.867 C 305.799,46.445 306.128,43.807 304.707,41.979 C 304.529,41.751 304.332,41.546 304.12,41.364 C 306.722,41.357 308.548,35.175 308.249,33.148 L 294.542,33.148 C 294.453,35.467 295.145,40.963 298.669,41.365 Z" fill="#00bfbf" stroke="none" stroke-width="0.184" stroke-linejoin="round" stroke-linecap="round" marker-start="none" marker-end="none" stroke-miterlimit="79.8403193612775"/>
    <path d="M 13.669,16.467 C 11.974,17.914 11.701,20.456 13.083,22.233 C 14.505,24.061 17.143,24.39 18.971,22.969 C 20.799,21.547 21.128,18.909 19.707,17.081 C 19.529,16.853 19.332,16.648 19.12,16.466 C 21.722,16.459 23.548,10.277 23.249,8.25 L 9.542,8.25 C 9.453,10.569 10.145,16.065 13.669,16.467 Z" fill="#00bfbf" stroke="none" stroke-width="0.184" stroke-linejoin="round" stroke-linecap="round" marker-start="none" marker-end="none" stroke-miterlimit="79.8403193612775"/>
    <path d="M 28.669,16.467 C 26.974,17.914 26.701,20.456 28.083,22.233 C 29.505,24.061 32.143,24.39 33.971,22.969 C 35.799,21.547 36.128,18.909 34.707,17.081 C 34.529,16.853 34.332,16.648 34.12,16.466 C 36.722,16.459 38.548,10.277 38.249,8.25 L 24.542,8.25 C 24.453,10.569 25.145,16.065 28.669,16.467 Z" fill="#00bfbf" stroke="none" stroke-width="0.184" stroke-linejoin="round" stroke-linecap="round" marker-start="none" marker-end="none" stroke-miterlimit="79.8403193612775"/>
    <path d="M 43.669,16.467 C 41.974,17.914 41.701,20.456 43.083,22.233 C 44.505,24.061 47.143,24.39 48.971,22.969 C 50.799,21.547 51.128,18.909 49.707,17.081 C 49.529,16.853 49.332,16.648 49.12,16.466 C 51.722,16.459 53.548,10.277 53.249,8.25 L 39.542,8.25 C 39.453,10.569 40.145,16.065 43.669,16.467 Z" fill="#00bfbf" stroke="none" stroke-width="0.184" stroke-linejoin="round" stroke-linecap="round" marker-start="none" marker-end="none" stroke-miterlimit="79.8403193612775"/>
    <path d="M 58.669,16.467 C 56.974,17.914 56.701,20.456 58.083,22.233 C 59.505,24.061 62.143,24.39 63.971,22.969 C 65.799,21.547 66.128,18.909 64.707,17.081 C 64.529,16.853 64.332,16.648 64.12,16.466 C 66.722,16.459 68.548,10.277 68.249,8.25 L 54.542,8.25 C 54.453,10.569 55.145,16.065 58.669,16.467 Z" fill="#00bfbf" stroke="none" stroke-width="0.184" stroke-linejoin="round" stroke-linecap="round" marker-start="none" marker-end="none" stroke-miterlimit="79.8403193612775"/>
    <path d="M 73.669,16.467 C 71.974,17.914 71.701,20.456 73.083,22.233 C 74.505,24.061 77.143,24.39 78.971,22.969 C 80.799,21.547 81.128,18.909 79.707,17.081 C 79.529,16.853 79.332,16.648 79.12,16.466 C 81.722,16.459 83.548,10.277 83.249,8.25 L 69.542,8.25 C 69.453,10.569 70.145,16.065 73.669,16.467 Z" fill="#00bfbf" stroke="none" stroke-width="0.184" stroke-linejoin="round" stroke-linecap="round" marker-start="none" marker-end="none" stroke-miterlimit="79.8403193612775"/>
    <path d="M 88.669,16.467 C 86.974,17.914 86.701,20.456 88.083,22.233 C 89.505,24.061 92.143,24.39 93.971,22.969 C 95.799,21.547 96.128,18.909 94.707,17.081 C 94.529,16.853 94.332,16.648 94.12,16.466 C 96.722,16.459 98.548,10.277 98.249,8.25 L 84.542,8.25 C 84.453,10.569 85.145,16.065 88.669,16.467 Z" fill="#00bfbf" stroke="none" stroke-width="0.184" stroke-linejoin="round" stroke-linecap="round" marker-start="none" marker-end="none" stroke-miterlimit="79.8403193612775"/>
    <path d="M 103.669,16.467 C 101.974,17.914 101.701,20.456 103.083,22.233 C 104.505,24.061 107.143,24.39 108.971,22.969 C 110.799,21.547 111.128,18.909 109.707,17.081 C 109.529,16.853 109.332,16.648 109.12,16.466 C 111.722,16.459 113.548,10.277 113.249,8.25 L 99.542,8.25 C 99.453,10.569 100.145,16.065 103.669,16.467 Z" fill="#00bfbf" stroke="none" stroke-width="0.184" stroke-linejoin="round" stroke-linecap="round" marker-start="none" marker-end="none" stroke-miterlimit="79.8403193612775"/>
    <path d="M 118.669,16.467 C 116.974,17.914 116.701,20.456 118.083,22.233 C 119.505,24.061 122.143,24.39 123.971,22.969 C 125.799,21.547 126.128,18.909 124.707,17.081 C 124.529,16.853 124.332,16.648 124.12,16.466 C 126.722,16.459 128.548,10.277 128.249,8.25 L 114.542,8.25 C 114.453,10.569 115.145,16.065 118.669,16.467 Z" fill="#00bfbf" stroke="none" stroke-width="0.184" stroke-linejoin="round" stroke-linecap="round" marker-start="none" marker-end="none" stroke-miterlimit="79.8403193612775"/>
    <path d="M 133.669,16.467 C 131.974,17.914 131.701,20.456 133.083,22.233 C 134.505,24.061 137.143,24.39 138.971,22.969 C 140.799,21.547 141.128,18.909 139.707,17.081 C 139.529,16.853 139.332,16.648 139.12,16.466 C 141.722,16.459 143.548,10.277 143.249,8.25 L 129.542,8.25 C 129.453,10.569 130.145,16.065 133.669,16.467 Z" fill="#00bfbf" stroke="none" stroke-width="0.184" stroke-linejoin="round" stroke-linecap="round" marker-start="none" marker-end="none" stroke-miterlimit="79.8403193612775"/>
    <path d="M 148.669,16.467 C 146.974,17.914 146.701,20.456 148.083,22.233 C 149.505,24.061 152.143,24.39 153.971,22.969 C 155.799,21.547 156.128,18.909 154.707,17.081 C 154.529,16.853 154.332,16.648 154.12,16.466 C 156.722,16.459 158.548,10.277 158.249,8.25 L 144.542,8.25 C 144.453,10.569 145.145,16.065 148.669,16.467 Z" fill="#00bfbf" stroke="none" stroke-width="0.184" stroke-linejoin="round" stroke-linecap="round" marker-start="none" marker-end="none" stroke-miterlimit="79.8403193612775"/>
    <path d="M 163.669,16.467 C 161.974,17.914 161.701,20.456 163.083,22.233 C 164.505,24.061 167.143,24.39 168.971,22.969 C 170.799,21.547 171.128,18.909 169.707,17.081 C 169.529,16.853 169.332,16.648 169.12,16.466 C 171.722,16.459 173.548,10.277 173.249,8.25 L 159.542,8.25 C 159.453,10.569 160.145,16.065 163.669,16.467 Z" fill="#00bfbf" stroke="none" stroke-width="0.184" stroke-linejoin="round" stroke-linecap="round" marker-start="none" marker-end="none" stroke-miterlimit="79.8403193612775"/>
    <path d="M 178.669,16.467 C 176.974,17.914 176.701,20.456 178.083,22.233 C 179.505,24.061 182.143,24.39 183.971,22.969 C 185.799,21.547 186.128,18.909 184.707,17.081 C 184.529,16.853 184.332,16.648 184.12,16.466 C 186.722,16.459 188.548,10.277 188.249,8.25 L 174.542,8.25 C 174.453,10.569 175.145,16.065 178.669,16.467 Z" fill="#00bfbf" stroke="none" stroke-width="0.184" stroke-linejoin="round" stroke-linecap="round" marker-start="none" marker-end="none" stroke-miterlimit="79.8403193612775"/>
    <path d="M 193.669,16.467 C 191.974,17.914 191.701,20.456 193.083,22.233 C 194.505,24.061 197.143,24.39 198.971,22.969 C 200.799,21.547 201.128,18.909 199.707,17.081 C 199.529,16.853 199.332,16.648 199.12,16.466 C 201.722,16.459 203.548,10.277 203.249,8.25 L 189.542,8.25 C 189.453,10.569 190.145,16.065 193.669,16.467 Z" fill="#00bfbf" stroke="none" stroke-width="0.184" stroke-linejoin="round" stroke-linecap="round" marker-start="none" marker-end="none" stroke-miterlimit="79.8403193612775"/>
    <path d="M 208.669,16.467 C 206.974,17.914 206.701,20.456 208.083,22.233 C 209.505,24.061 212.143,24.39 213.971,22.969 C 215.799,21.547 216.128,18.909 214.707,17.081 C 214.529,16.853 214.332,16.648 214.12,16.466 C 216.722,16.459 218.548,10.277 218.249,8.25 L 204.542,8.25 C 204.453,10.569 205.145,16.065 208.669,16.467 Z" fill="#00bfbf" stroke="none" stroke-width="0.184" stroke-linejoin="round" stroke-linecap="round" marker-start="none" marker-end="none" stroke-miterlimit="79.8403193612775"/>
    <path d="M 223.669,16.467 C 221.974,17.914 221.701,20.456 223.083,22.233 C 224.505,24.061 227.143,24.39 228.971,22.969 C 230.799,21.547 231.128,18.909 229.707,17.081 C 229.529,16.853 229.332,16.648 229.12,16.466 C 231.722,16.459 233.548,10.277 233.249,8.25 L 219.542,8.25 C 219.453,10.569 220.145,16.065 223.669,16.467 Z" fill="#00bfbf" stroke="none" stroke-width="0.184" stroke-linejoin="round" stroke-linecap="round" marker-start="none" marker-end="none" stroke-miterlimit="79.8403193612775"/>
    <path d="M 238.669,16.467 C 236.974,17.914 236.701,20.456 238.083,22.233 C 239.505,24.061 242.143,24.39 243.971,22.969 C 245.799,21.547 246.128,18.909 244.707,17.081 C 244.529,16.853 244.332,16.648 244.12,16.466 C 246.722,16.459 248.548,10.277 248.249,8.25 L 234.542,8.25 C 234.453,10.569 235.145,16.065 238.669,16.467 Z" fill="#00bfbf" stroke="none" stroke-width="0.184" stroke-linejoin="round" stroke-linecap="round" marker-start="none" marker-end="none" stroke-miterlimit="79.8403193612775"/>
    <path d="M 253.669,16.467 C 251.974,17.914 251.701,20.456 253.083,22.233 C 254.505,24.061 257.143,24.39 258.971,22.969 C 260.799,21.547 261.128,18.909 259.707,17.081 C 259.529,16.853 259.332,16.648 259.12,16.466 C 261.722,16.459 263.548,10.277 263.249,8.25 L 249.542,8.25 C 249.453,10.569 250.145,16.065 253.669,16.467 Z" fill="#00bfbf" stroke="none" stroke-width="0.184" stroke-linejoin="round" stroke-linecap="round" marker-start="none" marker-end="none" stroke-miterlimit="79.8403193612775"/>
    <path d="M 268.669,16.467 C 266.974,17.914 266.701,20.456 268.083,22.233 C 269.505,24.061 272.143,24.39 273.971,22.969 C 275.799,21.547 276.128,18.909 274.707,17.081 C 274.529,16.853 274.332,16.648 274.12,16.466 C 276.722,16.459 278.548,10.277 278.249,8.25 L 264.542,8.25 C 264.453,10.569 265.145,16.065 268.669,16.467 Z" fill="#00bfbf" stroke="none" stroke-width="0.184" stroke-linejoin="round" stroke-linecap="round" marker-start="none" marker-end="none" stroke-miterlimit="79.8403193612775"/>
    <path d="M 283.669,16.467 C 281.974,17.914 281.701,20.456 283.083,22.233 C 284.505,24.061 287.143,24.39 288.971,22.969 C 290.799,21.547 291.128,18.909 289.707,17.081 C 289.529,16.853 289.332,16.648 289.12,16.466 C 291.722,16.459 293.548,10.277 293.249,8.25 L 279.542,8.25 C 279.453,10.569 280.145,16.065 283.669,16.467 Z" fill="#00bfbf" stroke="none" stroke-width="0.184" stroke-linejoin="round" stroke-linecap="round" marker-start="none" marker-end="none" stroke-miterlimit="79.8403193612775"/>
    <path d="M 298.669,16.467 C 296.974,17.914 296.701,20.456 298.083,22.233 C 299.505,24.061 302.143,24.39 303.971,22.969 C 305.799,21.547 306.128,18.909 304.707,17.081 C 304.529,16.853 304.332,16.648 304.12,16.466 C 306.722,16.459 308.548,10.277 308.249,8.25 L 294.542,8.25 C 294.453,10.569 295.145,16.065 298.669,16.467 Z" fill="#00bfbf" stroke="none" stroke-width="0.184" stroke-linejoin="round" stroke-linecap="round" marker-start="none" marker-end="none" stroke-miterlimit="79.8403193612775"/>
    <path d="M 344.323,74.073 C 340.91,76.986 340.361,82.104 343.143,85.681 C 346.006,89.362 351.317,90.024 354.998,87.163 C 358.678,84.3 359.34,78.989 356.479,75.309 C 356.121,74.85 355.725,74.437 355.298,74.071 C 360.536,74.057 364.213,61.611 363.61,57.529 L 336.014,57.529 C 335.834,62.198 337.228,73.263 344.323,74.073 Z" fill="#ff8200" stroke="none" stroke-width="0.37" stroke-linejoin="round" stroke-linecap="round" marker-start="none" marker-end="none" stroke-miterlimit="79.8403193612775"/>
    <g id="Group" fill-rule="nonzero" stroke-linejoin="round" stroke-linecap="round" stroke="none" stroke-width="0.375" fill="#000000" stroke-miterlimit="79.8403193612775">
     <g id="Group_1">
      <path d="M 376.344,72.75 L 376.344,85.906 L 378.364,85.906 L 378.364,79.456 L 383.873,85.906 L 385.911,85.906 L 380.6,79.702 L 386.926,72.75 L 384.507,72.75 L 378.364,79.456 L 378.364,72.75 L 376.344,72.75 Z" marker-start="none" marker-end="none"/>
      <path d="M 393.325,72.75 L 393.325,87.424 L 389.028,87.424 L 389.028,88.941 L 395.355,88.941 L 395.355,72.75 L 393.325,72.75 Z" marker-start="none" marker-end="none"/>
      <path d="M 408.469,74.093 C 407.245,73.068 406.025,72.555 404.809,72.555 C 403.79,72.555 402.951,72.846 402.291,73.427 C 401.632,74.008 401.302,74.743 401.301,75.631 C 401.302,76.787 401.815,77.716 402.84,78.42 C 403.865,79.124 405.219,79.477 406.9,79.477 L 408.151,79.477 L 408.151,80.43 C 408.151,81.216 407.977,81.777 407.628,82.112 C 407.28,82.447 406.702,82.614 405.895,82.614 C 404.727,82.614 403.516,82.286 402.265,81.63 L 402.265,83.363 C 403.701,83.876 405.048,84.132 406.306,84.132 C 407.721,84.132 408.72,83.852 409.305,83.291 C 409.889,82.731 410.181,81.763 410.182,80.389 L 410.182,75.724 C 410.181,75.054 410.253,74.597 410.397,74.355 C 410.54,74.112 410.811,73.991 411.207,73.991 C 411.337,73.991 411.549,74.025 411.843,74.093 L 412.027,72.883 C 411.351,72.665 410.838,72.555 410.489,72.555 C 409.491,72.555 408.818,73.068 408.469,74.093 Z M 408.151,75.406 L 408.151,78.215 L 407.546,78.215 C 404.778,78.215 403.393,77.467 403.393,75.97 C 403.393,75.43 403.571,74.996 403.927,74.667 C 404.282,74.339 404.754,74.175 405.342,74.175 C 406.223,74.175 407.16,74.585 408.151,75.406 Z" marker-start="none" marker-end="none"/>
      <path d="M 415.718,72.75 L 415.718,83.886 L 417.738,83.886 L 417.738,81.794 C 418.764,83.353 420.141,84.132 421.871,84.132 C 422.479,84.132 423.17,84.047 423.942,83.876 L 423.942,80.717 L 422.424,80.717 L 422.424,82.266 C 422.124,82.334 421.85,82.368 421.604,82.368 C 420.832,82.368 420.153,82.189 419.569,81.83 C 418.984,81.471 418.374,80.861 417.738,80 L 417.738,72.75 L 415.718,72.75 Z" marker-start="none" marker-end="none"/>
      <path d="M 433.775,74.093 C 432.551,73.068 431.331,72.555 430.115,72.555 C 429.096,72.555 428.257,72.846 427.597,73.427 C 426.938,74.008 426.608,74.743 426.607,75.631 C 426.608,76.787 427.121,77.716 428.146,78.42 C 429.171,79.124 430.525,79.477 432.206,79.477 L 433.457,79.477 L 433.457,80.43 C 433.457,81.216 433.283,81.777 432.934,82.112 C 432.586,82.447 432.008,82.614 431.201,82.614 C 430.033,82.614 428.822,82.286 427.571,81.63 L 427.571,83.363 C 429.007,83.876 430.354,84.132 431.612,84.132 C 433.027,84.132 434.026,83.852 434.611,83.291 C 435.195,82.731 435.487,81.763 435.488,80.389 L 435.488,75.724 C 435.487,75.054 435.559,74.597 435.703,74.355 C 435.846,74.112 436.117,73.991 436.513,73.991 C 436.643,73.991 436.855,74.025 437.149,74.093 L 437.333,72.883 C 436.657,72.665 436.144,72.555 435.795,72.555 C 434.797,72.555 434.124,73.068 433.775,74.093 Z M 433.457,75.406 L 433.457,78.215 L 432.852,78.215 C 430.084,78.215 428.699,77.467 428.699,75.97 C 428.699,75.43 428.877,74.996 429.233,74.667 C 429.588,74.339 430.06,74.175 430.648,74.175 C 431.529,74.175 432.466,74.585 433.457,75.406 Z" marker-start="none" marker-end="none"/>
     </g>
    </g>
    <path d="M 377.601,62.16 L 377.601,59.339 C 377.601,58.242 378.492,57.351 379.589,57.351 L 471.612,57.351 C 472.709,57.351 473.6,58.242 473.6,59.339 L 473.6,62.16 C 473.6,63.257 472.709,64.148 471.612,64.148 L 379.589,64.148 C 378.492,64.148 377.601,63.257 377.601,62.16 Z" fill="#b2b2b2" stroke="none" stroke-linecap="round" stroke-linejoin="round" stroke-width="0.37" marker-start="none" marker-end="none" stroke-miterlimit="79.8403193612775"/>
    <path d="M 377.601,50.512 L 377.601,47.691 C 377.601,46.594 378.492,45.703 379.589,45.703 L 453.612,45.703 C 454.709,45.703 455.6,46.594 455.6,47.691 L 455.6,50.512 C 455.6,51.609 454.709,52.5 453.612,52.5 L 379.589,52.5 C 378.492,52.5 377.601,51.609 377.601,50.512 Z" fill="#b2b2b2" stroke="none" stroke-linecap="round" stroke-linejoin="round" stroke-width="0.37" marker-start="none" marker-end="none" stroke-miterlimit="79.8403193612775"/>
    <path d="M 377.6,38.308 L 377.6,35.487 C 377.6,34.39 378.491,33.499 379.588,33.499 L 464.113,33.499 C 465.21,33.499 466.101,34.39 466.101,35.487 L 466.101,38.308 C 466.101,39.405 465.21,40.296 464.113,40.296 L 379.588,40.296 C 378.491,40.296 377.6,39.405 377.6,38.308 Z" fill="#b2b2b2" stroke="none" stroke-linecap="round" stroke-linejoin="round" stroke-width="0.37" marker-start="none" marker-end="none" stroke-miterlimit="79.8403193612775"/>
    <path d="M 376.344,25.614 L 376.344,22.793 C 376.344,21.696 377.235,20.805 378.332,20.805 L 442.605,20.805 C 443.702,20.805 444.593,21.696 444.593,22.793 L 444.593,25.614 C 444.593,26.711 443.702,27.602 442.605,27.602 L 378.332,27.602 C 377.235,27.602 376.344,26.711 376.344,25.614 Z" fill="#b2b2b2" stroke="none" stroke-linecap="round" stroke-linejoin="round" stroke-width="0.37" marker-start="none" marker-end="none" stroke-miterlimit="79.8403193612775"/>
   </g>
  </g>
 </g>
</svg>
