<?xml version="1.0" standalone="no"?>
<!DOCTYPE svg PUBLIC "-//W3C//DTD SVG 1.1//EN" "http://www.w3.org/Graphics/SVG/1.1/DTD/svg11.dtd">
<!--Generator: Xara Designer (www.xara.com), SVG filter version: 6.0.0.4-->
<svg stroke-width="0.501" stroke-linejoin="bevel" fill-rule="evenodd" xmlns:xlink="http://www.w3.org/1999/xlink" xmlns="http://www.w3.org/2000/svg" version="1.1" overflow="visible" width="175.5pt" height="175.5pt" viewBox="0 0 175.5 175.5">
 <defs>
	</defs>
 <g id="Document" fill="none" stroke="black" font-family="Times New Roman" font-size="16" transform="scale(1 -1)">
  <g id="Spread" transform="translate(0 -175.5)">
   <g id="Page background">
    <path d="M 0,175.499 L 0,0 L 175.499,0 L 175.499,175.499 L 0,175.499 Z" stroke-linejoin="bevel" stroke="none" stroke-width="0" marker-start="none" marker-end="none" stroke-miterlimit="79.8403193612775"/>
   </g>
   <g id="MouseOff">
    <g id="Group" fill-rule="nonzero" stroke-linejoin="round" stroke-linecap="round" stroke="none" stroke-width="1.139" stroke-miterlimit="79.8403193612775">
     <path d="M 297.218,-284.402 C 297.218,-280.121 297.893,-276.351 299.241,-273.094 C 300.591,-269.835 302.431,-267.106 304.765,-264.901 C 307.097,-262.698 309.886,-261.055 313.131,-259.97 C 316.375,-258.883 319.857,-258.339 323.575,-258.342 C 327.294,-258.339 330.776,-258.883 334.02,-259.97 C 337.265,-261.055 340.071,-262.698 342.441,-264.901 C 344.811,-267.106 346.67,-269.835 348.019,-273.094 C 349.368,-276.351 350.042,-280.121 350.042,-284.402 C 350.042,-288.685 349.368,-292.455 348.019,-295.712 C 346.67,-298.968 344.811,-301.7 342.441,-303.903 C 340.071,-306.105 337.265,-307.748 334.02,-308.836 C 330.776,-309.921 327.294,-310.464 323.575,-310.464 C 319.857,-310.464 316.375,-309.921 313.131,-308.836 C 309.886,-307.748 307.097,-306.105 304.765,-303.903 C 302.431,-301.7 300.591,-298.968 299.241,-295.712 C 297.893,-292.455 297.218,-288.685 297.218,-284.402 Z M 308.155,-284.402 C 308.155,-290.793 309.594,-295.527 312.474,-298.595 C 315.354,-301.666 319.055,-303.204 323.575,-303.204 C 328.169,-303.204 331.906,-301.666 334.785,-298.595 C 337.665,-295.527 339.106,-290.793 339.106,-284.402 C 339.106,-278.01 337.665,-273.279 334.785,-270.208 C 331.906,-267.137 328.169,-265.6 323.575,-265.6 C 319.055,-265.6 315.354,-267.137 312.474,-270.208 C 309.594,-273.279 308.155,-278.01 308.155,-284.402 Z" fill="#d27500" marker-start="none" marker-end="none"/>
     <path d="M 369.661,-284.808 C 371.12,-284.808 372.323,-285.046 373.27,-285.52 C 374.218,-285.994 374.947,-286.613 375.458,-287.379 C 375.968,-288.144 376.314,-289.019 376.496,-290 C 376.679,-290.985 376.771,-291.988 376.771,-293.008 C 376.771,-295.487 376.679,-298 376.496,-300.551 C 376.314,-303.101 376.096,-305.524 375.841,-307.822 C 375.585,-310.115 375.367,-312.193 375.185,-314.052 C 375.002,-315.911 374.911,-317.422 374.911,-318.588 C 374.911,-320.484 375.367,-321.814 376.278,-322.577 C 377.189,-323.343 378.703,-323.725 380.817,-323.725 C 381.838,-323.725 382.894,-323.652 383.989,-323.51 C 385.082,-323.367 386.467,-323.151 388.145,-322.865 L 389.238,-330.308 C 388.145,-330.606 387.16,-330.867 386.285,-331.092 C 385.41,-331.314 384.535,-331.481 383.66,-331.593 C 382.786,-331.706 381.873,-331.764 380.926,-331.764 C 379.978,-331.764 378.885,-331.764 377.645,-331.764 C 375.75,-331.764 373.999,-331.582 372.396,-331.216 C 370.791,-330.852 369.406,-330.232 368.24,-329.361 C 367.073,-328.485 366.162,-327.322 365.505,-325.867 C 364.849,-324.412 364.521,-322.592 364.521,-320.407 C 364.521,-319.536 364.612,-318.078 364.795,-316.042 C 364.977,-314.004 365.178,-311.673 365.396,-309.055 C 365.615,-306.433 365.815,-303.705 365.998,-300.864 C 366.18,-298.027 366.271,-295.405 366.271,-293.006 C 366.271,-291.112 365.633,-289.73 364.357,-288.856 C 363.081,-287.983 361.022,-287.546 358.178,-287.546 L 358.178,-280.978 C 361.022,-280.978 363.081,-280.54 364.357,-279.666 C 365.633,-278.793 366.271,-277.408 366.271,-275.516 C 366.271,-273.113 366.18,-270.491 365.998,-267.65 C 365.815,-264.81 365.615,-262.079 365.396,-259.457 C 365.178,-256.835 364.977,-254.505 364.795,-252.463 C 364.612,-250.425 364.521,-248.97 364.521,-248.095 C 364.521,-245.91 364.849,-244.091 365.505,-242.633 C 366.162,-241.178 367.073,-240.011 368.24,-239.136 C 369.406,-238.264 370.791,-237.644 372.396,-237.28 C 373.999,-236.915 375.75,-236.733 377.645,-236.733 C 378.885,-236.733 379.978,-236.733 380.926,-236.733 C 381.873,-236.733 382.786,-236.794 383.66,-236.915 C 384.535,-237.036 385.41,-237.219 386.285,-237.462 C 387.16,-237.705 388.145,-237.987 389.238,-238.313 L 388.145,-245.658 C 386.467,-245.361 385.082,-245.139 383.989,-244.993 C 382.894,-244.844 381.838,-244.771 380.817,-244.771 C 378.703,-244.771 377.189,-245.154 376.278,-245.92 C 375.367,-246.686 374.911,-248.016 374.911,-249.912 C 374.911,-251.081 375.002,-252.594 375.185,-254.454 C 375.367,-256.313 375.585,-258.39 375.841,-260.688 C 376.096,-262.984 376.314,-265.412 376.496,-267.963 C 376.679,-270.516 376.771,-273.03 376.771,-275.51 C 376.771,-276.531 376.679,-277.533 376.496,-278.52 C 376.314,-279.505 375.968,-280.379 375.458,-281.145 C 374.947,-281.911 374.218,-282.53 373.27,-283.004 C 372.323,-283.478 371.12,-283.715 369.661,-283.715 L 369.661,-284.808 Z" fill="#4c4c4c" marker-start="none" marker-end="none"/>
     <path d="M 415.945,-265.144 C 413.174,-265.147 410.841,-265.675 408.945,-266.727 C 407.05,-267.784 406.102,-269.397 406.102,-271.569 C 406.102,-273.304 406.831,-274.747 408.289,-275.896 C 409.748,-277.043 411.57,-278.08 413.757,-279.009 C 415.945,-279.942 418.296,-280.872 420.811,-281.804 C 423.327,-282.734 425.679,-283.837 427.866,-285.107 C 430.053,-286.377 431.876,-287.929 433.334,-289.761 C 434.792,-291.586 435.521,-293.898 435.521,-296.693 C 435.521,-300.849 433.735,-304.185 430.162,-306.694 C 426.59,-309.207 421.631,-310.464 415.289,-310.464 C 409.019,-310.464 404.224,-309.219 400.907,-306.724 C 397.589,-304.233 395.311,-300.77 394.071,-296.338 C 393.831,-293.166 400.499,-290.836 403.149,-293.774 C 403.513,-295.788 404.114,-297.438 404.953,-298.719 C 405.791,-300.005 406.795,-301.01 407.961,-301.746 C 409.127,-302.477 410.404,-302.982 411.789,-303.258 C 413.174,-303.532 414.595,-303.669 416.054,-303.669 C 418.533,-303.669 420.72,-303.158 422.616,-302.134 C 424.511,-301.111 425.46,-299.512 425.46,-297.341 C 425.46,-295.728 424.731,-294.394 423.273,-293.339 C 421.814,-292.282 419.991,-291.292 417.804,-290.362 C 415.616,-289.432 413.265,-288.484 410.75,-287.522 C 408.234,-286.562 405.883,-285.398 403.696,-284.034 C 401.509,-282.67 399.685,-281.008 398.227,-279.058 C 396.769,-277.102 396.04,-274.665 396.04,-271.751 C 396.04,-270.324 396.368,-268.82 397.024,-267.237 C 397.68,-265.654 398.792,-264.212 400.36,-262.912 C 401.927,-261.608 404.006,-260.523 406.594,-259.654 C 409.182,-258.786 412.372,-258.352 416.163,-258.352 C 421.194,-258.352 425.368,-259.338 428.686,-261.304 C 432.003,-263.276 434.392,-266.584 435.85,-271.235 C 435.588,-274.41 430.408,-275.95 426.772,-273.799 C 425.97,-271.114 424.658,-268.999 422.834,-267.456 C 421.012,-265.919 418.715,-265.147 415.945,-265.144 Z" fill="#d27500" marker-start="none" marker-end="none"/>
     <path d="M 461.675,-284.808 C 460.217,-284.808 459.014,-285.046 458.066,-285.52 C 457.118,-285.994 456.389,-286.613 455.879,-287.379 C 455.368,-288.144 455.022,-289.019 454.84,-290 C 454.658,-290.985 454.567,-291.988 454.567,-293.008 C 454.567,-295.487 454.658,-298 454.84,-300.551 C 455.022,-303.101 455.24,-305.524 455.496,-307.822 C 455.751,-310.115 455.97,-312.193 456.153,-314.052 C 456.335,-315.911 456.426,-317.422 456.426,-318.588 C 456.426,-320.484 455.97,-321.814 455.058,-322.577 C 454.147,-323.343 452.635,-323.725 450.519,-323.725 C 449.499,-323.725 448.442,-323.652 447.348,-323.51 C 446.254,-323.367 444.869,-323.151 443.192,-322.865 L 442.098,-330.308 C 443.192,-330.606 444.177,-330.867 445.051,-331.092 C 445.926,-331.314 446.802,-331.481 447.676,-331.593 C 448.552,-331.706 449.463,-331.764 450.411,-331.764 C 451.358,-331.764 452.451,-331.764 453.691,-331.764 C 455.587,-331.764 457.337,-331.582 458.941,-331.216 C 460.545,-330.856 461.93,-330.235 463.093,-329.361 C 464.261,-328.485 465.172,-327.322 465.828,-325.867 C 466.484,-324.412 466.812,-322.592 466.812,-320.407 C 466.812,-319.536 466.721,-318.078 466.539,-316.042 C 466.356,-314.004 466.156,-311.673 465.938,-309.055 C 465.719,-306.433 465.518,-303.705 465.336,-300.864 C 465.153,-298.027 465.062,-295.405 465.062,-293.006 C 465.062,-291.112 465.7,-289.73 466.977,-288.856 C 468.253,-287.983 470.313,-287.546 473.156,-287.546 L 473.156,-280.978 C 470.313,-280.978 468.253,-280.54 466.977,-279.666 C 465.7,-278.793 465.062,-277.408 465.062,-275.516 C 465.062,-273.113 465.153,-270.491 465.336,-267.65 C 465.518,-264.81 465.719,-262.079 465.938,-259.457 C 466.156,-256.835 466.356,-254.505 466.539,-252.466 C 466.721,-250.425 466.812,-248.97 466.812,-248.095 C 466.812,-245.91 466.484,-244.091 465.828,-242.633 C 465.172,-241.178 464.261,-240.011 463.093,-239.139 C 461.93,-238.264 460.545,-237.644 458.941,-237.28 C 457.337,-236.915 455.587,-236.733 453.691,-236.733 C 452.451,-236.733 451.358,-236.733 450.411,-236.733 C 449.463,-236.733 448.552,-236.794 447.676,-236.915 C 446.802,-237.036 445.926,-237.219 445.051,-237.462 C 444.177,-237.705 443.192,-237.987 442.098,-238.313 L 443.192,-245.658 C 444.869,-245.361 446.254,-245.139 447.348,-244.993 C 448.442,-244.844 449.499,-244.771 450.519,-244.771 C 452.635,-244.771 454.147,-245.154 455.058,-245.92 C 455.97,-246.686 456.426,-248.016 456.426,-249.912 C 456.426,-251.081 456.335,-252.594 456.153,-254.454 C 455.97,-256.313 455.751,-258.39 455.496,-260.688 C 455.24,-262.984 455.022,-265.412 454.84,-267.963 C 454.658,-270.516 454.567,-273.03 454.567,-275.51 C 454.567,-276.531 454.658,-277.533 454.84,-278.52 C 455.022,-279.505 455.368,-280.379 455.879,-281.145 C 456.389,-281.911 457.118,-282.53 458.066,-283.004 C 459.014,-283.478 460.217,-283.715 461.675,-283.715 L 461.675,-284.808 Z" fill="#4c4c4c" marker-start="none" marker-end="none"/>
    </g>
    <path d="M 225.026,-236.562 C 224.152,-236.45 223.276,-236.283 222.401,-236.061 C 221.527,-235.836 220.542,-235.575 219.448,-235.277 L 220.542,-227.834 C 222.219,-228.12 223.604,-228.336 224.698,-228.479 C 225.792,-228.621 226.849,-228.694 227.869,-228.694 C 229.985,-228.694 231.497,-228.312 232.408,-227.546 C 233.32,-226.783 233.776,-225.453 233.776,-223.557 C 233.776,-222.391 233.685,-220.88 233.503,-219.021 C 233.32,-217.162 233.101,-215.084 232.846,-212.791 C 232.59,-210.493 232.372,-208.07 232.19,-205.52 C 232.008,-202.969 231.917,-200.456 231.917,-197.977 C 231.917,-196.957 232.008,-195.954 232.19,-194.969 C 232.372,-193.988 232.718,-193.113 233.229,-192.348 C 233.739,-191.582 234.468,-190.963 235.416,-190.489 C 235.996,-190.199 236.673,-189.997 237.446,-189.884 L 237.442,-189.919 L 237.568,-188.595 C 236.745,-188.486 236.027,-188.279 235.416,-187.973 C 234.468,-187.499 233.739,-186.88 233.229,-186.114 C 232.718,-185.348 232.372,-184.474 232.19,-183.489 C 232.008,-182.502 231.917,-181.5 231.917,-180.479 C 231.917,-177.999 232.008,-175.485 232.19,-172.932 C 232.372,-170.381 232.59,-167.953 232.846,-165.657 C 233.101,-163.359 233.32,-161.282 233.503,-159.423 C 233.685,-157.563 233.776,-156.05 233.776,-154.881 C 233.776,-152.985 233.32,-151.655 232.408,-150.889 C 231.497,-150.123 229.985,-149.74 227.869,-149.74 C 226.849,-149.74 225.792,-149.813 224.698,-149.962 C 223.604,-150.108 222.219,-150.33 220.542,-150.627 L 219.448,-143.282 C 220.542,-142.956 221.527,-142.674 222.401,-142.431 C 223.276,-142.188 224.152,-142.005 225.026,-141.884 C 225.902,-141.763 226.813,-141.702 227.761,-141.702 L 229.174,-141.702 L 310.292,-121.856 C 309.697,-125.857 308.874,-129.733 307.847,-133.498 L 243.658,-149.202 L 243.725,-149.186 C 244.016,-150.318 244.162,-151.61 244.162,-153.064 C 244.162,-153.939 244.071,-155.394 243.889,-157.435 C 243.784,-158.601 243.674,-159.863 243.558,-161.219 L 303.582,-145.956 C 301.736,-150.424 299.608,-154.739 297.249,-158.925 L 242.676,-172.802 L 242.674,-172.803 C 242.499,-175.574 242.412,-178.134 242.412,-180.485 C 242.412,-181.743 242.693,-182.777 243.258,-183.585 L 243.293,-183.576 L 288.805,-172.154 C 285.398,-176.945 281.73,-181.593 277.891,-186.144 L 243.335,-194.817 L 243.291,-194.828 C 242.705,-195.643 242.412,-196.692 242.412,-197.975 C 242.412,-200.374 242.503,-202.996 242.686,-205.833 C 242.868,-208.674 243.069,-211.402 243.288,-214.024 C 243.506,-216.642 243.706,-218.973 243.889,-221.011 C 244.071,-223.047 244.162,-224.505 244.162,-225.376 C 244.162,-227.561 243.834,-229.381 243.178,-230.836 C 242.522,-232.291 241.611,-233.454 240.443,-234.33 C 239.28,-235.204 237.895,-235.825 236.291,-236.185 C 234.687,-236.551 232.937,-236.733 231.041,-236.733 L 227.761,-236.733 C 226.813,-236.733 225.902,-236.675 225.026,-236.562 Z" stroke="none" fill="#4c4c4c" stroke-width="1.139" stroke-linejoin="miter" stroke-linecap="round" marker-start="none" marker-end="none" stroke-miterlimit="79.8403193612775"/>
    <path d="M 149.016,-236.562 C 149.89,-236.45 150.766,-236.283 151.641,-236.061 C 152.515,-235.836 153.5,-235.575 154.594,-235.277 L 153.5,-227.834 C 151.823,-228.12 150.438,-228.336 149.344,-228.479 C 148.25,-228.621 147.193,-228.694 146.173,-228.694 C 144.057,-228.694 142.545,-228.312 141.634,-227.546 C 140.722,-226.783 140.266,-225.453 140.266,-223.557 C 140.266,-222.391 140.357,-220.88 140.539,-219.021 C 140.722,-217.162 140.941,-215.084 141.196,-212.791 C 141.452,-210.493 141.67,-208.07 141.852,-205.52 C 142.034,-202.969 142.125,-200.456 142.125,-197.977 C 142.125,-196.957 142.034,-195.954 141.852,-194.969 C 141.67,-193.988 141.324,-193.113 140.813,-192.348 C 140.303,-191.582 139.574,-190.963 138.626,-190.489 C 138.046,-190.199 137.369,-189.997 136.596,-189.884 L 136.6,-189.919 L 136.474,-188.595 C 137.297,-188.486 138.015,-188.279 138.626,-187.973 C 139.574,-187.499 140.303,-186.88 140.813,-186.114 C 141.324,-185.348 141.67,-184.474 141.852,-183.489 C 142.034,-182.502 142.125,-181.5 142.125,-180.479 C 142.125,-177.999 142.034,-175.485 141.852,-172.932 C 141.67,-170.381 141.452,-167.953 141.196,-165.657 C 140.941,-163.359 140.722,-161.282 140.539,-159.423 C 140.357,-157.563 140.266,-156.05 140.266,-154.881 C 140.266,-152.985 140.722,-151.655 141.634,-150.889 C 142.545,-150.123 144.057,-149.74 146.173,-149.74 C 147.193,-149.74 148.25,-149.813 149.344,-149.962 C 150.438,-150.108 151.823,-150.33 153.5,-150.627 L 154.594,-143.282 C 153.5,-142.956 152.515,-142.674 151.641,-142.431 C 150.766,-142.188 149.89,-142.005 149.016,-141.884 C 148.14,-141.763 147.229,-141.702 146.281,-141.702 L 144.868,-141.702 L 63.75,-121.856 C 64.345,-125.857 65.168,-129.733 66.195,-133.498 L 130.384,-149.202 L 130.317,-149.186 C 130.026,-150.318 129.88,-151.61 129.88,-153.064 C 129.88,-153.939 129.971,-155.394 130.153,-157.435 C 130.258,-158.601 130.368,-159.863 130.484,-161.219 L 70.46,-145.956 C 72.306,-150.424 74.434,-154.739 76.793,-158.925 L 131.366,-172.802 L 131.368,-172.803 C 131.543,-175.574 131.63,-178.134 131.63,-180.485 C 131.63,-181.743 131.349,-182.777 130.784,-183.585 L 130.749,-183.576 L 85.237,-172.154 C 88.644,-176.945 92.312,-181.593 96.151,-186.144 L 130.707,-194.817 L 130.751,-194.828 C 131.337,-195.643 131.63,-196.692 131.63,-197.975 C 131.63,-200.374 131.539,-202.996 131.356,-205.833 C 131.174,-208.674 130.973,-211.402 130.754,-214.024 C 130.536,-216.642 130.336,-218.973 130.153,-221.011 C 129.971,-223.047 129.88,-224.505 129.88,-225.376 C 129.88,-227.561 130.208,-229.381 130.864,-230.836 C 131.52,-232.291 132.431,-233.454 133.599,-234.33 C 134.762,-235.204 136.147,-235.825 137.751,-236.185 C 139.355,-236.551 141.105,-236.733 143.001,-236.733 L 146.281,-236.733 C 147.229,-236.733 148.14,-236.675 149.016,-236.562 Z" stroke="none" fill="#4c4c4c" stroke-width="1.139" stroke-linejoin="miter" stroke-linecap="round" marker-start="none" marker-end="none" stroke-miterlimit="79.8403193612775"/>
    <path d="M 146.698,-181.828 C 146.698,-177.972 147.306,-174.577 148.521,-171.643 C 149.736,-168.708 151.394,-166.25 153.496,-164.263 C 155.596,-162.28 158.108,-160.8 161.031,-159.823 C 163.952,-158.843 167.088,-158.353 170.437,-158.356 C 173.787,-158.353 176.923,-158.843 179.845,-159.823 C 182.768,-160.8 185.295,-162.28 187.43,-164.263 C 189.564,-166.25 191.239,-168.708 192.453,-171.643 C 193.669,-174.577 194.276,-177.972 194.276,-181.828 C 194.276,-185.686 193.669,-189.081 192.453,-192.014 C 191.239,-194.947 189.564,-197.408 187.43,-199.392 C 185.295,-201.376 182.768,-202.856 179.845,-203.836 C 176.923,-204.812 173.787,-205.301 170.437,-205.301 C 167.088,-205.301 163.952,-204.812 161.031,-203.836 C 158.108,-202.856 155.596,-201.376 153.496,-199.392 C 151.394,-197.408 149.736,-194.947 148.521,-192.014 C 147.306,-189.081 146.698,-185.686 146.698,-181.828 Z M 156.548,-181.828 C 156.548,-187.584 157.845,-191.848 160.439,-194.612 C 163.032,-197.377 166.366,-198.763 170.437,-198.763 C 174.575,-198.763 177.941,-197.377 180.534,-194.612 C 183.128,-191.848 184.425,-187.584 184.425,-181.828 C 184.425,-176.07 183.128,-171.809 180.534,-169.044 C 177.941,-166.277 174.575,-164.894 170.437,-164.894 C 166.366,-164.894 163.032,-166.277 160.439,-169.044 C 157.845,-171.809 156.548,-176.07 156.548,-181.828 Z" fill-rule="nonzero" stroke-linejoin="round" stroke-linecap="round" stroke="none" stroke-width="1.026" fill="#d27500" marker-start="none" marker-end="none" stroke-miterlimit="79.8403193612775"/>
    <path d="M 206.206,-180.809 C 203.498,-180.812 201.218,-181.328 199.365,-182.356 C 197.514,-183.389 196.587,-184.964 196.587,-187.087 C 196.587,-188.781 197.299,-190.192 198.724,-191.314 C 200.15,-192.434 201.929,-193.448 204.067,-194.355 C 206.206,-195.268 208.503,-196.176 210.96,-197.087 C 213.418,-197.995 215.716,-199.073 217.852,-200.314 C 219.99,-201.555 221.771,-203.072 223.195,-204.862 C 224.62,-206.644 225.332,-208.903 225.332,-211.635 C 225.332,-215.695 223.587,-218.955 220.096,-221.406 C 216.605,-223.862 211.761,-225.09 205.563,-225.09 C 199.438,-225.09 194.752,-223.873 191.511,-221.436 C 188.269,-219.003 186.044,-215.618 184.832,-211.288 C 184.598,-208.189 191.112,-205.912 193.702,-208.782 C 194.057,-210.75 194.645,-212.363 195.465,-213.614 C 196.284,-214.871 197.265,-215.853 198.403,-216.572 C 199.543,-217.286 200.791,-217.78 202.145,-218.049 C 203.498,-218.317 204.885,-218.45 206.311,-218.45 C 208.733,-218.45 210.87,-217.952 212.723,-216.951 C 214.575,-215.951 215.502,-214.389 215.502,-212.268 C 215.502,-210.692 214.79,-209.388 213.365,-208.357 C 211.939,-207.325 210.158,-206.358 208.021,-205.448 C 205.883,-204.54 203.586,-203.614 201.129,-202.673 C 198.671,-201.736 196.374,-200.599 194.237,-199.266 C 192.1,-197.933 190.317,-196.309 188.893,-194.403 C 187.469,-192.493 186.756,-190.111 186.756,-187.264 C 186.756,-185.87 187.076,-184.4 187.718,-182.854 C 188.358,-181.307 189.445,-179.898 190.977,-178.628 C 192.508,-177.354 194.54,-176.294 197.068,-175.444 C 199.596,-174.596 202.713,-174.172 206.418,-174.172 C 211.334,-174.172 215.412,-175.135 218.654,-177.057 C 221.894,-178.983 224.228,-182.215 225.654,-186.76 C 225.398,-189.863 220.336,-191.367 216.784,-189.265 C 216.001,-186.642 214.718,-184.575 212.936,-183.068 C 211.156,-181.565 208.911,-180.812 206.206,-180.809 Z" fill-rule="nonzero" stroke-linejoin="round" stroke-linecap="round" stroke="none" stroke-width="1.113" fill="#d27500" marker-start="none" marker-end="none" stroke-miterlimit="79.8403193612775"/>
    <path d="M 506.578,-135.706 C 505.704,-135.594 504.828,-135.427 503.953,-135.205 C 503.079,-134.98 502.094,-134.719 501,-134.421 L 502.094,-126.978 C 503.771,-127.264 505.156,-127.48 506.25,-127.623 C 507.344,-127.765 508.401,-127.838 509.421,-127.838 C 511.537,-127.838 513.049,-127.456 513.96,-126.69 C 514.872,-125.927 515.328,-124.597 515.328,-122.701 C 515.328,-121.535 515.237,-120.024 515.055,-118.165 C 514.872,-116.306 514.653,-114.228 514.398,-111.935 C 514.142,-109.637 513.924,-107.214 513.742,-104.664 C 513.56,-102.113 513.469,-99.6 513.469,-97.121 C 513.469,-96.101 513.56,-95.098 513.742,-94.113 C 513.924,-93.132 514.27,-92.257 514.781,-91.492 C 515.291,-90.726 516.02,-90.107 516.968,-89.633 C 517.548,-89.343 518.225,-89.141 518.998,-89.028 L 518.994,-89.063 L 519.12,-87.739 C 518.297,-87.63 517.579,-87.423 516.968,-87.117 C 516.02,-86.643 515.291,-86.024 514.781,-85.258 C 514.27,-84.492 513.924,-83.618 513.742,-82.633 C 513.56,-81.646 513.469,-80.644 513.469,-79.623 C 513.469,-77.143 513.56,-74.629 513.742,-72.076 C 513.924,-69.525 514.142,-67.097 514.398,-64.801 C 514.653,-62.503 514.872,-60.426 515.055,-58.567 C 515.237,-56.707 515.328,-55.194 515.328,-54.025 C 515.328,-52.129 514.872,-50.799 513.96,-50.033 C 513.049,-49.267 511.537,-48.884 509.421,-48.884 C 508.401,-48.884 507.344,-48.957 506.25,-49.106 C 505.156,-49.252 503.771,-49.474 502.094,-49.771 L 501,-42.426 C 502.094,-42.1 503.079,-41.818 503.953,-41.575 C 504.828,-41.332 505.704,-41.149 506.578,-41.028 C 507.454,-40.907 508.365,-40.846 509.313,-40.846 L 510.726,-40.846 L 591.844,-21 C 591.249,-25.001 590.426,-28.877 589.399,-32.642 L 525.21,-48.346 L 525.277,-48.33 C 525.568,-49.462 525.714,-50.754 525.714,-52.208 C 525.714,-53.083 525.623,-54.538 525.441,-56.579 C 525.336,-57.745 525.226,-59.007 525.11,-60.363 L 585.134,-45.1 C 583.288,-49.568 581.16,-53.883 578.801,-58.069 L 524.228,-71.946 L 524.226,-71.947 C 524.051,-74.718 523.964,-77.278 523.964,-79.629 C 523.964,-80.887 524.245,-81.921 524.81,-82.729 L 524.845,-82.72 L 570.357,-71.298 C 566.95,-76.089 563.282,-80.737 559.443,-85.288 L 524.887,-93.961 L 524.843,-93.972 C 524.257,-94.787 523.964,-95.836 523.964,-97.119 C 523.964,-99.518 524.055,-102.14 524.238,-104.977 C 524.42,-107.818 524.621,-110.546 524.84,-113.168 C 525.058,-115.786 525.258,-118.117 525.441,-120.155 C 525.623,-122.191 525.714,-123.649 525.714,-124.52 C 525.714,-126.705 525.386,-128.525 524.73,-129.98 C 524.074,-131.435 523.163,-132.598 521.995,-133.474 C 520.832,-134.348 519.447,-134.969 517.843,-135.329 C 516.239,-135.695 514.489,-135.877 512.593,-135.877 L 509.313,-135.877 C 508.365,-135.877 507.454,-135.819 506.578,-135.706 Z" stroke="none" fill="#4c4c4c" stroke-width="1.139" stroke-linejoin="miter" stroke-linecap="round" marker-start="none" marker-end="none" stroke-miterlimit="79.8403193612775"/>
    <path d="M 417.068,-135.706 C 417.942,-135.594 418.818,-135.427 419.693,-135.205 C 420.567,-134.98 421.552,-134.719 422.646,-134.421 L 421.552,-126.978 C 419.875,-127.264 418.49,-127.48 417.396,-127.623 C 416.302,-127.765 415.245,-127.838 414.225,-127.838 C 412.109,-127.838 410.597,-127.456 409.686,-126.69 C 408.774,-125.927 408.318,-124.597 408.318,-122.701 C 408.318,-121.535 408.409,-120.024 408.591,-118.165 C 408.774,-116.306 408.993,-114.228 409.248,-111.935 C 409.504,-109.637 409.722,-107.214 409.904,-104.664 C 410.086,-102.113 410.177,-99.6 410.177,-97.121 C 410.177,-96.101 410.086,-95.098 409.904,-94.113 C 409.722,-93.132 409.376,-92.257 408.865,-91.492 C 408.355,-90.726 407.626,-90.107 406.678,-89.633 C 406.098,-89.343 405.421,-89.141 404.648,-89.028 L 404.652,-89.063 L 404.526,-87.739 C 405.349,-87.63 406.067,-87.423 406.678,-87.117 C 407.626,-86.643 408.355,-86.024 408.865,-85.258 C 409.376,-84.492 409.722,-83.618 409.904,-82.633 C 410.086,-81.646 410.177,-80.644 410.177,-79.623 C 410.177,-77.143 410.086,-74.629 409.904,-72.076 C 409.722,-69.525 409.504,-67.097 409.248,-64.801 C 408.993,-62.503 408.774,-60.426 408.591,-58.567 C 408.409,-56.707 408.318,-55.194 408.318,-54.025 C 408.318,-52.129 408.774,-50.799 409.686,-50.033 C 410.597,-49.267 412.109,-48.884 414.225,-48.884 C 415.245,-48.884 416.302,-48.957 417.396,-49.106 C 418.49,-49.252 419.875,-49.474 421.552,-49.771 L 422.646,-42.426 C 421.552,-42.1 420.567,-41.818 419.693,-41.575 C 418.818,-41.332 417.942,-41.149 417.068,-41.028 C 416.192,-40.907 415.281,-40.846 414.333,-40.846 L 412.92,-40.846 L 331.802,-21 C 332.397,-25.001 333.22,-28.877 334.247,-32.642 L 398.436,-48.346 L 398.369,-48.33 C 398.078,-49.462 397.932,-50.754 397.932,-52.208 C 397.932,-53.083 398.023,-54.538 398.205,-56.579 C 398.31,-57.745 398.42,-59.007 398.536,-60.363 L 338.512,-45.1 C 340.358,-49.568 342.486,-53.883 344.845,-58.069 L 399.418,-71.946 L 399.42,-71.947 C 399.595,-74.718 399.682,-77.278 399.682,-79.629 C 399.682,-80.887 399.401,-81.921 398.836,-82.729 L 398.801,-82.72 L 353.289,-71.298 C 356.696,-76.089 360.364,-80.737 364.203,-85.288 L 398.759,-93.961 L 398.803,-93.972 C 399.389,-94.787 399.682,-95.836 399.682,-97.119 C 399.682,-99.518 399.591,-102.14 399.408,-104.977 C 399.226,-107.818 399.025,-110.546 398.806,-113.168 C 398.588,-115.786 398.388,-118.117 398.205,-120.155 C 398.023,-122.191 397.932,-123.649 397.932,-124.52 C 397.932,-126.705 398.26,-128.525 398.916,-129.98 C 399.572,-131.435 400.483,-132.598 401.651,-133.474 C 402.814,-134.348 404.199,-134.969 405.803,-135.329 C 407.407,-135.695 409.157,-135.877 411.053,-135.877 L 414.333,-135.877 C 415.281,-135.877 416.192,-135.819 417.068,-135.706 Z" stroke="none" fill="#4c4c4c" stroke-width="1.139" stroke-linejoin="miter" stroke-linecap="round" marker-start="none" marker-end="none" stroke-miterlimit="79.8403193612775"/>
    <path d="M 414.955,-91.12 C 414.955,-86.993 415.606,-83.36 416.906,-80.22 C 418.207,-77.078 419.981,-74.448 422.231,-72.322 C 424.478,-70.199 427.167,-68.615 430.294,-67.57 C 433.421,-66.521 436.778,-65.997 440.361,-66 C 443.946,-65.997 447.303,-66.521 450.429,-67.57 C 453.558,-68.615 456.262,-70.199 458.547,-72.322 C 460.831,-74.448 462.623,-77.078 463.923,-80.22 C 465.224,-83.36 465.874,-86.993 465.874,-91.12 C 465.874,-95.249 465.224,-98.882 463.923,-102.021 C 462.623,-105.16 460.831,-107.794 458.547,-109.917 C 456.262,-112.04 453.558,-113.624 450.429,-114.673 C 447.303,-115.718 443.946,-116.241 440.361,-116.241 C 436.778,-116.241 433.421,-115.718 430.294,-114.673 C 427.167,-113.624 424.478,-112.04 422.231,-109.917 C 419.981,-107.794 418.207,-105.16 416.906,-102.021 C 415.606,-98.882 414.955,-95.249 414.955,-91.12 Z M 425.497,-91.12 C 425.497,-97.28 426.885,-101.844 429.661,-104.801 C 432.437,-107.761 436.004,-109.244 440.361,-109.244 C 444.79,-109.244 448.392,-107.761 451.168,-104.801 C 453.943,-101.844 455.332,-97.28 455.332,-91.12 C 455.332,-84.958 453.943,-80.398 451.168,-77.438 C 448.392,-74.477 444.79,-72.996 440.361,-72.996 C 436.004,-72.996 432.437,-74.477 429.661,-77.438 C 426.885,-80.398 425.497,-84.958 425.497,-91.12 Z" fill="#0082a2" fill-rule="nonzero" stroke-linejoin="round" stroke-linecap="round" stroke="none" stroke-width="1.098" marker-start="none" marker-end="none" stroke-miterlimit="79.8403193612775"/>
    <path d="M 488.56,-72.558 C 485.888,-72.56 483.64,-73.069 481.811,-74.084 C 479.985,-75.103 479.07,-76.658 479.07,-78.752 C 479.07,-80.424 479.773,-81.815 481.178,-82.924 C 482.585,-84.029 484.342,-85.029 486.45,-85.924 C 488.56,-86.824 490.827,-87.721 493.25,-88.62 C 495.677,-89.516 497.944,-90.58 500.053,-91.803 C 502.161,-93.028 503.919,-94.525 505.323,-96.291 C 506.73,-98.05 507.433,-100.279 507.433,-102.975 C 507.433,-106.981 505.711,-110.197 502.266,-112.616 C 498.822,-115.039 494.042,-116.25 487.927,-116.25 C 481.882,-116.25 477.26,-115.05 474.062,-112.645 C 470.862,-110.243 468.666,-106.905 467.471,-102.632 C 467.239,-99.574 473.668,-97.327 476.223,-100.16 C 476.574,-102.101 477.153,-103.692 477.963,-104.927 C 478.77,-106.167 479.738,-107.135 480.862,-107.845 C 481.987,-108.55 483.217,-109.038 484.553,-109.304 C 485.888,-109.567 487.257,-109.699 488.665,-109.699 C 491.055,-109.699 493.162,-109.206 494.991,-108.22 C 496.818,-107.233 497.734,-105.692 497.734,-103.599 C 497.734,-102.043 497.03,-100.758 495.624,-99.74 C 494.218,-98.722 492.46,-97.767 490.352,-96.87 C 488.243,-95.974 485.975,-95.06 483.551,-94.132 C 481.125,-93.207 478.859,-92.084 476.751,-90.77 C 474.641,-89.454 472.883,-87.852 471.478,-85.971 C 470.072,-84.087 469.369,-81.736 469.369,-78.927 C 469.369,-77.551 469.685,-76.101 470.318,-74.575 C 470.95,-73.049 472.023,-71.658 473.533,-70.405 C 475.045,-69.148 477.049,-68.102 479.545,-67.264 C 482.039,-66.428 485.115,-66.009 488.77,-66.009 C 493.62,-66.009 497.645,-66.96 500.843,-68.855 C 504.041,-70.756 506.344,-73.945 507.75,-78.43 C 507.498,-81.49 502.503,-82.976 498.998,-80.901 C 498.225,-78.312 496.96,-76.273 495.201,-74.787 C 493.445,-73.304 491.23,-72.56 488.56,-72.558 Z" fill="#0082a2" fill-rule="nonzero" stroke-linejoin="round" stroke-linecap="round" stroke="none" stroke-width="1.098" marker-start="none" marker-end="none" stroke-miterlimit="79.8403193612775"/>
    <path d="M 734.016,-52.793 C 734.89,-52.681 735.766,-52.514 736.641,-52.292 C 737.515,-52.067 738.5,-51.806 739.594,-51.508 L 738.5,-44.065 C 736.823,-44.351 735.438,-44.567 734.344,-44.71 C 733.25,-44.852 732.193,-44.925 731.173,-44.925 C 729.057,-44.925 727.545,-44.543 726.634,-43.777 C 725.722,-43.014 725.266,-41.684 725.266,-39.788 C 725.266,-38.622 725.357,-37.111 725.539,-35.252 C 725.722,-33.393 725.941,-31.315 726.196,-29.022 C 726.452,-26.724 726.67,-24.301 726.852,-21.751 C 727.034,-19.2 727.125,-16.687 727.125,-14.208 C 727.125,-13.188 727.034,-12.185 726.852,-11.2 C 726.67,-10.219 726.324,-9.344 725.813,-8.579 C 725.303,-7.813 724.443,-7.217 723.626,-6.72 C 722.532,-6.054 721.252,-5.761 720.071,-5.258 C 721.785,-5.134 722.543,-4.769 723.626,-4.204 C 724.461,-3.769 725.303,-3.111 725.813,-2.345 C 726.324,-1.579 726.67,-0.705 726.852,0.28 C 727.034,1.267 727.125,2.269 727.125,3.29 C 727.125,5.77 727.034,8.284 726.852,10.837 C 726.67,13.388 726.452,15.816 726.196,18.112 C 725.941,20.41 725.722,22.487 725.539,24.346 C 725.357,26.206 725.266,27.719 725.266,28.888 C 725.266,30.784 725.722,32.114 726.634,32.88 C 727.545,33.646 729.057,34.029 731.173,34.029 C 732.193,34.029 733.25,33.956 734.344,33.807 C 735.438,33.661 736.823,33.439 738.5,33.142 L 739.594,40.487 C 738.5,40.813 737.632,41.12 736.641,41.338 C 731.142,42.547 726.644,43.124 719.718,43.67 C 715.386,44.012 671.895,56.298 648.75,61.913 C 649.306,58.175 650.061,56.047 650.995,52.516 C 651.207,52.061 651.557,51.742 652.046,51.564 L 715.384,34.567 L 715.317,34.583 C 715.026,33.451 714.88,32.159 714.88,30.705 C 714.88,29.83 714.971,28.375 715.153,26.334 C 715.258,25.168 715.368,23.906 715.484,22.55 L 655.46,37.813 C 657.19,33.625 659.168,31.072 661.352,27.133 C 661.751,26.551 662.199,26.3 662.656,26.126 L 716.366,10.967 L 716.368,10.966 C 716.543,8.195 716.63,5.635 716.63,3.284 C 716.63,2.026 716.349,0.992 715.784,0.184 L 715.749,0.193 L 670.237,11.615 C 673.418,7.142 676.826,4.294 680.388,0.034 C 680.894,-0.466 681.501,-0.867 682.229,-1.145 L 714.535,-10.753 C 716.356,-11.321 716.655,-12.68 716.63,-14.206 C 716.63,-16.605 716.539,-19.227 716.356,-22.064 C 716.174,-24.905 715.973,-27.633 715.754,-30.255 C 715.536,-32.873 715.336,-35.204 715.153,-37.242 C 714.971,-39.278 714.88,-40.736 714.88,-41.607 C 714.88,-43.792 715.208,-45.612 715.864,-47.067 C 716.52,-48.522 717.431,-49.685 718.599,-50.561 C 719.762,-51.435 721.147,-52.056 722.751,-52.416 C 724.355,-52.782 726.105,-52.964 728.001,-52.964 L 731.281,-52.964 C 732.229,-52.964 733.14,-52.906 734.016,-52.793 Z" stroke="none" fill="#4c4c4c" stroke-width="1.139" stroke-linejoin="miter" stroke-linecap="round" marker-start="none" marker-end="none" stroke-miterlimit="79.8403193612775"/>
    <path d="M 737.715,-4.101 C 737.715,1.186 738.55,5.84 740.214,9.863 C 741.881,13.888 744.154,17.258 747.036,19.981 C 749.915,22.701 753.36,24.73 757.367,26.069 C 761.372,27.413 765.673,28.085 770.263,28.08 C 774.856,28.085 779.157,27.413 783.162,26.069 C 787.171,24.73 790.634,22.701 793.561,19.981 C 796.487,17.258 798.783,13.888 800.449,9.863 C 802.116,5.84 802.948,1.186 802.948,-4.101 C 802.948,-9.391 802.116,-14.045 800.449,-18.066 C 798.783,-22.088 796.487,-25.462 793.561,-28.183 C 790.634,-30.902 787.171,-32.932 783.162,-34.275 C 779.157,-35.614 774.856,-36.284 770.263,-36.284 C 765.673,-36.284 761.372,-35.614 757.367,-34.275 C 753.36,-32.932 749.915,-30.902 747.036,-28.183 C 744.154,-25.462 741.881,-22.088 740.214,-18.066 C 738.55,-14.045 737.715,-9.391 737.715,-4.101 Z M 751.221,-4.101 C 751.221,-11.993 752.999,-17.84 756.555,-21.628 C 760.112,-25.42 764.682,-27.32 770.263,-27.32 C 775.938,-27.32 780.552,-25.42 784.108,-21.628 C 787.664,-17.84 789.442,-11.993 789.442,-4.101 C 789.442,3.793 787.664,9.635 784.108,13.427 C 780.552,17.22 775.938,19.118 770.263,19.118 C 764.682,19.118 760.112,17.22 756.555,13.427 C 752.999,9.635 751.221,3.793 751.221,-4.101 Z" fill="#007f01" fill-rule="nonzero" stroke-linejoin="round" stroke-linecap="round" stroke="none" stroke-width="1.407" marker-start="none" marker-end="none" stroke-miterlimit="79.8403193612775"/>
    <path d="M 805.573,-52.793 C 804.699,-52.681 803.823,-52.514 802.948,-52.292 C 802.074,-52.067 801.089,-51.806 799.995,-51.508 L 801.089,-44.065 C 802.766,-44.351 804.151,-44.567 805.245,-44.71 C 806.339,-44.852 807.396,-44.925 808.416,-44.925 C 810.532,-44.925 812.044,-44.543 812.955,-43.777 C 813.867,-43.014 814.323,-41.684 814.323,-39.788 C 814.323,-38.622 814.232,-37.111 814.05,-35.252 C 813.867,-33.393 813.648,-31.315 813.393,-29.022 C 813.137,-26.724 812.919,-24.301 812.737,-21.751 C 812.555,-19.2 812.464,-16.687 812.464,-14.208 C 812.464,-13.188 812.555,-12.185 812.737,-11.2 C 812.919,-10.219 813.265,-9.344 813.776,-8.579 C 814.286,-7.813 815.146,-7.217 815.963,-6.72 C 817.057,-6.054 818.337,-5.761 819.518,-5.258 C 817.804,-5.134 817.046,-4.769 815.963,-4.204 C 815.128,-3.769 814.286,-3.111 813.776,-2.345 C 813.265,-1.579 812.919,-0.705 812.737,0.28 C 812.555,1.267 812.464,2.269 812.464,3.29 C 812.464,5.77 812.555,8.284 812.737,10.837 C 812.919,13.388 813.137,15.816 813.393,18.112 C 813.648,20.41 813.867,22.487 814.05,24.346 C 814.232,26.206 814.323,27.719 814.323,28.888 C 814.323,30.784 813.867,32.114 812.955,32.88 C 812.044,33.646 810.532,34.029 808.416,34.029 C 807.396,34.029 806.339,33.956 805.245,33.807 C 804.151,33.661 802.766,33.439 801.089,33.142 L 799.995,40.487 C 801.089,40.813 801.957,41.12 802.948,41.338 C 808.447,42.547 812.945,43.124 819.871,43.67 C 824.203,44.012 867.694,56.298 890.839,61.913 C 890.283,58.175 889.528,56.047 888.594,52.516 C 888.382,52.061 888.032,51.742 887.543,51.564 L 824.205,34.567 L 824.272,34.583 C 824.563,33.451 824.709,32.159 824.709,30.705 C 824.709,29.83 824.618,28.375 824.436,26.334 C 824.331,25.168 824.221,23.906 824.105,22.55 L 884.129,37.813 C 882.399,33.625 880.421,31.072 878.237,27.133 C 877.838,26.551 877.39,26.3 876.933,26.126 L 823.223,10.967 L 823.221,10.966 C 823.046,8.195 822.959,5.635 822.959,3.284 C 822.959,2.026 823.24,0.992 823.805,0.184 L 823.84,0.193 L 869.352,11.615 C 866.171,7.142 862.763,4.294 859.201,0.034 C 858.695,-0.466 858.088,-0.867 857.36,-1.145 L 825.054,-10.753 C 823.233,-11.321 822.934,-12.68 822.959,-14.206 C 822.959,-16.605 823.05,-19.227 823.233,-22.064 C 823.415,-24.905 823.616,-27.633 823.835,-30.255 C 824.053,-32.873 824.253,-35.204 824.436,-37.242 C 824.618,-39.278 824.709,-40.736 824.709,-41.607 C 824.709,-43.792 824.381,-45.612 823.725,-47.067 C 823.069,-48.522 822.158,-49.685 820.99,-50.561 C 819.827,-51.435 818.442,-52.056 816.838,-52.416 C 815.234,-52.782 813.484,-52.964 811.588,-52.964 L 808.308,-52.964 C 807.36,-52.964 806.449,-52.906 805.573,-52.793 Z" stroke="none" fill="#4c4c4c" stroke-width="1.139" stroke-linejoin="miter" stroke-linecap="round" marker-start="none" marker-end="none" stroke-miterlimit="79.8403193612775"/>
    <path d="M 734.016,-192.579 C 734.89,-192.467 735.766,-192.3 736.641,-192.078 C 737.515,-191.853 738.5,-191.592 739.594,-191.294 L 738.5,-183.851 C 736.823,-184.137 735.438,-184.353 734.344,-184.496 C 733.25,-184.638 732.193,-184.711 731.173,-184.711 C 729.057,-184.711 727.545,-184.329 726.634,-183.563 C 725.722,-182.8 725.266,-181.47 725.266,-179.574 C 725.266,-178.408 725.357,-176.897 725.539,-175.038 C 725.722,-173.179 725.941,-171.101 726.196,-168.808 C 726.452,-166.51 726.67,-164.087 726.852,-161.537 C 727.034,-158.986 727.125,-156.473 727.125,-153.994 C 727.125,-152.974 727.034,-151.971 726.852,-150.986 C 726.67,-150.005 726.324,-149.13 725.813,-148.365 C 725.303,-147.599 724.443,-147.003 723.626,-146.506 C 722.532,-145.84 721.252,-145.547 720.071,-145.044 C 721.785,-144.92 722.543,-144.555 723.626,-143.99 C 724.461,-143.555 725.303,-142.897 725.813,-142.131 C 726.324,-141.365 726.67,-140.491 726.852,-139.506 C 727.034,-138.519 727.125,-137.517 727.125,-136.496 C 727.125,-134.016 727.034,-131.502 726.852,-128.949 C 726.67,-126.398 726.452,-123.97 726.196,-121.674 C 725.941,-119.376 725.722,-117.299 725.539,-115.44 C 725.357,-113.58 725.266,-112.067 725.266,-110.898 C 725.266,-109.002 725.722,-107.672 726.634,-106.906 C 727.545,-106.14 729.057,-105.757 731.173,-105.757 C 732.193,-105.757 733.25,-105.83 734.344,-105.979 C 735.438,-106.125 736.823,-106.347 738.5,-106.644 L 739.594,-99.299 C 738.5,-98.973 737.632,-98.666 736.641,-98.448 C 731.142,-97.239 726.644,-96.662 719.718,-96.116 C 715.386,-95.774 671.895,-83.488 648.75,-77.873 C 649.306,-81.611 650.061,-83.739 650.995,-87.27 C 651.207,-87.725 651.557,-88.044 652.046,-88.222 L 715.384,-105.219 L 715.317,-105.203 C 715.026,-106.335 714.88,-107.627 714.88,-109.081 C 714.88,-109.956 714.971,-111.411 715.153,-113.452 C 715.258,-114.618 715.368,-115.88 715.484,-117.236 L 655.46,-101.973 C 657.19,-106.161 659.168,-108.714 661.352,-112.653 C 661.751,-113.235 662.199,-113.486 662.656,-113.66 L 716.366,-128.819 L 716.368,-128.82 C 716.543,-131.591 716.63,-134.151 716.63,-136.502 C 716.63,-137.76 716.349,-138.794 715.784,-139.602 L 715.749,-139.593 L 670.237,-128.171 C 673.418,-132.644 676.826,-135.492 680.388,-139.752 C 680.894,-140.252 681.501,-140.653 682.229,-140.931 L 714.535,-150.539 C 716.356,-151.107 716.655,-152.466 716.63,-153.992 C 716.63,-156.391 716.539,-159.013 716.356,-161.85 C 716.174,-164.691 715.973,-167.419 715.754,-170.041 C 715.536,-172.659 715.336,-174.99 715.153,-177.028 C 714.971,-179.064 714.88,-180.522 714.88,-181.393 C 714.88,-183.578 715.208,-185.398 715.864,-186.853 C 716.52,-188.308 717.431,-189.471 718.599,-190.347 C 719.762,-191.221 721.147,-191.842 722.751,-192.202 C 724.355,-192.568 726.105,-192.75 728.001,-192.75 L 731.281,-192.75 C 732.229,-192.75 733.14,-192.692 734.016,-192.579 Z" stroke="none" fill="#4c4c4c" stroke-width="1.139" stroke-linejoin="miter" stroke-linecap="round" marker-start="none" marker-end="none" stroke-miterlimit="79.8403193612775"/>
    <path d="M 737.715,-143.887 C 737.715,-138.6 738.55,-133.946 740.214,-129.923 C 741.881,-125.898 744.154,-122.528 747.036,-119.805 C 749.915,-117.085 753.36,-115.056 757.367,-113.717 C 761.372,-112.373 765.673,-111.701 770.263,-111.706 C 774.856,-111.701 779.157,-112.373 783.162,-113.717 C 787.171,-115.056 790.634,-117.085 793.561,-119.805 C 796.487,-122.528 798.783,-125.898 800.449,-129.923 C 802.116,-133.946 802.948,-138.6 802.948,-143.887 C 802.948,-149.177 802.116,-153.831 800.449,-157.852 C 798.783,-161.874 796.487,-165.248 793.561,-167.969 C 790.634,-170.688 787.171,-172.718 783.162,-174.061 C 779.157,-175.4 774.856,-176.07 770.263,-176.07 C 765.673,-176.07 761.372,-175.4 757.367,-174.061 C 753.36,-172.718 749.915,-170.688 747.036,-167.969 C 744.154,-165.248 741.881,-161.874 740.214,-157.852 C 738.55,-153.831 737.715,-149.177 737.715,-143.887 Z M 751.221,-143.887 C 751.221,-151.779 752.999,-157.626 756.555,-161.414 C 760.112,-165.206 764.682,-167.106 770.263,-167.106 C 775.938,-167.106 780.552,-165.206 784.108,-161.414 C 787.664,-157.626 789.442,-151.779 789.442,-143.887 C 789.442,-135.993 787.664,-130.151 784.108,-126.359 C 780.552,-122.566 775.938,-120.668 770.263,-120.668 C 764.682,-120.668 760.112,-122.566 756.555,-126.359 C 752.999,-130.151 751.221,-135.993 751.221,-143.887 Z" fill="#0082a2" fill-rule="nonzero" stroke-linejoin="round" stroke-linecap="round" stroke="none" stroke-width="1.407" marker-start="none" marker-end="none" stroke-miterlimit="79.8403193612775"/>
    <path d="M 805.573,-192.579 C 804.699,-192.467 803.823,-192.3 802.948,-192.078 C 802.074,-191.853 801.089,-191.592 799.995,-191.294 L 801.089,-183.851 C 802.766,-184.137 804.151,-184.353 805.245,-184.496 C 806.339,-184.638 807.396,-184.711 808.416,-184.711 C 810.532,-184.711 812.044,-184.329 812.955,-183.563 C 813.867,-182.8 814.323,-181.47 814.323,-179.574 C 814.323,-178.408 814.232,-176.897 814.05,-175.038 C 813.867,-173.179 813.648,-171.101 813.393,-168.808 C 813.137,-166.51 812.919,-164.087 812.737,-161.537 C 812.555,-158.986 812.464,-156.473 812.464,-153.994 C 812.464,-152.974 812.555,-151.971 812.737,-150.986 C 812.919,-150.005 813.265,-149.13 813.776,-148.365 C 814.286,-147.599 815.146,-147.003 815.963,-146.506 C 817.057,-145.84 818.337,-145.547 819.518,-145.044 C 817.804,-144.92 817.046,-144.555 815.963,-143.99 C 815.128,-143.555 814.286,-142.897 813.776,-142.131 C 813.265,-141.365 812.919,-140.491 812.737,-139.506 C 812.555,-138.519 812.464,-137.517 812.464,-136.496 C 812.464,-134.016 812.555,-131.502 812.737,-128.949 C 812.919,-126.398 813.137,-123.97 813.393,-121.674 C 813.648,-119.376 813.867,-117.299 814.05,-115.44 C 814.232,-113.58 814.323,-112.067 814.323,-110.898 C 814.323,-109.002 813.867,-107.672 812.955,-106.906 C 812.044,-106.14 810.532,-105.757 808.416,-105.757 C 807.396,-105.757 806.339,-105.83 805.245,-105.979 C 804.151,-106.125 802.766,-106.347 801.089,-106.644 L 799.995,-99.299 C 801.089,-98.973 801.957,-98.666 802.948,-98.448 C 808.447,-97.239 812.945,-96.662 819.871,-96.116 C 824.203,-95.774 867.694,-83.488 890.839,-77.873 C 890.283,-81.611 889.528,-83.739 888.594,-87.27 C 888.382,-87.725 888.032,-88.044 887.543,-88.222 L 824.205,-105.219 L 824.272,-105.203 C 824.563,-106.335 824.709,-107.627 824.709,-109.081 C 824.709,-109.956 824.618,-111.411 824.436,-113.452 C 824.331,-114.618 824.221,-115.88 824.105,-117.236 L 884.129,-101.973 C 882.399,-106.161 880.421,-108.714 878.237,-112.653 C 877.838,-113.235 877.39,-113.486 876.933,-113.66 L 823.223,-128.819 L 823.221,-128.82 C 823.046,-131.591 822.959,-134.151 822.959,-136.502 C 822.959,-137.76 823.24,-138.794 823.805,-139.602 L 823.84,-139.593 L 869.352,-128.171 C 866.171,-132.644 862.763,-135.492 859.201,-139.752 C 858.695,-140.252 858.088,-140.653 857.36,-140.931 L 825.054,-150.539 C 823.233,-151.107 822.934,-152.466 822.959,-153.992 C 822.959,-156.391 823.05,-159.013 823.233,-161.85 C 823.415,-164.691 823.616,-167.419 823.835,-170.041 C 824.053,-172.659 824.253,-174.99 824.436,-177.028 C 824.618,-179.064 824.709,-180.522 824.709,-181.393 C 824.709,-183.578 824.381,-185.398 823.725,-186.853 C 823.069,-188.308 822.158,-189.471 820.99,-190.347 C 819.827,-191.221 818.442,-191.842 816.838,-192.202 C 815.234,-192.568 813.484,-192.75 811.588,-192.75 L 808.308,-192.75 C 807.36,-192.75 806.449,-192.692 805.573,-192.579 Z" stroke="none" fill="#4c4c4c" stroke-width="1.139" stroke-linejoin="miter" stroke-linecap="round" marker-start="none" marker-end="none" stroke-miterlimit="79.8403193612775"/>
    <path d="M 734.016,75.171 C 734.89,75.283 735.766,75.45 736.641,75.672 C 737.515,75.897 738.5,76.158 739.594,76.456 L 738.5,83.899 C 736.823,83.613 735.438,83.397 734.344,83.254 C 733.25,83.112 732.193,83.039 731.173,83.039 C 729.057,83.039 727.545,83.421 726.634,84.187 C 725.722,84.95 725.266,86.28 725.266,88.176 C 725.266,89.342 725.357,90.853 725.539,92.712 C 725.722,94.571 725.941,96.649 726.196,98.942 C 726.452,101.24 726.67,103.663 726.852,106.213 C 727.034,108.764 727.125,111.277 727.125,113.756 C 727.125,114.776 727.034,115.779 726.852,116.764 C 726.67,117.745 726.324,118.62 725.813,119.385 C 725.303,120.151 724.443,120.747 723.626,121.244 C 722.532,121.91 721.252,122.203 720.071,122.706 C 721.785,122.83 722.543,123.195 723.626,123.76 C 724.461,124.195 725.303,124.853 725.813,125.619 C 726.324,126.385 726.67,127.259 726.852,128.244 C 727.034,129.231 727.125,130.233 727.125,131.254 C 727.125,133.734 727.034,136.248 726.852,138.801 C 726.67,141.352 726.452,143.78 726.196,146.076 C 725.941,148.374 725.722,150.451 725.539,152.31 C 725.357,154.17 725.266,155.683 725.266,156.852 C 725.266,158.748 725.722,160.078 726.634,160.844 C 727.545,161.61 729.057,161.993 731.173,161.993 C 732.193,161.993 733.25,161.92 734.344,161.771 C 735.438,161.625 736.823,161.403 738.5,161.106 L 739.594,168.451 C 738.5,168.777 737.632,169.084 736.641,169.302 C 731.142,170.511 726.644,171.088 719.718,171.634 C 715.386,171.976 671.895,184.262 648.75,189.877 C 649.306,186.139 650.061,184.011 650.995,180.48 C 651.207,180.025 651.557,179.706 652.046,179.528 L 715.384,162.531 L 715.317,162.547 C 715.026,161.415 714.88,160.123 714.88,158.669 C 714.88,157.794 714.971,156.339 715.153,154.298 C 715.258,153.132 715.368,151.87 715.484,150.514 L 655.46,165.777 C 657.19,161.589 659.168,159.036 661.352,155.097 C 661.751,154.515 662.199,154.264 662.656,154.09 L 716.366,138.931 L 716.368,138.93 C 716.543,136.159 716.63,133.599 716.63,131.248 C 716.63,129.99 716.349,128.956 715.784,128.148 L 715.749,128.157 L 670.237,139.579 C 673.418,135.106 676.826,132.258 680.388,127.998 C 680.894,127.498 681.501,127.097 682.229,126.819 L 714.535,117.211 C 716.356,116.643 716.655,115.284 716.63,113.758 C 716.63,111.359 716.539,108.737 716.356,105.9 C 716.174,103.059 715.973,100.331 715.754,97.709 C 715.536,95.091 715.336,92.76 715.153,90.722 C 714.971,88.686 714.88,87.228 714.88,86.357 C 714.88,84.172 715.208,82.352 715.864,80.897 C 716.52,79.442 717.431,78.279 718.599,77.403 C 719.762,76.529 721.147,75.908 722.751,75.548 C 724.355,75.182 726.105,75 728.001,75 L 731.281,75 C 732.229,75 733.14,75.058 734.016,75.171 Z" stroke="none" fill="#4c4c4c" stroke-width="1.139" stroke-linejoin="miter" stroke-linecap="round" marker-start="none" marker-end="none" stroke-miterlimit="79.8403193612775"/>
    <path d="M 737.715,123.863 C 737.715,129.15 738.55,133.804 740.214,137.827 C 741.881,141.852 744.154,145.222 747.036,147.945 C 749.915,150.665 753.36,152.694 757.367,154.033 C 761.372,155.377 765.673,156.049 770.263,156.044 C 774.856,156.049 779.157,155.377 783.162,154.033 C 787.171,152.694 790.634,150.665 793.561,147.945 C 796.487,145.222 798.783,141.852 800.449,137.827 C 802.116,133.804 802.948,129.15 802.948,123.863 C 802.948,118.573 802.116,113.919 800.449,109.898 C 798.783,105.876 796.487,102.502 793.561,99.781 C 790.634,97.062 787.171,95.032 783.162,93.689 C 779.157,92.35 774.856,91.68 770.263,91.68 C 765.673,91.68 761.372,92.35 757.367,93.689 C 753.36,95.032 749.915,97.062 747.036,99.781 C 744.154,102.502 741.881,105.876 740.214,109.898 C 738.55,113.919 737.715,118.573 737.715,123.863 Z M 751.221,123.863 C 751.221,115.971 752.999,110.124 756.555,106.336 C 760.112,102.544 764.682,100.644 770.263,100.644 C 775.938,100.644 780.552,102.544 784.108,106.336 C 787.664,110.124 789.442,115.971 789.442,123.863 C 789.442,131.757 787.664,137.599 784.108,141.391 C 780.552,145.184 775.938,147.082 770.263,147.082 C 764.682,147.082 760.112,145.184 756.555,141.391 C 752.999,137.599 751.221,131.757 751.221,123.863 Z" fill="#d27500" fill-rule="nonzero" stroke-linejoin="round" stroke-linecap="round" stroke="none" stroke-width="1.407" marker-start="none" marker-end="none" stroke-miterlimit="79.8403193612775"/>
    <path d="M 805.573,75.171 C 804.699,75.283 803.823,75.45 802.948,75.672 C 802.074,75.897 801.089,76.158 799.995,76.456 L 801.089,83.899 C 802.766,83.613 804.151,83.397 805.245,83.254 C 806.339,83.112 807.396,83.039 808.416,83.039 C 810.532,83.039 812.044,83.421 812.955,84.187 C 813.867,84.95 814.323,86.28 814.323,88.176 C 814.323,89.342 814.232,90.853 814.05,92.712 C 813.867,94.571 813.648,96.649 813.393,98.942 C 813.137,101.24 812.919,103.663 812.737,106.213 C 812.555,108.764 812.464,111.277 812.464,113.756 C 812.464,114.776 812.555,115.779 812.737,116.764 C 812.919,117.745 813.265,118.62 813.776,119.385 C 814.286,120.151 815.146,120.747 815.963,121.244 C 817.057,121.91 818.337,122.203 819.518,122.706 C 817.804,122.83 817.046,123.195 815.963,123.76 C 815.128,124.195 814.286,124.853 813.776,125.619 C 813.265,126.385 812.919,127.259 812.737,128.244 C 812.555,129.231 812.464,130.233 812.464,131.254 C 812.464,133.734 812.555,136.248 812.737,138.801 C 812.919,141.352 813.137,143.78 813.393,146.076 C 813.648,148.374 813.867,150.451 814.05,152.31 C 814.232,154.17 814.323,155.683 814.323,156.852 C 814.323,158.748 813.867,160.078 812.955,160.844 C 812.044,161.61 810.532,161.993 808.416,161.993 C 807.396,161.993 806.339,161.92 805.245,161.771 C 804.151,161.625 802.766,161.403 801.089,161.106 L 799.995,168.451 C 801.089,168.777 801.957,169.084 802.948,169.302 C 808.447,170.511 812.945,171.088 819.871,171.634 C 824.203,171.976 867.694,184.262 890.839,189.877 C 890.283,186.139 889.528,184.011 888.594,180.48 C 888.382,180.025 888.032,179.706 887.543,179.528 L 824.205,162.531 L 824.272,162.547 C 824.563,161.415 824.709,160.123 824.709,158.669 C 824.709,157.794 824.618,156.339 824.436,154.298 C 824.331,153.132 824.221,151.87 824.105,150.514 L 884.129,165.777 C 882.399,161.589 880.421,159.036 878.237,155.097 C 877.838,154.515 877.39,154.264 876.933,154.09 L 823.223,138.931 L 823.221,138.93 C 823.046,136.159 822.959,133.599 822.959,131.248 C 822.959,129.99 823.24,128.956 823.805,128.148 L 823.84,128.157 L 869.352,139.579 C 866.171,135.106 862.763,132.258 859.201,127.998 C 858.695,127.498 858.088,127.097 857.36,126.819 L 825.054,117.211 C 823.233,116.643 822.934,115.284 822.959,113.758 C 822.959,111.359 823.05,108.737 823.233,105.9 C 823.415,103.059 823.616,100.331 823.835,97.709 C 824.053,95.091 824.253,92.76 824.436,90.722 C 824.618,88.686 824.709,87.228 824.709,86.357 C 824.709,84.172 824.381,82.352 823.725,80.897 C 823.069,79.442 822.158,78.279 820.99,77.403 C 819.827,76.529 818.442,75.908 816.838,75.548 C 815.234,75.182 813.484,75 811.588,75 L 808.308,75 C 807.36,75 806.449,75.058 805.573,75.171 Z" stroke="none" fill="#4c4c4c" stroke-width="1.139" stroke-linejoin="miter" stroke-linecap="round" marker-start="none" marker-end="none" stroke-miterlimit="79.8403193612775"/>
    <path d="M 65.283,64.41 C 65.86,64.484 66.439,64.595 67.018,64.741 C 67.594,64.89 68.245,65.062 68.969,65.259 L 68.245,70.176 C 67.138,69.987 66.223,69.845 65.499,69.75 C 64.777,69.656 64.079,69.608 63.404,69.608 C 62.007,69.608 61.008,69.861 60.406,70.366 C 59.803,70.871 59.502,71.749 59.502,73.002 C 59.502,73.772 59.562,74.771 59.682,75.999 C 59.803,77.227 59.948,78.6 60.116,80.115 C 60.286,81.634 60.43,83.234 60.55,84.919 C 60.67,86.604 60.73,88.264 60.73,89.903 C 60.73,90.576 60.67,91.24 60.55,91.89 C 60.43,92.538 60.201,93.116 59.864,93.622 C 59.527,94.127 58.959,94.522 58.418,94.85 C 57.696,95.29 56.85,95.483 56.07,95.816 C 57.202,95.897 57.703,96.139 58.418,96.512 C 58.97,96.799 59.527,97.234 59.864,97.74 C 60.201,98.247 60.43,98.823 60.55,99.474 C 60.67,100.127 60.73,100.789 60.73,101.464 C 60.73,103.102 60.67,104.762 60.55,106.449 C 60.43,108.135 60.286,109.739 60.116,111.256 C 59.948,112.774 59.803,114.146 59.682,115.375 C 59.562,116.603 59.502,117.603 59.502,118.375 C 59.502,119.628 59.803,120.507 60.406,121.013 C 61.008,121.519 62.007,121.771 63.404,121.771 C 64.079,121.771 64.777,121.723 65.499,121.626 C 66.223,121.529 67.138,121.382 68.245,121.186 L 68.969,126.038 C 68.245,126.254 67.672,126.457 67.018,126.601 C 63.384,127.399 60.413,127.781 55.837,128.141 C 52.975,128.368 24.24,136.485 8.949,140.194 C 9.317,137.725 9.816,136.319 10.432,133.986 C 10.572,133.686 10.803,133.474 11.127,133.357 L 52.973,122.128 L 52.929,122.138 C 52.737,121.39 52.64,120.536 52.64,119.576 C 52.64,118.998 52.7,118.036 52.82,116.688 C 52.889,115.918 52.962,115.084 53.039,114.188 L 13.382,124.272 C 14.525,121.505 15.832,119.818 17.275,117.216 C 17.539,116.832 17.834,116.666 18.137,116.551 L 53.622,106.535 L 53.624,106.535 C 53.739,104.704 53.796,103.013 53.796,101.459 C 53.796,100.628 53.611,99.945 53.238,99.411 L 53.215,99.417 L 23.145,106.964 C 25.247,104.008 27.499,102.127 29.852,99.312 C 30.186,98.982 30.587,98.717 31.068,98.533 L 52.412,92.185 C 53.615,91.81 53.813,90.912 53.796,89.904 C 53.796,88.319 53.736,86.587 53.615,84.712 C 53.495,82.835 53.362,81.033 53.218,79.3 C 53.074,77.571 52.941,76.031 52.82,74.684 C 52.7,73.34 52.64,72.376 52.64,71.8 C 52.64,70.357 52.857,69.154 53.291,68.194 C 53.723,67.232 54.325,66.463 55.097,65.884 C 55.865,65.308 56.781,64.897 57.841,64.659 C 58.9,64.417 60.057,64.297 61.309,64.297 L 63.476,64.297 C 64.102,64.297 64.705,64.335 65.283,64.41 Z" stroke-linecap="round" stroke="none" fill="#4c4c4c" stroke-width="0.752" stroke-linejoin="miter" marker-start="none" marker-end="none" stroke-miterlimit="79.8403193612775"/>
    <path d="M 67.727,96.58 C 67.727,100.073 68.279,103.148 69.378,105.805 C 70.479,108.465 71.981,110.691 73.885,112.491 C 75.788,114.287 78.063,115.628 80.711,116.513 C 83.357,117.401 86.198,117.845 89.231,117.841 C 92.265,117.845 95.107,117.401 97.753,116.513 C 100.402,115.628 102.69,114.287 104.624,112.491 C 106.557,110.691 108.074,108.465 109.174,105.805 C 110.275,103.148 110.825,100.073 110.825,96.58 C 110.825,93.085 110.275,90.01 109.174,87.354 C 108.074,84.696 106.557,82.468 104.624,80.669 C 102.69,78.873 100.402,77.532 97.753,76.645 C 95.107,75.76 92.265,75.318 89.231,75.318 C 86.198,75.318 83.357,75.76 80.711,76.645 C 78.063,77.532 75.788,78.873 73.885,80.669 C 71.981,82.468 70.479,84.696 69.378,87.354 C 68.279,90.01 67.727,93.085 67.727,96.58 Z M 76.65,96.58 C 76.65,91.366 77.825,87.503 80.174,85 C 82.524,82.494 85.543,81.239 89.231,81.239 C 92.98,81.239 96.028,82.494 98.378,85 C 100.727,87.503 101.902,91.366 101.902,96.58 C 101.902,101.796 100.727,105.656 98.378,108.161 C 96.028,110.666 92.98,111.921 89.231,111.921 C 85.543,111.921 82.524,110.666 80.174,108.161 C 77.825,105.656 76.65,101.796 76.65,96.58 Z" fill="#bf0000" stroke-linecap="round" stroke="none" fill-rule="nonzero" stroke-linejoin="round" stroke-width="0.93" marker-start="none" marker-end="none" stroke-miterlimit="79.8403193612775"/>
    <path d="M 112.56,64.41 C 111.982,64.484 111.403,64.595 110.825,64.741 C 110.248,64.89 109.597,65.062 108.874,65.259 L 109.597,70.176 C 110.705,69.987 111.62,69.845 112.343,69.75 C 113.065,69.656 113.764,69.608 114.438,69.608 C 115.836,69.608 116.835,69.861 117.437,70.366 C 118.04,70.871 118.34,71.749 118.34,73.002 C 118.34,73.772 118.281,74.771 118.16,75.999 C 118.04,77.227 117.895,78.6 117.726,80.115 C 117.557,81.634 117.413,83.234 117.293,84.919 C 117.172,86.604 117.113,88.264 117.113,89.903 C 117.113,90.576 117.172,91.24 117.293,91.89 C 117.413,92.538 117.641,93.116 117.979,93.622 C 118.316,94.127 118.884,94.522 119.424,94.85 C 120.147,95.29 120.993,95.483 121.773,95.816 C 120.641,95.897 120.14,96.139 119.424,96.512 C 118.873,96.799 118.316,97.234 117.979,97.74 C 117.641,98.247 117.413,98.823 117.293,99.474 C 117.172,100.127 117.113,100.789 117.113,101.464 C 117.113,103.102 117.172,104.762 117.293,106.449 C 117.413,108.135 117.557,109.739 117.726,111.256 C 117.895,112.774 118.04,114.146 118.16,115.375 C 118.281,116.603 118.34,117.603 118.34,118.375 C 118.34,119.628 118.04,120.507 117.437,121.013 C 116.835,121.519 115.836,121.771 114.438,121.771 C 113.764,121.771 113.065,121.723 112.343,121.626 C 111.62,121.529 110.705,121.382 109.597,121.186 L 108.874,126.038 C 109.597,126.254 110.171,126.457 110.825,126.601 C 114.458,127.399 117.43,127.781 122.006,128.141 C 124.868,128.368 153.602,136.485 168.893,140.194 C 168.526,137.725 168.027,136.319 167.41,133.986 C 167.27,133.686 167.039,133.474 166.716,133.357 L 124.869,122.128 L 124.913,122.138 C 125.106,121.39 125.202,120.536 125.202,119.576 C 125.202,118.998 125.143,118.036 125.022,116.688 C 124.953,115.918 124.88,115.084 124.803,114.188 L 164.46,124.272 C 163.317,121.505 162.011,119.818 160.567,117.216 C 160.304,116.832 160.008,116.666 159.706,116.551 L 124.22,106.535 L 124.219,106.535 C 124.103,104.704 124.046,103.013 124.046,101.459 C 124.046,100.628 124.232,99.945 124.605,99.411 L 124.628,99.417 L 154.698,106.964 C 152.596,104.008 150.344,102.127 147.991,99.312 C 147.656,98.982 147.256,98.717 146.774,98.533 L 125.431,92.185 C 124.227,91.81 124.029,90.912 124.046,89.904 C 124.046,88.319 124.106,86.587 124.227,84.712 C 124.347,82.835 124.48,81.033 124.625,79.3 C 124.769,77.571 124.901,76.031 125.022,74.684 C 125.143,73.34 125.202,72.376 125.202,71.8 C 125.202,70.357 124.985,69.154 124.552,68.194 C 124.119,67.232 123.517,66.463 122.745,65.884 C 121.977,65.308 121.062,64.897 120.002,64.659 C 118.943,64.417 117.786,64.297 116.534,64.297 L 114.367,64.297 C 113.74,64.297 113.138,64.335 112.56,64.41 Z" stroke-linecap="round" stroke="none" fill="#4c4c4c" stroke-width="0.752" stroke-linejoin="miter" marker-start="none" marker-end="none" stroke-miterlimit="79.8403193612775"/>
    <g id="Group_1" fill-rule="nonzero" stroke-linejoin="round" stroke-linecap="round" stroke="none" stroke-width="0.336" fill="#666666" stroke-miterlimit="79.8403193612775">
     <path d="M 52.335,47.418 C 52.336,45.768 52.142,44.281 51.752,42.956 C 51.364,41.632 50.783,40.505 50.01,39.575 C 49.238,38.645 48.268,37.93 47.101,37.431 C 45.935,36.932 44.574,36.682 43.019,36.682 C 41.484,36.682 40.157,36.91 39.038,37.367 C 37.919,37.825 36.994,38.489 36.263,39.362 C 35.532,40.234 34.989,41.316 34.631,42.61 C 34.275,43.902 34.095,45.389 34.095,47.07 C 34.095,48.679 34.289,50.14 34.679,51.454 C 35.069,52.768 35.651,53.884 36.429,54.804 C 37.206,55.724 38.179,56.434 39.345,56.932 C 40.512,57.432 41.873,57.681 43.429,57.681 C 44.932,57.681 46.24,57.455 47.354,57.003 C 48.468,56.552 49.395,55.892 50.136,55.025 C 50.877,54.157 51.429,53.085 51.792,51.808 C 52.155,50.531 52.336,49.068 52.335,47.418 Z M 49.482,47.229 C 49.482,48.385 49.379,49.46 49.174,50.453 C 48.969,51.446 48.628,52.307 48.15,53.038 C 47.672,53.769 47.033,54.339 46.235,54.749 C 45.436,55.158 44.447,55.363 43.271,55.363 C 42.093,55.363 41.106,55.143 40.306,54.701 C 39.507,54.26 38.859,53.671 38.359,52.935 C 37.861,52.2 37.503,51.34 37.288,50.358 C 37.072,49.375 36.965,48.343 36.965,47.26 C 36.965,46.062 37.064,44.958 37.265,43.95 C 37.465,42.941 37.801,42.071 38.273,41.341 C 38.746,40.61 39.38,40.043 40.173,39.638 C 40.966,39.233 41.962,39.03 43.16,39.03 C 44.348,39.03 45.346,39.252 46.156,39.693 C 46.965,40.135 47.617,40.731 48.11,41.482 C 48.604,42.234 48.957,43.103 49.167,44.091 C 49.377,45.078 49.482,46.124 49.482,47.229 Z" marker-start="none" marker-end="none"/>
     <path d="M 68.704,44.691 C 68.704,43.451 68.572,42.337 68.303,41.348 C 68.035,40.36 67.641,39.522 67.121,38.834 C 66.601,38.146 65.957,37.614 65.189,37.241 C 64.423,36.868 63.545,36.682 62.557,36.682 C 62.136,36.682 61.748,36.724 61.39,36.808 C 61.033,36.893 60.683,37.024 60.342,37.201 C 60,37.381 59.661,37.608 59.325,37.88 C 58.989,38.153 58.631,38.474 58.252,38.841 L 58.252,31.747 C 58.252,31.663 58.232,31.59 58.19,31.526 C 58.148,31.464 58.08,31.411 57.985,31.369 C 57.89,31.326 57.758,31.295 57.591,31.274 C 57.423,31.254 57.207,31.243 56.944,31.243 C 56.692,31.243 56.481,31.254 56.314,31.274 C 56.145,31.295 56.012,31.326 55.912,31.369 C 55.811,31.411 55.743,31.464 55.707,31.526 C 55.67,31.59 55.652,31.663 55.652,31.747 L 55.652,51.564 C 55.652,51.659 55.667,51.735 55.699,51.792 C 55.731,51.85 55.794,51.901 55.888,51.943 C 55.983,51.985 56.103,52.013 56.251,52.03 C 56.398,52.044 56.577,52.053 56.787,52.053 C 57.008,52.053 57.189,52.044 57.331,52.03 C 57.472,52.013 57.591,51.985 57.685,51.943 C 57.78,51.901 57.845,51.85 57.882,51.792 C 57.92,51.735 57.937,51.659 57.938,51.564 L 57.938,49.656 C 58.369,50.097 58.784,50.481 59.183,50.807 C 59.582,51.132 59.985,51.404 60.389,51.62 C 60.793,51.834 61.209,51.998 61.635,52.108 C 62.06,52.218 62.509,52.274 62.982,52.274 C 64.013,52.274 64.889,52.074 65.615,51.674 C 66.34,51.275 66.932,50.728 67.389,50.035 C 67.846,49.341 68.18,48.534 68.39,47.615 C 68.6,46.695 68.704,45.72 68.704,44.691 Z M 65.963,44.391 C 65.963,45.116 65.907,45.818 65.797,46.496 C 65.686,47.173 65.497,47.774 65.228,48.301 C 64.962,48.826 64.6,49.247 64.148,49.562 C 63.697,49.877 63.135,50.035 62.462,50.035 C 62.125,50.035 61.794,49.985 61.469,49.885 C 61.144,49.786 60.813,49.628 60.476,49.413 C 60.14,49.196 59.787,48.913 59.419,48.56 C 59.052,48.209 58.663,47.775 58.252,47.26 L 58.252,41.616 C 58.967,40.744 59.646,40.076 60.286,39.614 C 60.927,39.151 61.6,38.92 62.305,38.92 C 62.956,38.92 63.516,39.078 63.983,39.393 C 64.451,39.709 64.83,40.129 65.118,40.655 C 65.408,41.18 65.621,41.768 65.757,42.42 C 65.894,43.072 65.963,43.729 65.963,44.391 Z" marker-start="none" marker-end="none"/>
     <path d="M 84.723,45.084 C 84.723,44.674 84.62,44.383 84.416,44.209 C 84.21,44.036 83.976,43.95 83.714,43.95 L 74.413,43.95 C 74.413,43.162 74.491,42.452 74.648,41.822 C 74.806,41.191 75.069,40.649 75.437,40.197 C 75.805,39.745 76.284,39.398 76.872,39.157 C 77.46,38.915 78.18,38.795 79.031,38.795 C 79.704,38.795 80.303,38.85 80.828,38.96 C 81.354,39.071 81.809,39.193 82.192,39.33 C 82.576,39.468 82.891,39.59 83.138,39.7 C 83.384,39.81 83.571,39.866 83.698,39.866 C 83.771,39.866 83.838,39.848 83.895,39.811 C 83.953,39.775 83.998,39.72 84.029,39.645 C 84.06,39.572 84.085,39.47 84.099,39.338 C 84.116,39.207 84.124,39.047 84.124,38.857 C 84.124,38.721 84.119,38.603 84.107,38.503 C 84.096,38.402 84.085,38.314 84.068,38.235 C 84.052,38.156 84.026,38.085 83.989,38.022 C 83.953,37.959 83.906,37.899 83.847,37.84 C 83.79,37.783 83.619,37.688 83.336,37.557 C 83.052,37.426 82.683,37.297 82.231,37.17 C 81.779,37.045 81.257,36.932 80.663,36.831 C 80.069,36.732 79.436,36.682 78.763,36.682 C 77.596,36.682 76.575,36.845 75.697,37.17 C 74.82,37.497 74.082,37.981 73.482,38.62 C 72.884,39.262 72.432,40.066 72.126,41.033 C 71.821,42 71.669,43.125 71.669,44.408 C 71.669,45.626 71.827,46.722 72.142,47.694 C 72.457,48.666 72.912,49.491 73.506,50.169 C 74.099,50.846 74.817,51.367 75.658,51.73 C 76.499,52.092 77.439,52.274 78.48,52.274 C 79.594,52.274 80.542,52.095 81.325,51.737 C 82.108,51.38 82.752,50.899 83.257,50.295 C 83.76,49.69 84.131,48.981 84.368,48.167 C 84.604,47.353 84.723,46.483 84.723,45.558 L 84.723,45.084 Z M 82.105,45.858 C 82.138,47.224 81.835,48.295 81.199,49.073 C 80.564,49.851 79.619,50.239 78.369,50.239 C 77.728,50.239 77.165,50.119 76.682,49.877 C 76.199,49.636 75.795,49.315 75.468,48.916 C 75.142,48.516 74.89,48.051 74.712,47.521 C 74.534,46.989 74.433,46.435 74.413,45.858 L 82.105,45.858 Z" marker-start="none" marker-end="none"/>
     <path d="M 100.897,37.376 C 100.897,37.291 100.876,37.221 100.834,37.162 C 100.793,37.105 100.724,37.055 100.63,37.013 C 100.535,36.97 100.403,36.939 100.235,36.918 C 100.067,36.897 99.857,36.887 99.604,36.887 C 99.342,36.887 99.126,36.897 98.959,36.918 C 98.79,36.939 98.659,36.97 98.564,37.013 C 98.47,37.055 98.4,37.105 98.359,37.162 C 98.317,37.221 98.296,37.291 98.296,37.376 L 98.296,45.684 C 98.296,46.493 98.233,47.145 98.107,47.639 C 97.982,48.133 97.797,48.558 97.555,48.916 C 97.314,49.272 97.001,49.546 96.617,49.735 C 96.233,49.925 95.789,50.019 95.286,50.019 C 94.633,50.019 93.982,49.788 93.33,49.326 C 92.678,48.863 91.996,48.184 91.281,47.291 L 91.281,37.376 C 91.281,37.291 91.26,37.221 91.218,37.162 C 91.176,37.105 91.107,37.055 91.013,37.013 C 90.918,36.97 90.786,36.939 90.619,36.918 C 90.45,36.897 90.235,36.887 89.972,36.887 C 89.72,36.887 89.51,36.897 89.342,36.918 C 89.173,36.939 89.039,36.97 88.94,37.013 C 88.839,37.055 88.772,37.105 88.734,37.162 C 88.697,37.221 88.68,37.291 88.68,37.376 L 88.68,51.564 C 88.68,51.648 88.695,51.719 88.727,51.777 C 88.759,51.834 88.821,51.887 88.915,51.934 C 89.011,51.982 89.131,52.013 89.278,52.03 C 89.426,52.044 89.62,52.053 89.861,52.053 C 90.093,52.053 90.285,52.044 90.437,52.03 C 90.59,52.013 90.708,51.982 90.792,51.934 C 90.876,51.887 90.936,51.834 90.973,51.777 C 91.01,51.719 91.028,51.648 91.028,51.564 L 91.028,49.688 C 91.827,50.581 92.624,51.236 93.417,51.651 C 94.209,52.066 95.011,52.274 95.822,52.274 C 96.768,52.274 97.564,52.113 98.21,51.792 C 98.855,51.472 99.379,51.044 99.778,50.507 C 100.178,49.972 100.465,49.344 100.637,48.624 C 100.81,47.904 100.897,47.039 100.897,46.03 L 100.897,37.376 Z" marker-start="none" marker-end="none"/>
     <path d="M 116.898,42.704 C 116.898,41.748 116.723,40.896 116.371,40.149 C 116.019,39.403 115.53,38.77 114.904,38.25 C 114.28,37.73 113.543,37.339 112.698,37.076 C 111.852,36.814 110.94,36.682 109.963,36.682 C 109.279,36.682 108.645,36.739 108.062,36.856 C 107.48,36.97 106.96,37.112 106.502,37.28 C 106.045,37.449 105.661,37.622 105.352,37.801 C 105.041,37.98 104.826,38.132 104.704,38.258 C 104.583,38.385 104.494,38.545 104.437,38.739 C 104.378,38.934 104.35,39.193 104.35,39.519 C 104.35,39.751 104.361,39.942 104.381,40.095 C 104.403,40.248 104.434,40.371 104.476,40.466 C 104.518,40.56 104.571,40.626 104.634,40.663 C 104.697,40.7 104.77,40.718 104.855,40.718 C 105.001,40.718 105.209,40.629 105.477,40.449 C 105.745,40.27 106.09,40.077 106.51,39.866 C 106.931,39.656 107.438,39.459 108.031,39.275 C 108.625,39.092 109.311,38.999 110.089,38.999 C 110.677,38.999 111.216,39.078 111.704,39.236 C 112.194,39.393 112.614,39.617 112.966,39.906 C 113.318,40.194 113.588,40.55 113.778,40.97 C 113.967,41.39 114.062,41.868 114.061,42.405 C 114.062,42.983 113.93,43.477 113.667,43.886 C 113.405,44.297 113.057,44.657 112.626,44.967 C 112.196,45.277 111.705,45.561 111.152,45.818 C 110.601,46.075 110.036,46.338 109.458,46.607 C 108.88,46.873 108.317,47.17 107.771,47.497 C 107.224,47.822 106.735,48.206 106.305,48.647 C 105.873,49.089 105.525,49.606 105.256,50.201 C 104.989,50.795 104.855,51.506 104.855,52.336 C 104.855,53.188 105.01,53.947 105.32,54.614 C 105.629,55.281 106.061,55.841 106.612,56.293 C 107.164,56.745 107.821,57.09 108.583,57.326 C 109.346,57.562 110.168,57.681 111.05,57.681 C 111.503,57.681 111.957,57.641 112.415,57.562 C 112.871,57.484 113.302,57.379 113.706,57.248 C 114.112,57.115 114.472,56.969 114.786,56.807 C 115.102,56.643 115.31,56.511 115.409,56.411 C 115.509,56.313 115.575,56.233 115.607,56.176 C 115.638,56.117 115.664,56.044 115.685,55.955 C 115.707,55.865 115.722,55.758 115.733,55.631 C 115.742,55.505 115.748,55.343 115.748,55.143 C 115.748,54.953 115.74,54.785 115.725,54.639 C 115.708,54.491 115.685,54.367 115.653,54.268 C 115.621,54.168 115.577,54.095 115.52,54.047 C 115.462,54 115.397,53.977 115.322,53.976 C 115.207,53.977 115.026,54.05 114.779,54.198 C 114.531,54.344 114.23,54.509 113.871,54.694 C 113.515,54.877 113.091,55.046 112.603,55.198 C 112.115,55.351 111.565,55.427 110.956,55.427 C 110.388,55.427 109.894,55.351 109.473,55.198 C 109.054,55.046 108.707,54.843 108.434,54.591 C 108.159,54.339 107.955,54.039 107.818,53.693 C 107.682,53.345 107.613,52.978 107.613,52.589 C 107.613,52.021 107.745,51.533 108.007,51.123 C 108.27,50.713 108.62,50.349 109.056,50.035 C 109.492,49.719 109.989,49.43 110.547,49.168 C 111.103,48.905 111.669,48.64 112.249,48.371 C 112.826,48.104 113.394,47.81 113.95,47.488 C 114.508,47.169 115.004,46.79 115.442,46.354 C 115.877,45.917 116.229,45.403 116.497,44.809 C 116.765,44.215 116.898,43.514 116.898,42.704 Z" marker-start="none" marker-end="none"/>
     <path d="M 132.585,45.084 C 132.585,44.674 132.483,44.383 132.278,44.209 C 132.073,44.036 131.839,43.95 131.576,43.95 L 122.276,43.95 C 122.276,43.162 122.354,42.452 122.511,41.822 C 122.669,41.191 122.932,40.649 123.299,40.197 C 123.668,39.745 124.146,39.398 124.734,39.157 C 125.323,38.915 126.043,38.795 126.894,38.795 C 127.567,38.795 128.166,38.85 128.691,38.96 C 129.217,39.071 129.671,39.193 130.054,39.33 C 130.439,39.468 130.754,39.59 131,39.7 C 131.247,39.81 131.434,39.866 131.561,39.866 C 131.634,39.866 131.7,39.848 131.758,39.811 C 131.815,39.775 131.86,39.72 131.892,39.645 C 131.923,39.572 131.947,39.47 131.962,39.338 C 131.979,39.207 131.987,39.047 131.987,38.857 C 131.987,38.721 131.981,38.603 131.97,38.503 C 131.959,38.402 131.947,38.314 131.931,38.235 C 131.915,38.156 131.889,38.085 131.852,38.022 C 131.815,37.959 131.769,37.899 131.71,37.84 C 131.653,37.783 131.482,37.688 131.199,37.557 C 130.914,37.426 130.546,37.297 130.094,37.17 C 129.642,37.045 129.119,36.932 128.525,36.831 C 127.931,36.732 127.299,36.682 126.626,36.682 C 125.459,36.682 124.438,36.845 123.56,37.17 C 122.683,37.497 121.945,37.981 121.345,38.62 C 120.746,39.262 120.295,40.066 119.989,41.033 C 119.684,42 119.532,43.125 119.532,44.408 C 119.532,45.626 119.69,46.722 120.004,47.694 C 120.32,48.666 120.775,49.491 121.369,50.169 C 121.962,50.846 122.68,51.367 123.52,51.73 C 124.361,52.092 125.301,52.274 126.343,52.274 C 127.457,52.274 128.405,52.095 129.188,51.737 C 129.971,51.38 130.615,50.899 131.119,50.295 C 131.623,49.69 131.993,48.981 132.231,48.167 C 132.467,47.353 132.585,46.483 132.585,45.558 L 132.585,45.084 Z M 129.968,45.858 C 129.999,47.224 129.698,48.295 129.062,49.073 C 128.425,49.851 127.482,50.239 126.232,50.239 C 125.591,50.239 125.028,50.119 124.545,49.877 C 124.062,49.636 123.657,49.315 123.331,48.916 C 123.005,48.516 122.753,48.051 122.575,47.521 C 122.397,46.989 122.296,46.435 122.276,45.858 L 129.968,45.858 Z" marker-start="none" marker-end="none"/>
     <path d="M 143.747,38.416 C 143.747,38.111 143.726,37.869 143.685,37.691 C 143.643,37.512 143.579,37.38 143.495,37.297 C 143.411,37.212 143.285,37.134 143.116,37.06 C 142.949,36.987 142.757,36.926 142.542,36.879 C 142.325,36.831 142.097,36.792 141.856,36.761 C 141.613,36.729 141.372,36.714 141.13,36.713 C 140.395,36.714 139.764,36.811 139.239,37.005 C 138.713,37.2 138.283,37.494 137.946,37.888 C 137.61,38.282 137.365,38.781 137.213,39.386 C 137.06,39.99 136.984,40.702 136.984,41.522 L 136.984,49.814 L 134.997,49.814 C 134.84,49.814 134.714,49.898 134.62,50.066 C 134.524,50.235 134.478,50.507 134.478,50.886 C 134.478,51.087 134.49,51.253 134.517,51.391 C 134.543,51.527 134.577,51.64 134.62,51.73 C 134.661,51.819 134.717,51.882 134.785,51.919 C 134.852,51.956 134.929,51.974 135.014,51.974 L 136.984,51.974 L 136.984,55.348 C 136.984,55.421 137.003,55.489 137.04,55.553 C 137.076,55.616 137.144,55.671 137.244,55.718 C 137.343,55.766 137.478,55.8 137.646,55.82 C 137.814,55.842 138.024,55.852 138.277,55.852 C 138.54,55.852 138.755,55.842 138.922,55.82 C 139.091,55.8 139.222,55.766 139.318,55.718 C 139.412,55.671 139.481,55.616 139.522,55.553 C 139.564,55.489 139.585,55.421 139.585,55.348 L 139.585,51.974 L 143.227,51.974 C 143.312,51.974 143.385,51.956 143.447,51.919 C 143.511,51.882 143.565,51.819 143.613,51.73 C 143.661,51.64 143.695,51.527 143.716,51.391 C 143.737,51.253 143.747,51.087 143.747,50.886 C 143.747,50.507 143.7,50.235 143.605,50.066 C 143.511,49.898 143.385,49.814 143.227,49.814 L 139.585,49.814 L 139.585,41.9 C 139.585,40.923 139.73,40.184 140.019,39.685 C 140.308,39.185 140.825,38.936 141.571,38.936 C 141.814,38.936 142.028,38.96 142.218,39.007 C 142.407,39.055 142.575,39.104 142.723,39.157 C 142.87,39.21 142.995,39.26 143.102,39.307 C 143.206,39.354 143.301,39.378 143.385,39.378 C 143.437,39.378 143.487,39.365 143.534,39.338 C 143.582,39.312 143.619,39.262 143.644,39.188 C 143.671,39.115 143.695,39.016 143.716,38.889 C 143.737,38.764 143.747,38.605 143.747,38.416 Z" marker-start="none" marker-end="none"/>
    </g>
   </g>
  </g>
 </g>
</svg>
