<?xml version="1.0" standalone="no"?>
<!DOCTYPE svg PUBLIC "-//W3C//DTD SVG 1.1//EN" "http://www.w3.org/Graphics/SVG/1.1/DTD/svg11.dtd">
<!--Generator: Xara Designer (www.xara.com), SVG filter version: 6.0.0.4-->
<svg stroke-width="0.501" stroke-linejoin="bevel" fill-rule="evenodd" xmlns:xlink="http://www.w3.org/1999/xlink" xmlns="http://www.w3.org/2000/svg" version="1.1" overflow="visible" width="360pt" height="82.5pt" viewBox="0 0 360 82.5">
 <defs>
	</defs>
 <g id="Document" fill="none" stroke="black" font-family="Times New Roman" font-size="16" transform="scale(1 -1)">
  <g id="Spread" transform="translate(0 -82.5)">
   <g id="Page background">
    <path d="M 0.001,82.499 L 0.001,0 L 359.998,0 L 359.998,82.499 L 0.001,82.499 Z" stroke-linejoin="bevel" stroke="none" stroke-width="0" marker-start="none" marker-end="none" stroke-miterlimit="79.8403193612775"/>
   </g>
   <g id="MouseOff">
    <g id="Group" fill-rule="nonzero" stroke-linejoin="round" stroke-linecap="round" stroke="none" stroke-width="0.68" fill="#006f94" stroke-miterlimit="79.8403193612775">
     <g id="Group_1">
      <path d="M 61.386,51.169 C 61.386,45.046 60.068,39.57 57.433,34.738 C 54.797,29.905 51.113,26.15 46.38,23.471 C 41.647,20.793 36.347,19.454 30.481,19.454 C 24.755,19.454 19.548,20.75 14.858,23.344 C 10.167,25.937 6.518,29.579 3.91,34.27 C 1.303,38.96 0,44.267 0,50.19 C 0,56.397 1.318,61.98 3.953,66.94 C 6.589,71.9 10.287,75.733 15.049,78.439 C 19.809,81.147 25.223,82.5 31.289,82.5 C 37.127,82.5 42.348,81.203 46.954,78.61 C 51.559,76.017 55.116,72.318 57.624,67.514 C 60.132,62.711 61.386,57.262 61.386,51.169 Z M 41.916,50.658 C 41.916,55.675 40.953,59.628 39.025,62.518 C 37.099,65.41 34.463,66.855 31.118,66.855 C 27.463,66.855 24.615,65.466 22.574,62.689 C 20.534,59.911 19.513,55.986 19.512,50.913 C 19.513,45.953 20.526,42.085 22.552,39.307 C 24.579,36.531 27.334,35.141 30.821,35.141 C 32.946,35.141 34.859,35.765 36.56,37.012 C 38.26,38.259 39.578,40.044 40.513,42.368 C 41.449,44.692 41.916,47.456 41.916,50.658 Z" marker-start="none" marker-end="none"/>
      <path d="M 117.459,43.601 C 117.459,38.839 116.652,34.631 115.037,30.974 C 113.421,27.319 111.14,24.484 108.191,22.472 C 105.245,20.46 101.929,19.454 98.244,19.454 C 93.143,19.454 89.273,21.31 86.638,25.024 L 86.469,25.024 L 86.469,0.493 L 68.358,0.493 L 68.358,64.049 L 86.469,64.049 L 86.469,58.14 L 86.638,58.14 C 88.083,60.322 89.954,62.03 92.25,63.263 C 94.545,64.495 97.154,65.112 100.073,65.112 C 105.685,65.112 109.985,63.241 112.974,59.5 C 115.964,55.759 117.459,50.459 117.459,43.601 Z M 99.094,43.049 C 99.094,45.797 98.564,47.951 97.501,49.511 C 96.438,51.068 94.8,51.848 92.59,51.848 C 90.663,51.848 89.104,51.026 87.914,49.382 C 86.724,47.739 86.129,45.486 86.128,42.623 L 86.128,41.773 C 86.129,39.023 86.639,36.827 87.659,35.184 C 88.679,33.54 90.209,32.718 92.25,32.718 C 94.432,32.718 96.119,33.618 97.308,35.417 C 98.5,37.216 99.094,39.761 99.094,43.049 Z" marker-start="none" marker-end="none"/>
      <path d="M 139.862,37.139 C 140.174,35.268 141.251,33.802 143.093,32.739 C 144.936,31.676 147.372,31.145 150.405,31.145 C 154.628,31.145 158.624,31.953 162.393,33.568 L 162.393,22.09 C 158,20.333 152.672,19.454 146.409,19.454 C 138.813,19.454 132.904,21.396 128.681,25.279 C 124.459,29.162 122.347,34.503 122.347,41.305 C 122.347,45.981 123.276,50.106 125.132,53.676 C 126.988,57.247 129.737,60.045 133.379,62.072 C 137.021,64.099 141.038,65.112 145.431,65.112 C 149.937,65.112 153.792,64.233 156.994,62.476 C 160.197,60.719 162.628,58.253 164.286,55.079 C 165.944,51.905 166.772,48.193 166.772,43.941 L 166.772,37.139 L 139.862,37.139 Z M 150.745,46.619 C 150.745,51.635 148.945,54.144 145.346,54.144 C 143.844,54.144 142.583,53.456 141.563,52.083 C 140.543,50.708 139.948,48.887 139.777,46.619 L 150.745,46.619 Z" marker-start="none" marker-end="none"/>
      <path d="M 201.25,20.517 L 201.25,44.281 C 201.25,46.974 200.846,48.907 200.038,50.084 C 199.23,51.259 197.919,51.848 196.105,51.848 C 194.547,51.848 193.328,51.239 192.449,50.02 C 191.571,48.802 191.132,47.243 191.132,45.344 L 191.132,20.517 L 173.021,20.517 L 173.021,64.049 L 191.132,64.049 L 191.132,57.247 L 191.301,57.247 C 192.746,59.742 194.688,61.677 197.126,63.05 C 199.563,64.425 202.212,65.112 205.076,65.112 C 214.598,65.112 219.36,59.103 219.359,47.087 L 219.359,20.517 L 201.25,20.517 Z" marker-start="none" marker-end="none"/>
      <path d="M 271.521,38.967 C 271.52,34.914 270.437,31.386 268.269,28.382 C 266.102,25.378 263.062,23.139 259.15,21.665 C 255.239,20.191 250.534,19.454 245.036,19.454 C 238.658,19.454 232.82,20.532 227.521,22.685 L 227.521,39.392 C 230.072,37.521 232.891,36.012 235.981,34.864 C 239.069,33.717 241.946,33.143 244.611,33.143 C 246.623,33.143 248.182,33.504 249.287,34.227 C 250.393,34.949 250.945,36.005 250.945,37.394 C 250.945,38.386 250.67,39.258 250.116,40.009 C 249.564,40.759 248.728,41.461 247.608,42.113 C 246.488,42.764 244.413,43.657 241.38,44.791 C 231.575,48.56 226.671,54.654 226.671,63.071 C 226.671,68.966 228.911,73.678 233.388,77.207 C 237.866,80.735 243.874,82.5 251.413,82.5 C 253.538,82.5 255.493,82.415 257.279,82.244 C 259.064,82.075 260.687,81.862 262.148,81.607 C 263.607,81.352 265.656,80.87 268.29,80.161 L 268.29,64.644 C 263.161,67.45 258.116,68.852 253.156,68.853 C 251.116,68.852 249.471,68.47 248.224,67.705 C 246.977,66.94 246.354,65.892 246.354,64.56 C 246.354,63.285 246.857,62.229 247.863,61.393 C 248.87,60.557 250.974,59.472 254.176,58.14 C 260.497,55.589 264.967,52.799 267.589,49.766 C 270.209,46.733 271.52,43.133 271.521,38.967 Z" marker-start="none" marker-end="none"/>
      <path d="M 292.904,37.139 C 293.216,35.268 294.293,33.802 296.135,32.739 C 297.978,31.676 300.414,31.145 303.447,31.145 C 307.67,31.145 311.666,31.953 315.435,33.568 L 315.435,22.09 C 311.042,20.333 305.714,19.454 299.451,19.454 C 291.855,19.454 285.946,21.396 281.723,25.279 C 277.501,29.162 275.389,34.503 275.389,41.305 C 275.389,45.981 276.318,50.106 278.174,53.676 C 280.03,57.247 282.779,60.045 286.421,62.072 C 290.063,64.099 294.08,65.112 298.473,65.112 C 302.979,65.112 306.834,64.233 310.036,62.476 C 313.239,60.719 315.67,58.253 317.328,55.079 C 318.986,51.905 319.814,48.193 319.814,43.941 L 319.814,37.139 L 292.904,37.139 Z M 303.787,46.619 C 303.787,51.635 301.987,54.144 298.388,54.144 C 296.886,54.144 295.625,53.456 294.605,52.083 C 293.585,50.708 292.99,48.887 292.819,46.619 L 303.787,46.619 Z" marker-start="none" marker-end="none"/>
      <path d="M 356.715,21.112 C 355.893,20.715 354.545,20.34 352.676,19.986 C 350.805,19.632 348.553,19.454 345.916,19.454 C 340.872,19.454 336.925,20.842 334.077,23.62 C 331.228,26.397 329.805,30.352 329.805,35.481 L 329.805,51.508 L 322.96,51.508 L 322.96,64.049 L 329.805,64.049 L 329.805,72.594 L 347.659,77.526 L 347.659,64.049 L 356.715,64.049 L 356.715,51.508 L 347.659,51.508 L 347.659,38.457 C 347.659,34.631 349.175,32.718 352.208,32.718 C 353.625,32.718 355.128,33.03 356.715,33.653 L 356.715,21.112 Z" marker-start="none" marker-end="none"/>
     </g>
    </g>
   </g>
  </g>
 </g>
</svg>
