<?xml version="1.0" standalone="no"?>
<!DOCTYPE svg PUBLIC "-//W3C//DTD SVG 1.1//EN" "http://www.w3.org/Graphics/SVG/1.1/DTD/svg11.dtd">
<!--Generator: Xara Designer (www.xara.com), SVG filter version: 6.0.0.4-->
<svg stroke-width="0.501" stroke-linejoin="bevel" fill-rule="evenodd" xmlns:xlink="http://www.w3.org/1999/xlink" xmlns="http://www.w3.org/2000/svg" version="1.1" overflow="visible" width="168pt" height="114.75pt" viewBox="0 0 168 114.75">
 <defs>
	</defs>
 <g id="Document" fill="none" stroke="black" font-family="Times New Roman" font-size="16" transform="scale(1 -1)">
  <g id="Spread" transform="translate(0 -114.75)">
   <g id="Page background">
    <path d="M 0,114.749 L 0,0 L 167.999,0 L 167.999,114.749 L 0,114.749 Z" stroke-linejoin="bevel" stroke="none" stroke-width="0" marker-start="none" marker-end="none" stroke-miterlimit="79.8403193612775"/>
   </g>
   <g id="MouseOff">
    <g id="Group" fill-rule="nonzero" stroke-linejoin="round" stroke-linecap="round" stroke="none" stroke-width="1.139" stroke-miterlimit="79.8403193612775">
     <path d="M 297.218,-345.152 C 297.218,-340.871 297.893,-337.101 299.241,-333.844 C 300.591,-330.585 302.431,-327.856 304.765,-325.651 C 307.097,-323.448 309.886,-321.805 313.131,-320.72 C 316.375,-319.633 319.857,-319.089 323.575,-319.092 C 327.294,-319.089 330.776,-319.633 334.02,-320.72 C 337.265,-321.805 340.071,-323.448 342.441,-325.651 C 344.811,-327.856 346.67,-330.585 348.019,-333.844 C 349.368,-337.101 350.042,-340.871 350.042,-345.152 C 350.042,-349.435 349.368,-353.205 348.019,-356.462 C 346.67,-359.718 344.811,-362.45 342.441,-364.653 C 340.071,-366.855 337.265,-368.498 334.02,-369.586 C 330.776,-370.671 327.294,-371.214 323.575,-371.214 C 319.857,-371.214 316.375,-370.671 313.131,-369.586 C 309.886,-368.498 307.097,-366.855 304.765,-364.653 C 302.431,-362.45 300.591,-359.718 299.241,-356.462 C 297.893,-353.205 297.218,-349.435 297.218,-345.152 Z M 308.155,-345.152 C 308.155,-351.543 309.594,-356.277 312.474,-359.345 C 315.354,-362.416 319.055,-363.954 323.575,-363.954 C 328.169,-363.954 331.906,-362.416 334.785,-359.345 C 337.665,-356.277 339.106,-351.543 339.106,-345.152 C 339.106,-338.76 337.665,-334.029 334.785,-330.958 C 331.906,-327.887 328.169,-326.35 323.575,-326.35 C 319.055,-326.35 315.354,-327.887 312.474,-330.958 C 309.594,-334.029 308.155,-338.76 308.155,-345.152 Z" fill="#d27500" marker-start="none" marker-end="none"/>
     <path d="M 369.661,-345.558 C 371.12,-345.558 372.323,-345.796 373.27,-346.27 C 374.218,-346.744 374.947,-347.363 375.458,-348.129 C 375.968,-348.894 376.314,-349.769 376.496,-350.75 C 376.679,-351.735 376.771,-352.738 376.771,-353.758 C 376.771,-356.237 376.679,-358.75 376.496,-361.301 C 376.314,-363.851 376.096,-366.274 375.841,-368.572 C 375.585,-370.865 375.367,-372.943 375.185,-374.802 C 375.002,-376.661 374.911,-378.172 374.911,-379.338 C 374.911,-381.234 375.367,-382.564 376.278,-383.327 C 377.189,-384.093 378.703,-384.475 380.817,-384.475 C 381.838,-384.475 382.894,-384.402 383.989,-384.26 C 385.082,-384.117 386.467,-383.901 388.145,-383.615 L 389.238,-391.058 C 388.145,-391.356 387.16,-391.617 386.285,-391.842 C 385.41,-392.064 384.535,-392.231 383.66,-392.343 C 382.786,-392.456 381.873,-392.514 380.926,-392.514 C 379.978,-392.514 378.885,-392.514 377.645,-392.514 C 375.75,-392.514 373.999,-392.332 372.396,-391.966 C 370.791,-391.602 369.406,-390.982 368.24,-390.111 C 367.073,-389.235 366.162,-388.072 365.505,-386.617 C 364.849,-385.162 364.521,-383.342 364.521,-381.157 C 364.521,-380.286 364.612,-378.828 364.795,-376.792 C 364.977,-374.754 365.178,-372.423 365.396,-369.805 C 365.615,-367.183 365.815,-364.455 365.998,-361.614 C 366.18,-358.777 366.271,-356.155 366.271,-353.756 C 366.271,-351.862 365.633,-350.48 364.357,-349.606 C 363.081,-348.733 361.022,-348.296 358.178,-348.296 L 358.178,-341.728 C 361.022,-341.728 363.081,-341.29 364.357,-340.416 C 365.633,-339.543 366.271,-338.158 366.271,-336.266 C 366.271,-333.863 366.18,-331.241 365.998,-328.4 C 365.815,-325.56 365.615,-322.829 365.396,-320.207 C 365.178,-317.585 364.977,-315.255 364.795,-313.213 C 364.612,-311.175 364.521,-309.72 364.521,-308.845 C 364.521,-306.66 364.849,-304.841 365.505,-303.383 C 366.162,-301.928 367.073,-300.761 368.24,-299.886 C 369.406,-299.014 370.791,-298.394 372.396,-298.03 C 373.999,-297.665 375.75,-297.483 377.645,-297.483 C 378.885,-297.483 379.978,-297.483 380.926,-297.483 C 381.873,-297.483 382.786,-297.544 383.66,-297.665 C 384.535,-297.786 385.41,-297.969 386.285,-298.212 C 387.16,-298.455 388.145,-298.737 389.238,-299.063 L 388.145,-306.408 C 386.467,-306.111 385.082,-305.889 383.989,-305.743 C 382.894,-305.594 381.838,-305.521 380.817,-305.521 C 378.703,-305.521 377.189,-305.904 376.278,-306.67 C 375.367,-307.436 374.911,-308.766 374.911,-310.662 C 374.911,-311.831 375.002,-313.344 375.185,-315.204 C 375.367,-317.063 375.585,-319.14 375.841,-321.438 C 376.096,-323.734 376.314,-326.162 376.496,-328.713 C 376.679,-331.266 376.771,-333.78 376.771,-336.26 C 376.771,-337.281 376.679,-338.283 376.496,-339.27 C 376.314,-340.255 375.968,-341.129 375.458,-341.895 C 374.947,-342.661 374.218,-343.28 373.27,-343.754 C 372.323,-344.228 371.12,-344.465 369.661,-344.465 L 369.661,-345.558 Z" fill="#4c4c4c" marker-start="none" marker-end="none"/>
     <path d="M 415.945,-325.894 C 413.174,-325.897 410.841,-326.425 408.945,-327.477 C 407.05,-328.534 406.102,-330.147 406.102,-332.319 C 406.102,-334.054 406.831,-335.497 408.289,-336.646 C 409.748,-337.793 411.57,-338.83 413.757,-339.759 C 415.945,-340.692 418.296,-341.622 420.811,-342.554 C 423.327,-343.484 425.679,-344.587 427.866,-345.857 C 430.053,-347.127 431.876,-348.679 433.334,-350.511 C 434.792,-352.336 435.521,-354.648 435.521,-357.443 C 435.521,-361.599 433.735,-364.935 430.162,-367.444 C 426.59,-369.957 421.631,-371.214 415.289,-371.214 C 409.019,-371.214 404.224,-369.969 400.907,-367.474 C 397.589,-364.983 395.311,-361.52 394.071,-357.088 C 393.831,-353.916 400.499,-351.586 403.149,-354.524 C 403.513,-356.538 404.114,-358.188 404.953,-359.469 C 405.791,-360.755 406.795,-361.76 407.961,-362.496 C 409.127,-363.227 410.404,-363.732 411.789,-364.008 C 413.174,-364.282 414.595,-364.419 416.054,-364.419 C 418.533,-364.419 420.72,-363.908 422.616,-362.884 C 424.511,-361.861 425.46,-360.262 425.46,-358.091 C 425.46,-356.478 424.731,-355.144 423.273,-354.089 C 421.814,-353.032 419.991,-352.042 417.804,-351.112 C 415.616,-350.182 413.265,-349.234 410.75,-348.272 C 408.234,-347.312 405.883,-346.148 403.696,-344.784 C 401.509,-343.42 399.685,-341.758 398.227,-339.808 C 396.769,-337.852 396.04,-335.415 396.04,-332.501 C 396.04,-331.074 396.368,-329.57 397.024,-327.987 C 397.68,-326.404 398.792,-324.962 400.36,-323.662 C 401.927,-322.358 404.006,-321.273 406.594,-320.404 C 409.182,-319.536 412.372,-319.102 416.163,-319.102 C 421.194,-319.102 425.368,-320.088 428.686,-322.054 C 432.003,-324.026 434.392,-327.334 435.85,-331.985 C 435.588,-335.16 430.408,-336.7 426.772,-334.549 C 425.97,-331.864 424.658,-329.749 422.834,-328.206 C 421.012,-326.669 418.715,-325.897 415.945,-325.894 Z" fill="#d27500" marker-start="none" marker-end="none"/>
     <path d="M 461.675,-345.558 C 460.217,-345.558 459.014,-345.796 458.066,-346.27 C 457.118,-346.744 456.389,-347.363 455.879,-348.129 C 455.368,-348.894 455.022,-349.769 454.84,-350.75 C 454.658,-351.735 454.567,-352.738 454.567,-353.758 C 454.567,-356.237 454.658,-358.75 454.84,-361.301 C 455.022,-363.851 455.24,-366.274 455.496,-368.572 C 455.751,-370.865 455.97,-372.943 456.153,-374.802 C 456.335,-376.661 456.426,-378.172 456.426,-379.338 C 456.426,-381.234 455.97,-382.564 455.058,-383.327 C 454.147,-384.093 452.635,-384.475 450.519,-384.475 C 449.499,-384.475 448.442,-384.402 447.348,-384.26 C 446.254,-384.117 444.869,-383.901 443.192,-383.615 L 442.098,-391.058 C 443.192,-391.356 444.177,-391.617 445.051,-391.842 C 445.926,-392.064 446.802,-392.231 447.676,-392.343 C 448.552,-392.456 449.463,-392.514 450.411,-392.514 C 451.358,-392.514 452.451,-392.514 453.691,-392.514 C 455.587,-392.514 457.337,-392.332 458.941,-391.966 C 460.545,-391.606 461.93,-390.985 463.093,-390.111 C 464.261,-389.235 465.172,-388.072 465.828,-386.617 C 466.484,-385.162 466.812,-383.342 466.812,-381.157 C 466.812,-380.286 466.721,-378.828 466.539,-376.792 C 466.356,-374.754 466.156,-372.423 465.938,-369.805 C 465.719,-367.183 465.518,-364.455 465.336,-361.614 C 465.153,-358.777 465.062,-356.155 465.062,-353.756 C 465.062,-351.862 465.7,-350.48 466.977,-349.606 C 468.253,-348.733 470.313,-348.296 473.156,-348.296 L 473.156,-341.728 C 470.313,-341.728 468.253,-341.29 466.977,-340.416 C 465.7,-339.543 465.062,-338.158 465.062,-336.266 C 465.062,-333.863 465.153,-331.241 465.336,-328.4 C 465.518,-325.56 465.719,-322.829 465.938,-320.207 C 466.156,-317.585 466.356,-315.255 466.539,-313.216 C 466.721,-311.175 466.812,-309.72 466.812,-308.845 C 466.812,-306.66 466.484,-304.841 465.828,-303.383 C 465.172,-301.928 464.261,-300.761 463.093,-299.889 C 461.93,-299.014 460.545,-298.394 458.941,-298.03 C 457.337,-297.665 455.587,-297.483 453.691,-297.483 C 452.451,-297.483 451.358,-297.483 450.411,-297.483 C 449.463,-297.483 448.552,-297.544 447.676,-297.665 C 446.802,-297.786 445.926,-297.969 445.051,-298.212 C 444.177,-298.455 443.192,-298.737 442.098,-299.063 L 443.192,-306.408 C 444.869,-306.111 446.254,-305.889 447.348,-305.743 C 448.442,-305.594 449.499,-305.521 450.519,-305.521 C 452.635,-305.521 454.147,-305.904 455.058,-306.67 C 455.97,-307.436 456.426,-308.766 456.426,-310.662 C 456.426,-311.831 456.335,-313.344 456.153,-315.204 C 455.97,-317.063 455.751,-319.14 455.496,-321.438 C 455.24,-323.734 455.022,-326.162 454.84,-328.713 C 454.658,-331.266 454.567,-333.78 454.567,-336.26 C 454.567,-337.281 454.658,-338.283 454.84,-339.27 C 455.022,-340.255 455.368,-341.129 455.879,-341.895 C 456.389,-342.661 457.118,-343.28 458.066,-343.754 C 459.014,-344.228 460.217,-344.465 461.675,-344.465 L 461.675,-345.558 Z" fill="#4c4c4c" marker-start="none" marker-end="none"/>
    </g>
    <path d="M 225.026,-297.312 C 224.152,-297.2 223.276,-297.033 222.401,-296.811 C 221.527,-296.586 220.542,-296.325 219.448,-296.027 L 220.542,-288.584 C 222.219,-288.87 223.604,-289.086 224.698,-289.229 C 225.792,-289.371 226.849,-289.444 227.869,-289.444 C 229.985,-289.444 231.497,-289.062 232.408,-288.296 C 233.32,-287.533 233.776,-286.203 233.776,-284.307 C 233.776,-283.141 233.685,-281.63 233.503,-279.771 C 233.32,-277.912 233.101,-275.834 232.846,-273.541 C 232.59,-271.243 232.372,-268.82 232.19,-266.27 C 232.008,-263.719 231.917,-261.206 231.917,-258.727 C 231.917,-257.707 232.008,-256.704 232.19,-255.719 C 232.372,-254.738 232.718,-253.863 233.229,-253.098 C 233.739,-252.332 234.468,-251.713 235.416,-251.239 C 235.996,-250.949 236.673,-250.747 237.446,-250.634 L 237.442,-250.669 L 237.568,-249.345 C 236.745,-249.236 236.027,-249.029 235.416,-248.723 C 234.468,-248.249 233.739,-247.63 233.229,-246.864 C 232.718,-246.098 232.372,-245.224 232.19,-244.239 C 232.008,-243.252 231.917,-242.25 231.917,-241.229 C 231.917,-238.749 232.008,-236.235 232.19,-233.682 C 232.372,-231.131 232.59,-228.703 232.846,-226.407 C 233.101,-224.109 233.32,-222.032 233.503,-220.173 C 233.685,-218.313 233.776,-216.8 233.776,-215.631 C 233.776,-213.735 233.32,-212.405 232.408,-211.639 C 231.497,-210.873 229.985,-210.49 227.869,-210.49 C 226.849,-210.49 225.792,-210.563 224.698,-210.712 C 223.604,-210.858 222.219,-211.08 220.542,-211.377 L 219.448,-204.032 C 220.542,-203.706 221.527,-203.424 222.401,-203.181 C 223.276,-202.938 224.152,-202.755 225.026,-202.634 C 225.902,-202.513 226.813,-202.452 227.761,-202.452 L 229.174,-202.452 L 310.292,-182.606 C 309.697,-186.607 308.874,-190.483 307.847,-194.248 L 243.658,-209.952 L 243.725,-209.936 C 244.016,-211.068 244.162,-212.36 244.162,-213.814 C 244.162,-214.689 244.071,-216.144 243.889,-218.185 C 243.784,-219.351 243.674,-220.613 243.558,-221.969 L 303.582,-206.706 C 301.736,-211.174 299.608,-215.489 297.249,-219.675 L 242.676,-233.552 L 242.674,-233.553 C 242.499,-236.324 242.412,-238.884 242.412,-241.235 C 242.412,-242.493 242.693,-243.527 243.258,-244.335 L 243.293,-244.326 L 288.805,-232.904 C 285.398,-237.695 281.73,-242.343 277.891,-246.894 L 243.335,-255.567 L 243.291,-255.578 C 242.705,-256.393 242.412,-257.442 242.412,-258.725 C 242.412,-261.124 242.503,-263.746 242.686,-266.583 C 242.868,-269.424 243.069,-272.152 243.288,-274.774 C 243.506,-277.392 243.706,-279.723 243.889,-281.761 C 244.071,-283.797 244.162,-285.255 244.162,-286.126 C 244.162,-288.311 243.834,-290.131 243.178,-291.586 C 242.522,-293.041 241.611,-294.204 240.443,-295.08 C 239.28,-295.954 237.895,-296.575 236.291,-296.935 C 234.687,-297.301 232.937,-297.483 231.041,-297.483 L 227.761,-297.483 C 226.813,-297.483 225.902,-297.425 225.026,-297.312 Z" stroke="none" fill="#4c4c4c" stroke-width="1.139" stroke-linejoin="miter" stroke-linecap="round" marker-start="none" marker-end="none" stroke-miterlimit="79.8403193612775"/>
    <path d="M 149.016,-297.312 C 149.89,-297.2 150.766,-297.033 151.641,-296.811 C 152.515,-296.586 153.5,-296.325 154.594,-296.027 L 153.5,-288.584 C 151.823,-288.87 150.438,-289.086 149.344,-289.229 C 148.25,-289.371 147.193,-289.444 146.173,-289.444 C 144.057,-289.444 142.545,-289.062 141.634,-288.296 C 140.722,-287.533 140.266,-286.203 140.266,-284.307 C 140.266,-283.141 140.357,-281.63 140.539,-279.771 C 140.722,-277.912 140.941,-275.834 141.196,-273.541 C 141.452,-271.243 141.67,-268.82 141.852,-266.27 C 142.034,-263.719 142.125,-261.206 142.125,-258.727 C 142.125,-257.707 142.034,-256.704 141.852,-255.719 C 141.67,-254.738 141.324,-253.863 140.813,-253.098 C 140.303,-252.332 139.574,-251.713 138.626,-251.239 C 138.046,-250.949 137.369,-250.747 136.596,-250.634 L 136.6,-250.669 L 136.474,-249.345 C 137.297,-249.236 138.015,-249.029 138.626,-248.723 C 139.574,-248.249 140.303,-247.63 140.813,-246.864 C 141.324,-246.098 141.67,-245.224 141.852,-244.239 C 142.034,-243.252 142.125,-242.25 142.125,-241.229 C 142.125,-238.749 142.034,-236.235 141.852,-233.682 C 141.67,-231.131 141.452,-228.703 141.196,-226.407 C 140.941,-224.109 140.722,-222.032 140.539,-220.173 C 140.357,-218.313 140.266,-216.8 140.266,-215.631 C 140.266,-213.735 140.722,-212.405 141.634,-211.639 C 142.545,-210.873 144.057,-210.49 146.173,-210.49 C 147.193,-210.49 148.25,-210.563 149.344,-210.712 C 150.438,-210.858 151.823,-211.08 153.5,-211.377 L 154.594,-204.032 C 153.5,-203.706 152.515,-203.424 151.641,-203.181 C 150.766,-202.938 149.89,-202.755 149.016,-202.634 C 148.14,-202.513 147.229,-202.452 146.281,-202.452 L 144.868,-202.452 L 63.75,-182.606 C 64.345,-186.607 65.168,-190.483 66.195,-194.248 L 130.384,-209.952 L 130.317,-209.936 C 130.026,-211.068 129.88,-212.36 129.88,-213.814 C 129.88,-214.689 129.971,-216.144 130.153,-218.185 C 130.258,-219.351 130.368,-220.613 130.484,-221.969 L 70.46,-206.706 C 72.306,-211.174 74.434,-215.489 76.793,-219.675 L 131.366,-233.552 L 131.368,-233.553 C 131.543,-236.324 131.63,-238.884 131.63,-241.235 C 131.63,-242.493 131.349,-243.527 130.784,-244.335 L 130.749,-244.326 L 85.237,-232.904 C 88.644,-237.695 92.312,-242.343 96.151,-246.894 L 130.707,-255.567 L 130.751,-255.578 C 131.337,-256.393 131.63,-257.442 131.63,-258.725 C 131.63,-261.124 131.539,-263.746 131.356,-266.583 C 131.174,-269.424 130.973,-272.152 130.754,-274.774 C 130.536,-277.392 130.336,-279.723 130.153,-281.761 C 129.971,-283.797 129.88,-285.255 129.88,-286.126 C 129.88,-288.311 130.208,-290.131 130.864,-291.586 C 131.52,-293.041 132.431,-294.204 133.599,-295.08 C 134.762,-295.954 136.147,-296.575 137.751,-296.935 C 139.355,-297.301 141.105,-297.483 143.001,-297.483 L 146.281,-297.483 C 147.229,-297.483 148.14,-297.425 149.016,-297.312 Z" stroke="none" fill="#4c4c4c" stroke-width="1.139" stroke-linejoin="miter" stroke-linecap="round" marker-start="none" marker-end="none" stroke-miterlimit="79.8403193612775"/>
    <path d="M 146.698,-242.578 C 146.698,-238.722 147.306,-235.327 148.521,-232.393 C 149.736,-229.458 151.394,-227 153.496,-225.013 C 155.596,-223.03 158.108,-221.55 161.031,-220.573 C 163.952,-219.593 167.088,-219.103 170.437,-219.106 C 173.787,-219.103 176.923,-219.593 179.845,-220.573 C 182.768,-221.55 185.295,-223.03 187.43,-225.013 C 189.564,-227 191.239,-229.458 192.453,-232.393 C 193.669,-235.327 194.276,-238.722 194.276,-242.578 C 194.276,-246.436 193.669,-249.831 192.453,-252.764 C 191.239,-255.697 189.564,-258.158 187.43,-260.142 C 185.295,-262.126 182.768,-263.606 179.845,-264.586 C 176.923,-265.562 173.787,-266.051 170.437,-266.051 C 167.088,-266.051 163.952,-265.562 161.031,-264.586 C 158.108,-263.606 155.596,-262.126 153.496,-260.142 C 151.394,-258.158 149.736,-255.697 148.521,-252.764 C 147.306,-249.831 146.698,-246.436 146.698,-242.578 Z M 156.548,-242.578 C 156.548,-248.334 157.845,-252.598 160.439,-255.362 C 163.032,-258.127 166.366,-259.513 170.437,-259.513 C 174.575,-259.513 177.941,-258.127 180.534,-255.362 C 183.128,-252.598 184.425,-248.334 184.425,-242.578 C 184.425,-236.82 183.128,-232.559 180.534,-229.794 C 177.941,-227.027 174.575,-225.644 170.437,-225.644 C 166.366,-225.644 163.032,-227.027 160.439,-229.794 C 157.845,-232.559 156.548,-236.82 156.548,-242.578 Z" fill-rule="nonzero" stroke-linejoin="round" stroke-linecap="round" stroke="none" stroke-width="1.026" fill="#d27500" marker-start="none" marker-end="none" stroke-miterlimit="79.8403193612775"/>
    <path d="M 206.206,-241.559 C 203.498,-241.562 201.218,-242.078 199.365,-243.106 C 197.514,-244.139 196.587,-245.714 196.587,-247.837 C 196.587,-249.531 197.299,-250.942 198.724,-252.064 C 200.15,-253.184 201.929,-254.198 204.067,-255.105 C 206.206,-256.018 208.503,-256.926 210.96,-257.837 C 213.418,-258.745 215.716,-259.823 217.852,-261.064 C 219.99,-262.305 221.771,-263.822 223.195,-265.612 C 224.62,-267.394 225.332,-269.653 225.332,-272.385 C 225.332,-276.445 223.587,-279.705 220.096,-282.156 C 216.605,-284.612 211.761,-285.84 205.563,-285.84 C 199.438,-285.84 194.752,-284.623 191.511,-282.186 C 188.269,-279.753 186.044,-276.368 184.832,-272.038 C 184.598,-268.939 191.112,-266.662 193.702,-269.532 C 194.057,-271.5 194.645,-273.113 195.465,-274.364 C 196.284,-275.621 197.265,-276.603 198.403,-277.322 C 199.543,-278.036 200.791,-278.53 202.145,-278.799 C 203.498,-279.067 204.885,-279.2 206.311,-279.2 C 208.733,-279.2 210.87,-278.702 212.723,-277.701 C 214.575,-276.701 215.502,-275.139 215.502,-273.018 C 215.502,-271.442 214.79,-270.138 213.365,-269.107 C 211.939,-268.075 210.158,-267.108 208.021,-266.198 C 205.883,-265.29 203.586,-264.364 201.129,-263.423 C 198.671,-262.486 196.374,-261.349 194.237,-260.016 C 192.1,-258.683 190.317,-257.059 188.893,-255.153 C 187.469,-253.243 186.756,-250.861 186.756,-248.014 C 186.756,-246.62 187.076,-245.15 187.718,-243.604 C 188.358,-242.057 189.445,-240.648 190.977,-239.378 C 192.508,-238.104 194.54,-237.044 197.068,-236.194 C 199.596,-235.346 202.713,-234.922 206.418,-234.922 C 211.334,-234.922 215.412,-235.885 218.654,-237.807 C 221.894,-239.733 224.228,-242.965 225.654,-247.51 C 225.398,-250.613 220.336,-252.117 216.784,-250.015 C 216.001,-247.392 214.718,-245.325 212.936,-243.818 C 211.156,-242.315 208.911,-241.562 206.206,-241.559 Z" fill-rule="nonzero" stroke-linejoin="round" stroke-linecap="round" stroke="none" stroke-width="1.113" fill="#d27500" marker-start="none" marker-end="none" stroke-miterlimit="79.8403193612775"/>
    <path d="M 506.578,-196.456 C 505.704,-196.344 504.828,-196.177 503.953,-195.955 C 503.079,-195.73 502.094,-195.469 501,-195.171 L 502.094,-187.728 C 503.771,-188.014 505.156,-188.23 506.25,-188.373 C 507.344,-188.515 508.401,-188.588 509.421,-188.588 C 511.537,-188.588 513.049,-188.206 513.96,-187.44 C 514.872,-186.677 515.328,-185.347 515.328,-183.451 C 515.328,-182.285 515.237,-180.774 515.055,-178.915 C 514.872,-177.056 514.653,-174.978 514.398,-172.685 C 514.142,-170.387 513.924,-167.964 513.742,-165.414 C 513.56,-162.863 513.469,-160.35 513.469,-157.871 C 513.469,-156.851 513.56,-155.848 513.742,-154.863 C 513.924,-153.882 514.27,-153.007 514.781,-152.242 C 515.291,-151.476 516.02,-150.857 516.968,-150.383 C 517.548,-150.093 518.225,-149.891 518.998,-149.778 L 518.994,-149.813 L 519.12,-148.489 C 518.297,-148.38 517.579,-148.173 516.968,-147.867 C 516.02,-147.393 515.291,-146.774 514.781,-146.008 C 514.27,-145.242 513.924,-144.368 513.742,-143.383 C 513.56,-142.396 513.469,-141.394 513.469,-140.373 C 513.469,-137.893 513.56,-135.379 513.742,-132.826 C 513.924,-130.275 514.142,-127.847 514.398,-125.551 C 514.653,-123.253 514.872,-121.176 515.055,-119.317 C 515.237,-117.457 515.328,-115.944 515.328,-114.775 C 515.328,-112.879 514.872,-111.549 513.96,-110.783 C 513.049,-110.017 511.537,-109.634 509.421,-109.634 C 508.401,-109.634 507.344,-109.707 506.25,-109.856 C 505.156,-110.002 503.771,-110.224 502.094,-110.521 L 501,-103.176 C 502.094,-102.85 503.079,-102.568 503.953,-102.325 C 504.828,-102.082 505.704,-101.899 506.578,-101.778 C 507.454,-101.657 508.365,-101.596 509.313,-101.596 L 510.726,-101.596 L 591.844,-81.75 C 591.249,-85.751 590.426,-89.627 589.399,-93.392 L 525.21,-109.096 L 525.277,-109.08 C 525.568,-110.212 525.714,-111.504 525.714,-112.958 C 525.714,-113.833 525.623,-115.288 525.441,-117.329 C 525.336,-118.495 525.226,-119.757 525.11,-121.113 L 585.134,-105.85 C 583.288,-110.318 581.16,-114.633 578.801,-118.819 L 524.228,-132.696 L 524.226,-132.697 C 524.051,-135.468 523.964,-138.028 523.964,-140.379 C 523.964,-141.637 524.245,-142.671 524.81,-143.479 L 524.845,-143.47 L 570.357,-132.048 C 566.95,-136.839 563.282,-141.487 559.443,-146.038 L 524.887,-154.711 L 524.843,-154.722 C 524.257,-155.537 523.964,-156.586 523.964,-157.869 C 523.964,-160.268 524.055,-162.89 524.238,-165.727 C 524.42,-168.568 524.621,-171.296 524.84,-173.918 C 525.058,-176.536 525.258,-178.867 525.441,-180.905 C 525.623,-182.941 525.714,-184.399 525.714,-185.27 C 525.714,-187.455 525.386,-189.275 524.73,-190.73 C 524.074,-192.185 523.163,-193.348 521.995,-194.224 C 520.832,-195.098 519.447,-195.719 517.843,-196.079 C 516.239,-196.445 514.489,-196.627 512.593,-196.627 L 509.313,-196.627 C 508.365,-196.627 507.454,-196.569 506.578,-196.456 Z" stroke="none" fill="#4c4c4c" stroke-width="1.139" stroke-linejoin="miter" stroke-linecap="round" marker-start="none" marker-end="none" stroke-miterlimit="79.8403193612775"/>
    <path d="M 417.068,-196.456 C 417.942,-196.344 418.818,-196.177 419.693,-195.955 C 420.567,-195.73 421.552,-195.469 422.646,-195.171 L 421.552,-187.728 C 419.875,-188.014 418.49,-188.23 417.396,-188.373 C 416.302,-188.515 415.245,-188.588 414.225,-188.588 C 412.109,-188.588 410.597,-188.206 409.686,-187.44 C 408.774,-186.677 408.318,-185.347 408.318,-183.451 C 408.318,-182.285 408.409,-180.774 408.591,-178.915 C 408.774,-177.056 408.993,-174.978 409.248,-172.685 C 409.504,-170.387 409.722,-167.964 409.904,-165.414 C 410.086,-162.863 410.177,-160.35 410.177,-157.871 C 410.177,-156.851 410.086,-155.848 409.904,-154.863 C 409.722,-153.882 409.376,-153.007 408.865,-152.242 C 408.355,-151.476 407.626,-150.857 406.678,-150.383 C 406.098,-150.093 405.421,-149.891 404.648,-149.778 L 404.652,-149.813 L 404.526,-148.489 C 405.349,-148.38 406.067,-148.173 406.678,-147.867 C 407.626,-147.393 408.355,-146.774 408.865,-146.008 C 409.376,-145.242 409.722,-144.368 409.904,-143.383 C 410.086,-142.396 410.177,-141.394 410.177,-140.373 C 410.177,-137.893 410.086,-135.379 409.904,-132.826 C 409.722,-130.275 409.504,-127.847 409.248,-125.551 C 408.993,-123.253 408.774,-121.176 408.591,-119.317 C 408.409,-117.457 408.318,-115.944 408.318,-114.775 C 408.318,-112.879 408.774,-111.549 409.686,-110.783 C 410.597,-110.017 412.109,-109.634 414.225,-109.634 C 415.245,-109.634 416.302,-109.707 417.396,-109.856 C 418.49,-110.002 419.875,-110.224 421.552,-110.521 L 422.646,-103.176 C 421.552,-102.85 420.567,-102.568 419.693,-102.325 C 418.818,-102.082 417.942,-101.899 417.068,-101.778 C 416.192,-101.657 415.281,-101.596 414.333,-101.596 L 412.92,-101.596 L 331.802,-81.75 C 332.397,-85.751 333.22,-89.627 334.247,-93.392 L 398.436,-109.096 L 398.369,-109.08 C 398.078,-110.212 397.932,-111.504 397.932,-112.958 C 397.932,-113.833 398.023,-115.288 398.205,-117.329 C 398.31,-118.495 398.42,-119.757 398.536,-121.113 L 338.512,-105.85 C 340.358,-110.318 342.486,-114.633 344.845,-118.819 L 399.418,-132.696 L 399.42,-132.697 C 399.595,-135.468 399.682,-138.028 399.682,-140.379 C 399.682,-141.637 399.401,-142.671 398.836,-143.479 L 398.801,-143.47 L 353.289,-132.048 C 356.696,-136.839 360.364,-141.487 364.203,-146.038 L 398.759,-154.711 L 398.803,-154.722 C 399.389,-155.537 399.682,-156.586 399.682,-157.869 C 399.682,-160.268 399.591,-162.89 399.408,-165.727 C 399.226,-168.568 399.025,-171.296 398.806,-173.918 C 398.588,-176.536 398.388,-178.867 398.205,-180.905 C 398.023,-182.941 397.932,-184.399 397.932,-185.27 C 397.932,-187.455 398.26,-189.275 398.916,-190.73 C 399.572,-192.185 400.483,-193.348 401.651,-194.224 C 402.814,-195.098 404.199,-195.719 405.803,-196.079 C 407.407,-196.445 409.157,-196.627 411.053,-196.627 L 414.333,-196.627 C 415.281,-196.627 416.192,-196.569 417.068,-196.456 Z" stroke="none" fill="#4c4c4c" stroke-width="1.139" stroke-linejoin="miter" stroke-linecap="round" marker-start="none" marker-end="none" stroke-miterlimit="79.8403193612775"/>
    <path d="M 414.955,-151.87 C 414.955,-147.743 415.606,-144.11 416.906,-140.97 C 418.207,-137.828 419.981,-135.198 422.231,-133.072 C 424.478,-130.949 427.167,-129.365 430.294,-128.32 C 433.421,-127.271 436.778,-126.747 440.361,-126.75 C 443.946,-126.747 447.303,-127.271 450.429,-128.32 C 453.558,-129.365 456.262,-130.949 458.547,-133.072 C 460.831,-135.198 462.623,-137.828 463.923,-140.97 C 465.224,-144.11 465.874,-147.743 465.874,-151.87 C 465.874,-155.999 465.224,-159.632 463.923,-162.771 C 462.623,-165.91 460.831,-168.544 458.547,-170.667 C 456.262,-172.79 453.558,-174.374 450.429,-175.423 C 447.303,-176.468 443.946,-176.991 440.361,-176.991 C 436.778,-176.991 433.421,-176.468 430.294,-175.423 C 427.167,-174.374 424.478,-172.79 422.231,-170.667 C 419.981,-168.544 418.207,-165.91 416.906,-162.771 C 415.606,-159.632 414.955,-155.999 414.955,-151.87 Z M 425.497,-151.87 C 425.497,-158.03 426.885,-162.594 429.661,-165.551 C 432.437,-168.511 436.004,-169.994 440.361,-169.994 C 444.79,-169.994 448.392,-168.511 451.168,-165.551 C 453.943,-162.594 455.332,-158.03 455.332,-151.87 C 455.332,-145.708 453.943,-141.148 451.168,-138.188 C 448.392,-135.227 444.79,-133.746 440.361,-133.746 C 436.004,-133.746 432.437,-135.227 429.661,-138.188 C 426.885,-141.148 425.497,-145.708 425.497,-151.87 Z" fill="#0082a2" fill-rule="nonzero" stroke-linejoin="round" stroke-linecap="round" stroke="none" stroke-width="1.098" marker-start="none" marker-end="none" stroke-miterlimit="79.8403193612775"/>
    <path d="M 488.56,-133.308 C 485.888,-133.31 483.64,-133.819 481.811,-134.834 C 479.985,-135.853 479.07,-137.408 479.07,-139.502 C 479.07,-141.174 479.773,-142.565 481.178,-143.674 C 482.585,-144.779 484.342,-145.779 486.45,-146.674 C 488.56,-147.574 490.827,-148.471 493.25,-149.37 C 495.677,-150.266 497.944,-151.33 500.053,-152.553 C 502.161,-153.778 503.919,-155.275 505.323,-157.041 C 506.73,-158.8 507.433,-161.029 507.433,-163.725 C 507.433,-167.731 505.711,-170.947 502.266,-173.366 C 498.822,-175.789 494.042,-177 487.927,-177 C 481.882,-177 477.26,-175.8 474.062,-173.395 C 470.862,-170.993 468.666,-167.655 467.471,-163.382 C 467.239,-160.324 473.668,-158.077 476.223,-160.91 C 476.574,-162.851 477.153,-164.442 477.963,-165.677 C 478.77,-166.917 479.738,-167.885 480.862,-168.595 C 481.987,-169.3 483.217,-169.788 484.553,-170.054 C 485.888,-170.317 487.257,-170.449 488.665,-170.449 C 491.055,-170.449 493.162,-169.956 494.991,-168.97 C 496.818,-167.983 497.734,-166.442 497.734,-164.349 C 497.734,-162.793 497.03,-161.508 495.624,-160.49 C 494.218,-159.472 492.46,-158.517 490.352,-157.62 C 488.243,-156.724 485.975,-155.81 483.551,-154.882 C 481.125,-153.957 478.859,-152.834 476.751,-151.52 C 474.641,-150.204 472.883,-148.602 471.478,-146.721 C 470.072,-144.837 469.369,-142.486 469.369,-139.677 C 469.369,-138.301 469.685,-136.851 470.318,-135.325 C 470.95,-133.799 472.023,-132.408 473.533,-131.155 C 475.045,-129.898 477.049,-128.852 479.545,-128.014 C 482.039,-127.178 485.115,-126.759 488.77,-126.759 C 493.62,-126.759 497.645,-127.71 500.843,-129.605 C 504.041,-131.506 506.344,-134.695 507.75,-139.18 C 507.498,-142.24 502.503,-143.726 498.998,-141.651 C 498.225,-139.062 496.96,-137.023 495.201,-135.537 C 493.445,-134.054 491.23,-133.31 488.56,-133.308 Z" fill="#0082a2" fill-rule="nonzero" stroke-linejoin="round" stroke-linecap="round" stroke="none" stroke-width="1.098" marker-start="none" marker-end="none" stroke-miterlimit="79.8403193612775"/>
    <path d="M 734.016,-113.543 C 734.89,-113.431 735.766,-113.264 736.641,-113.042 C 737.515,-112.817 738.5,-112.556 739.594,-112.258 L 738.5,-104.815 C 736.823,-105.101 735.438,-105.317 734.344,-105.46 C 733.25,-105.602 732.193,-105.675 731.173,-105.675 C 729.057,-105.675 727.545,-105.293 726.634,-104.527 C 725.722,-103.764 725.266,-102.434 725.266,-100.538 C 725.266,-99.372 725.357,-97.861 725.539,-96.002 C 725.722,-94.143 725.941,-92.065 726.196,-89.772 C 726.452,-87.474 726.67,-85.051 726.852,-82.501 C 727.034,-79.95 727.125,-77.437 727.125,-74.958 C 727.125,-73.938 727.034,-72.935 726.852,-71.95 C 726.67,-70.969 726.324,-70.094 725.813,-69.329 C 725.303,-68.563 724.443,-67.967 723.626,-67.47 C 722.532,-66.804 721.252,-66.511 720.071,-66.008 C 721.785,-65.884 722.543,-65.519 723.626,-64.954 C 724.461,-64.519 725.303,-63.861 725.813,-63.095 C 726.324,-62.329 726.67,-61.455 726.852,-60.47 C 727.034,-59.483 727.125,-58.481 727.125,-57.46 C 727.125,-54.98 727.034,-52.466 726.852,-49.913 C 726.67,-47.362 726.452,-44.934 726.196,-42.638 C 725.941,-40.34 725.722,-38.263 725.539,-36.404 C 725.357,-34.544 725.266,-33.031 725.266,-31.862 C 725.266,-29.966 725.722,-28.636 726.634,-27.87 C 727.545,-27.104 729.057,-26.721 731.173,-26.721 C 732.193,-26.721 733.25,-26.794 734.344,-26.943 C 735.438,-27.089 736.823,-27.311 738.5,-27.608 L 739.594,-20.263 C 738.5,-19.937 737.632,-19.63 736.641,-19.412 C 731.142,-18.203 726.644,-17.626 719.718,-17.08 C 715.386,-16.738 671.895,-4.452 648.75,1.163 C 649.306,-2.575 650.061,-4.703 650.995,-8.234 C 651.207,-8.689 651.557,-9.008 652.046,-9.186 L 715.384,-26.183 L 715.317,-26.167 C 715.026,-27.299 714.88,-28.591 714.88,-30.045 C 714.88,-30.92 714.971,-32.375 715.153,-34.416 C 715.258,-35.582 715.368,-36.844 715.484,-38.2 L 655.46,-22.937 C 657.19,-27.125 659.168,-29.678 661.352,-33.617 C 661.751,-34.199 662.199,-34.45 662.656,-34.624 L 716.366,-49.783 L 716.368,-49.784 C 716.543,-52.555 716.63,-55.115 716.63,-57.466 C 716.63,-58.724 716.349,-59.758 715.784,-60.566 L 715.749,-60.557 L 670.237,-49.135 C 673.418,-53.608 676.826,-56.456 680.388,-60.716 C 680.894,-61.216 681.501,-61.617 682.229,-61.895 L 714.535,-71.503 C 716.356,-72.071 716.655,-73.43 716.63,-74.956 C 716.63,-77.355 716.539,-79.977 716.356,-82.814 C 716.174,-85.655 715.973,-88.383 715.754,-91.005 C 715.536,-93.623 715.336,-95.954 715.153,-97.992 C 714.971,-100.028 714.88,-101.486 714.88,-102.357 C 714.88,-104.542 715.208,-106.362 715.864,-107.817 C 716.52,-109.272 717.431,-110.435 718.599,-111.311 C 719.762,-112.185 721.147,-112.806 722.751,-113.166 C 724.355,-113.532 726.105,-113.714 728.001,-113.714 L 731.281,-113.714 C 732.229,-113.714 733.14,-113.656 734.016,-113.543 Z" stroke="none" fill="#4c4c4c" stroke-width="1.139" stroke-linejoin="miter" stroke-linecap="round" marker-start="none" marker-end="none" stroke-miterlimit="79.8403193612775"/>
    <path d="M 737.715,-64.851 C 737.715,-59.564 738.55,-54.91 740.214,-50.887 C 741.881,-46.862 744.154,-43.492 747.036,-40.769 C 749.915,-38.049 753.36,-36.02 757.367,-34.681 C 761.372,-33.337 765.673,-32.665 770.263,-32.67 C 774.856,-32.665 779.157,-33.337 783.162,-34.681 C 787.171,-36.02 790.634,-38.049 793.561,-40.769 C 796.487,-43.492 798.783,-46.862 800.449,-50.887 C 802.116,-54.91 802.948,-59.564 802.948,-64.851 C 802.948,-70.141 802.116,-74.795 800.449,-78.816 C 798.783,-82.838 796.487,-86.212 793.561,-88.933 C 790.634,-91.652 787.171,-93.682 783.162,-95.025 C 779.157,-96.364 774.856,-97.034 770.263,-97.034 C 765.673,-97.034 761.372,-96.364 757.367,-95.025 C 753.36,-93.682 749.915,-91.652 747.036,-88.933 C 744.154,-86.212 741.881,-82.838 740.214,-78.816 C 738.55,-74.795 737.715,-70.141 737.715,-64.851 Z M 751.221,-64.851 C 751.221,-72.743 752.999,-78.59 756.555,-82.378 C 760.112,-86.17 764.682,-88.07 770.263,-88.07 C 775.938,-88.07 780.552,-86.17 784.108,-82.378 C 787.664,-78.59 789.442,-72.743 789.442,-64.851 C 789.442,-56.957 787.664,-51.115 784.108,-47.323 C 780.552,-43.53 775.938,-41.632 770.263,-41.632 C 764.682,-41.632 760.112,-43.53 756.555,-47.323 C 752.999,-51.115 751.221,-56.957 751.221,-64.851 Z" fill="#007f01" fill-rule="nonzero" stroke-linejoin="round" stroke-linecap="round" stroke="none" stroke-width="1.407" marker-start="none" marker-end="none" stroke-miterlimit="79.8403193612775"/>
    <path d="M 805.573,-113.543 C 804.699,-113.431 803.823,-113.264 802.948,-113.042 C 802.074,-112.817 801.089,-112.556 799.995,-112.258 L 801.089,-104.815 C 802.766,-105.101 804.151,-105.317 805.245,-105.46 C 806.339,-105.602 807.396,-105.675 808.416,-105.675 C 810.532,-105.675 812.044,-105.293 812.955,-104.527 C 813.867,-103.764 814.323,-102.434 814.323,-100.538 C 814.323,-99.372 814.232,-97.861 814.05,-96.002 C 813.867,-94.143 813.648,-92.065 813.393,-89.772 C 813.137,-87.474 812.919,-85.051 812.737,-82.501 C 812.555,-79.95 812.464,-77.437 812.464,-74.958 C 812.464,-73.938 812.555,-72.935 812.737,-71.95 C 812.919,-70.969 813.265,-70.094 813.776,-69.329 C 814.286,-68.563 815.146,-67.967 815.963,-67.47 C 817.057,-66.804 818.337,-66.511 819.518,-66.008 C 817.804,-65.884 817.046,-65.519 815.963,-64.954 C 815.128,-64.519 814.286,-63.861 813.776,-63.095 C 813.265,-62.329 812.919,-61.455 812.737,-60.47 C 812.555,-59.483 812.464,-58.481 812.464,-57.46 C 812.464,-54.98 812.555,-52.466 812.737,-49.913 C 812.919,-47.362 813.137,-44.934 813.393,-42.638 C 813.648,-40.34 813.867,-38.263 814.05,-36.404 C 814.232,-34.544 814.323,-33.031 814.323,-31.862 C 814.323,-29.966 813.867,-28.636 812.955,-27.87 C 812.044,-27.104 810.532,-26.721 808.416,-26.721 C 807.396,-26.721 806.339,-26.794 805.245,-26.943 C 804.151,-27.089 802.766,-27.311 801.089,-27.608 L 799.995,-20.263 C 801.089,-19.937 801.957,-19.63 802.948,-19.412 C 808.447,-18.203 812.945,-17.626 819.871,-17.08 C 824.203,-16.738 867.694,-4.452 890.839,1.163 C 890.283,-2.575 889.528,-4.703 888.594,-8.234 C 888.382,-8.689 888.032,-9.008 887.543,-9.186 L 824.205,-26.183 L 824.272,-26.167 C 824.563,-27.299 824.709,-28.591 824.709,-30.045 C 824.709,-30.92 824.618,-32.375 824.436,-34.416 C 824.331,-35.582 824.221,-36.844 824.105,-38.2 L 884.129,-22.937 C 882.399,-27.125 880.421,-29.678 878.237,-33.617 C 877.838,-34.199 877.39,-34.45 876.933,-34.624 L 823.223,-49.783 L 823.221,-49.784 C 823.046,-52.555 822.959,-55.115 822.959,-57.466 C 822.959,-58.724 823.24,-59.758 823.805,-60.566 L 823.84,-60.557 L 869.352,-49.135 C 866.171,-53.608 862.763,-56.456 859.201,-60.716 C 858.695,-61.216 858.088,-61.617 857.36,-61.895 L 825.054,-71.503 C 823.233,-72.071 822.934,-73.43 822.959,-74.956 C 822.959,-77.355 823.05,-79.977 823.233,-82.814 C 823.415,-85.655 823.616,-88.383 823.835,-91.005 C 824.053,-93.623 824.253,-95.954 824.436,-97.992 C 824.618,-100.028 824.709,-101.486 824.709,-102.357 C 824.709,-104.542 824.381,-106.362 823.725,-107.817 C 823.069,-109.272 822.158,-110.435 820.99,-111.311 C 819.827,-112.185 818.442,-112.806 816.838,-113.166 C 815.234,-113.532 813.484,-113.714 811.588,-113.714 L 808.308,-113.714 C 807.36,-113.714 806.449,-113.656 805.573,-113.543 Z" stroke="none" fill="#4c4c4c" stroke-width="1.139" stroke-linejoin="miter" stroke-linecap="round" marker-start="none" marker-end="none" stroke-miterlimit="79.8403193612775"/>
    <path d="M 734.016,-253.329 C 734.89,-253.217 735.766,-253.05 736.641,-252.828 C 737.515,-252.603 738.5,-252.342 739.594,-252.044 L 738.5,-244.601 C 736.823,-244.887 735.438,-245.103 734.344,-245.246 C 733.25,-245.388 732.193,-245.461 731.173,-245.461 C 729.057,-245.461 727.545,-245.079 726.634,-244.313 C 725.722,-243.55 725.266,-242.22 725.266,-240.324 C 725.266,-239.158 725.357,-237.647 725.539,-235.788 C 725.722,-233.929 725.941,-231.851 726.196,-229.558 C 726.452,-227.26 726.67,-224.837 726.852,-222.287 C 727.034,-219.736 727.125,-217.223 727.125,-214.744 C 727.125,-213.724 727.034,-212.721 726.852,-211.736 C 726.67,-210.755 726.324,-209.88 725.813,-209.115 C 725.303,-208.349 724.443,-207.753 723.626,-207.256 C 722.532,-206.59 721.252,-206.297 720.071,-205.794 C 721.785,-205.67 722.543,-205.305 723.626,-204.74 C 724.461,-204.305 725.303,-203.647 725.813,-202.881 C 726.324,-202.115 726.67,-201.241 726.852,-200.256 C 727.034,-199.269 727.125,-198.267 727.125,-197.246 C 727.125,-194.766 727.034,-192.252 726.852,-189.699 C 726.67,-187.148 726.452,-184.72 726.196,-182.424 C 725.941,-180.126 725.722,-178.049 725.539,-176.19 C 725.357,-174.33 725.266,-172.817 725.266,-171.648 C 725.266,-169.752 725.722,-168.422 726.634,-167.656 C 727.545,-166.89 729.057,-166.507 731.173,-166.507 C 732.193,-166.507 733.25,-166.58 734.344,-166.729 C 735.438,-166.875 736.823,-167.097 738.5,-167.394 L 739.594,-160.049 C 738.5,-159.723 737.632,-159.416 736.641,-159.198 C 731.142,-157.989 726.644,-157.412 719.718,-156.866 C 715.386,-156.524 671.895,-144.238 648.75,-138.623 C 649.306,-142.361 650.061,-144.489 650.995,-148.02 C 651.207,-148.475 651.557,-148.794 652.046,-148.972 L 715.384,-165.969 L 715.317,-165.953 C 715.026,-167.085 714.88,-168.377 714.88,-169.831 C 714.88,-170.706 714.971,-172.161 715.153,-174.202 C 715.258,-175.368 715.368,-176.63 715.484,-177.986 L 655.46,-162.723 C 657.19,-166.911 659.168,-169.464 661.352,-173.403 C 661.751,-173.985 662.199,-174.236 662.656,-174.41 L 716.366,-189.569 L 716.368,-189.57 C 716.543,-192.341 716.63,-194.901 716.63,-197.252 C 716.63,-198.51 716.349,-199.544 715.784,-200.352 L 715.749,-200.343 L 670.237,-188.921 C 673.418,-193.394 676.826,-196.242 680.388,-200.502 C 680.894,-201.002 681.501,-201.403 682.229,-201.681 L 714.535,-211.289 C 716.356,-211.857 716.655,-213.216 716.63,-214.742 C 716.63,-217.141 716.539,-219.763 716.356,-222.6 C 716.174,-225.441 715.973,-228.169 715.754,-230.791 C 715.536,-233.409 715.336,-235.74 715.153,-237.778 C 714.971,-239.814 714.88,-241.272 714.88,-242.143 C 714.88,-244.328 715.208,-246.148 715.864,-247.603 C 716.52,-249.058 717.431,-250.221 718.599,-251.097 C 719.762,-251.971 721.147,-252.592 722.751,-252.952 C 724.355,-253.318 726.105,-253.5 728.001,-253.5 L 731.281,-253.5 C 732.229,-253.5 733.14,-253.442 734.016,-253.329 Z" stroke="none" fill="#4c4c4c" stroke-width="1.139" stroke-linejoin="miter" stroke-linecap="round" marker-start="none" marker-end="none" stroke-miterlimit="79.8403193612775"/>
    <path d="M 737.715,-204.637 C 737.715,-199.35 738.55,-194.696 740.214,-190.673 C 741.881,-186.648 744.154,-183.278 747.036,-180.555 C 749.915,-177.835 753.36,-175.806 757.367,-174.467 C 761.372,-173.123 765.673,-172.451 770.263,-172.456 C 774.856,-172.451 779.157,-173.123 783.162,-174.467 C 787.171,-175.806 790.634,-177.835 793.561,-180.555 C 796.487,-183.278 798.783,-186.648 800.449,-190.673 C 802.116,-194.696 802.948,-199.35 802.948,-204.637 C 802.948,-209.927 802.116,-214.581 800.449,-218.602 C 798.783,-222.624 796.487,-225.998 793.561,-228.719 C 790.634,-231.438 787.171,-233.468 783.162,-234.811 C 779.157,-236.15 774.856,-236.82 770.263,-236.82 C 765.673,-236.82 761.372,-236.15 757.367,-234.811 C 753.36,-233.468 749.915,-231.438 747.036,-228.719 C 744.154,-225.998 741.881,-222.624 740.214,-218.602 C 738.55,-214.581 737.715,-209.927 737.715,-204.637 Z M 751.221,-204.637 C 751.221,-212.529 752.999,-218.376 756.555,-222.164 C 760.112,-225.956 764.682,-227.856 770.263,-227.856 C 775.938,-227.856 780.552,-225.956 784.108,-222.164 C 787.664,-218.376 789.442,-212.529 789.442,-204.637 C 789.442,-196.743 787.664,-190.901 784.108,-187.109 C 780.552,-183.316 775.938,-181.418 770.263,-181.418 C 764.682,-181.418 760.112,-183.316 756.555,-187.109 C 752.999,-190.901 751.221,-196.743 751.221,-204.637 Z" fill="#0082a2" fill-rule="nonzero" stroke-linejoin="round" stroke-linecap="round" stroke="none" stroke-width="1.407" marker-start="none" marker-end="none" stroke-miterlimit="79.8403193612775"/>
    <path d="M 805.573,-253.329 C 804.699,-253.217 803.823,-253.05 802.948,-252.828 C 802.074,-252.603 801.089,-252.342 799.995,-252.044 L 801.089,-244.601 C 802.766,-244.887 804.151,-245.103 805.245,-245.246 C 806.339,-245.388 807.396,-245.461 808.416,-245.461 C 810.532,-245.461 812.044,-245.079 812.955,-244.313 C 813.867,-243.55 814.323,-242.22 814.323,-240.324 C 814.323,-239.158 814.232,-237.647 814.05,-235.788 C 813.867,-233.929 813.648,-231.851 813.393,-229.558 C 813.137,-227.26 812.919,-224.837 812.737,-222.287 C 812.555,-219.736 812.464,-217.223 812.464,-214.744 C 812.464,-213.724 812.555,-212.721 812.737,-211.736 C 812.919,-210.755 813.265,-209.88 813.776,-209.115 C 814.286,-208.349 815.146,-207.753 815.963,-207.256 C 817.057,-206.59 818.337,-206.297 819.518,-205.794 C 817.804,-205.67 817.046,-205.305 815.963,-204.74 C 815.128,-204.305 814.286,-203.647 813.776,-202.881 C 813.265,-202.115 812.919,-201.241 812.737,-200.256 C 812.555,-199.269 812.464,-198.267 812.464,-197.246 C 812.464,-194.766 812.555,-192.252 812.737,-189.699 C 812.919,-187.148 813.137,-184.72 813.393,-182.424 C 813.648,-180.126 813.867,-178.049 814.05,-176.19 C 814.232,-174.33 814.323,-172.817 814.323,-171.648 C 814.323,-169.752 813.867,-168.422 812.955,-167.656 C 812.044,-166.89 810.532,-166.507 808.416,-166.507 C 807.396,-166.507 806.339,-166.58 805.245,-166.729 C 804.151,-166.875 802.766,-167.097 801.089,-167.394 L 799.995,-160.049 C 801.089,-159.723 801.957,-159.416 802.948,-159.198 C 808.447,-157.989 812.945,-157.412 819.871,-156.866 C 824.203,-156.524 867.694,-144.238 890.839,-138.623 C 890.283,-142.361 889.528,-144.489 888.594,-148.02 C 888.382,-148.475 888.032,-148.794 887.543,-148.972 L 824.205,-165.969 L 824.272,-165.953 C 824.563,-167.085 824.709,-168.377 824.709,-169.831 C 824.709,-170.706 824.618,-172.161 824.436,-174.202 C 824.331,-175.368 824.221,-176.63 824.105,-177.986 L 884.129,-162.723 C 882.399,-166.911 880.421,-169.464 878.237,-173.403 C 877.838,-173.985 877.39,-174.236 876.933,-174.41 L 823.223,-189.569 L 823.221,-189.57 C 823.046,-192.341 822.959,-194.901 822.959,-197.252 C 822.959,-198.51 823.24,-199.544 823.805,-200.352 L 823.84,-200.343 L 869.352,-188.921 C 866.171,-193.394 862.763,-196.242 859.201,-200.502 C 858.695,-201.002 858.088,-201.403 857.36,-201.681 L 825.054,-211.289 C 823.233,-211.857 822.934,-213.216 822.959,-214.742 C 822.959,-217.141 823.05,-219.763 823.233,-222.6 C 823.415,-225.441 823.616,-228.169 823.835,-230.791 C 824.053,-233.409 824.253,-235.74 824.436,-237.778 C 824.618,-239.814 824.709,-241.272 824.709,-242.143 C 824.709,-244.328 824.381,-246.148 823.725,-247.603 C 823.069,-249.058 822.158,-250.221 820.99,-251.097 C 819.827,-251.971 818.442,-252.592 816.838,-252.952 C 815.234,-253.318 813.484,-253.5 811.588,-253.5 L 808.308,-253.5 C 807.36,-253.5 806.449,-253.442 805.573,-253.329 Z" stroke="none" fill="#4c4c4c" stroke-width="1.139" stroke-linejoin="miter" stroke-linecap="round" marker-start="none" marker-end="none" stroke-miterlimit="79.8403193612775"/>
    <path d="M 734.016,14.421 C 734.89,14.533 735.766,14.7 736.641,14.922 C 737.515,15.147 738.5,15.408 739.594,15.706 L 738.5,23.149 C 736.823,22.863 735.438,22.647 734.344,22.504 C 733.25,22.362 732.193,22.289 731.173,22.289 C 729.057,22.289 727.545,22.671 726.634,23.437 C 725.722,24.2 725.266,25.53 725.266,27.426 C 725.266,28.592 725.357,30.103 725.539,31.962 C 725.722,33.821 725.941,35.899 726.196,38.192 C 726.452,40.49 726.67,42.913 726.852,45.463 C 727.034,48.014 727.125,50.527 727.125,53.006 C 727.125,54.026 727.034,55.029 726.852,56.014 C 726.67,56.995 726.324,57.87 725.813,58.635 C 725.303,59.401 724.443,59.997 723.626,60.494 C 722.532,61.16 721.252,61.453 720.071,61.956 C 721.785,62.08 722.543,62.445 723.626,63.01 C 724.461,63.445 725.303,64.103 725.813,64.869 C 726.324,65.635 726.67,66.509 726.852,67.494 C 727.034,68.481 727.125,69.483 727.125,70.504 C 727.125,72.984 727.034,75.498 726.852,78.051 C 726.67,80.602 726.452,83.03 726.196,85.326 C 725.941,87.624 725.722,89.701 725.539,91.56 C 725.357,93.42 725.266,94.933 725.266,96.102 C 725.266,97.998 725.722,99.328 726.634,100.094 C 727.545,100.86 729.057,101.243 731.173,101.243 C 732.193,101.243 733.25,101.17 734.344,101.021 C 735.438,100.875 736.823,100.653 738.5,100.356 L 739.594,107.701 C 738.5,108.027 737.632,108.334 736.641,108.552 C 731.142,109.761 726.644,110.338 719.718,110.884 C 715.386,111.226 671.895,123.512 648.75,129.127 C 649.306,125.389 650.061,123.261 650.995,119.73 C 651.207,119.275 651.557,118.956 652.046,118.778 L 715.384,101.781 L 715.317,101.797 C 715.026,100.665 714.88,99.373 714.88,97.919 C 714.88,97.044 714.971,95.589 715.153,93.548 C 715.258,92.382 715.368,91.12 715.484,89.764 L 655.46,105.027 C 657.19,100.839 659.168,98.286 661.352,94.347 C 661.751,93.765 662.199,93.514 662.656,93.34 L 716.366,78.181 L 716.368,78.18 C 716.543,75.409 716.63,72.849 716.63,70.498 C 716.63,69.24 716.349,68.206 715.784,67.398 L 715.749,67.407 L 670.237,78.829 C 673.418,74.356 676.826,71.508 680.388,67.248 C 680.894,66.748 681.501,66.347 682.229,66.069 L 714.535,56.461 C 716.356,55.893 716.655,54.534 716.63,53.008 C 716.63,50.609 716.539,47.987 716.356,45.15 C 716.174,42.309 715.973,39.581 715.754,36.959 C 715.536,34.341 715.336,32.01 715.153,29.972 C 714.971,27.936 714.88,26.478 714.88,25.607 C 714.88,23.422 715.208,21.602 715.864,20.147 C 716.52,18.692 717.431,17.529 718.599,16.653 C 719.762,15.779 721.147,15.158 722.751,14.798 C 724.355,14.432 726.105,14.25 728.001,14.25 L 731.281,14.25 C 732.229,14.25 733.14,14.308 734.016,14.421 Z" stroke="none" fill="#4c4c4c" stroke-width="1.139" stroke-linejoin="miter" stroke-linecap="round" marker-start="none" marker-end="none" stroke-miterlimit="79.8403193612775"/>
    <path d="M 737.715,63.113 C 737.715,68.4 738.55,73.054 740.214,77.077 C 741.881,81.102 744.154,84.472 747.036,87.195 C 749.915,89.915 753.36,91.944 757.367,93.283 C 761.372,94.627 765.673,95.299 770.263,95.294 C 774.856,95.299 779.157,94.627 783.162,93.283 C 787.171,91.944 790.634,89.915 793.561,87.195 C 796.487,84.472 798.783,81.102 800.449,77.077 C 802.116,73.054 802.948,68.4 802.948,63.113 C 802.948,57.823 802.116,53.169 800.449,49.148 C 798.783,45.126 796.487,41.752 793.561,39.031 C 790.634,36.312 787.171,34.282 783.162,32.939 C 779.157,31.6 774.856,30.93 770.263,30.93 C 765.673,30.93 761.372,31.6 757.367,32.939 C 753.36,34.282 749.915,36.312 747.036,39.031 C 744.154,41.752 741.881,45.126 740.214,49.148 C 738.55,53.169 737.715,57.823 737.715,63.113 Z M 751.221,63.113 C 751.221,55.221 752.999,49.374 756.555,45.586 C 760.112,41.794 764.682,39.894 770.263,39.894 C 775.938,39.894 780.552,41.794 784.108,45.586 C 787.664,49.374 789.442,55.221 789.442,63.113 C 789.442,71.007 787.664,76.849 784.108,80.641 C 780.552,84.434 775.938,86.332 770.263,86.332 C 764.682,86.332 760.112,84.434 756.555,80.641 C 752.999,76.849 751.221,71.007 751.221,63.113 Z" fill="#d27500" fill-rule="nonzero" stroke-linejoin="round" stroke-linecap="round" stroke="none" stroke-width="1.407" marker-start="none" marker-end="none" stroke-miterlimit="79.8403193612775"/>
    <path d="M 805.573,14.421 C 804.699,14.533 803.823,14.7 802.948,14.922 C 802.074,15.147 801.089,15.408 799.995,15.706 L 801.089,23.149 C 802.766,22.863 804.151,22.647 805.245,22.504 C 806.339,22.362 807.396,22.289 808.416,22.289 C 810.532,22.289 812.044,22.671 812.955,23.437 C 813.867,24.2 814.323,25.53 814.323,27.426 C 814.323,28.592 814.232,30.103 814.05,31.962 C 813.867,33.821 813.648,35.899 813.393,38.192 C 813.137,40.49 812.919,42.913 812.737,45.463 C 812.555,48.014 812.464,50.527 812.464,53.006 C 812.464,54.026 812.555,55.029 812.737,56.014 C 812.919,56.995 813.265,57.87 813.776,58.635 C 814.286,59.401 815.146,59.997 815.963,60.494 C 817.057,61.16 818.337,61.453 819.518,61.956 C 817.804,62.08 817.046,62.445 815.963,63.01 C 815.128,63.445 814.286,64.103 813.776,64.869 C 813.265,65.635 812.919,66.509 812.737,67.494 C 812.555,68.481 812.464,69.483 812.464,70.504 C 812.464,72.984 812.555,75.498 812.737,78.051 C 812.919,80.602 813.137,83.03 813.393,85.326 C 813.648,87.624 813.867,89.701 814.05,91.56 C 814.232,93.42 814.323,94.933 814.323,96.102 C 814.323,97.998 813.867,99.328 812.955,100.094 C 812.044,100.86 810.532,101.243 808.416,101.243 C 807.396,101.243 806.339,101.17 805.245,101.021 C 804.151,100.875 802.766,100.653 801.089,100.356 L 799.995,107.701 C 801.089,108.027 801.957,108.334 802.948,108.552 C 808.447,109.761 812.945,110.338 819.871,110.884 C 824.203,111.226 867.694,123.512 890.839,129.127 C 890.283,125.389 889.528,123.261 888.594,119.73 C 888.382,119.275 888.032,118.956 887.543,118.778 L 824.205,101.781 L 824.272,101.797 C 824.563,100.665 824.709,99.373 824.709,97.919 C 824.709,97.044 824.618,95.589 824.436,93.548 C 824.331,92.382 824.221,91.12 824.105,89.764 L 884.129,105.027 C 882.399,100.839 880.421,98.286 878.237,94.347 C 877.838,93.765 877.39,93.514 876.933,93.34 L 823.223,78.181 L 823.221,78.18 C 823.046,75.409 822.959,72.849 822.959,70.498 C 822.959,69.24 823.24,68.206 823.805,67.398 L 823.84,67.407 L 869.352,78.829 C 866.171,74.356 862.763,71.508 859.201,67.248 C 858.695,66.748 858.088,66.347 857.36,66.069 L 825.054,56.461 C 823.233,55.893 822.934,54.534 822.959,53.008 C 822.959,50.609 823.05,47.987 823.233,45.15 C 823.415,42.309 823.616,39.581 823.835,36.959 C 824.053,34.341 824.253,32.01 824.436,29.972 C 824.618,27.936 824.709,26.478 824.709,25.607 C 824.709,23.422 824.381,21.602 823.725,20.147 C 823.069,18.692 822.158,17.529 820.99,16.653 C 819.827,15.779 818.442,15.158 816.838,14.798 C 815.234,14.432 813.484,14.25 811.588,14.25 L 808.308,14.25 C 807.36,14.25 806.449,14.308 805.573,14.421 Z" stroke="none" fill="#4c4c4c" stroke-width="1.139" stroke-linejoin="miter" stroke-linecap="round" marker-start="none" marker-end="none" stroke-miterlimit="79.8403193612775"/>
    <path d="M 59.171,35.149 C 59.778,35.226 60.386,35.343 60.993,35.496 C 61.599,35.653 62.283,35.834 63.043,36.041 L 62.283,41.206 C 61.12,41.007 60.159,40.858 59.398,40.758 C 58.639,40.659 57.907,40.609 57.198,40.609 C 55.731,40.609 54.681,40.875 54.049,41.404 C 53.416,41.935 53.099,42.858 53.099,44.174 C 53.099,44.983 53.162,46.031 53.288,47.322 C 53.416,48.611 53.568,50.053 53.744,51.645 C 53.923,53.241 54.074,54.921 54.201,56.691 C 54.326,58.46 54.389,60.205 54.389,61.926 C 54.389,62.632 54.326,63.33 54.201,64.013 C 54.074,64.694 53.834,65.301 53.48,65.832 C 53.125,66.363 52.529,66.778 51.961,67.122 C 51.202,67.584 50.313,67.787 49.495,68.137 C 50.683,68.222 51.21,68.476 51.961,68.868 C 52.54,69.169 53.125,69.626 53.48,70.158 C 53.834,70.691 54.074,71.295 54.201,71.979 C 54.326,72.665 54.389,73.36 54.389,74.069 C 54.389,75.789 54.326,77.533 54.201,79.306 C 54.074,81.076 53.923,82.761 53.744,84.354 C 53.568,85.949 53.416,87.39 53.288,88.681 C 53.162,89.971 53.099,91.021 53.099,91.832 C 53.099,93.148 53.416,94.072 54.049,94.602 C 54.681,95.134 55.731,95.399 57.198,95.399 C 57.907,95.399 58.639,95.349 59.398,95.247 C 60.159,95.145 61.12,94.99 62.283,94.784 L 63.043,99.881 C 62.283,100.108 61.681,100.321 60.993,100.473 C 57.177,101.31 54.057,101.712 49.25,102.09 C 46.243,102.329 16.061,110.854 0,114.75 C 0.387,112.156 0.911,110.68 1.557,108.229 C 1.705,107.914 1.947,107.691 2.288,107.568 L 46.241,95.774 L 46.195,95.785 C 45.993,94.999 45.891,94.102 45.891,93.093 C 45.891,92.486 45.954,91.476 46.08,90.06 C 46.153,89.251 46.23,88.375 46.31,87.434 L 4.656,98.026 C 5.857,95.119 7.23,93.348 8.745,90.614 C 9.023,90.212 9.333,90.037 9.65,89.916 L 46.923,79.396 L 46.925,79.396 C 47.046,77.473 47.106,75.696 47.106,74.064 C 47.106,73.192 46.912,72.474 46.52,71.913 L 46.495,71.919 L 14.911,79.846 C 17.119,76.742 19.484,74.766 21.956,71.809 C 22.307,71.462 22.728,71.183 23.233,70.991 L 45.653,64.323 C 46.916,63.929 47.124,62.985 47.106,61.927 C 47.106,60.263 47.043,58.442 46.916,56.473 C 46.79,54.502 46.65,52.609 46.499,50.789 C 46.347,48.973 46.208,47.356 46.08,45.94 C 45.954,44.529 45.891,43.516 45.891,42.911 C 45.891,41.395 46.119,40.132 46.575,39.124 C 47.029,38.113 47.662,37.305 48.472,36.697 C 49.279,36.092 50.241,35.66 51.355,35.41 C 52.467,35.156 53.682,35.03 54.997,35.03 L 57.273,35.03 C 57.931,35.03 58.564,35.07 59.171,35.149 Z" stroke-linecap="round" stroke="none" fill="#4c4c4c" stroke-width="0.79" stroke-linejoin="miter" marker-start="none" marker-end="none" stroke-miterlimit="79.8403193612775"/>
    <path d="M 61.739,68.94 C 61.739,72.608 62.319,75.838 63.473,78.629 C 64.63,81.423 66.207,83.761 68.207,85.652 C 70.206,87.538 72.595,88.947 75.377,89.877 C 78.156,90.809 81.14,91.275 84.325,91.271 C 87.513,91.275 90.497,90.809 93.277,89.877 C 96.059,88.947 98.463,87.538 100.494,85.652 C 102.524,83.761 104.118,81.423 105.274,78.629 C 106.43,75.838 107.008,72.608 107.008,68.94 C 107.008,65.268 106.43,62.039 105.274,59.248 C 104.118,56.456 102.524,54.116 100.494,52.226 C 98.463,50.34 96.059,48.932 93.277,48 C 90.497,47.071 87.513,46.606 84.325,46.606 C 81.14,46.606 78.156,47.071 75.377,48 C 72.595,48.932 70.206,50.34 68.207,52.226 C 66.207,54.116 64.63,56.456 63.473,59.248 C 62.319,62.039 61.739,65.268 61.739,68.94 Z M 71.111,68.94 C 71.111,63.463 72.345,59.405 74.813,56.776 C 77.281,54.143 80.452,52.825 84.325,52.825 C 88.264,52.825 91.465,54.143 93.933,56.776 C 96.401,59.405 97.635,63.463 97.635,68.94 C 97.635,74.418 96.401,78.472 93.933,81.104 C 91.465,83.735 88.264,85.053 84.325,85.053 C 80.452,85.053 77.281,83.735 74.813,81.104 C 72.345,78.472 71.111,74.418 71.111,68.94 Z" fill="#bf0000" stroke-linecap="round" stroke="none" fill-rule="nonzero" stroke-linejoin="round" stroke-width="0.977" marker-start="none" marker-end="none" stroke-miterlimit="79.8403193612775"/>
    <path d="M 108.83,35.149 C 108.222,35.226 107.614,35.343 107.008,35.496 C 106.401,35.653 105.717,35.834 104.958,36.041 L 105.717,41.206 C 106.881,41.007 107.842,40.858 108.602,40.758 C 109.361,40.659 110.094,40.609 110.802,40.609 C 112.27,40.609 113.32,40.875 113.952,41.404 C 114.586,41.935 114.901,42.858 114.901,44.174 C 114.901,44.983 114.839,46.031 114.712,47.322 C 114.586,48.611 114.433,50.053 114.256,51.645 C 114.078,53.241 113.927,54.921 113.802,56.691 C 113.674,58.46 113.612,60.205 113.612,61.926 C 113.612,62.632 113.674,63.33 113.802,64.013 C 113.927,64.694 114.166,65.301 114.521,65.832 C 114.876,66.363 115.472,66.778 116.039,67.122 C 116.799,67.584 117.688,67.787 118.506,68.137 C 117.318,68.222 116.791,68.476 116.039,68.868 C 115.461,69.169 114.876,69.626 114.521,70.158 C 114.166,70.691 113.927,71.295 113.802,71.979 C 113.674,72.665 113.612,73.36 113.612,74.069 C 113.612,75.789 113.674,77.533 113.802,79.306 C 113.927,81.076 114.078,82.761 114.256,84.354 C 114.433,85.949 114.586,87.39 114.712,88.681 C 114.839,89.971 114.901,91.021 114.901,91.832 C 114.901,93.148 114.586,94.072 113.952,94.602 C 113.32,95.134 112.27,95.399 110.802,95.399 C 110.094,95.399 109.361,95.349 108.602,95.247 C 107.842,95.145 106.881,94.99 105.717,94.784 L 104.958,99.881 C 105.717,100.108 106.32,100.321 107.008,100.473 C 110.823,101.31 113.945,101.712 118.751,102.09 C 121.758,102.329 151.939,110.854 168,114.75 C 167.614,112.156 167.09,110.68 166.443,108.229 C 166.295,107.914 166.053,107.691 165.713,107.568 L 121.759,95.774 L 121.805,95.785 C 122.008,94.999 122.109,94.102 122.109,93.093 C 122.109,92.486 122.047,91.476 121.92,90.06 C 121.847,89.251 121.77,88.375 121.69,87.434 L 163.344,98.026 C 162.143,95.119 160.771,93.348 159.255,90.614 C 158.978,90.212 158.667,90.037 158.351,89.916 L 121.077,79.396 L 121.076,79.396 C 120.954,77.473 120.894,75.696 120.894,74.064 C 120.894,73.192 121.089,72.474 121.481,71.913 L 121.506,71.919 L 153.09,79.846 C 150.882,76.742 148.517,74.766 146.045,71.809 C 145.694,71.462 145.274,71.183 144.767,70.991 L 122.348,64.323 C 121.084,63.929 120.876,62.985 120.894,61.927 C 120.894,60.263 120.957,58.442 121.084,56.473 C 121.21,54.502 121.35,52.609 121.502,50.789 C 121.654,48.973 121.792,47.356 121.92,45.94 C 122.047,44.529 122.109,43.516 122.109,42.911 C 122.109,41.395 121.881,40.132 121.426,39.124 C 120.971,38.113 120.338,37.305 119.528,36.697 C 118.721,36.092 117.76,35.66 116.646,35.41 C 115.534,35.156 114.319,35.03 113.004,35.03 L 110.728,35.03 C 110.069,35.03 109.437,35.07 108.83,35.149 Z" stroke-linecap="round" stroke="none" fill="#4c4c4c" stroke-width="0.79" stroke-linejoin="miter" marker-start="none" marker-end="none" stroke-miterlimit="79.8403193612775"/>
    <g id="Group_1" fill-rule="nonzero" stroke-linejoin="round" stroke-linecap="round" stroke="none" stroke-width="0.353" fill="#666666" stroke-miterlimit="79.8403193612775">
     <path d="M 45.572,17.301 C 45.573,15.568 45.369,14.006 44.959,12.614 C 44.551,11.224 43.941,10.04 43.129,9.063 C 42.318,8.086 41.3,7.335 40.073,6.811 C 38.849,6.287 37.419,6.024 35.786,6.024 C 34.174,6.024 32.78,6.264 31.604,6.744 C 30.429,7.225 29.457,7.922 28.69,8.84 C 27.922,9.755 27.351,10.892 26.975,12.251 C 26.601,13.608 26.413,15.17 26.413,16.936 C 26.413,18.625 26.616,20.16 27.026,21.541 C 27.436,22.92 28.047,24.093 28.864,25.059 C 29.68,26.026 30.703,26.771 31.927,27.294 C 33.152,27.82 34.583,28.081 36.217,28.081 C 37.795,28.081 39.17,27.844 40.339,27.369 C 41.509,26.895 42.483,26.202 43.262,25.291 C 44.04,24.379 44.62,23.254 45.001,21.913 C 45.383,20.571 45.573,19.034 45.572,17.301 Z M 42.575,17.103 C 42.575,18.316 42.466,19.446 42.251,20.489 C 42.035,21.532 41.677,22.436 41.176,23.204 C 40.674,23.972 40.002,24.57 39.164,25.001 C 38.325,25.431 37.285,25.646 36.051,25.646 C 34.814,25.646 33.777,25.415 32.937,24.951 C 32.097,24.487 31.416,23.869 30.891,23.096 C 30.369,22.323 29.992,21.421 29.766,20.389 C 29.539,19.357 29.427,18.272 29.427,17.135 C 29.427,15.876 29.531,14.717 29.742,13.659 C 29.952,12.599 30.305,11.684 30.801,10.918 C 31.298,10.15 31.964,9.554 32.797,9.13 C 33.629,8.704 34.676,8.491 35.934,8.491 C 37.182,8.491 38.23,8.724 39.081,9.187 C 39.931,9.651 40.616,10.277 41.134,11.066 C 41.652,11.856 42.023,12.769 42.244,13.806 C 42.464,14.843 42.575,15.941 42.575,17.103 Z" marker-start="none" marker-end="none"/>
     <path d="M 62.765,14.437 C 62.765,13.135 62.627,11.964 62.344,10.926 C 62.062,9.887 61.648,9.008 61.102,8.285 C 60.556,7.562 59.88,7.004 59.072,6.612 C 58.268,6.22 57.346,6.024 56.309,6.024 C 55.866,6.024 55.458,6.068 55.082,6.157 C 54.707,6.246 54.339,6.384 53.982,6.57 C 53.623,6.759 53.266,6.997 52.913,7.283 C 52.56,7.569 52.184,7.906 51.787,8.292 L 51.787,0.841 C 51.787,0.753 51.766,0.676 51.721,0.609 C 51.677,0.544 51.606,0.488 51.506,0.444 C 51.406,0.399 51.268,0.366 51.092,0.344 C 50.915,0.323 50.688,0.312 50.412,0.312 C 50.147,0.312 49.927,0.323 49.751,0.344 C 49.573,0.366 49.434,0.399 49.329,0.444 C 49.222,0.488 49.151,0.544 49.113,0.609 C 49.074,0.676 49.055,0.753 49.055,0.841 L 49.055,21.656 C 49.055,21.756 49.071,21.836 49.105,21.896 C 49.138,21.957 49.205,22.01 49.303,22.054 C 49.403,22.099 49.529,22.128 49.685,22.146 C 49.839,22.161 50.026,22.17 50.247,22.17 C 50.479,22.17 50.67,22.161 50.819,22.146 C 50.967,22.128 51.092,22.099 51.191,22.054 C 51.291,22.01 51.359,21.957 51.398,21.896 C 51.438,21.836 51.456,21.756 51.457,21.656 L 51.457,19.652 C 51.91,20.115 52.345,20.518 52.764,20.861 C 53.183,21.202 53.607,21.488 54.031,21.715 C 54.455,21.94 54.892,22.112 55.34,22.227 C 55.786,22.342 56.258,22.401 56.754,22.401 C 57.838,22.401 58.757,22.192 59.52,21.772 C 60.282,21.352 60.903,20.778 61.383,20.05 C 61.864,19.321 62.215,18.473 62.435,17.508 C 62.656,16.541 62.765,15.518 62.765,14.437 Z M 59.886,14.121 C 59.886,14.883 59.827,15.621 59.711,16.332 C 59.595,17.044 59.396,17.675 59.113,18.228 C 58.834,18.78 58.454,19.222 57.98,19.553 C 57.506,19.884 56.915,20.05 56.209,20.05 C 55.855,20.05 55.507,19.998 55.165,19.893 C 54.824,19.789 54.476,19.623 54.123,19.397 C 53.77,19.169 53.399,18.871 53.012,18.5 C 52.626,18.132 52.218,17.676 51.787,17.135 L 51.787,11.207 C 52.537,10.291 53.251,9.589 53.923,9.104 C 54.596,8.618 55.303,8.375 56.044,8.375 C 56.727,8.375 57.315,8.541 57.806,8.872 C 58.298,9.204 58.695,9.645 58.998,10.197 C 59.303,10.749 59.526,11.367 59.669,12.051 C 59.813,12.736 59.886,13.427 59.886,14.121 Z" marker-start="none" marker-end="none"/>
     <path d="M 79.591,14.85 C 79.591,14.419 79.483,14.113 79.268,13.93 C 79.052,13.748 78.806,13.659 78.531,13.659 L 68.762,13.659 C 68.762,12.831 68.844,12.085 69.009,11.424 C 69.174,10.761 69.45,10.191 69.837,9.716 C 70.223,9.242 70.727,8.877 71.344,8.624 C 71.962,8.37 72.718,8.244 73.611,8.244 C 74.319,8.244 74.948,8.301 75.5,8.417 C 76.052,8.534 76.53,8.662 76.932,8.806 C 77.336,8.951 77.666,9.079 77.925,9.195 C 78.184,9.31 78.38,9.369 78.514,9.369 C 78.591,9.369 78.661,9.35 78.721,9.311 C 78.782,9.274 78.829,9.216 78.862,9.137 C 78.894,9.06 78.921,8.953 78.935,8.814 C 78.953,8.677 78.962,8.509 78.962,8.309 C 78.962,8.166 78.956,8.042 78.944,7.937 C 78.932,7.831 78.921,7.738 78.903,7.655 C 78.886,7.572 78.859,7.498 78.82,7.431 C 78.782,7.365 78.732,7.303 78.67,7.241 C 78.611,7.181 78.431,7.081 78.133,6.944 C 77.835,6.806 77.448,6.67 76.973,6.537 C 76.498,6.406 75.95,6.287 75.326,6.181 C 74.702,6.077 74.037,6.024 73.331,6.024 C 72.104,6.024 71.033,6.196 70.11,6.537 C 69.188,6.881 68.414,7.388 67.783,8.06 C 67.155,8.734 66.681,9.578 66.359,10.595 C 66.039,11.61 65.879,12.792 65.879,14.139 C 65.879,15.419 66.045,16.57 66.376,17.591 C 66.707,18.612 67.184,19.479 67.808,20.19 C 68.432,20.902 69.185,21.449 70.069,21.831 C 70.953,22.21 71.94,22.401 73.033,22.401 C 74.203,22.401 75.199,22.213 76.021,21.838 C 76.844,21.463 77.521,20.957 78.05,20.323 C 78.579,19.688 78.969,18.943 79.218,18.087 C 79.466,17.233 79.591,16.319 79.591,15.348 L 79.591,14.85 Z M 76.841,15.663 C 76.876,17.097 76.557,18.222 75.889,19.039 C 75.222,19.857 74.229,20.264 72.917,20.264 C 72.243,20.264 71.652,20.138 71.145,19.884 C 70.637,19.631 70.213,19.294 69.869,18.874 C 69.527,18.454 69.262,17.965 69.076,17.41 C 68.889,16.85 68.783,16.268 68.762,15.663 L 76.841,15.663 Z" marker-start="none" marker-end="none"/>
     <path d="M 96.58,6.754 C 96.58,6.664 96.558,6.591 96.513,6.529 C 96.47,6.469 96.398,6.416 96.299,6.372 C 96.199,6.327 96.06,6.294 95.884,6.272 C 95.707,6.25 95.487,6.24 95.221,6.24 C 94.946,6.24 94.719,6.25 94.544,6.272 C 94.366,6.294 94.229,6.327 94.129,6.372 C 94.03,6.416 93.957,6.469 93.914,6.529 C 93.869,6.591 93.847,6.664 93.847,6.754 L 93.847,15.48 C 93.847,16.329 93.781,17.014 93.649,17.534 C 93.517,18.052 93.323,18.498 93.069,18.874 C 92.815,19.249 92.487,19.537 92.084,19.735 C 91.68,19.935 91.214,20.034 90.685,20.034 C 90,20.034 89.316,19.791 88.631,19.305 C 87.947,18.819 87.23,18.105 86.479,17.168 L 86.479,6.754 C 86.479,6.664 86.456,6.591 86.412,6.529 C 86.368,6.469 86.296,6.416 86.197,6.372 C 86.098,6.327 85.959,6.294 85.784,6.272 C 85.606,6.25 85.38,6.24 85.104,6.24 C 84.839,6.24 84.618,6.25 84.442,6.272 C 84.264,6.294 84.124,6.327 84.02,6.372 C 83.914,6.416 83.844,6.469 83.804,6.529 C 83.765,6.591 83.747,6.664 83.747,6.754 L 83.747,21.656 C 83.747,21.744 83.763,21.819 83.797,21.88 C 83.83,21.94 83.895,21.996 83.994,22.045 C 84.094,22.095 84.22,22.128 84.375,22.146 C 84.53,22.161 84.734,22.17 84.987,22.17 C 85.231,22.17 85.433,22.161 85.593,22.146 C 85.753,22.128 85.877,22.095 85.966,22.045 C 86.054,21.996 86.117,21.94 86.156,21.88 C 86.194,21.819 86.213,21.744 86.213,21.656 L 86.213,19.686 C 87.052,20.623 87.89,21.311 88.722,21.748 C 89.554,22.184 90.397,22.401 91.248,22.401 C 92.243,22.401 93.078,22.232 93.757,21.896 C 94.435,21.559 94.984,21.11 95.404,20.545 C 95.824,19.984 96.126,19.324 96.306,18.568 C 96.488,17.812 96.58,16.903 96.58,15.843 L 96.58,6.754 Z" marker-start="none" marker-end="none"/>
     <path d="M 113.386,12.35 C 113.386,11.346 113.203,10.451 112.833,9.666 C 112.463,8.883 111.949,8.217 111.292,7.671 C 110.636,7.126 109.862,6.715 108.975,6.438 C 108.086,6.163 107.128,6.024 106.102,6.024 C 105.383,6.024 104.718,6.084 104.105,6.207 C 103.493,6.327 102.948,6.476 102.467,6.653 C 101.986,6.83 101.583,7.012 101.258,7.2 C 100.932,7.387 100.706,7.547 100.578,7.679 C 100.451,7.813 100.358,7.981 100.298,8.185 C 100.236,8.39 100.206,8.662 100.206,9.005 C 100.206,9.248 100.218,9.448 100.239,9.609 C 100.262,9.77 100.295,9.899 100.339,9.999 C 100.383,10.097 100.438,10.167 100.505,10.206 C 100.571,10.245 100.648,10.263 100.737,10.263 C 100.89,10.263 101.108,10.17 101.39,9.981 C 101.671,9.793 102.034,9.59 102.475,9.369 C 102.918,9.148 103.449,8.941 104.072,8.748 C 104.697,8.556 105.417,8.458 106.234,8.458 C 106.852,8.458 107.418,8.541 107.93,8.707 C 108.445,8.872 108.887,9.107 109.256,9.411 C 109.625,9.713 109.909,10.087 110.109,10.528 C 110.307,10.97 110.407,11.472 110.406,12.035 C 110.407,12.643 110.268,13.162 109.992,13.592 C 109.717,14.023 109.352,14.401 108.899,14.727 C 108.447,15.052 107.931,15.351 107.351,15.621 C 106.772,15.89 106.178,16.166 105.571,16.449 C 104.965,16.729 104.373,17.041 103.799,17.384 C 103.224,17.726 102.712,18.128 102.26,18.592 C 101.806,19.056 101.44,19.6 101.157,20.224 C 100.878,20.848 100.737,21.595 100.737,22.466 C 100.737,23.362 100.9,24.159 101.225,24.859 C 101.549,25.56 102.003,26.149 102.582,26.623 C 103.162,27.098 103.852,27.46 104.653,27.708 C 105.453,27.956 106.317,28.081 107.244,28.081 C 107.719,28.081 108.196,28.039 108.677,27.956 C 109.157,27.874 109.609,27.764 110.033,27.626 C 110.46,27.486 110.838,27.333 111.168,27.163 C 111.5,26.99 111.718,26.852 111.822,26.747 C 111.927,26.644 111.996,26.56 112.03,26.5 C 112.062,26.439 112.09,26.362 112.112,26.268 C 112.135,26.174 112.151,26.061 112.162,25.928 C 112.172,25.796 112.178,25.625 112.178,25.415 C 112.178,25.216 112.17,25.039 112.154,24.886 C 112.136,24.73 112.112,24.6 112.078,24.496 C 112.045,24.391 111.998,24.315 111.938,24.264 C 111.877,24.215 111.809,24.191 111.73,24.19 C 111.61,24.191 111.42,24.268 111.161,24.422 C 110.9,24.576 110.584,24.749 110.206,24.943 C 109.832,25.136 109.388,25.313 108.875,25.473 C 108.362,25.634 107.784,25.714 107.145,25.714 C 106.548,25.714 106.029,25.634 105.587,25.473 C 105.147,25.313 104.783,25.1 104.496,24.835 C 104.207,24.57 103.993,24.256 103.849,23.892 C 103.706,23.527 103.633,23.141 103.633,22.732 C 103.633,22.136 103.772,21.624 104.047,21.193 C 104.324,20.762 104.691,20.379 105.15,20.05 C 105.607,19.718 106.129,19.415 106.715,19.139 C 107.3,18.863 107.893,18.584 108.503,18.302 C 109.109,18.021 109.705,17.713 110.29,17.375 C 110.876,17.04 111.397,16.641 111.856,16.183 C 112.314,15.725 112.683,15.185 112.965,14.561 C 113.247,13.936 113.386,13.201 113.386,12.35 Z" marker-start="none" marker-end="none"/>
     <path d="M 129.863,14.85 C 129.863,14.419 129.756,14.113 129.541,13.93 C 129.325,13.748 129.079,13.659 128.803,13.659 L 119.035,13.659 C 119.035,12.831 119.117,12.085 119.282,11.424 C 119.448,10.761 119.724,10.191 120.11,9.716 C 120.497,9.242 120.999,8.877 121.617,8.624 C 122.236,8.37 122.992,8.244 123.886,8.244 C 124.592,8.244 125.222,8.301 125.773,8.417 C 126.326,8.534 126.802,8.662 127.205,8.806 C 127.609,8.951 127.94,9.079 128.199,9.195 C 128.458,9.31 128.655,9.369 128.787,9.369 C 128.864,9.369 128.933,9.35 128.994,9.311 C 129.054,9.274 129.101,9.216 129.135,9.137 C 129.168,9.06 129.193,8.953 129.209,8.814 C 129.226,8.677 129.235,8.509 129.235,8.309 C 129.235,8.166 129.229,8.042 129.217,7.937 C 129.205,7.831 129.193,7.738 129.176,7.655 C 129.159,7.572 129.132,7.498 129.093,7.431 C 129.054,7.365 129.006,7.303 128.944,7.241 C 128.884,7.181 128.705,7.081 128.408,6.944 C 128.108,6.806 127.722,6.67 127.247,6.537 C 126.772,6.406 126.223,6.287 125.599,6.181 C 124.975,6.077 124.311,6.024 123.604,6.024 C 122.378,6.024 121.306,6.196 120.383,6.537 C 119.463,6.881 118.687,7.388 118.058,8.06 C 117.428,8.734 116.954,9.578 116.633,10.595 C 116.312,11.61 116.152,12.792 116.152,14.139 C 116.152,15.419 116.318,16.57 116.648,17.591 C 116.981,18.612 117.459,19.479 118.083,20.19 C 118.705,20.902 119.46,21.449 120.341,21.831 C 121.225,22.21 122.213,22.401 123.307,22.401 C 124.477,22.401 125.473,22.213 126.296,21.838 C 127.117,21.463 127.794,20.957 128.324,20.323 C 128.852,19.688 129.241,18.943 129.491,18.087 C 129.739,17.233 129.863,16.319 129.863,15.348 L 129.863,14.85 Z M 127.114,15.663 C 127.147,17.097 126.83,18.222 126.163,19.039 C 125.494,19.857 124.503,20.264 123.19,20.264 C 122.517,20.264 121.926,20.138 121.418,19.884 C 120.911,19.631 120.485,19.294 120.144,18.874 C 119.801,18.454 119.536,17.965 119.349,17.41 C 119.162,16.85 119.056,16.268 119.035,15.663 L 127.114,15.663 Z" marker-start="none" marker-end="none"/>
     <path d="M 141.587,7.845 C 141.587,7.525 141.565,7.272 141.522,7.085 C 141.479,6.896 141.411,6.758 141.323,6.67 C 141.235,6.581 141.103,6.499 140.925,6.421 C 140.749,6.345 140.548,6.281 140.322,6.231 C 140.094,6.181 139.854,6.14 139.601,6.107 C 139.346,6.074 139.093,6.058 138.839,6.057 C 138.067,6.058 137.403,6.16 136.853,6.364 C 136.3,6.569 135.848,6.878 135.494,7.292 C 135.141,7.705 134.884,8.229 134.725,8.865 C 134.564,9.498 134.484,10.247 134.484,11.108 L 134.484,19.818 L 132.397,19.818 C 132.232,19.818 132.1,19.906 132.001,20.082 C 131.9,20.26 131.852,20.545 131.852,20.944 C 131.852,21.155 131.864,21.329 131.893,21.474 C 131.92,21.617 131.956,21.736 132.001,21.831 C 132.044,21.924 132.103,21.99 132.174,22.029 C 132.245,22.068 132.326,22.087 132.415,22.087 L 134.484,22.087 L 134.484,25.631 C 134.484,25.707 134.504,25.779 134.543,25.846 C 134.581,25.912 134.652,25.97 134.757,26.019 C 134.861,26.07 135.003,26.106 135.179,26.127 C 135.355,26.15 135.576,26.16 135.842,26.16 C 136.118,26.16 136.344,26.15 136.52,26.127 C 136.697,26.106 136.835,26.07 136.936,26.019 C 137.035,25.97 137.107,25.912 137.15,25.846 C 137.194,25.779 137.216,25.707 137.216,25.631 L 137.216,22.087 L 141.042,22.087 C 141.131,22.087 141.208,22.068 141.273,22.029 C 141.34,21.99 141.397,21.924 141.447,21.831 C 141.497,21.736 141.532,21.617 141.554,21.474 C 141.577,21.329 141.587,21.155 141.587,20.944 C 141.587,20.545 141.538,20.26 141.439,20.082 C 141.34,19.906 141.208,19.818 141.042,19.818 L 137.216,19.818 L 137.216,11.506 C 137.216,10.479 137.368,9.702 137.671,9.179 C 137.975,8.654 138.518,8.392 139.302,8.392 C 139.557,8.392 139.782,8.417 139.981,8.466 C 140.18,8.517 140.356,8.568 140.512,8.624 C 140.666,8.68 140.798,8.732 140.91,8.782 C 141.02,8.831 141.119,8.856 141.208,8.856 C 141.262,8.856 141.315,8.843 141.364,8.814 C 141.415,8.787 141.454,8.734 141.48,8.657 C 141.507,8.58 141.532,8.476 141.554,8.342 C 141.577,8.211 141.587,8.044 141.587,7.845 Z" marker-start="none" marker-end="none"/>
    </g>
   </g>
  </g>
 </g>
</svg>
