<?xml version="1.0" standalone="no"?>
<!DOCTYPE svg PUBLIC "-//W3C//DTD SVG 1.1//EN" "http://www.w3.org/Graphics/SVG/1.1/DTD/svg11.dtd">
<!--Generator: Xara Designer (www.xara.com), SVG filter version: 6.0.0.4-->
<svg stroke-width="0.501" stroke-linejoin="bevel" fill-rule="evenodd" xmlns:xlink="http://www.w3.org/1999/xlink" xmlns="http://www.w3.org/2000/svg" version="1.1" overflow="visible" width="600pt" height="210pt" viewBox="0 0 600 210">
 <defs>
	</defs>
 <g id="Document" fill="none" stroke="black" font-family="Times New Roman" font-size="16" transform="scale(1 -1)">
  <g id="Spread" transform="translate(0 -210)">
   <g id="Page background">
    <path d="M 0.001,209.999 L 0.001,0 L 599.998,0 L 599.998,209.999 L 0.001,209.999 Z" stroke-linejoin="bevel" stroke="none" stroke-width="0" marker-start="none" marker-end="none" stroke-miterlimit="79.8403193612775"/>
   </g>
   <g id="MouseOff">
    <path d="M 51.689,197.157 L 51.689,189.09 C 51.689,188.212 52.402,187.499 53.28,187.499 L 111.41,187.499 C 112.288,187.499 113.001,188.212 113.001,189.09 L 113.001,197.157 C 113.001,198.035 112.288,198.748 111.41,198.748 L 53.28,198.748 C 52.402,198.748 51.689,198.035 51.689,197.157 Z" stroke="none" stroke-linecap="round" stroke-linejoin="miter" fill="#43b344" stroke-width="0.563" marker-start="none" marker-end="none" stroke-miterlimit="79.8403193612775"/>
    <path d="M 85.081,179.721 L 85.081,171.653 C 85.081,170.775 85.795,170.062 86.672,170.062 L 144.802,170.062 C 145.68,170.062 146.393,170.775 146.393,171.653 L 146.393,179.721 C 146.393,180.598 145.68,181.311 144.802,181.311 L 86.672,181.311 C 85.795,181.311 85.081,180.598 85.081,179.721 Z" fill="#00bfbf" stroke="none" stroke-linecap="round" stroke-linejoin="miter" stroke-width="0.563" marker-start="none" marker-end="none" stroke-miterlimit="79.8403193612775"/>
    <path d="M 119.798,162.285 L 119.798,154.217 C 119.798,153.339 120.511,152.626 121.389,152.626 L 179.519,152.626 C 180.397,152.626 181.11,153.339 181.11,154.217 L 181.11,162.285 C 181.11,163.162 180.397,163.875 179.519,163.875 L 121.389,163.875 C 120.511,163.875 119.798,163.162 119.798,162.285 Z" fill="#bf6200" stroke="none" stroke-linecap="round" stroke-linejoin="miter" stroke-width="0.563" marker-start="none" marker-end="none" stroke-miterlimit="79.8403193612775"/>
    <path d="M 119.798,144.848 L 119.798,136.781 C 119.798,135.903 120.511,135.19 121.389,135.19 L 179.519,135.19 C 180.397,135.19 181.11,135.903 181.11,136.781 L 181.11,144.848 C 181.11,145.726 180.397,146.439 179.519,146.439 L 121.389,146.439 C 120.511,146.439 119.798,145.726 119.798,144.848 Z" fill="#bf6200" stroke="none" stroke-linecap="round" stroke-linejoin="miter" stroke-width="0.563" marker-start="none" marker-end="none" stroke-miterlimit="79.8403193612775"/>
    <path d="M 85.081,127.413 L 85.081,119.345 C 85.081,118.467 85.795,117.754 86.672,117.754 L 144.802,117.754 C 145.68,117.754 146.393,118.467 146.393,119.345 L 146.393,127.413 C 146.393,128.29 145.68,129.003 144.802,129.003 L 86.672,129.003 C 85.795,129.003 85.081,128.29 85.081,127.413 Z" fill="#00bfbf" stroke="none" stroke-linecap="round" stroke-linejoin="miter" stroke-width="0.563" marker-start="none" marker-end="none" stroke-miterlimit="79.8403193612775"/>
    <path d="M 119.798,109.977 L 119.798,101.909 C 119.798,101.031 120.511,100.318 121.389,100.318 L 179.519,100.318 C 180.397,100.318 181.11,101.031 181.11,101.909 L 181.11,109.977 C 181.11,110.854 180.397,111.567 179.519,111.567 L 121.389,111.567 C 120.511,111.567 119.798,110.854 119.798,109.977 Z" fill="#bf6200" stroke="none" stroke-linecap="round" stroke-linejoin="miter" stroke-width="0.563" marker-start="none" marker-end="none" stroke-miterlimit="79.8403193612775"/>
    <path d="M 119.798,92.541 L 119.798,84.473 C 119.798,83.595 120.511,82.882 121.389,82.882 L 179.519,82.882 C 180.397,82.882 181.11,83.595 181.11,84.473 L 181.11,92.541 C 181.11,93.418 180.397,94.131 179.519,94.131 L 121.389,94.131 C 120.511,94.131 119.798,93.418 119.798,92.541 Z" fill="#bf6200" stroke="none" stroke-linecap="round" stroke-linejoin="miter" stroke-width="0.563" marker-start="none" marker-end="none" stroke-miterlimit="79.8403193612775"/>
    <path d="M 51.689,75.105 L 51.689,67.037 C 51.689,66.159 52.402,65.446 53.28,65.446 L 111.41,65.446 C 112.288,65.446 113.001,66.159 113.001,67.037 L 113.001,75.105 C 113.001,75.982 112.288,76.695 111.41,76.695 L 53.28,76.695 C 52.402,76.695 51.689,75.982 51.689,75.105 Z" stroke="none" stroke-linecap="round" stroke-linejoin="miter" fill="#43b344" stroke-width="0.563" marker-start="none" marker-end="none" stroke-miterlimit="79.8403193612775"/>
    <path d="M 85.081,57.669 L 85.081,49.601 C 85.081,48.723 85.795,48.01 86.672,48.01 L 144.802,48.01 C 145.68,48.01 146.393,48.723 146.393,49.601 L 146.393,57.669 C 146.393,58.546 145.68,59.259 144.802,59.259 L 86.672,59.259 C 85.795,59.259 85.081,58.546 85.081,57.669 Z" fill="#00bfbf" stroke="none" stroke-linecap="round" stroke-linejoin="miter" stroke-width="0.563" marker-start="none" marker-end="none" stroke-miterlimit="79.8403193612775"/>
    <path d="M 85.081,40.233 L 85.081,32.165 C 85.081,31.287 85.795,30.574 86.672,30.574 L 144.802,30.574 C 145.68,30.574 146.393,31.287 146.393,32.165 L 146.393,40.233 C 146.393,41.11 145.68,41.823 144.802,41.823 L 86.672,41.823 C 85.795,41.823 85.081,41.11 85.081,40.233 Z" fill="#00bfbf" stroke="none" stroke-linecap="round" stroke-linejoin="miter" stroke-width="0.563" marker-start="none" marker-end="none" stroke-miterlimit="79.8403193612775"/>
    <path d="M 119.798,22.797 L 119.798,14.729 C 119.798,13.851 120.511,13.138 121.389,13.138 L 179.519,13.138 C 180.397,13.138 181.11,13.851 181.11,14.729 L 181.11,22.797 C 181.11,23.674 180.397,24.387 179.519,24.387 L 121.389,24.387 C 120.511,24.387 119.798,23.674 119.798,22.797 Z" fill="#bf6200" stroke="none" stroke-linecap="round" stroke-linejoin="miter" stroke-width="0.563" marker-start="none" marker-end="none" stroke-miterlimit="79.8403193612775"/>
    <path d="M 216.547,197.157 L 216.547,189.09 C 216.547,188.212 217.261,187.499 218.138,187.499 L 276.268,187.499 C 277.146,187.499 277.859,188.212 277.859,189.09 L 277.859,197.157 C 277.859,198.035 277.146,198.748 276.268,198.748 L 218.138,198.748 C 217.261,198.748 216.547,198.035 216.547,197.157 Z" fill="#b2b2b2" stroke="none" stroke-linecap="round" stroke-linejoin="miter" stroke-width="0.563" marker-start="none" marker-end="none" stroke-miterlimit="79.8403193612775"/>
    <path d="M 283.485,197.157 L 283.485,189.09 C 283.485,188.212 284.198,187.499 285.076,187.499 L 343.206,187.499 C 344.083,187.499 344.797,188.212 344.797,189.09 L 344.797,197.157 C 344.797,198.035 344.083,198.748 343.206,198.748 L 285.076,198.748 C 284.198,198.748 283.485,198.035 283.485,197.157 Z" fill="#b2b2b2" stroke="none" stroke-linecap="round" stroke-linejoin="miter" stroke-width="0.563" marker-start="none" marker-end="none" stroke-miterlimit="79.8403193612775"/>
    <path d="M 349.764,197.157 L 349.764,189.09 C 349.764,188.212 350.477,187.499 351.355,187.499 L 409.485,187.499 C 410.362,187.499 411.076,188.212 411.076,189.09 L 411.076,197.157 C 411.076,198.035 410.362,198.748 409.485,198.748 L 351.355,198.748 C 350.477,198.748 349.764,198.035 349.764,197.157 Z" fill="#b2b2b2" stroke="none" stroke-linecap="round" stroke-linejoin="miter" stroke-width="0.563" marker-start="none" marker-end="none" stroke-miterlimit="79.8403193612775"/>
    <path d="M 216.547,179.721 L 216.547,171.653 C 216.547,170.775 217.261,170.062 218.138,170.062 L 276.268,170.062 C 277.146,170.062 277.859,170.775 277.859,171.653 L 277.859,179.721 C 277.859,180.598 277.146,181.311 276.268,181.311 L 218.138,181.311 C 217.261,181.311 216.547,180.598 216.547,179.721 Z" fill="#b2b2b2" stroke="none" stroke-linecap="round" stroke-linejoin="miter" stroke-width="0.563" marker-start="none" marker-end="none" stroke-miterlimit="79.8403193612775"/>
    <path d="M 283.485,179.721 L 283.485,171.653 C 283.485,170.775 284.198,170.062 285.076,170.062 L 343.206,170.062 C 344.083,170.062 344.797,170.775 344.797,171.653 L 344.797,179.721 C 344.797,180.598 344.083,181.311 343.206,181.311 L 285.076,181.311 C 284.198,181.311 283.485,180.598 283.485,179.721 Z" fill="#b2b2b2" stroke="none" stroke-linecap="round" stroke-linejoin="miter" stroke-width="0.563" marker-start="none" marker-end="none" stroke-miterlimit="79.8403193612775"/>
    <path d="M 349.764,179.721 L 349.764,171.653 C 349.764,170.775 350.477,170.062 351.355,170.062 L 409.485,170.062 C 410.362,170.062 411.076,170.775 411.076,171.653 L 411.076,179.721 C 411.076,180.598 410.362,181.311 409.485,181.311 L 351.355,181.311 C 350.477,181.311 349.764,180.598 349.764,179.721 Z" fill="#b2b2b2" stroke="none" stroke-linecap="round" stroke-linejoin="miter" stroke-width="0.563" marker-start="none" marker-end="none" stroke-miterlimit="79.8403193612775"/>
    <path d="M 216.547,162.285 L 216.547,154.217 C 216.547,153.339 217.261,152.626 218.138,152.626 L 276.268,152.626 C 277.146,152.626 277.859,153.339 277.859,154.217 L 277.859,162.285 C 277.859,163.162 277.146,163.875 276.268,163.875 L 218.138,163.875 C 217.261,163.875 216.547,163.162 216.547,162.285 Z" fill="#b2b2b2" stroke="none" stroke-linecap="round" stroke-linejoin="miter" stroke-width="0.563" marker-start="none" marker-end="none" stroke-miterlimit="79.8403193612775"/>
    <path d="M 283.485,162.285 L 283.485,154.217 C 283.485,153.339 284.198,152.626 285.076,152.626 L 343.206,152.626 C 344.083,152.626 344.797,153.339 344.797,154.217 L 344.797,162.285 C 344.797,163.162 344.083,163.875 343.206,163.875 L 285.076,163.875 C 284.198,163.875 283.485,163.162 283.485,162.285 Z" fill="#b2b2b2" stroke="none" stroke-linecap="round" stroke-linejoin="miter" stroke-width="0.563" marker-start="none" marker-end="none" stroke-miterlimit="79.8403193612775"/>
    <path d="M 349.764,162.285 L 349.764,154.217 C 349.764,153.339 350.477,152.626 351.355,152.626 L 409.485,152.626 C 410.362,152.626 411.076,153.339 411.076,154.217 L 411.076,162.285 C 411.076,163.162 410.362,163.875 409.485,163.875 L 351.355,163.875 C 350.477,163.875 349.764,163.162 349.764,162.285 Z" fill="#b2b2b2" stroke="none" stroke-linecap="round" stroke-linejoin="miter" stroke-width="0.563" marker-start="none" marker-end="none" stroke-miterlimit="79.8403193612775"/>
    <path d="M 216.547,144.849 L 216.547,136.781 C 216.547,135.903 217.261,135.19 218.138,135.19 L 276.268,135.19 C 277.146,135.19 277.859,135.903 277.859,136.781 L 277.859,144.849 C 277.859,145.726 277.146,146.439 276.268,146.439 L 218.138,146.439 C 217.261,146.439 216.547,145.726 216.547,144.849 Z" fill="#b2b2b2" stroke="none" stroke-linecap="round" stroke-linejoin="miter" stroke-width="0.563" marker-start="none" marker-end="none" stroke-miterlimit="79.8403193612775"/>
    <path d="M 283.485,144.849 L 283.485,136.781 C 283.485,135.903 284.198,135.19 285.076,135.19 L 343.206,135.19 C 344.083,135.19 344.797,135.903 344.797,136.781 L 344.797,144.849 C 344.797,145.726 344.083,146.439 343.206,146.439 L 285.076,146.439 C 284.198,146.439 283.485,145.726 283.485,144.849 Z" fill="#b2b2b2" stroke="none" stroke-linecap="round" stroke-linejoin="miter" stroke-width="0.563" marker-start="none" marker-end="none" stroke-miterlimit="79.8403193612775"/>
    <path d="M 349.764,144.849 L 349.764,136.781 C 349.764,135.903 350.477,135.19 351.355,135.19 L 409.485,135.19 C 410.362,135.19 411.076,135.903 411.076,136.781 L 411.076,144.849 C 411.076,145.726 410.362,146.439 409.485,146.439 L 351.355,146.439 C 350.477,146.439 349.764,145.726 349.764,144.849 Z" fill="#b2b2b2" stroke="none" stroke-linecap="round" stroke-linejoin="miter" stroke-width="0.563" marker-start="none" marker-end="none" stroke-miterlimit="79.8403193612775"/>
    <path d="M 216.547,127.413 L 216.547,119.345 C 216.547,118.467 217.261,117.754 218.138,117.754 L 276.268,117.754 C 277.146,117.754 277.859,118.467 277.859,119.345 L 277.859,127.413 C 277.859,128.29 277.146,129.003 276.268,129.003 L 218.138,129.003 C 217.261,129.003 216.547,128.29 216.547,127.413 Z" fill="#b2b2b2" stroke="none" stroke-linecap="round" stroke-linejoin="miter" stroke-width="0.563" marker-start="none" marker-end="none" stroke-miterlimit="79.8403193612775"/>
    <path d="M 283.485,127.413 L 283.485,119.345 C 283.485,118.467 284.198,117.754 285.076,117.754 L 343.206,117.754 C 344.083,117.754 344.797,118.467 344.797,119.345 L 344.797,127.413 C 344.797,128.29 344.083,129.003 343.206,129.003 L 285.076,129.003 C 284.198,129.003 283.485,128.29 283.485,127.413 Z" fill="#b2b2b2" stroke="none" stroke-linecap="round" stroke-linejoin="miter" stroke-width="0.563" marker-start="none" marker-end="none" stroke-miterlimit="79.8403193612775"/>
    <path d="M 349.764,127.413 L 349.764,119.345 C 349.764,118.467 350.477,117.754 351.355,117.754 L 409.485,117.754 C 410.362,117.754 411.076,118.467 411.076,119.345 L 411.076,127.413 C 411.076,128.29 410.362,129.003 409.485,129.003 L 351.355,129.003 C 350.477,129.003 349.764,128.29 349.764,127.413 Z" fill="#b2b2b2" stroke="none" stroke-linecap="round" stroke-linejoin="miter" stroke-width="0.563" marker-start="none" marker-end="none" stroke-miterlimit="79.8403193612775"/>
    <path d="M 216.547,109.977 L 216.547,101.909 C 216.547,101.031 217.261,100.318 218.138,100.318 L 276.268,100.318 C 277.146,100.318 277.859,101.031 277.859,101.909 L 277.859,109.977 C 277.859,110.854 277.146,111.567 276.268,111.567 L 218.138,111.567 C 217.261,111.567 216.547,110.854 216.547,109.977 Z" fill="#b2b2b2" stroke="none" stroke-linecap="round" stroke-linejoin="miter" stroke-width="0.563" marker-start="none" marker-end="none" stroke-miterlimit="79.8403193612775"/>
    <path d="M 283.485,109.977 L 283.485,101.909 C 283.485,101.031 284.198,100.318 285.076,100.318 L 343.206,100.318 C 344.083,100.318 344.797,101.031 344.797,101.909 L 344.797,109.977 C 344.797,110.854 344.083,111.567 343.206,111.567 L 285.076,111.567 C 284.198,111.567 283.485,110.854 283.485,109.977 Z" fill="#b2b2b2" stroke="none" stroke-linecap="round" stroke-linejoin="miter" stroke-width="0.563" marker-start="none" marker-end="none" stroke-miterlimit="79.8403193612775"/>
    <path d="M 349.764,109.977 L 349.764,101.909 C 349.764,101.031 350.477,100.318 351.355,100.318 L 409.485,100.318 C 410.362,100.318 411.076,101.031 411.076,101.909 L 411.076,109.977 C 411.076,110.854 410.362,111.567 409.485,111.567 L 351.355,111.567 C 350.477,111.567 349.764,110.854 349.764,109.977 Z" fill="#b2b2b2" stroke="none" stroke-linecap="round" stroke-linejoin="miter" stroke-width="0.563" marker-start="none" marker-end="none" stroke-miterlimit="79.8403193612775"/>
    <path d="M 216.547,92.541 L 216.547,84.473 C 216.547,83.595 217.261,82.882 218.138,82.882 L 276.268,82.882 C 277.146,82.882 277.859,83.595 277.859,84.473 L 277.859,92.541 C 277.859,93.418 277.146,94.131 276.268,94.131 L 218.138,94.131 C 217.261,94.131 216.547,93.418 216.547,92.541 Z" fill="#b2b2b2" stroke="none" stroke-linecap="round" stroke-linejoin="miter" stroke-width="0.563" marker-start="none" marker-end="none" stroke-miterlimit="79.8403193612775"/>
    <path d="M 283.485,92.541 L 283.485,84.473 C 283.485,83.595 284.198,82.882 285.076,82.882 L 343.206,82.882 C 344.083,82.882 344.797,83.595 344.797,84.473 L 344.797,92.541 C 344.797,93.418 344.083,94.131 343.206,94.131 L 285.076,94.131 C 284.198,94.131 283.485,93.418 283.485,92.541 Z" fill="#b2b2b2" stroke="none" stroke-linecap="round" stroke-linejoin="miter" stroke-width="0.563" marker-start="none" marker-end="none" stroke-miterlimit="79.8403193612775"/>
    <path d="M 349.764,92.541 L 349.764,84.473 C 349.764,83.595 350.477,82.882 351.355,82.882 L 409.485,82.882 C 410.362,82.882 411.076,83.595 411.076,84.473 L 411.076,92.541 C 411.076,93.418 410.362,94.131 409.485,94.131 L 351.355,94.131 C 350.477,94.131 349.764,93.418 349.764,92.541 Z" fill="#b2b2b2" stroke="none" stroke-linecap="round" stroke-linejoin="miter" stroke-width="0.563" marker-start="none" marker-end="none" stroke-miterlimit="79.8403193612775"/>
    <path d="M 216.547,75.105 L 216.547,67.037 C 216.547,66.159 217.261,65.446 218.138,65.446 L 276.268,65.446 C 277.146,65.446 277.859,66.159 277.859,67.037 L 277.859,75.105 C 277.859,75.982 277.146,76.695 276.268,76.695 L 218.138,76.695 C 217.261,76.695 216.547,75.982 216.547,75.105 Z" fill="#b2b2b2" stroke="none" stroke-linecap="round" stroke-linejoin="miter" stroke-width="0.563" marker-start="none" marker-end="none" stroke-miterlimit="79.8403193612775"/>
    <path d="M 283.485,75.105 L 283.485,67.037 C 283.485,66.159 284.198,65.446 285.076,65.446 L 343.206,65.446 C 344.083,65.446 344.797,66.159 344.797,67.037 L 344.797,75.105 C 344.797,75.982 344.083,76.695 343.206,76.695 L 285.076,76.695 C 284.198,76.695 283.485,75.982 283.485,75.105 Z" fill="#b2b2b2" stroke="none" stroke-linecap="round" stroke-linejoin="miter" stroke-width="0.563" marker-start="none" marker-end="none" stroke-miterlimit="79.8403193612775"/>
    <path d="M 349.764,75.105 L 349.764,67.037 C 349.764,66.159 350.477,65.446 351.355,65.446 L 409.485,65.446 C 410.362,65.446 411.076,66.159 411.076,67.037 L 411.076,75.105 C 411.076,75.982 410.362,76.695 409.485,76.695 L 351.355,76.695 C 350.477,76.695 349.764,75.982 349.764,75.105 Z" fill="#b2b2b2" stroke="none" stroke-linecap="round" stroke-linejoin="miter" stroke-width="0.563" marker-start="none" marker-end="none" stroke-miterlimit="79.8403193612775"/>
    <path d="M 216.547,57.669 L 216.547,49.601 C 216.547,48.723 217.261,48.01 218.138,48.01 L 276.268,48.01 C 277.146,48.01 277.859,48.723 277.859,49.601 L 277.859,57.669 C 277.859,58.546 277.146,59.259 276.268,59.259 L 218.138,59.259 C 217.261,59.259 216.547,58.546 216.547,57.669 Z" fill="#b2b2b2" stroke="none" stroke-linecap="round" stroke-linejoin="miter" stroke-width="0.563" marker-start="none" marker-end="none" stroke-miterlimit="79.8403193612775"/>
    <path d="M 283.485,57.669 L 283.485,49.601 C 283.485,48.723 284.198,48.01 285.076,48.01 L 343.206,48.01 C 344.083,48.01 344.797,48.723 344.797,49.601 L 344.797,57.669 C 344.797,58.546 344.083,59.259 343.206,59.259 L 285.076,59.259 C 284.198,59.259 283.485,58.546 283.485,57.669 Z" fill="#b2b2b2" stroke="none" stroke-linecap="round" stroke-linejoin="miter" stroke-width="0.563" marker-start="none" marker-end="none" stroke-miterlimit="79.8403193612775"/>
    <path d="M 349.764,57.669 L 349.764,49.601 C 349.764,48.723 350.477,48.01 351.355,48.01 L 409.485,48.01 C 410.362,48.01 411.076,48.723 411.076,49.601 L 411.076,57.669 C 411.076,58.546 410.362,59.259 409.485,59.259 L 351.355,59.259 C 350.477,59.259 349.764,58.546 349.764,57.669 Z" fill="#b2b2b2" stroke="none" stroke-linecap="round" stroke-linejoin="miter" stroke-width="0.563" marker-start="none" marker-end="none" stroke-miterlimit="79.8403193612775"/>
    <path d="M 216.547,40.233 L 216.547,32.165 C 216.547,31.287 217.261,30.574 218.138,30.574 L 276.268,30.574 C 277.146,30.574 277.859,31.287 277.859,32.165 L 277.859,40.233 C 277.859,41.11 277.146,41.823 276.268,41.823 L 218.138,41.823 C 217.261,41.823 216.547,41.11 216.547,40.233 Z" fill="#b2b2b2" stroke="none" stroke-linecap="round" stroke-linejoin="miter" stroke-width="0.563" marker-start="none" marker-end="none" stroke-miterlimit="79.8403193612775"/>
    <path d="M 283.485,40.233 L 283.485,32.165 C 283.485,31.287 284.198,30.574 285.076,30.574 L 343.206,30.574 C 344.083,30.574 344.797,31.287 344.797,32.165 L 344.797,40.233 C 344.797,41.11 344.083,41.823 343.206,41.823 L 285.076,41.823 C 284.198,41.823 283.485,41.11 283.485,40.233 Z" fill="#b2b2b2" stroke="none" stroke-linecap="round" stroke-linejoin="miter" stroke-width="0.563" marker-start="none" marker-end="none" stroke-miterlimit="79.8403193612775"/>
    <path d="M 349.764,40.233 L 349.764,32.165 C 349.764,31.287 350.477,30.574 351.355,30.574 L 409.485,30.574 C 410.362,30.574 411.076,31.287 411.076,32.165 L 411.076,40.233 C 411.076,41.11 410.362,41.823 409.485,41.823 L 351.355,41.823 C 350.477,41.823 349.764,41.11 349.764,40.233 Z" fill="#b2b2b2" stroke="none" stroke-linecap="round" stroke-linejoin="miter" stroke-width="0.563" marker-start="none" marker-end="none" stroke-miterlimit="79.8403193612775"/>
    <path d="M 216.547,22.797 L 216.547,14.729 C 216.547,13.851 217.261,13.138 218.138,13.138 L 276.268,13.138 C 277.146,13.138 277.859,13.851 277.859,14.729 L 277.859,22.797 C 277.859,23.674 277.146,24.387 276.268,24.387 L 218.138,24.387 C 217.261,24.387 216.547,23.674 216.547,22.797 Z" fill="#b2b2b2" stroke="none" stroke-linecap="round" stroke-linejoin="miter" stroke-width="0.563" marker-start="none" marker-end="none" stroke-miterlimit="79.8403193612775"/>
    <path d="M 283.485,22.797 L 283.485,14.729 C 283.485,13.851 284.198,13.138 285.076,13.138 L 343.206,13.138 C 344.083,13.138 344.797,13.851 344.797,14.729 L 344.797,22.797 C 344.797,23.674 344.083,24.387 343.206,24.387 L 285.076,24.387 C 284.198,24.387 283.485,23.674 283.485,22.797 Z" fill="#b2b2b2" stroke="none" stroke-linecap="round" stroke-linejoin="miter" stroke-width="0.563" marker-start="none" marker-end="none" stroke-miterlimit="79.8403193612775"/>
    <path d="M 349.764,22.797 L 349.764,14.729 C 349.764,13.851 350.477,13.138 351.355,13.138 L 409.485,13.138 C 410.362,13.138 411.076,13.851 411.076,14.729 L 411.076,22.797 C 411.076,23.674 410.362,24.387 409.485,24.387 L 351.355,24.387 C 350.477,24.387 349.764,23.674 349.764,22.797 Z" fill="#b2b2b2" stroke="none" stroke-linecap="round" stroke-linejoin="miter" stroke-width="0.563" marker-start="none" marker-end="none" stroke-miterlimit="79.8403193612775"/>
   </g>
  </g>
 </g>
</svg>
