<?xml version="1.0" standalone="no"?>
<!DOCTYPE svg PUBLIC "-//W3C//DTD SVG 1.1//EN" "http://www.w3.org/Graphics/SVG/1.1/DTD/svg11.dtd">
<!--Generator: Xara Designer (www.xara.com), SVG filter version: 6.0.0.4-->
<svg stroke-width="0.501" stroke-linejoin="bevel" fill-rule="evenodd" xmlns:xlink="http://www.w3.org/1999/xlink" xmlns="http://www.w3.org/2000/svg" version="1.1" overflow="visible" width="600pt" height="271.5pt" viewBox="0 0 600 271.5">
 <defs>
	</defs>
 <g id="Document" fill="none" stroke="black" font-family="Times New Roman" font-size="16" transform="scale(1 -1)">
  <g id="Spread" transform="translate(0 -271.5)">
   <g id="Page background">
    <path d="M 0.001,271.499 L 0.001,0 L 599.998,0 L 599.998,271.499 L 0.001,271.499 Z" stroke-linejoin="bevel" stroke="none" stroke-width="0" marker-start="none" marker-end="none" stroke-miterlimit="79.8403193612775"/>
   </g>
   <g id="MouseOff">
    <path d="M 51.689,258.127 L 51.689,247.37 C 51.689,246.2 52.64,245.249 53.81,245.249 L 131.317,245.249 C 132.487,245.249 133.438,246.2 133.438,247.37 L 133.438,258.127 C 133.438,259.297 132.487,260.248 131.317,260.248 L 53.81,260.248 C 52.64,260.248 51.689,259.297 51.689,258.127 Z" stroke="none" stroke-linecap="round" stroke-linejoin="miter" fill="#43b344" stroke-width="0.75" marker-start="none" marker-end="none" stroke-miterlimit="79.8403193612775"/>
    <path d="M 96.212,234.878 L 96.212,224.121 C 96.212,222.951 97.163,222 98.333,222 L 175.84,222 C 177.01,222 177.961,222.951 177.961,224.121 L 177.961,234.878 C 177.961,236.048 177.01,236.999 175.84,236.999 L 98.333,236.999 C 97.163,236.999 96.212,236.048 96.212,234.878 Z" fill="#00bfbf" stroke="none" stroke-linecap="round" stroke-linejoin="miter" stroke-width="0.75" marker-start="none" marker-end="none" stroke-miterlimit="79.8403193612775"/>
    <path d="M 142.501,211.63 L 142.501,200.873 C 142.501,199.703 143.452,198.752 144.622,198.752 L 222.129,198.752 C 223.299,198.752 224.25,199.703 224.25,200.873 L 224.25,211.63 C 224.25,212.8 223.299,213.751 222.129,213.751 L 144.622,213.751 C 143.452,213.751 142.501,212.8 142.501,211.63 Z" fill="#bf6200" stroke="none" stroke-linecap="round" stroke-linejoin="miter" stroke-width="0.75" marker-start="none" marker-end="none" stroke-miterlimit="79.8403193612775"/>
    <path d="M 142.501,188.382 L 142.501,177.625 C 142.501,176.455 143.452,175.504 144.622,175.504 L 222.129,175.504 C 223.299,175.504 224.25,176.455 224.25,177.625 L 224.25,188.382 C 224.25,189.552 223.299,190.503 222.129,190.503 L 144.622,190.503 C 143.452,190.503 142.501,189.552 142.501,188.382 Z" fill="#bf6200" stroke="none" stroke-linecap="round" stroke-linejoin="miter" stroke-width="0.75" marker-start="none" marker-end="none" stroke-miterlimit="79.8403193612775"/>
    <path d="M 96.212,165.134 L 96.212,154.377 C 96.212,153.207 97.163,152.256 98.333,152.256 L 175.84,152.256 C 177.01,152.256 177.961,153.207 177.961,154.377 L 177.961,165.134 C 177.961,166.304 177.01,167.255 175.84,167.255 L 98.333,167.255 C 97.163,167.255 96.212,166.304 96.212,165.134 Z" fill="#00bfbf" stroke="none" stroke-linecap="round" stroke-linejoin="miter" stroke-width="0.75" marker-start="none" marker-end="none" stroke-miterlimit="79.8403193612775"/>
    <path d="M 142.501,141.886 L 142.501,131.129 C 142.501,129.959 143.452,129.008 144.622,129.008 L 222.129,129.008 C 223.299,129.008 224.25,129.959 224.25,131.129 L 224.25,141.886 C 224.25,143.056 223.299,144.007 222.129,144.007 L 144.622,144.007 C 143.452,144.007 142.501,143.056 142.501,141.886 Z" fill="#bf6200" stroke="none" stroke-linecap="round" stroke-linejoin="miter" stroke-width="0.75" marker-start="none" marker-end="none" stroke-miterlimit="79.8403193612775"/>
    <path d="M 142.501,118.638 L 142.501,107.881 C 142.501,106.711 143.452,105.76 144.622,105.76 L 222.129,105.76 C 223.299,105.76 224.25,106.711 224.25,107.881 L 224.25,118.638 C 224.25,119.808 223.299,120.759 222.129,120.759 L 144.622,120.759 C 143.452,120.759 142.501,119.808 142.501,118.638 Z" fill="#bf6200" stroke="none" stroke-linecap="round" stroke-linejoin="miter" stroke-width="0.75" marker-start="none" marker-end="none" stroke-miterlimit="79.8403193612775"/>
    <path d="M 51.689,95.39 L 51.689,84.633 C 51.689,83.463 52.64,82.512 53.81,82.512 L 131.317,82.512 C 132.487,82.512 133.438,83.463 133.438,84.633 L 133.438,95.39 C 133.438,96.56 132.487,97.511 131.317,97.511 L 53.81,97.511 C 52.64,97.511 51.689,96.56 51.689,95.39 Z" stroke="none" stroke-linecap="round" stroke-linejoin="miter" fill="#43b344" stroke-width="0.75" marker-start="none" marker-end="none" stroke-miterlimit="79.8403193612775"/>
    <path d="M 96.212,72.142 L 96.212,61.385 C 96.212,60.215 97.163,59.264 98.333,59.264 L 175.84,59.264 C 177.01,59.264 177.961,60.215 177.961,61.385 L 177.961,72.142 C 177.961,73.312 177.01,74.263 175.84,74.263 L 98.333,74.263 C 97.163,74.263 96.212,73.312 96.212,72.142 Z" fill="#00bfbf" stroke="none" stroke-linecap="round" stroke-linejoin="miter" stroke-width="0.75" marker-start="none" marker-end="none" stroke-miterlimit="79.8403193612775"/>
    <path d="M 96.212,48.894 L 96.212,38.137 C 96.212,36.967 97.163,36.016 98.333,36.016 L 175.84,36.016 C 177.01,36.016 177.961,36.967 177.961,38.137 L 177.961,48.894 C 177.961,50.064 177.01,51.015 175.84,51.015 L 98.333,51.015 C 97.163,51.015 96.212,50.064 96.212,48.894 Z" fill="#00bfbf" stroke="none" stroke-linecap="round" stroke-linejoin="miter" stroke-width="0.75" marker-start="none" marker-end="none" stroke-miterlimit="79.8403193612775"/>
    <path d="M 142.501,25.646 L 142.501,14.889 C 142.501,13.719 143.452,12.768 144.622,12.768 L 222.129,12.768 C 223.299,12.768 224.25,13.719 224.25,14.889 L 224.25,25.646 C 224.25,26.816 223.299,27.767 222.129,27.767 L 144.622,27.767 C 143.452,27.767 142.501,26.816 142.501,25.646 Z" fill="#bf6200" stroke="none" stroke-linecap="round" stroke-linejoin="miter" stroke-width="0.75" marker-start="none" marker-end="none" stroke-miterlimit="79.8403193612775"/>
    <path d="M 271.5,258.127 L 271.5,247.37 C 271.5,246.2 272.451,245.249 273.621,245.249 L 351.128,245.249 C 352.298,245.249 353.249,246.2 353.249,247.37 L 353.249,258.127 C 353.249,259.297 352.298,260.248 351.128,260.248 L 273.621,260.248 C 272.451,260.248 271.5,259.297 271.5,258.127 Z" fill="#b2b2b2" stroke="none" stroke-linecap="round" stroke-linejoin="miter" stroke-width="0.75" marker-start="none" marker-end="none" stroke-miterlimit="79.8403193612775"/>
    <path d="M 360.75,258.127 L 360.75,247.37 C 360.75,246.2 361.701,245.249 362.871,245.249 L 440.378,245.249 C 441.548,245.249 442.499,246.2 442.499,247.37 L 442.499,258.127 C 442.499,259.297 441.548,260.248 440.378,260.248 L 362.871,260.248 C 361.701,260.248 360.75,259.297 360.75,258.127 Z" fill="#b2b2b2" stroke="none" stroke-linecap="round" stroke-linejoin="miter" stroke-width="0.75" marker-start="none" marker-end="none" stroke-miterlimit="79.8403193612775"/>
    <path d="M 449.122,258.127 L 449.122,247.37 C 449.122,246.2 450.073,245.249 451.243,245.249 L 528.75,245.249 C 529.92,245.249 530.871,246.2 530.871,247.37 L 530.871,258.127 C 530.871,259.297 529.92,260.248 528.75,260.248 L 451.243,260.248 C 450.073,260.248 449.122,259.297 449.122,258.127 Z" fill="#b2b2b2" stroke="none" stroke-linecap="round" stroke-linejoin="miter" stroke-width="0.75" marker-start="none" marker-end="none" stroke-miterlimit="79.8403193612775"/>
    <path d="M 271.5,234.878 L 271.5,224.121 C 271.5,222.951 272.451,222 273.621,222 L 351.128,222 C 352.298,222 353.249,222.951 353.249,224.121 L 353.249,234.878 C 353.249,236.048 352.298,236.999 351.128,236.999 L 273.621,236.999 C 272.451,236.999 271.5,236.048 271.5,234.878 Z" fill="#b2b2b2" stroke="none" stroke-linecap="round" stroke-linejoin="miter" stroke-width="0.75" marker-start="none" marker-end="none" stroke-miterlimit="79.8403193612775"/>
    <path d="M 360.75,234.878 L 360.75,224.121 C 360.75,222.951 361.701,222 362.871,222 L 440.378,222 C 441.548,222 442.499,222.951 442.499,224.121 L 442.499,234.878 C 442.499,236.048 441.548,236.999 440.378,236.999 L 362.871,236.999 C 361.701,236.999 360.75,236.048 360.75,234.878 Z" fill="#b2b2b2" stroke="none" stroke-linecap="round" stroke-linejoin="miter" stroke-width="0.75" marker-start="none" marker-end="none" stroke-miterlimit="79.8403193612775"/>
    <path d="M 449.122,234.878 L 449.122,224.121 C 449.122,222.951 450.073,222 451.243,222 L 528.75,222 C 529.92,222 530.871,222.951 530.871,224.121 L 530.871,234.878 C 530.871,236.048 529.92,236.999 528.75,236.999 L 451.243,236.999 C 450.073,236.999 449.122,236.048 449.122,234.878 Z" fill="#b2b2b2" stroke="none" stroke-linecap="round" stroke-linejoin="miter" stroke-width="0.75" marker-start="none" marker-end="none" stroke-miterlimit="79.8403193612775"/>
    <path d="M 271.5,211.63 L 271.5,200.873 C 271.5,199.703 272.451,198.752 273.621,198.752 L 351.128,198.752 C 352.298,198.752 353.249,199.703 353.249,200.873 L 353.249,211.63 C 353.249,212.8 352.298,213.751 351.128,213.751 L 273.621,213.751 C 272.451,213.751 271.5,212.8 271.5,211.63 Z" fill="#b2b2b2" stroke="none" stroke-linecap="round" stroke-linejoin="miter" stroke-width="0.75" marker-start="none" marker-end="none" stroke-miterlimit="79.8403193612775"/>
    <path d="M 360.75,211.63 L 360.75,200.873 C 360.75,199.703 361.701,198.752 362.871,198.752 L 440.378,198.752 C 441.548,198.752 442.499,199.703 442.499,200.873 L 442.499,211.63 C 442.499,212.8 441.548,213.751 440.378,213.751 L 362.871,213.751 C 361.701,213.751 360.75,212.8 360.75,211.63 Z" fill="#b2b2b2" stroke="none" stroke-linecap="round" stroke-linejoin="miter" stroke-width="0.75" marker-start="none" marker-end="none" stroke-miterlimit="79.8403193612775"/>
    <path d="M 449.122,211.63 L 449.122,200.873 C 449.122,199.703 450.073,198.752 451.243,198.752 L 528.75,198.752 C 529.92,198.752 530.871,199.703 530.871,200.873 L 530.871,211.63 C 530.871,212.8 529.92,213.751 528.75,213.751 L 451.243,213.751 C 450.073,213.751 449.122,212.8 449.122,211.63 Z" fill="#b2b2b2" stroke="none" stroke-linecap="round" stroke-linejoin="miter" stroke-width="0.75" marker-start="none" marker-end="none" stroke-miterlimit="79.8403193612775"/>
    <path d="M 271.5,188.382 L 271.5,177.625 C 271.5,176.455 272.451,175.504 273.621,175.504 L 351.128,175.504 C 352.298,175.504 353.249,176.455 353.249,177.625 L 353.249,188.382 C 353.249,189.552 352.298,190.503 351.128,190.503 L 273.621,190.503 C 272.451,190.503 271.5,189.552 271.5,188.382 Z" fill="#b2b2b2" stroke="none" stroke-linecap="round" stroke-linejoin="miter" stroke-width="0.75" marker-start="none" marker-end="none" stroke-miterlimit="79.8403193612775"/>
    <path d="M 360.75,188.382 L 360.75,177.625 C 360.75,176.455 361.701,175.504 362.871,175.504 L 440.378,175.504 C 441.548,175.504 442.499,176.455 442.499,177.625 L 442.499,188.382 C 442.499,189.552 441.548,190.503 440.378,190.503 L 362.871,190.503 C 361.701,190.503 360.75,189.552 360.75,188.382 Z" fill="#b2b2b2" stroke="none" stroke-linecap="round" stroke-linejoin="miter" stroke-width="0.75" marker-start="none" marker-end="none" stroke-miterlimit="79.8403193612775"/>
    <path d="M 449.122,188.382 L 449.122,177.625 C 449.122,176.455 450.073,175.504 451.243,175.504 L 528.75,175.504 C 529.92,175.504 530.871,176.455 530.871,177.625 L 530.871,188.382 C 530.871,189.552 529.92,190.503 528.75,190.503 L 451.243,190.503 C 450.073,190.503 449.122,189.552 449.122,188.382 Z" fill="#b2b2b2" stroke="none" stroke-linecap="round" stroke-linejoin="miter" stroke-width="0.75" marker-start="none" marker-end="none" stroke-miterlimit="79.8403193612775"/>
    <path d="M 271.5,165.134 L 271.5,154.377 C 271.5,153.207 272.451,152.256 273.621,152.256 L 351.128,152.256 C 352.298,152.256 353.249,153.207 353.249,154.377 L 353.249,165.134 C 353.249,166.304 352.298,167.255 351.128,167.255 L 273.621,167.255 C 272.451,167.255 271.5,166.304 271.5,165.134 Z" fill="#b2b2b2" stroke="none" stroke-linecap="round" stroke-linejoin="miter" stroke-width="0.75" marker-start="none" marker-end="none" stroke-miterlimit="79.8403193612775"/>
    <path d="M 360.75,165.134 L 360.75,154.377 C 360.75,153.207 361.701,152.256 362.871,152.256 L 440.378,152.256 C 441.548,152.256 442.499,153.207 442.499,154.377 L 442.499,165.134 C 442.499,166.304 441.548,167.255 440.378,167.255 L 362.871,167.255 C 361.701,167.255 360.75,166.304 360.75,165.134 Z" fill="#b2b2b2" stroke="none" stroke-linecap="round" stroke-linejoin="miter" stroke-width="0.75" marker-start="none" marker-end="none" stroke-miterlimit="79.8403193612775"/>
    <path d="M 449.122,165.134 L 449.122,154.377 C 449.122,153.207 450.073,152.256 451.243,152.256 L 528.75,152.256 C 529.92,152.256 530.871,153.207 530.871,154.377 L 530.871,165.134 C 530.871,166.304 529.92,167.255 528.75,167.255 L 451.243,167.255 C 450.073,167.255 449.122,166.304 449.122,165.134 Z" fill="#b2b2b2" stroke="none" stroke-linecap="round" stroke-linejoin="miter" stroke-width="0.75" marker-start="none" marker-end="none" stroke-miterlimit="79.8403193612775"/>
    <path d="M 271.5,141.886 L 271.5,131.129 C 271.5,129.959 272.451,129.008 273.621,129.008 L 351.128,129.008 C 352.298,129.008 353.249,129.959 353.249,131.129 L 353.249,141.886 C 353.249,143.056 352.298,144.007 351.128,144.007 L 273.621,144.007 C 272.451,144.007 271.5,143.056 271.5,141.886 Z" fill="#b2b2b2" stroke="none" stroke-linecap="round" stroke-linejoin="miter" stroke-width="0.75" marker-start="none" marker-end="none" stroke-miterlimit="79.8403193612775"/>
    <path d="M 360.75,141.886 L 360.75,131.129 C 360.75,129.959 361.701,129.008 362.871,129.008 L 440.378,129.008 C 441.548,129.008 442.499,129.959 442.499,131.129 L 442.499,141.886 C 442.499,143.056 441.548,144.007 440.378,144.007 L 362.871,144.007 C 361.701,144.007 360.75,143.056 360.75,141.886 Z" fill="#b2b2b2" stroke="none" stroke-linecap="round" stroke-linejoin="miter" stroke-width="0.75" marker-start="none" marker-end="none" stroke-miterlimit="79.8403193612775"/>
    <path d="M 449.122,141.886 L 449.122,131.129 C 449.122,129.959 450.073,129.008 451.243,129.008 L 528.75,129.008 C 529.92,129.008 530.871,129.959 530.871,131.129 L 530.871,141.886 C 530.871,143.056 529.92,144.007 528.75,144.007 L 451.243,144.007 C 450.073,144.007 449.122,143.056 449.122,141.886 Z" fill="#b2b2b2" stroke="none" stroke-linecap="round" stroke-linejoin="miter" stroke-width="0.75" marker-start="none" marker-end="none" stroke-miterlimit="79.8403193612775"/>
    <path d="M 271.5,118.638 L 271.5,107.881 C 271.5,106.711 272.451,105.76 273.621,105.76 L 351.128,105.76 C 352.298,105.76 353.249,106.711 353.249,107.881 L 353.249,118.638 C 353.249,119.808 352.298,120.759 351.128,120.759 L 273.621,120.759 C 272.451,120.759 271.5,119.808 271.5,118.638 Z" fill="#b2b2b2" stroke="none" stroke-linecap="round" stroke-linejoin="miter" stroke-width="0.75" marker-start="none" marker-end="none" stroke-miterlimit="79.8403193612775"/>
    <path d="M 360.75,118.638 L 360.75,107.881 C 360.75,106.711 361.701,105.76 362.871,105.76 L 440.378,105.76 C 441.548,105.76 442.499,106.711 442.499,107.881 L 442.499,118.638 C 442.499,119.808 441.548,120.759 440.378,120.759 L 362.871,120.759 C 361.701,120.759 360.75,119.808 360.75,118.638 Z" fill="#b2b2b2" stroke="none" stroke-linecap="round" stroke-linejoin="miter" stroke-width="0.75" marker-start="none" marker-end="none" stroke-miterlimit="79.8403193612775"/>
    <path d="M 449.122,118.638 L 449.122,107.881 C 449.122,106.711 450.073,105.76 451.243,105.76 L 528.75,105.76 C 529.92,105.76 530.871,106.711 530.871,107.881 L 530.871,118.638 C 530.871,119.808 529.92,120.759 528.75,120.759 L 451.243,120.759 C 450.073,120.759 449.122,119.808 449.122,118.638 Z" fill="#b2b2b2" stroke="none" stroke-linecap="round" stroke-linejoin="miter" stroke-width="0.75" marker-start="none" marker-end="none" stroke-miterlimit="79.8403193612775"/>
    <path d="M 271.5,95.39 L 271.5,84.633 C 271.5,83.463 272.451,82.512 273.621,82.512 L 351.128,82.512 C 352.298,82.512 353.249,83.463 353.249,84.633 L 353.249,95.39 C 353.249,96.56 352.298,97.511 351.128,97.511 L 273.621,97.511 C 272.451,97.511 271.5,96.56 271.5,95.39 Z" fill="#b2b2b2" stroke="none" stroke-linecap="round" stroke-linejoin="miter" stroke-width="0.75" marker-start="none" marker-end="none" stroke-miterlimit="79.8403193612775"/>
    <path d="M 360.75,95.39 L 360.75,84.633 C 360.75,83.463 361.701,82.512 362.871,82.512 L 440.378,82.512 C 441.548,82.512 442.499,83.463 442.499,84.633 L 442.499,95.39 C 442.499,96.56 441.548,97.511 440.378,97.511 L 362.871,97.511 C 361.701,97.511 360.75,96.56 360.75,95.39 Z" fill="#b2b2b2" stroke="none" stroke-linecap="round" stroke-linejoin="miter" stroke-width="0.75" marker-start="none" marker-end="none" stroke-miterlimit="79.8403193612775"/>
    <path d="M 449.122,95.39 L 449.122,84.633 C 449.122,83.463 450.073,82.512 451.243,82.512 L 528.75,82.512 C 529.92,82.512 530.871,83.463 530.871,84.633 L 530.871,95.39 C 530.871,96.56 529.92,97.511 528.75,97.511 L 451.243,97.511 C 450.073,97.511 449.122,96.56 449.122,95.39 Z" fill="#b2b2b2" stroke="none" stroke-linecap="round" stroke-linejoin="miter" stroke-width="0.75" marker-start="none" marker-end="none" stroke-miterlimit="79.8403193612775"/>
    <path d="M 271.5,72.142 L 271.5,61.385 C 271.5,60.215 272.451,59.264 273.621,59.264 L 351.128,59.264 C 352.298,59.264 353.249,60.215 353.249,61.385 L 353.249,72.142 C 353.249,73.312 352.298,74.263 351.128,74.263 L 273.621,74.263 C 272.451,74.263 271.5,73.312 271.5,72.142 Z" fill="#b2b2b2" stroke="none" stroke-linecap="round" stroke-linejoin="miter" stroke-width="0.75" marker-start="none" marker-end="none" stroke-miterlimit="79.8403193612775"/>
    <path d="M 360.75,72.142 L 360.75,61.385 C 360.75,60.215 361.701,59.264 362.871,59.264 L 440.378,59.264 C 441.548,59.264 442.499,60.215 442.499,61.385 L 442.499,72.142 C 442.499,73.312 441.548,74.263 440.378,74.263 L 362.871,74.263 C 361.701,74.263 360.75,73.312 360.75,72.142 Z" fill="#b2b2b2" stroke="none" stroke-linecap="round" stroke-linejoin="miter" stroke-width="0.75" marker-start="none" marker-end="none" stroke-miterlimit="79.8403193612775"/>
    <path d="M 449.122,72.142 L 449.122,61.385 C 449.122,60.215 450.073,59.264 451.243,59.264 L 528.75,59.264 C 529.92,59.264 530.871,60.215 530.871,61.385 L 530.871,72.142 C 530.871,73.312 529.92,74.263 528.75,74.263 L 451.243,74.263 C 450.073,74.263 449.122,73.312 449.122,72.142 Z" fill="#b2b2b2" stroke="none" stroke-linecap="round" stroke-linejoin="miter" stroke-width="0.75" marker-start="none" marker-end="none" stroke-miterlimit="79.8403193612775"/>
    <path d="M 271.5,48.894 L 271.5,38.137 C 271.5,36.967 272.451,36.016 273.621,36.016 L 351.128,36.016 C 352.298,36.016 353.249,36.967 353.249,38.137 L 353.249,48.894 C 353.249,50.064 352.298,51.015 351.128,51.015 L 273.621,51.015 C 272.451,51.015 271.5,50.064 271.5,48.894 Z" fill="#b2b2b2" stroke="none" stroke-linecap="round" stroke-linejoin="miter" stroke-width="0.75" marker-start="none" marker-end="none" stroke-miterlimit="79.8403193612775"/>
    <path d="M 360.75,48.894 L 360.75,38.137 C 360.75,36.967 361.701,36.016 362.871,36.016 L 440.378,36.016 C 441.548,36.016 442.499,36.967 442.499,38.137 L 442.499,48.894 C 442.499,50.064 441.548,51.015 440.378,51.015 L 362.871,51.015 C 361.701,51.015 360.75,50.064 360.75,48.894 Z" fill="#b2b2b2" stroke="none" stroke-linecap="round" stroke-linejoin="miter" stroke-width="0.75" marker-start="none" marker-end="none" stroke-miterlimit="79.8403193612775"/>
    <path d="M 449.122,48.894 L 449.122,38.137 C 449.122,36.967 450.073,36.016 451.243,36.016 L 528.75,36.016 C 529.92,36.016 530.871,36.967 530.871,38.137 L 530.871,48.894 C 530.871,50.064 529.92,51.015 528.75,51.015 L 451.243,51.015 C 450.073,51.015 449.122,50.064 449.122,48.894 Z" fill="#b2b2b2" stroke="none" stroke-linecap="round" stroke-linejoin="miter" stroke-width="0.75" marker-start="none" marker-end="none" stroke-miterlimit="79.8403193612775"/>
    <path d="M 271.5,25.646 L 271.5,14.889 C 271.5,13.719 272.451,12.768 273.621,12.768 L 351.128,12.768 C 352.298,12.768 353.249,13.719 353.249,14.889 L 353.249,25.646 C 353.249,26.816 352.298,27.767 351.128,27.767 L 273.621,27.767 C 272.451,27.767 271.5,26.816 271.5,25.646 Z" fill="#b2b2b2" stroke="none" stroke-linecap="round" stroke-linejoin="miter" stroke-width="0.75" marker-start="none" marker-end="none" stroke-miterlimit="79.8403193612775"/>
    <path d="M 360.75,25.646 L 360.75,14.889 C 360.75,13.719 361.701,12.768 362.871,12.768 L 440.378,12.768 C 441.548,12.768 442.499,13.719 442.499,14.889 L 442.499,25.646 C 442.499,26.816 441.548,27.767 440.378,27.767 L 362.871,27.767 C 361.701,27.767 360.75,26.816 360.75,25.646 Z" fill="#b2b2b2" stroke="none" stroke-linecap="round" stroke-linejoin="miter" stroke-width="0.75" marker-start="none" marker-end="none" stroke-miterlimit="79.8403193612775"/>
    <path d="M 449.122,25.646 L 449.122,14.889 C 449.122,13.719 450.073,12.768 451.243,12.768 L 528.75,12.768 C 529.92,12.768 530.871,13.719 530.871,14.889 L 530.871,25.646 C 530.871,26.816 529.92,27.767 528.75,27.767 L 451.243,27.767 C 450.073,27.767 449.122,26.816 449.122,25.646 Z" fill="#b2b2b2" stroke="none" stroke-linecap="round" stroke-linejoin="miter" stroke-width="0.75" marker-start="none" marker-end="none" stroke-miterlimit="79.8403193612775"/>
   </g>
  </g>
 </g>
</svg>
