<?xml version="1.0" standalone="no"?>
<!DOCTYPE svg PUBLIC "-//W3C//DTD SVG 1.1//EN" "http://www.w3.org/Graphics/SVG/1.1/DTD/svg11.dtd">
<!--Generator: Xara Designer (www.xara.com), SVG filter version: 6.0.0.4-->
<svg stroke-width="0.501" stroke-linejoin="bevel" fill-rule="evenodd" xmlns:xlink="http://www.w3.org/1999/xlink" xmlns="http://www.w3.org/2000/svg" version="1.1" overflow="visible" width="600pt" height="131.25pt" viewBox="0 0 600 131.25">
 <defs>
	</defs>
 <g id="Document" fill="none" stroke="black" font-family="Times New Roman" font-size="16" transform="scale(1 -1)">
  <g id="Spread" transform="translate(0 -131.25)">
   <g id="Page background">
    <path d="M 0.002,131.249 L 0.002,0 L 599.997,0 L 599.997,131.249 L 0.002,131.249 Z" stroke-linejoin="bevel" stroke="none" stroke-width="0" marker-start="none" marker-end="none" stroke-miterlimit="79.8403193612775"/>
   </g>
   <g id="MouseOff">
    <path d="M 171.579,73.496 C 185.353,87.27 207.711,87.27 221.485,73.496 C 235.26,59.722 235.26,37.364 221.485,23.59 C 207.711,9.816 185.353,9.816 171.579,23.59 C 157.805,37.364 157.805,59.722 171.579,73.496 Z" stroke-width="0.876" stroke-linejoin="round" stroke-linecap="round" marker-start="none" marker-end="none" stroke-miterlimit="79.8403193612775"/>
    <path d="M 226.477,73.496 C 240.251,87.27 262.609,87.27 276.383,73.496 C 290.157,59.722 290.157,37.364 276.383,23.59 C 262.609,9.816 240.251,9.816 226.477,23.59 C 212.702,37.364 212.702,59.722 226.477,73.496 Z" stroke-width="0.876" stroke-linejoin="round" stroke-linecap="round" marker-start="none" marker-end="none" stroke-miterlimit="79.8403193612775"/>
    <text xml:space="preserve" transform="translate(159.949 100.173) scale(1 -1)" font-family="Calibri Light" font-size="19.885" fill="#000000" stroke="none" stroke-linecap="round" stroke-linejoin="round" stroke-width="0.355" stroke-miterlimit="79.8403193612775"><tspan x="0" y="0">In</tspan><tspan x="14.993" y="0">t</tspan><tspan x="21.334" y="0">er</tspan><tspan x="37.628" y="0">section</tspan></text>
    <path d="M 223.981,70.683 C 234.427,57.784 234.427,39.216 223.981,26.318 C 213.534,39.216 213.534,57.784 223.981,70.683 Z" fill="#43b344" stroke-width="0.876" stroke-linejoin="round" stroke-linecap="round" marker-start="none" marker-end="none" stroke-miterlimit="79.8403193612775"/>
    <text xml:space="preserve" transform="translate(309.808 100.173) scale(1 -1)" font-family="Calibri Light" font-size="19.885" fill="#000000" stroke="none" stroke-linecap="round" stroke-linejoin="round" stroke-width="0.355" stroke-miterlimit="79.8403193612775"><tspan x="0" y="0">Dif</tspan><tspan x="22.11" y="0">f</tspan><tspan x="27.471" y="0">er</tspan><tspan x="43.862" y="0">ence</tspan></text>
    <path d="M 321.437,73.496 C 335.211,87.27 357.57,87.27 371.344,73.496 C 385.118,59.722 385.118,37.364 371.344,23.59 C 357.57,9.816 335.211,9.816 321.437,23.59 C 307.663,37.364 307.663,59.722 321.437,73.496 Z" fill="#43b344" stroke-width="0.876" stroke-linejoin="round" stroke-linecap="round" marker-start="none" marker-end="none" stroke-miterlimit="79.8403193612775"/>
    <path d="M 376.335,73.496 C 390.109,87.27 412.467,87.27 426.241,73.496 C 440.015,59.722 440.015,37.364 426.241,23.59 C 412.467,9.816 390.109,9.816 376.335,23.59 C 362.561,37.364 362.561,59.722 376.335,73.496 Z" stroke-width="0.876" stroke-linejoin="round" stroke-linecap="round" marker-start="none" marker-end="none" stroke-miterlimit="79.8403193612775"/>
    <path d="M 373.839,70.767 C 384.285,57.868 384.285,39.3 373.839,26.402 C 363.392,39.3 363.392,57.868 373.839,70.767 Z" fill="#ffffff" stroke-width="0.876" stroke-linejoin="round" stroke-linecap="round" marker-start="none" marker-end="none" stroke-miterlimit="79.8403193612775"/>
    <text xml:space="preserve" transform="translate(11.229 100.173) scale(1 -1)" font-family="Calibri Light" font-size="19.885" fill="#000000" stroke="none" stroke-linecap="round" stroke-linejoin="round" stroke-width="0.355" stroke-miterlimit="79.8403193612775"><tspan x="0" y="0">Union</tspan></text>
    <path d="M 22.859,73.496 C 36.633,87.27 58.991,87.27 72.765,73.496 C 86.539,59.722 86.539,37.364 72.765,23.59 C 58.991,9.816 36.633,9.816 22.859,23.59 C 9.085,37.364 9.085,59.722 22.859,73.496 Z" fill="#43b344" stroke-width="0.876" stroke-linejoin="round" stroke-linecap="round" marker-start="none" marker-end="none" stroke-miterlimit="79.8403193612775"/>
    <path d="M 77.757,73.496 C 91.531,87.27 113.889,87.27 127.663,73.496 C 141.437,59.722 141.437,37.364 127.663,23.59 C 113.889,9.816 91.531,9.816 77.757,23.59 C 63.982,37.364 63.982,59.722 77.757,73.496 Z" fill="#43b344" stroke-width="0.876" stroke-linejoin="round" stroke-linecap="round" marker-start="none" marker-end="none" stroke-miterlimit="79.8403193612775"/>
    <path d="M 75.261,70.767 C 85.707,57.868 85.707,39.3 75.261,26.402 C 64.814,39.3 64.814,57.868 75.261,70.767 Z" fill="#43b344" stroke-width="0.876" stroke-linejoin="round" stroke-linecap="round" marker-start="none" marker-end="none" stroke-miterlimit="79.8403193612775"/>
    <path d="M 457.816,91.668 L 457.816,11.182 L 586.812,11.182 L 586.812,91.668 L 457.816,91.668 Z" stroke-linecap="round" stroke-width="0.876" fill="#43b344" stroke-linejoin="miter" marker-start="none" marker-end="none" stroke-miterlimit="79.8403193612775"/>
    <text xml:space="preserve" transform="translate(457.765 103.014) scale(1 -1)" font-family="Calibri Light" font-size="19.885" fill="#000000" stroke="none" stroke-linecap="round" stroke-linejoin="round" stroke-width="0.355" stroke-miterlimit="79.8403193612775"><tspan x="0" y="0">Complimen</tspan><tspan x="91.543" y="0">t</tspan></text>
    <path d="M 495.672,76.337 C 509.446,90.111 531.804,90.111 545.578,76.337 C 559.352,62.563 559.352,40.205 545.578,26.431 C 531.804,12.657 509.446,12.657 495.672,26.431 C 481.898,40.205 481.898,62.563 495.672,76.337 Z" fill="#ffffff" stroke-width="0.876" stroke-linejoin="round" stroke-linecap="round" marker-start="none" marker-end="none" stroke-miterlimit="79.8403193612775"/>
   </g>
  </g>
 </g>
</svg>
