<?xml version="1.0" standalone="no"?>
<!DOCTYPE svg PUBLIC "-//W3C//DTD SVG 1.1//EN" "http://www.w3.org/Graphics/SVG/1.1/DTD/svg11.dtd">
<!--Generator: Xara Designer (www.xara.com), SVG filter version: 6.0.0.4-->
<svg stroke-width="0.501" stroke-linejoin="bevel" fill-rule="evenodd" xmlns:xlink="http://www.w3.org/1999/xlink" xmlns="http://www.w3.org/2000/svg" version="1.1" overflow="visible" width="469.5pt" height="105pt" viewBox="0 0 469.5 105">
 <defs>
	</defs>
 <g id="Document" fill="none" stroke="black" font-family="Times New Roman" font-size="16" transform="scale(1 -1)">
  <g id="Spread" transform="translate(0 -105)">
   <g id="Page background">
    <path d="M 0.001,104.999 L 0.001,0 L 469.498,0 L 469.498,104.999 L 0.001,104.999 Z" stroke-linejoin="bevel" stroke="none" stroke-width="0" marker-start="none" marker-end="none" stroke-miterlimit="79.8403193612775"/>
   </g>
   <g id="MouseOff">
    <path d="M 131.707,58.009 C 142.038,68.34 158.806,68.34 169.136,58.009 C 179.467,47.679 179.467,30.91 169.136,20.58 C 158.806,10.249 142.038,10.249 131.707,20.58 C 121.377,30.91 121.377,47.679 131.707,58.009 Z" stroke="#007f01" stroke-width="0.657" stroke-linejoin="round" stroke-linecap="round" marker-start="none" marker-end="none" stroke-miterlimit="79.8403193612775"/>
    <path d="M 172.88,58.009 C 183.21,68.34 199.979,68.34 210.309,58.009 C 220.64,47.679 220.64,30.91 210.309,20.58 C 199.979,10.249 183.21,10.249 172.88,20.58 C 162.549,30.91 162.549,47.679 172.88,58.009 Z" stroke="#007f01" stroke-width="0.657" stroke-linejoin="round" stroke-linecap="round" marker-start="none" marker-end="none" stroke-miterlimit="79.8403193612775"/>
    <g id="Group" fill-rule="nonzero" stroke-linejoin="round" stroke-linecap="round" stroke="none" stroke-width="0.266" fill="#000000" stroke-miterlimit="79.8403193612775">
     <g id="Group_1">
      <path d="M 125.25,78.163 C 125.25,78.133 125.242,78.107 125.228,78.082 C 125.213,78.058 125.189,78.039 125.155,78.025 C 125.121,78.01 125.076,77.998 125.02,77.988 C 124.964,77.978 124.893,77.974 124.805,77.974 C 124.722,77.974 124.653,77.978 124.594,77.988 C 124.536,77.998 124.489,78.01 124.455,78.025 C 124.422,78.039 124.398,78.058 124.383,78.082 C 124.368,78.107 124.361,78.133 124.361,78.163 L 124.361,87.295 C 124.361,87.324 124.37,87.351 124.386,87.375 C 124.404,87.399 124.43,87.418 124.467,87.433 C 124.503,87.448 124.549,87.46 124.605,87.469 C 124.661,87.479 124.728,87.484 124.805,87.484 C 124.893,87.484 124.964,87.479 125.02,87.469 C 125.076,87.46 125.121,87.448 125.155,87.433 C 125.189,87.418 125.213,87.399 125.228,87.375 C 125.242,87.351 125.25,87.324 125.25,87.295 L 125.25,78.163 Z" marker-start="none" marker-end="none"/>
      <path d="M 133.187,78.163 C 133.187,78.133 133.179,78.107 133.165,78.082 C 133.151,78.058 133.128,78.039 133.096,78.025 C 133.065,78.01 133.021,77.998 132.965,77.988 C 132.909,77.978 132.84,77.974 132.758,77.974 C 132.67,77.974 132.598,77.978 132.543,77.988 C 132.486,77.998 132.443,78.01 132.411,78.025 C 132.38,78.039 132.357,78.058 132.342,78.082 C 132.328,78.107 132.321,78.133 132.321,78.163 L 132.321,82.073 C 132.321,82.481 132.289,82.813 132.226,83.068 C 132.163,83.322 132.068,83.541 131.942,83.722 C 131.816,83.905 131.654,84.046 131.457,84.145 C 131.261,84.244 131.031,84.295 130.77,84.295 C 130.434,84.295 130.1,84.175 129.765,83.938 C 129.429,83.7 129.078,83.35 128.709,82.889 L 128.709,78.163 C 128.709,78.133 128.701,78.107 128.687,78.082 C 128.672,78.058 128.649,78.039 128.618,78.025 C 128.586,78.01 128.542,77.998 128.487,77.988 C 128.43,77.978 128.359,77.974 128.271,77.974 C 128.189,77.974 128.12,77.978 128.064,77.988 C 128.008,77.998 127.963,78.01 127.929,78.025 C 127.896,78.039 127.872,78.058 127.86,78.082 C 127.848,78.107 127.842,78.133 127.842,78.163 L 127.842,84.754 C 127.842,84.782 127.848,84.809 127.86,84.833 C 127.872,84.858 127.896,84.878 127.929,84.895 C 127.963,84.912 128.006,84.925 128.057,84.931 C 128.108,84.939 128.175,84.943 128.257,84.943 C 128.34,84.943 128.407,84.939 128.461,84.931 C 128.514,84.925 128.556,84.912 128.585,84.895 C 128.614,84.878 128.634,84.858 128.646,84.833 C 128.659,84.809 128.665,84.782 128.665,84.754 L 128.665,83.821 C 129.044,84.244 129.415,84.549 129.779,84.739 C 130.143,84.928 130.505,85.023 130.864,85.023 C 131.296,85.023 131.661,84.95 131.956,84.804 C 132.252,84.658 132.492,84.462 132.674,84.214 C 132.856,83.967 132.987,83.678 133.067,83.347 C 133.147,83.017 133.187,82.62 133.187,82.153 L 133.187,78.163 Z" marker-start="none" marker-end="none"/>
      <path d="M 138.621,78.556 C 138.621,78.454 138.612,78.372 138.595,78.308 C 138.578,78.245 138.552,78.196 138.515,78.159 C 138.478,78.123 138.425,78.088 138.354,78.057 C 138.285,78.025 138.203,77.999 138.111,77.977 C 138.018,77.956 137.922,77.938 137.82,77.926 C 137.718,77.914 137.618,77.908 137.521,77.908 C 137.196,77.908 136.919,77.951 136.691,78.039 C 136.463,78.127 136.275,78.259 136.13,78.436 C 135.984,78.613 135.879,78.838 135.813,79.109 C 135.747,79.381 135.715,79.702 135.715,80.071 L 135.715,84.171 L 134.732,84.171 C 134.664,84.171 134.61,84.201 134.571,84.262 C 134.533,84.322 134.514,84.413 134.514,84.535 C 134.514,84.598 134.518,84.652 134.528,84.699 C 134.538,84.745 134.553,84.784 134.571,84.815 C 134.591,84.847 134.614,84.87 134.641,84.884 C 134.667,84.899 134.698,84.906 134.732,84.906 L 135.715,84.906 L 135.715,86.523 C 135.715,86.552 135.721,86.578 135.733,86.603 C 135.745,86.627 135.768,86.647 135.802,86.665 C 135.837,86.682 135.882,86.694 135.937,86.701 C 135.993,86.708 136.062,86.712 136.145,86.712 C 136.232,86.712 136.304,86.708 136.359,86.701 C 136.416,86.694 136.459,86.682 136.491,86.665 C 136.522,86.647 136.545,86.627 136.56,86.603 C 136.574,86.578 136.581,86.552 136.581,86.523 L 136.581,84.906 L 138.402,84.906 C 138.436,84.906 138.466,84.899 138.493,84.884 C 138.52,84.87 138.543,84.847 138.562,84.815 C 138.582,84.784 138.597,84.745 138.606,84.699 C 138.615,84.652 138.621,84.598 138.621,84.535 C 138.621,84.413 138.6,84.322 138.558,84.262 C 138.517,84.201 138.465,84.171 138.402,84.171 L 136.581,84.171 L 136.581,80.188 C 136.581,79.687 136.653,79.306 136.797,79.044 C 136.94,78.781 137.201,78.651 137.579,78.651 C 137.696,78.651 137.802,78.663 137.896,78.687 C 137.991,78.711 138.075,78.738 138.147,78.767 C 138.22,78.796 138.282,78.823 138.333,78.847 C 138.384,78.871 138.429,78.884 138.468,78.884 C 138.492,78.884 138.514,78.879 138.533,78.869 C 138.552,78.859 138.568,78.841 138.581,78.814 C 138.593,78.788 138.603,78.754 138.609,78.712 C 138.617,78.671 138.621,78.619 138.621,78.556 Z" marker-start="none" marker-end="none"/>
      <path d="M 145.575,81.796 C 145.575,81.622 145.53,81.502 145.437,81.436 C 145.345,81.37 145.255,81.338 145.168,81.338 L 140.675,81.338 C 140.675,80.93 140.715,80.561 140.795,80.231 C 140.875,79.901 141.007,79.618 141.192,79.383 C 141.376,79.147 141.616,78.966 141.912,78.84 C 142.209,78.714 142.573,78.651 143.005,78.651 C 143.311,78.651 143.585,78.677 143.828,78.73 C 144.071,78.784 144.281,78.844 144.458,78.91 C 144.635,78.975 144.78,79.034 144.894,79.087 C 145.008,79.141 145.09,79.168 145.139,79.168 C 145.167,79.168 145.194,79.16 145.218,79.146 C 145.243,79.132 145.263,79.108 145.277,79.077 C 145.291,79.045 145.302,79.005 145.31,78.956 C 145.317,78.908 145.32,78.847 145.32,78.775 C 145.32,78.74 145.318,78.708 145.314,78.676 C 145.308,78.645 145.302,78.616 145.295,78.589 C 145.287,78.562 145.277,78.537 145.263,78.512 C 145.248,78.488 145.228,78.464 145.204,78.439 C 145.18,78.415 145.104,78.373 144.978,78.312 C 144.852,78.251 144.687,78.19 144.483,78.13 C 144.279,78.07 144.042,78.015 143.773,77.966 C 143.504,77.917 143.214,77.893 142.903,77.893 C 142.393,77.893 141.942,77.97 141.549,78.123 C 141.156,78.276 140.825,78.502 140.558,78.8 C 140.291,79.099 140.088,79.468 139.95,79.911 C 139.812,80.353 139.743,80.865 139.743,81.447 C 139.743,82.006 139.814,82.505 139.957,82.947 C 140.1,83.389 140.306,83.764 140.573,84.072 C 140.84,84.381 141.161,84.616 141.537,84.778 C 141.914,84.941 142.332,85.023 142.794,85.023 C 143.289,85.023 143.711,84.94 144.061,84.775 C 144.411,84.61 144.698,84.388 144.924,84.109 C 145.149,83.83 145.314,83.506 145.419,83.137 C 145.524,82.768 145.575,82.379 145.575,81.971 L 145.575,81.796 Z M 144.68,82.051 C 144.694,82.75 144.534,83.296 144.199,83.69 C 143.865,84.083 143.376,84.28 142.735,84.28 C 142.405,84.28 142.116,84.218 141.865,84.094 C 141.615,83.971 141.404,83.806 141.231,83.602 C 141.059,83.398 140.927,83.162 140.835,82.893 C 140.742,82.624 140.689,82.343 140.675,82.051 L 144.68,82.051 Z" marker-start="none" marker-end="none"/>
      <path d="M 151.227,84.418 C 151.227,84.346 151.224,84.283 151.219,84.232 C 151.215,84.181 151.206,84.14 151.194,84.109 C 151.182,84.077 151.167,84.053 151.15,84.036 C 151.133,84.019 151.11,84.01 151.08,84.01 C 151.037,84.01 150.986,84.021 150.928,84.043 C 150.87,84.065 150.801,84.088 150.724,84.112 C 150.646,84.136 150.561,84.16 150.469,84.181 C 150.377,84.203 150.275,84.214 150.163,84.214 C 150.032,84.214 149.904,84.187 149.777,84.13 C 149.651,84.075 149.519,83.985 149.38,83.861 C 149.242,83.737 149.097,83.573 148.944,83.37 C 148.791,83.166 148.622,82.915 148.437,82.62 L 148.437,78.163 C 148.437,78.133 148.43,78.107 148.416,78.082 C 148.401,78.058 148.378,78.039 148.347,78.025 C 148.315,78.01 148.271,77.998 148.215,77.988 C 148.159,77.978 148.088,77.974 148,77.974 C 147.918,77.974 147.849,77.978 147.793,77.988 C 147.737,77.998 147.692,78.01 147.658,78.025 C 147.624,78.039 147.601,78.058 147.589,78.082 C 147.576,78.107 147.57,78.133 147.57,78.163 L 147.57,84.754 C 147.57,84.782 147.576,84.809 147.589,84.833 C 147.601,84.858 147.624,84.878 147.658,84.895 C 147.692,84.912 147.735,84.925 147.786,84.931 C 147.837,84.939 147.903,84.943 147.986,84.943 C 148.068,84.943 148.136,84.939 148.19,84.931 C 148.243,84.925 148.284,84.912 148.314,84.895 C 148.343,84.878 148.363,84.858 148.375,84.833 C 148.388,84.809 148.394,84.782 148.394,84.754 L 148.394,83.712 C 148.583,83.989 148.758,84.212 148.918,84.382 C 149.078,84.552 149.231,84.684 149.377,84.778 C 149.523,84.874 149.664,84.937 149.802,84.972 C 149.941,85.006 150.083,85.023 150.228,85.023 C 150.291,85.023 150.365,85.019 150.447,85.012 C 150.53,85.005 150.618,84.991 150.713,84.972 C 150.807,84.952 150.893,84.929 150.968,84.902 C 151.043,84.876 151.095,84.851 151.125,84.829 C 151.154,84.808 151.173,84.788 151.183,84.772 C 151.193,84.754 151.201,84.733 151.209,84.706 C 151.215,84.679 151.221,84.643 151.223,84.597 C 151.225,84.55 151.227,84.491 151.227,84.418 Z" marker-start="none" marker-end="none"/>
      <path d="M 156.296,79.918 C 156.296,79.603 156.237,79.319 156.121,79.069 C 156.005,78.82 155.838,78.607 155.622,78.432 C 155.406,78.257 155.148,78.124 154.847,78.031 C 154.545,77.939 154.213,77.893 153.849,77.893 C 153.621,77.893 153.405,77.911 153.201,77.948 C 152.997,77.984 152.813,78.031 152.648,78.086 C 152.482,78.142 152.343,78.202 152.229,78.265 C 152.115,78.328 152.031,78.384 151.977,78.432 C 151.924,78.481 151.885,78.541 151.861,78.614 C 151.837,78.687 151.824,78.784 151.824,78.906 C 151.824,78.969 151.83,79.024 151.839,79.073 C 151.849,79.122 151.861,79.163 151.875,79.197 C 151.89,79.231 151.91,79.256 151.934,79.273 C 151.958,79.29 151.985,79.299 152.014,79.299 C 152.067,79.299 152.145,79.264 152.247,79.197 C 152.349,79.129 152.476,79.055 152.629,78.975 C 152.782,78.895 152.964,78.82 153.176,78.753 C 153.387,78.685 153.63,78.651 153.907,78.651 C 154.131,78.651 154.335,78.675 154.519,78.724 C 154.704,78.772 154.863,78.845 155,78.942 C 155.136,79.039 155.241,79.164 155.316,79.317 C 155.391,79.47 155.43,79.648 155.43,79.852 C 155.43,80.056 155.381,80.229 155.284,80.369 C 155.187,80.51 155.059,80.632 154.902,80.737 C 154.743,80.842 154.564,80.934 154.362,81.014 C 154.161,81.094 153.955,81.176 153.744,81.262 C 153.532,81.346 153.326,81.44 153.125,81.542 C 152.923,81.643 152.743,81.768 152.586,81.913 C 152.428,82.059 152.301,82.234 152.203,82.438 C 152.106,82.642 152.058,82.887 152.058,83.173 C 152.058,83.401 152.101,83.626 152.189,83.847 C 152.276,84.067 152.411,84.265 152.593,84.44 C 152.775,84.615 153.008,84.756 153.292,84.862 C 153.576,84.97 153.912,85.023 154.3,85.023 C 154.466,85.023 154.629,85.009 154.792,84.982 C 154.955,84.956 155.103,84.921 155.236,84.877 C 155.37,84.833 155.485,84.786 155.582,84.735 C 155.679,84.684 155.754,84.639 155.805,84.6 C 155.856,84.562 155.889,84.529 155.906,84.502 C 155.923,84.475 155.935,84.448 155.943,84.418 C 155.95,84.389 155.956,84.354 155.961,84.313 C 155.966,84.271 155.968,84.222 155.968,84.163 C 155.968,84.105 155.964,84.053 155.957,84.007 C 155.95,83.961 155.939,83.92 155.925,83.887 C 155.91,83.853 155.892,83.827 155.87,83.81 C 155.848,83.793 155.823,83.785 155.793,83.785 C 155.754,83.785 155.697,83.812 155.619,83.865 C 155.541,83.918 155.439,83.977 155.313,84.04 C 155.187,84.103 155.036,84.161 154.861,84.214 C 154.686,84.268 154.485,84.295 154.257,84.295 C 154.029,84.295 153.828,84.268 153.656,84.214 C 153.483,84.161 153.342,84.085 153.23,83.989 C 153.119,83.891 153.035,83.777 152.979,83.647 C 152.923,83.515 152.895,83.372 152.895,83.217 C 152.895,83.003 152.943,82.823 153.041,82.678 C 153.138,82.532 153.267,82.406 153.427,82.299 C 153.587,82.192 153.769,82.098 153.973,82.015 C 154.177,81.933 154.384,81.85 154.596,81.767 C 154.806,81.685 155.014,81.594 155.218,81.494 C 155.422,81.395 155.604,81.275 155.764,81.134 C 155.925,80.993 156.053,80.824 156.15,80.628 C 156.247,80.431 156.296,80.194 156.296,79.918 Z" marker-start="none" marker-end="none"/>
      <path d="M 163.563,81.796 C 163.563,81.622 163.518,81.502 163.425,81.436 C 163.333,81.37 163.243,81.338 163.156,81.338 L 158.663,81.338 C 158.663,80.93 158.703,80.561 158.783,80.231 C 158.863,79.901 158.995,79.618 159.18,79.383 C 159.364,79.147 159.604,78.966 159.9,78.84 C 160.197,78.714 160.561,78.651 160.993,78.651 C 161.299,78.651 161.573,78.677 161.816,78.73 C 162.059,78.784 162.269,78.844 162.446,78.91 C 162.623,78.975 162.768,79.034 162.882,79.087 C 162.996,79.141 163.078,79.168 163.127,79.168 C 163.155,79.168 163.182,79.16 163.206,79.146 C 163.231,79.132 163.251,79.108 163.265,79.077 C 163.279,79.045 163.29,79.005 163.298,78.956 C 163.305,78.908 163.308,78.847 163.308,78.775 C 163.308,78.74 163.306,78.708 163.302,78.676 C 163.296,78.645 163.29,78.616 163.283,78.589 C 163.275,78.562 163.265,78.537 163.251,78.512 C 163.236,78.488 163.216,78.464 163.192,78.439 C 163.168,78.415 163.092,78.373 162.966,78.312 C 162.84,78.251 162.675,78.19 162.471,78.13 C 162.267,78.07 162.03,78.015 161.761,77.966 C 161.492,77.917 161.202,77.893 160.891,77.893 C 160.381,77.893 159.93,77.97 159.537,78.123 C 159.144,78.276 158.813,78.502 158.546,78.8 C 158.279,79.099 158.076,79.468 157.938,79.911 C 157.8,80.353 157.731,80.865 157.731,81.447 C 157.731,82.006 157.802,82.505 157.945,82.947 C 158.088,83.389 158.294,83.764 158.561,84.072 C 158.828,84.381 159.149,84.616 159.525,84.778 C 159.902,84.941 160.32,85.023 160.782,85.023 C 161.277,85.023 161.699,84.94 162.049,84.775 C 162.399,84.61 162.686,84.388 162.912,84.109 C 163.137,83.83 163.302,83.506 163.407,83.137 C 163.512,82.768 163.563,82.379 163.563,81.971 L 163.563,81.796 Z M 162.668,82.051 C 162.682,82.75 162.522,83.296 162.187,83.69 C 161.853,84.083 161.364,84.28 160.723,84.28 C 160.393,84.28 160.104,84.218 159.853,84.094 C 159.603,83.971 159.392,83.806 159.219,83.602 C 159.047,83.398 158.915,83.162 158.823,82.893 C 158.73,82.624 158.677,82.343 158.663,82.051 L 162.668,82.051 Z" marker-start="none" marker-end="none"/>
      <path d="M 170.161,79.138 C 170.161,79.081 170.159,79.028 170.154,78.982 C 170.149,78.936 170.142,78.896 170.132,78.862 C 170.122,78.828 170.109,78.798 170.092,78.771 C 170.075,78.744 170.035,78.699 169.972,78.636 C 169.909,78.573 169.803,78.493 169.655,78.396 C 169.507,78.298 169.341,78.214 169.156,78.141 C 168.972,78.068 168.773,78.009 168.559,77.962 C 168.345,77.917 168.125,77.893 167.896,77.893 C 167.44,77.893 167.036,77.97 166.684,78.123 C 166.332,78.276 166.037,78.502 165.799,78.8 C 165.561,79.099 165.381,79.465 165.257,79.9 C 165.133,80.334 165.071,80.835 165.071,81.403 C 165.071,82.044 165.147,82.593 165.3,83.049 C 165.453,83.506 165.663,83.879 165.93,84.171 C 166.197,84.462 166.509,84.676 166.866,84.815 C 167.223,84.953 167.605,85.023 168.013,85.023 C 168.231,85.023 168.44,85.002 168.639,84.961 C 168.838,84.919 169.021,84.865 169.189,84.797 C 169.356,84.729 169.506,84.651 169.637,84.564 C 169.768,84.476 169.863,84.403 169.924,84.342 C 169.985,84.281 170.026,84.235 170.048,84.203 C 170.07,84.172 170.087,84.136 170.099,84.097 C 170.112,84.059 170.12,84.016 170.124,83.971 C 170.13,83.924 170.132,83.869 170.132,83.806 C 170.132,83.665 170.112,83.567 170.07,83.512 C 170.029,83.455 169.984,83.428 169.935,83.428 C 169.867,83.428 169.784,83.471 169.684,83.559 C 169.584,83.647 169.457,83.742 169.302,83.847 C 169.146,83.951 168.958,84.047 168.738,84.134 C 168.516,84.222 168.253,84.265 167.947,84.265 C 167.316,84.265 166.83,84.022 166.488,83.537 C 166.145,83.052 165.974,82.35 165.974,81.433 C 165.974,80.971 166.02,80.567 166.112,80.22 C 166.205,79.873 166.337,79.584 166.509,79.354 C 166.681,79.123 166.891,78.95 167.139,78.836 C 167.387,78.722 167.666,78.665 167.976,78.665 C 168.268,78.665 168.525,78.712 168.748,78.804 C 168.972,78.896 169.166,78.998 169.331,79.109 C 169.496,79.221 169.633,79.323 169.743,79.415 C 169.851,79.507 169.933,79.554 169.986,79.554 C 170.016,79.554 170.041,79.545 170.063,79.528 C 170.085,79.511 170.103,79.484 170.118,79.448 C 170.132,79.412 170.143,79.368 170.15,79.317 C 170.157,79.266 170.161,79.207 170.161,79.138 Z" marker-start="none" marker-end="none"/>
      <path d="M 175.077,78.556 C 175.077,78.454 175.068,78.372 175.051,78.308 C 175.034,78.245 175.008,78.196 174.971,78.159 C 174.934,78.123 174.881,78.088 174.81,78.057 C 174.741,78.025 174.659,77.999 174.567,77.977 C 174.474,77.956 174.378,77.938 174.276,77.926 C 174.174,77.914 174.074,77.908 173.977,77.908 C 173.652,77.908 173.375,77.951 173.147,78.039 C 172.919,78.127 172.731,78.259 172.586,78.436 C 172.44,78.613 172.335,78.838 172.269,79.109 C 172.203,79.381 172.171,79.702 172.171,80.071 L 172.171,84.171 L 171.188,84.171 C 171.12,84.171 171.066,84.201 171.027,84.262 C 170.989,84.322 170.97,84.413 170.97,84.535 C 170.97,84.598 170.974,84.652 170.984,84.699 C 170.994,84.745 171.009,84.784 171.027,84.815 C 171.047,84.847 171.07,84.87 171.097,84.884 C 171.123,84.899 171.154,84.906 171.188,84.906 L 172.171,84.906 L 172.171,86.523 C 172.171,86.552 172.177,86.578 172.189,86.603 C 172.201,86.627 172.224,86.647 172.258,86.665 C 172.293,86.682 172.338,86.694 172.393,86.701 C 172.449,86.708 172.518,86.712 172.601,86.712 C 172.688,86.712 172.76,86.708 172.815,86.701 C 172.872,86.694 172.915,86.682 172.947,86.665 C 172.978,86.647 173.001,86.627 173.016,86.603 C 173.03,86.578 173.037,86.552 173.037,86.523 L 173.037,84.906 L 174.858,84.906 C 174.892,84.906 174.922,84.899 174.949,84.884 C 174.976,84.87 174.999,84.847 175.018,84.815 C 175.038,84.784 175.053,84.745 175.062,84.699 C 175.071,84.652 175.077,84.598 175.077,84.535 C 175.077,84.413 175.056,84.322 175.014,84.262 C 174.973,84.201 174.921,84.171 174.858,84.171 L 173.037,84.171 L 173.037,80.188 C 173.037,79.687 173.109,79.306 173.253,79.044 C 173.396,78.781 173.657,78.651 174.035,78.651 C 174.152,78.651 174.258,78.663 174.352,78.687 C 174.447,78.711 174.531,78.738 174.603,78.767 C 174.676,78.796 174.738,78.823 174.789,78.847 C 174.84,78.871 174.885,78.884 174.924,78.884 C 174.948,78.884 174.97,78.879 174.989,78.869 C 175.008,78.859 175.024,78.841 175.037,78.814 C 175.049,78.788 175.059,78.754 175.065,78.712 C 175.073,78.671 175.077,78.619 175.077,78.556 Z" marker-start="none" marker-end="none"/>
      <path d="M 177.669,78.163 C 177.669,78.133 177.661,78.107 177.647,78.082 C 177.632,78.058 177.609,78.039 177.578,78.025 C 177.546,78.01 177.502,77.998 177.447,77.988 C 177.39,77.978 177.319,77.974 177.231,77.974 C 177.149,77.974 177.08,77.978 177.024,77.988 C 176.968,77.998 176.923,78.01 176.889,78.025 C 176.856,78.039 176.832,78.058 176.82,78.082 C 176.808,78.107 176.802,78.133 176.802,78.163 L 176.802,84.754 C 176.802,84.782 176.808,84.809 176.82,84.833 C 176.832,84.858 176.856,84.878 176.889,84.895 C 176.923,84.912 176.968,84.925 177.024,84.931 C 177.08,84.939 177.149,84.943 177.231,84.943 C 177.319,84.943 177.39,84.939 177.447,84.931 C 177.502,84.925 177.546,84.912 177.578,84.895 C 177.609,84.878 177.632,84.858 177.647,84.833 C 177.661,84.809 177.669,84.782 177.669,84.754 L 177.669,78.163 Z M 177.8,86.974 C 177.8,86.741 177.759,86.584 177.676,86.501 C 177.593,86.418 177.443,86.377 177.225,86.377 C 177.011,86.377 176.864,86.417 176.784,86.497 C 176.704,86.578 176.664,86.734 176.664,86.967 C 176.664,87.2 176.705,87.358 176.787,87.44 C 176.87,87.523 177.021,87.564 177.239,87.564 C 177.453,87.564 177.6,87.524 177.679,87.444 C 177.759,87.364 177.8,87.207 177.8,86.974 Z" marker-start="none" marker-end="none"/>
      <path d="M 185.927,81.527 C 185.927,81.003 185.859,80.52 185.723,80.078 C 185.587,79.636 185.384,79.252 185.115,78.928 C 184.845,78.602 184.509,78.349 184.106,78.166 C 183.703,77.984 183.235,77.893 182.701,77.893 C 182.186,77.893 181.736,77.974 181.35,78.137 C 180.964,78.3 180.641,78.533 180.381,78.836 C 180.122,79.14 179.928,79.507 179.799,79.939 C 179.67,80.371 179.606,80.86 179.606,81.403 C 179.606,81.928 179.673,82.411 179.806,82.852 C 179.94,83.294 180.141,83.677 180.411,83.999 C 180.68,84.322 181.016,84.574 181.419,84.754 C 181.822,84.933 182.293,85.023 182.832,85.023 C 183.346,85.023 183.797,84.943 184.182,84.782 C 184.569,84.622 184.89,84.391 185.148,84.087 C 185.405,83.783 185.599,83.416 185.73,82.984 C 185.862,82.552 185.927,82.066 185.927,81.527 Z M 185.01,81.447 C 185.009,81.821 184.973,82.177 184.9,82.518 C 184.827,82.858 184.706,83.157 184.536,83.417 C 184.366,83.677 184.138,83.883 183.852,84.036 C 183.565,84.189 183.208,84.265 182.781,84.265 C 182.388,84.265 182.048,84.195 181.761,84.054 C 181.475,83.914 181.241,83.718 181.059,83.468 C 180.876,83.218 180.742,82.923 180.654,82.583 C 180.567,82.243 180.523,81.877 180.523,81.484 C 180.523,81.105 180.56,80.744 180.633,80.402 C 180.705,80.059 180.827,79.76 180.996,79.503 C 181.167,79.246 181.395,79.042 181.681,78.891 C 181.968,78.74 182.325,78.665 182.751,78.665 C 183.145,78.665 183.485,78.736 183.771,78.877 C 184.058,79.017 184.292,79.211 184.474,79.459 C 184.656,79.707 184.791,80 184.878,80.34 C 184.965,80.68 185.009,81.049 185.01,81.447 Z" marker-start="none" marker-end="none"/>
      <path d="M 193.216,78.163 C 193.216,78.133 193.209,78.107 193.194,78.082 C 193.18,78.058 193.157,78.039 193.125,78.025 C 193.094,78.01 193.05,77.998 192.994,77.988 C 192.939,77.978 192.87,77.974 192.787,77.974 C 192.699,77.974 192.627,77.978 192.572,77.988 C 192.516,77.998 192.472,78.01 192.441,78.025 C 192.409,78.039 192.386,78.058 192.372,78.082 C 192.357,78.107 192.35,78.133 192.35,78.163 L 192.35,82.073 C 192.35,82.481 192.318,82.813 192.255,83.068 C 192.192,83.322 192.097,83.541 191.971,83.722 C 191.845,83.905 191.683,84.046 191.487,84.145 C 191.29,84.244 191.061,84.295 190.799,84.295 C 190.464,84.295 190.129,84.175 189.794,83.938 C 189.459,83.7 189.107,83.35 188.738,82.889 L 188.738,78.163 C 188.738,78.133 188.73,78.107 188.716,78.082 C 188.701,78.058 188.679,78.039 188.647,78.025 C 188.616,78.01 188.571,77.998 188.516,77.988 C 188.46,77.978 188.388,77.974 188.301,77.974 C 188.218,77.974 188.149,77.978 188.094,77.988 C 188.037,77.998 187.992,78.01 187.959,78.025 C 187.925,78.039 187.902,78.058 187.89,78.082 C 187.877,78.107 187.871,78.133 187.871,78.163 L 187.871,84.754 C 187.871,84.782 187.877,84.809 187.89,84.833 C 187.902,84.858 187.925,84.878 187.959,84.895 C 187.992,84.912 188.035,84.925 188.086,84.931 C 188.137,84.939 188.204,84.943 188.286,84.943 C 188.369,84.943 188.436,84.939 188.49,84.931 C 188.544,84.925 188.585,84.912 188.614,84.895 C 188.643,84.878 188.664,84.858 188.676,84.833 C 188.688,84.809 188.694,84.782 188.694,84.754 L 188.694,83.821 C 189.073,84.244 189.444,84.549 189.808,84.739 C 190.173,84.928 190.534,85.023 190.893,85.023 C 191.325,85.023 191.69,84.95 191.985,84.804 C 192.282,84.658 192.521,84.462 192.703,84.214 C 192.885,83.967 193.016,83.678 193.096,83.347 C 193.176,83.017 193.216,82.62 193.216,82.153 L 193.216,78.163 Z" marker-start="none" marker-end="none"/>
     </g>
    </g>
    <path d="M 171.009,55.9 C 178.843,46.225 178.843,32.299 171.009,22.626 C 163.173,32.299 163.173,46.225 171.009,55.9 Z" stroke="#007f01" fill="#43b344" stroke-width="0.657" stroke-linejoin="round" stroke-linecap="round" marker-start="none" marker-end="none" stroke-miterlimit="79.8403193612775"/>
    <g id="Group_2" fill-rule="nonzero" stroke-linejoin="round" stroke-linecap="round" stroke="none" stroke-width="0.266" fill="#000000" stroke-miterlimit="79.8403193612775">
     <g id="Group_3">
      <path d="M 243.681,82.867 C 243.681,82.076 243.581,81.378 243.382,80.773 C 243.183,80.169 242.889,79.663 242.501,79.255 C 242.112,78.847 241.633,78.539 241.062,78.331 C 240.492,78.121 239.811,78.017 239.02,78.017 L 237.163,78.017 C 237.075,78.017 236.986,78.05 236.894,78.115 C 236.802,78.181 236.755,78.301 236.755,78.476 L 236.755,86.981 C 236.755,87.157 236.802,87.277 236.894,87.342 C 236.986,87.408 237.075,87.44 237.163,87.44 L 239.144,87.44 C 239.945,87.44 240.621,87.331 241.172,87.112 C 241.723,86.894 242.184,86.585 242.556,86.184 C 242.927,85.784 243.207,85.303 243.396,84.742 C 243.586,84.181 243.681,83.557 243.681,82.867 Z M 242.727,82.823 C 242.727,83.372 242.658,83.881 242.519,84.349 C 242.381,84.817 242.167,85.222 241.878,85.561 C 241.59,85.901 241.224,86.167 240.783,86.359 C 240.34,86.551 239.778,86.647 239.093,86.647 L 237.644,86.647 L 237.644,78.811 L 239.1,78.811 C 239.741,78.811 240.283,78.89 240.728,79.048 C 241.172,79.205 241.542,79.45 241.839,79.78 C 242.134,80.11 242.357,80.526 242.505,81.028 C 242.652,81.531 242.727,82.129 242.727,82.823 Z" marker-start="none" marker-end="none"/>
      <path d="M 246.513,78.163 C 246.513,78.133 246.506,78.107 246.492,78.082 C 246.477,78.058 246.454,78.039 246.423,78.025 C 246.391,78.01 246.347,77.998 246.291,77.988 C 246.235,77.978 246.164,77.974 246.076,77.974 C 245.994,77.974 245.925,77.978 245.869,77.988 C 245.813,77.998 245.768,78.01 245.734,78.025 C 245.7,78.039 245.677,78.058 245.665,78.082 C 245.652,78.107 245.646,78.133 245.646,78.163 L 245.646,84.754 C 245.646,84.782 245.652,84.809 245.665,84.833 C 245.677,84.858 245.7,84.878 245.734,84.895 C 245.768,84.912 245.813,84.925 245.869,84.931 C 245.925,84.939 245.994,84.943 246.076,84.943 C 246.164,84.943 246.235,84.939 246.291,84.931 C 246.347,84.925 246.391,84.912 246.423,84.895 C 246.454,84.878 246.477,84.858 246.492,84.833 C 246.506,84.809 246.513,84.782 246.513,84.754 L 246.513,78.163 Z M 246.645,86.974 C 246.645,86.741 246.603,86.584 246.521,86.501 C 246.438,86.418 246.288,86.377 246.069,86.377 C 245.856,86.377 245.709,86.417 245.628,86.497 C 245.549,86.578 245.508,86.734 245.508,86.967 C 245.508,87.2 245.55,87.358 245.632,87.44 C 245.715,87.523 245.865,87.564 246.084,87.564 C 246.297,87.564 246.444,87.524 246.524,87.444 C 246.604,87.364 246.645,87.207 246.645,86.974 Z" marker-start="none" marker-end="none"/>
      <path d="M 252.354,87.564 C 252.354,87.496 252.351,87.442 252.343,87.4 C 252.336,87.359 252.326,87.326 252.314,87.302 C 252.302,87.277 252.287,87.261 252.27,87.251 C 252.253,87.241 252.233,87.236 252.208,87.236 C 252.169,87.236 252.123,87.249 252.07,87.273 C 252.016,87.297 251.949,87.324 251.869,87.353 C 251.79,87.382 251.695,87.409 251.586,87.433 C 251.476,87.457 251.349,87.469 251.203,87.469 C 251,87.469 250.827,87.436 250.686,87.371 C 250.545,87.306 250.431,87.201 250.344,87.058 C 250.257,86.914 250.195,86.73 250.158,86.505 C 250.122,86.279 250.104,86.006 250.104,85.685 L 250.104,84.906 L 251.721,84.906 C 251.754,84.906 251.784,84.899 251.808,84.884 C 251.832,84.87 251.854,84.847 251.873,84.815 C 251.892,84.784 251.907,84.745 251.917,84.699 C 251.927,84.652 251.931,84.598 251.931,84.535 C 251.931,84.413 251.912,84.322 251.873,84.262 C 251.835,84.201 251.784,84.171 251.721,84.171 L 250.104,84.171 L 250.104,78.163 C 250.104,78.133 250.096,78.107 250.082,78.082 C 250.067,78.058 250.044,78.039 250.013,78.025 C 249.981,78.01 249.936,77.998 249.878,77.988 C 249.819,77.978 249.749,77.974 249.667,77.974 C 249.584,77.974 249.515,77.978 249.459,77.988 C 249.403,77.998 249.358,78.01 249.324,78.025 C 249.291,78.039 249.267,78.058 249.255,78.082 C 249.243,78.107 249.237,78.133 249.237,78.163 L 249.237,84.171 L 248.247,84.171 C 248.178,84.171 248.127,84.201 248.09,84.262 C 248.054,84.322 248.036,84.413 248.036,84.535 C 248.036,84.598 248.04,84.652 248.05,84.699 C 248.06,84.745 248.073,84.784 248.09,84.815 C 248.107,84.847 248.129,84.87 248.156,84.884 C 248.182,84.899 248.213,84.906 248.247,84.906 L 249.237,84.906 L 249.237,85.656 C 249.237,86.117 249.279,86.511 249.361,86.836 C 249.444,87.161 249.568,87.426 249.736,87.63 C 249.903,87.834 250.113,87.982 250.366,88.074 C 250.618,88.166 250.912,88.213 251.247,88.213 C 251.412,88.213 251.572,88.197 251.727,88.165 C 251.883,88.133 252.001,88.099 252.081,88.063 C 252.161,88.027 252.214,87.995 252.241,87.968 C 252.267,87.942 252.29,87.909 252.306,87.87 C 252.324,87.831 252.336,87.786 252.343,87.735 C 252.351,87.685 252.354,87.627 252.354,87.564 Z" marker-start="none" marker-end="none"/>
      <path d="M 256.593,87.564 C 256.593,87.496 256.59,87.442 256.582,87.4 C 256.575,87.359 256.565,87.326 256.553,87.302 C 256.541,87.277 256.526,87.261 256.509,87.251 C 256.492,87.241 256.472,87.236 256.447,87.236 C 256.408,87.236 256.362,87.249 256.309,87.273 C 256.255,87.297 256.188,87.324 256.108,87.353 C 256.029,87.382 255.934,87.409 255.825,87.433 C 255.715,87.457 255.588,87.469 255.442,87.469 C 255.239,87.469 255.066,87.436 254.925,87.371 C 254.784,87.306 254.67,87.201 254.583,87.058 C 254.496,86.914 254.434,86.73 254.397,86.505 C 254.361,86.279 254.343,86.006 254.343,85.685 L 254.343,84.906 L 255.96,84.906 C 255.993,84.906 256.023,84.899 256.047,84.884 C 256.071,84.87 256.093,84.847 256.112,84.815 C 256.131,84.784 256.146,84.745 256.156,84.699 C 256.166,84.652 256.17,84.598 256.17,84.535 C 256.17,84.413 256.151,84.322 256.112,84.262 C 256.074,84.201 256.023,84.171 255.96,84.171 L 254.343,84.171 L 254.343,78.163 C 254.343,78.133 254.335,78.107 254.321,78.082 C 254.306,78.058 254.283,78.039 254.252,78.025 C 254.22,78.01 254.175,77.998 254.117,77.988 C 254.058,77.978 253.988,77.974 253.906,77.974 C 253.823,77.974 253.754,77.978 253.698,77.988 C 253.642,77.998 253.597,78.01 253.563,78.025 C 253.53,78.039 253.506,78.058 253.494,78.082 C 253.482,78.107 253.476,78.133 253.476,78.163 L 253.476,84.171 L 252.486,84.171 C 252.417,84.171 252.366,84.201 252.329,84.262 C 252.293,84.322 252.275,84.413 252.275,84.535 C 252.275,84.598 252.279,84.652 252.289,84.699 C 252.299,84.745 252.312,84.784 252.329,84.815 C 252.346,84.847 252.368,84.87 252.395,84.884 C 252.421,84.899 252.452,84.906 252.486,84.906 L 253.476,84.906 L 253.476,85.656 C 253.476,86.117 253.518,86.511 253.6,86.836 C 253.683,87.161 253.807,87.426 253.975,87.63 C 254.142,87.834 254.352,87.982 254.605,88.074 C 254.857,88.166 255.151,88.213 255.486,88.213 C 255.651,88.213 255.811,88.197 255.966,88.165 C 256.122,88.133 256.24,88.099 256.32,88.063 C 256.4,88.027 256.453,87.995 256.48,87.968 C 256.506,87.942 256.529,87.909 256.545,87.87 C 256.563,87.831 256.575,87.786 256.582,87.735 C 256.59,87.685 256.593,87.627 256.593,87.564 Z" marker-start="none" marker-end="none"/>
      <path d="M 262.572,81.796 C 262.572,81.622 262.527,81.502 262.434,81.436 C 262.342,81.37 262.252,81.338 262.165,81.338 L 257.672,81.338 C 257.672,80.93 257.712,80.561 257.792,80.231 C 257.872,79.901 258.004,79.618 258.189,79.383 C 258.373,79.147 258.613,78.966 258.909,78.84 C 259.206,78.714 259.57,78.651 260.002,78.651 C 260.308,78.651 260.582,78.677 260.825,78.73 C 261.068,78.784 261.278,78.844 261.455,78.91 C 261.632,78.975 261.777,79.034 261.891,79.087 C 262.005,79.141 262.087,79.168 262.136,79.168 C 262.164,79.168 262.191,79.16 262.215,79.146 C 262.24,79.132 262.26,79.108 262.274,79.077 C 262.288,79.045 262.299,79.005 262.307,78.956 C 262.314,78.908 262.317,78.847 262.317,78.775 C 262.317,78.74 262.315,78.708 262.311,78.676 C 262.305,78.645 262.299,78.616 262.292,78.589 C 262.284,78.562 262.274,78.537 262.26,78.512 C 262.245,78.488 262.225,78.464 262.201,78.439 C 262.177,78.415 262.101,78.373 261.975,78.312 C 261.849,78.251 261.684,78.19 261.48,78.13 C 261.276,78.07 261.039,78.015 260.77,77.966 C 260.501,77.917 260.211,77.893 259.9,77.893 C 259.39,77.893 258.939,77.97 258.546,78.123 C 258.153,78.276 257.822,78.502 257.555,78.8 C 257.288,79.099 257.085,79.468 256.947,79.911 C 256.809,80.353 256.74,80.865 256.74,81.447 C 256.74,82.006 256.811,82.505 256.954,82.947 C 257.097,83.389 257.303,83.764 257.57,84.072 C 257.837,84.381 258.158,84.616 258.534,84.778 C 258.911,84.941 259.329,85.023 259.791,85.023 C 260.286,85.023 260.708,84.94 261.058,84.775 C 261.408,84.61 261.695,84.388 261.921,84.109 C 262.146,83.83 262.311,83.506 262.416,83.137 C 262.521,82.768 262.572,82.379 262.572,81.971 L 262.572,81.796 Z M 261.677,82.051 C 261.691,82.75 261.531,83.296 261.196,83.69 C 260.862,84.083 260.373,84.28 259.732,84.28 C 259.402,84.28 259.113,84.218 258.862,84.094 C 258.612,83.971 258.401,83.806 258.228,83.602 C 258.056,83.398 257.924,83.162 257.832,82.893 C 257.739,82.624 257.686,82.343 257.672,82.051 L 261.677,82.051 Z" marker-start="none" marker-end="none"/>
      <path d="M 268.224,84.418 C 268.224,84.346 268.221,84.283 268.216,84.232 C 268.212,84.181 268.203,84.14 268.191,84.109 C 268.179,84.077 268.164,84.053 268.147,84.036 C 268.13,84.019 268.107,84.01 268.077,84.01 C 268.034,84.01 267.983,84.021 267.925,84.043 C 267.867,84.065 267.798,84.088 267.721,84.112 C 267.643,84.136 267.558,84.16 267.466,84.181 C 267.374,84.203 267.272,84.214 267.16,84.214 C 267.029,84.214 266.901,84.187 266.774,84.13 C 266.648,84.075 266.516,83.985 266.377,83.861 C 266.239,83.737 266.094,83.573 265.941,83.37 C 265.788,83.166 265.619,82.915 265.434,82.62 L 265.434,78.163 C 265.434,78.133 265.427,78.107 265.413,78.082 C 265.398,78.058 265.375,78.039 265.344,78.025 C 265.312,78.01 265.268,77.998 265.212,77.988 C 265.156,77.978 265.085,77.974 264.997,77.974 C 264.915,77.974 264.846,77.978 264.79,77.988 C 264.734,77.998 264.689,78.01 264.655,78.025 C 264.621,78.039 264.598,78.058 264.586,78.082 C 264.573,78.107 264.567,78.133 264.567,78.163 L 264.567,84.754 C 264.567,84.782 264.573,84.809 264.586,84.833 C 264.598,84.858 264.621,84.878 264.655,84.895 C 264.689,84.912 264.732,84.925 264.783,84.931 C 264.834,84.939 264.9,84.943 264.983,84.943 C 265.065,84.943 265.133,84.939 265.187,84.931 C 265.24,84.925 265.281,84.912 265.311,84.895 C 265.34,84.878 265.36,84.858 265.372,84.833 C 265.385,84.809 265.391,84.782 265.391,84.754 L 265.391,83.712 C 265.58,83.989 265.755,84.212 265.915,84.382 C 266.075,84.552 266.228,84.684 266.374,84.778 C 266.52,84.874 266.661,84.937 266.799,84.972 C 266.938,85.006 267.08,85.023 267.225,85.023 C 267.288,85.023 267.362,85.019 267.444,85.012 C 267.527,85.005 267.615,84.991 267.71,84.972 C 267.804,84.952 267.89,84.929 267.965,84.902 C 268.04,84.876 268.092,84.851 268.122,84.829 C 268.151,84.808 268.17,84.788 268.18,84.772 C 268.19,84.754 268.198,84.733 268.206,84.706 C 268.212,84.679 268.218,84.643 268.22,84.597 C 268.222,84.55 268.224,84.491 268.224,84.418 Z" marker-start="none" marker-end="none"/>
      <path d="M 274.866,81.796 C 274.866,81.622 274.82,81.502 274.728,81.436 C 274.635,81.37 274.545,81.338 274.458,81.338 L 269.965,81.338 C 269.965,80.93 270.005,80.561 270.085,80.231 C 270.165,79.901 270.297,79.618 270.482,79.383 C 270.666,79.147 270.906,78.966 271.203,78.84 C 271.499,78.714 271.863,78.651 272.295,78.651 C 272.601,78.651 272.875,78.677 273.118,78.73 C 273.361,78.784 273.571,78.844 273.748,78.91 C 273.925,78.975 274.071,79.034 274.185,79.087 C 274.299,79.141 274.38,79.168 274.429,79.168 C 274.458,79.168 274.485,79.16 274.509,79.146 C 274.533,79.132 274.553,79.108 274.567,79.077 C 274.581,79.045 274.593,79.005 274.6,78.956 C 274.608,78.908 274.611,78.847 274.611,78.775 C 274.611,78.74 274.608,78.708 274.604,78.676 C 274.599,78.645 274.593,78.616 274.585,78.589 C 274.578,78.562 274.567,78.537 274.553,78.512 C 274.538,78.488 274.518,78.464 274.494,78.439 C 274.47,78.415 274.395,78.373 274.269,78.312 C 274.143,78.251 273.978,78.19 273.774,78.13 C 273.57,78.07 273.333,78.015 273.063,77.966 C 272.794,77.917 272.504,77.893 272.193,77.893 C 271.683,77.893 271.232,77.97 270.839,78.123 C 270.446,78.276 270.115,78.502 269.848,78.8 C 269.581,79.099 269.379,79.468 269.24,79.911 C 269.102,80.353 269.033,80.865 269.033,81.447 C 269.033,82.006 269.104,82.505 269.247,82.947 C 269.391,83.389 269.596,83.764 269.863,84.072 C 270.13,84.381 270.451,84.616 270.828,84.778 C 271.204,84.941 271.623,85.023 272.084,85.023 C 272.579,85.023 273.001,84.94 273.351,84.775 C 273.701,84.61 273.988,84.388 274.214,84.109 C 274.44,83.83 274.605,83.506 274.71,83.137 C 274.814,82.768 274.866,82.379 274.866,81.971 L 274.866,81.796 Z M 273.97,82.051 C 273.984,82.75 273.825,83.296 273.489,83.69 C 273.155,84.083 272.667,84.28 272.025,84.28 C 271.695,84.28 271.406,84.218 271.155,84.094 C 270.906,83.971 270.694,83.806 270.522,83.602 C 270.349,83.398 270.217,83.162 270.125,82.893 C 270.033,82.624 269.979,82.343 269.965,82.051 L 273.97,82.051 Z" marker-start="none" marker-end="none"/>
      <path d="M 282.206,78.163 C 282.206,78.133 282.198,78.107 282.184,78.082 C 282.17,78.058 282.147,78.039 282.115,78.025 C 282.084,78.01 282.04,77.998 281.984,77.988 C 281.928,77.978 281.859,77.974 281.777,77.974 C 281.689,77.974 281.617,77.978 281.562,77.988 C 281.505,77.998 281.462,78.01 281.43,78.025 C 281.399,78.039 281.376,78.058 281.361,78.082 C 281.347,78.107 281.34,78.133 281.34,78.163 L 281.34,82.073 C 281.34,82.481 281.308,82.813 281.245,83.068 C 281.182,83.322 281.087,83.541 280.961,83.722 C 280.835,83.905 280.673,84.046 280.476,84.145 C 280.28,84.244 280.05,84.295 279.789,84.295 C 279.453,84.295 279.119,84.175 278.784,83.938 C 278.448,83.7 278.097,83.35 277.728,82.889 L 277.728,78.163 C 277.728,78.133 277.72,78.107 277.706,78.082 C 277.691,78.058 277.668,78.039 277.637,78.025 C 277.605,78.01 277.561,77.998 277.506,77.988 C 277.449,77.978 277.378,77.974 277.29,77.974 C 277.208,77.974 277.139,77.978 277.083,77.988 C 277.027,77.998 276.982,78.01 276.948,78.025 C 276.915,78.039 276.891,78.058 276.879,78.082 C 276.867,78.107 276.861,78.133 276.861,78.163 L 276.861,84.754 C 276.861,84.782 276.867,84.809 276.879,84.833 C 276.891,84.858 276.915,84.878 276.948,84.895 C 276.982,84.912 277.025,84.925 277.076,84.931 C 277.127,84.939 277.194,84.943 277.276,84.943 C 277.359,84.943 277.426,84.939 277.48,84.931 C 277.533,84.925 277.575,84.912 277.604,84.895 C 277.633,84.878 277.653,84.858 277.665,84.833 C 277.678,84.809 277.684,84.782 277.684,84.754 L 277.684,83.821 C 278.063,84.244 278.434,84.549 278.798,84.739 C 279.162,84.928 279.524,85.023 279.883,85.023 C 280.315,85.023 280.68,84.95 280.975,84.804 C 281.271,84.658 281.511,84.462 281.693,84.214 C 281.875,83.967 282.006,83.678 282.086,83.347 C 282.166,83.017 282.206,82.62 282.206,82.153 L 282.206,78.163 Z" marker-start="none" marker-end="none"/>
      <path d="M 289.212,79.138 C 289.212,79.081 289.209,79.028 289.204,78.982 C 289.2,78.936 289.192,78.896 289.182,78.862 C 289.173,78.828 289.159,78.798 289.143,78.771 C 289.125,78.744 289.086,78.699 289.023,78.636 C 288.96,78.573 288.854,78.493 288.705,78.396 C 288.558,78.298 288.391,78.214 288.207,78.141 C 288.022,78.068 287.823,78.009 287.61,77.962 C 287.396,77.917 287.175,77.893 286.947,77.893 C 286.491,77.893 286.086,77.97 285.735,78.123 C 285.382,78.276 285.087,78.502 284.85,78.8 C 284.612,79.099 284.431,79.465 284.307,79.9 C 284.184,80.334 284.121,80.835 284.121,81.403 C 284.121,82.044 284.198,82.593 284.351,83.049 C 284.504,83.506 284.714,83.879 284.981,84.171 C 285.248,84.462 285.56,84.676 285.916,84.815 C 286.273,84.953 286.656,85.023 287.064,85.023 C 287.282,85.023 287.49,85.002 287.69,84.961 C 287.889,84.919 288.072,84.865 288.24,84.797 C 288.407,84.729 288.556,84.651 288.687,84.564 C 288.819,84.476 288.914,84.403 288.975,84.342 C 289.035,84.281 289.077,84.235 289.098,84.203 C 289.121,84.172 289.137,84.136 289.149,84.097 C 289.162,84.059 289.17,84.016 289.175,83.971 C 289.18,83.924 289.182,83.869 289.182,83.806 C 289.182,83.665 289.162,83.567 289.12,83.512 C 289.08,83.455 289.035,83.428 288.986,83.428 C 288.918,83.428 288.834,83.471 288.735,83.559 C 288.635,83.647 288.507,83.742 288.352,83.847 C 288.197,83.951 288.009,84.047 287.788,84.134 C 287.567,84.222 287.304,84.265 286.998,84.265 C 286.367,84.265 285.88,84.022 285.538,83.537 C 285.195,83.052 285.024,82.35 285.024,81.433 C 285.024,80.971 285.071,80.567 285.162,80.22 C 285.255,79.873 285.387,79.584 285.56,79.354 C 285.732,79.123 285.942,78.95 286.189,78.836 C 286.437,78.722 286.716,78.665 287.027,78.665 C 287.319,78.665 287.576,78.712 287.799,78.804 C 288.022,78.896 288.216,78.998 288.381,79.109 C 288.546,79.221 288.684,79.323 288.793,79.415 C 288.902,79.507 288.984,79.554 289.037,79.554 C 289.066,79.554 289.092,79.545 289.113,79.528 C 289.135,79.511 289.153,79.484 289.168,79.448 C 289.182,79.412 289.194,79.368 289.2,79.317 C 289.208,79.266 289.212,79.207 289.212,79.138 Z" marker-start="none" marker-end="none"/>
      <path d="M 296.326,81.796 C 296.326,81.622 296.28,81.502 296.188,81.436 C 296.096,81.37 296.006,81.338 295.919,81.338 L 291.426,81.338 C 291.426,80.93 291.465,80.561 291.546,80.231 C 291.626,79.901 291.758,79.618 291.942,79.383 C 292.127,79.147 292.367,78.966 292.663,78.84 C 292.959,78.714 293.324,78.651 293.756,78.651 C 294.062,78.651 294.336,78.677 294.579,78.73 C 294.822,78.784 295.032,78.844 295.209,78.91 C 295.386,78.975 295.531,79.034 295.645,79.087 C 295.759,79.141 295.841,79.168 295.89,79.168 C 295.918,79.168 295.945,79.16 295.969,79.146 C 295.994,79.132 296.013,79.108 296.028,79.077 C 296.042,79.045 296.053,79.005 296.061,78.956 C 296.068,78.908 296.071,78.847 296.071,78.775 C 296.071,78.74 296.069,78.708 296.064,78.676 C 296.059,78.645 296.053,78.616 296.046,78.589 C 296.038,78.562 296.028,78.537 296.013,78.512 C 295.998,78.488 295.979,78.464 295.955,78.439 C 295.931,78.415 295.855,78.373 295.729,78.312 C 295.603,78.251 295.438,78.19 295.234,78.13 C 295.03,78.07 294.793,78.015 294.524,77.966 C 294.255,77.917 293.964,77.893 293.654,77.893 C 293.144,77.893 292.692,77.97 292.299,78.123 C 291.906,78.276 291.576,78.502 291.309,78.8 C 291.042,79.099 290.839,79.468 290.7,79.911 C 290.562,80.353 290.493,80.865 290.493,81.447 C 290.493,82.006 290.565,82.505 290.708,82.947 C 290.851,83.389 291.057,83.764 291.324,84.072 C 291.591,84.381 291.912,84.616 292.288,84.778 C 292.665,84.941 293.083,85.023 293.544,85.023 C 294.039,85.023 294.462,84.94 294.812,84.775 C 295.161,84.61 295.449,84.388 295.674,84.109 C 295.9,83.83 296.065,83.506 296.17,83.137 C 296.274,82.768 296.326,82.379 296.326,81.971 L 296.326,81.796 Z M 295.431,82.051 C 295.445,82.75 295.285,83.296 294.95,83.69 C 294.615,84.083 294.127,84.28 293.486,84.28 C 293.156,84.28 292.866,84.218 292.616,84.094 C 292.366,83.971 292.155,83.806 291.982,83.602 C 291.81,83.398 291.678,83.162 291.585,82.893 C 291.493,82.624 291.44,82.343 291.426,82.051 L 295.431,82.051 Z" marker-start="none" marker-end="none"/>
     </g>
    </g>
    <path d="M 244.101,58.009 C 254.431,68.34 271.199,68.34 281.53,58.009 C 291.86,47.679 291.86,30.91 281.53,20.58 C 271.199,10.249 254.431,10.249 244.101,20.58 C 233.77,30.91 233.77,47.679 244.101,58.009 Z" stroke="#007f01" fill="#43b344" stroke-width="0.657" stroke-linejoin="round" stroke-linecap="round" marker-start="none" marker-end="none" stroke-miterlimit="79.8403193612775"/>
    <path d="M 285.274,58.009 C 295.605,68.34 312.373,68.34 322.703,58.009 C 333.034,47.679 333.034,30.91 322.703,20.58 C 312.373,10.249 295.605,10.249 285.274,20.58 C 274.944,30.91 274.944,47.679 285.274,58.009 Z" stroke="#007f01" stroke-width="0.657" stroke-linejoin="round" stroke-linecap="round" marker-start="none" marker-end="none" stroke-miterlimit="79.8403193612775"/>
    <path d="M 283.402,55.963 C 291.237,46.288 291.237,32.362 283.402,22.689 C 275.567,32.362 275.567,46.288 283.402,55.963 Z" stroke="#007f01" fill="#ffffff" stroke-width="0.657" stroke-linejoin="round" stroke-linecap="round" marker-start="none" marker-end="none" stroke-miterlimit="79.8403193612775"/>
    <g id="Group_4" fill-rule="nonzero" stroke-linejoin="round" stroke-linecap="round" stroke="none" stroke-width="0.266" fill="#000000" stroke-miterlimit="79.8403193612775">
     <g id="Group_5">
      <path d="M 19.572,81.484 C 19.572,80.911 19.491,80.401 19.328,79.954 C 19.165,79.507 18.933,79.132 18.632,78.826 C 18.331,78.52 17.967,78.288 17.54,78.13 C 17.113,77.972 16.635,77.893 16.105,77.893 C 15.624,77.893 15.182,77.968 14.776,78.119 C 14.371,78.27 14.022,78.492 13.728,78.785 C 13.434,79.079 13.206,79.444 13.043,79.878 C 12.88,80.312 12.799,80.813 12.799,81.382 L 12.799,87.295 C 12.799,87.324 12.807,87.351 12.821,87.375 C 12.836,87.399 12.861,87.418 12.897,87.433 C 12.934,87.448 12.979,87.46 13.032,87.469 C 13.086,87.479 13.156,87.484 13.243,87.484 C 13.326,87.484 13.396,87.479 13.455,87.469 C 13.512,87.46 13.559,87.448 13.593,87.433 C 13.627,87.418 13.651,87.399 13.666,87.375 C 13.68,87.351 13.688,87.324 13.688,87.295 L 13.688,81.527 C 13.688,81.056 13.745,80.644 13.859,80.289 C 13.973,79.935 14.138,79.64 14.354,79.405 C 14.57,79.169 14.832,78.991 15.141,78.873 C 15.449,78.754 15.797,78.694 16.185,78.694 C 16.578,78.694 16.929,78.751 17.238,78.865 C 17.546,78.979 17.807,79.153 18.021,79.386 C 18.234,79.619 18.398,79.909 18.512,80.257 C 18.626,80.604 18.683,81.01 18.683,81.476 L 18.683,87.295 C 18.683,87.324 18.69,87.351 18.705,87.375 C 18.72,87.399 18.744,87.418 18.777,87.433 C 18.812,87.448 18.858,87.46 18.916,87.469 C 18.975,87.479 19.044,87.484 19.128,87.484 C 19.21,87.484 19.28,87.479 19.338,87.469 C 19.397,87.46 19.443,87.448 19.477,87.433 C 19.511,87.418 19.535,87.399 19.55,87.375 C 19.564,87.351 19.572,87.324 19.572,87.295 L 19.572,81.484 Z" marker-start="none" marker-end="none"/>
      <path d="M 27.487,78.163 C 27.487,78.133 27.48,78.107 27.465,78.082 C 27.451,78.058 27.428,78.039 27.396,78.025 C 27.365,78.01 27.321,77.998 27.265,77.988 C 27.21,77.978 27.141,77.974 27.058,77.974 C 26.97,77.974 26.898,77.978 26.843,77.988 C 26.787,77.998 26.743,78.01 26.712,78.025 C 26.68,78.039 26.657,78.058 26.643,78.082 C 26.628,78.107 26.621,78.133 26.621,78.163 L 26.621,82.073 C 26.621,82.481 26.589,82.813 26.526,83.068 C 26.463,83.322 26.368,83.541 26.242,83.722 C 26.116,83.905 25.954,84.046 25.758,84.145 C 25.561,84.244 25.332,84.295 25.07,84.295 C 24.735,84.295 24.4,84.175 24.065,83.938 C 23.73,83.7 23.378,83.35 23.009,82.889 L 23.009,78.163 C 23.009,78.133 23.001,78.107 22.987,78.082 C 22.972,78.058 22.95,78.039 22.918,78.025 C 22.887,78.01 22.842,77.998 22.787,77.988 C 22.731,77.978 22.659,77.974 22.572,77.974 C 22.489,77.974 22.42,77.978 22.365,77.988 C 22.308,77.998 22.263,78.01 22.23,78.025 C 22.196,78.039 22.173,78.058 22.161,78.082 C 22.148,78.107 22.142,78.133 22.142,78.163 L 22.142,84.754 C 22.142,84.782 22.148,84.809 22.161,84.833 C 22.173,84.858 22.196,84.878 22.23,84.895 C 22.263,84.912 22.306,84.925 22.357,84.931 C 22.408,84.939 22.475,84.943 22.557,84.943 C 22.64,84.943 22.707,84.939 22.761,84.931 C 22.815,84.925 22.856,84.912 22.885,84.895 C 22.914,84.878 22.935,84.858 22.947,84.833 C 22.959,84.809 22.965,84.782 22.965,84.754 L 22.965,83.821 C 23.344,84.244 23.715,84.549 24.079,84.739 C 24.444,84.928 24.805,85.023 25.164,85.023 C 25.596,85.023 25.961,84.95 26.256,84.804 C 26.553,84.658 26.792,84.462 26.974,84.214 C 27.156,83.967 27.287,83.678 27.367,83.347 C 27.447,83.017 27.487,82.62 27.487,82.153 L 27.487,78.163 Z" marker-start="none" marker-end="none"/>
      <path d="M 30.757,78.163 C 30.757,78.133 30.75,78.107 30.735,78.082 C 30.72,78.058 30.698,78.039 30.666,78.025 C 30.635,78.01 30.591,77.998 30.535,77.988 C 30.479,77.978 30.408,77.974 30.32,77.974 C 30.237,77.974 30.168,77.978 30.113,77.988 C 30.057,77.998 30.012,78.01 29.978,78.025 C 29.944,78.039 29.921,78.058 29.909,78.082 C 29.896,78.107 29.89,78.133 29.89,78.163 L 29.89,84.754 C 29.89,84.782 29.896,84.809 29.909,84.833 C 29.921,84.858 29.944,84.878 29.978,84.895 C 30.012,84.912 30.057,84.925 30.113,84.931 C 30.168,84.939 30.237,84.943 30.32,84.943 C 30.408,84.943 30.479,84.939 30.535,84.931 C 30.591,84.925 30.635,84.912 30.666,84.895 C 30.698,84.878 30.72,84.858 30.735,84.833 C 30.75,84.809 30.757,84.782 30.757,84.754 L 30.757,78.163 Z M 30.888,86.974 C 30.888,86.741 30.847,86.584 30.765,86.501 C 30.681,86.418 30.531,86.377 30.313,86.377 C 30.099,86.377 29.952,86.417 29.872,86.497 C 29.793,86.578 29.752,86.734 29.752,86.967 C 29.752,87.2 29.793,87.358 29.876,87.44 C 29.958,87.523 30.109,87.564 30.327,87.564 C 30.541,87.564 30.688,87.524 30.768,87.444 C 30.848,87.364 30.888,87.207 30.888,86.974 Z" marker-start="none" marker-end="none"/>
      <path d="M 39.015,81.527 C 39.015,81.003 38.948,80.52 38.811,80.078 C 38.676,79.636 38.472,79.252 38.203,78.928 C 37.934,78.602 37.598,78.349 37.194,78.166 C 36.792,77.984 36.324,77.893 35.79,77.893 C 35.274,77.893 34.824,77.974 34.439,78.137 C 34.053,78.3 33.729,78.533 33.47,78.836 C 33.21,79.14 33.016,79.507 32.887,79.939 C 32.759,80.371 32.694,80.86 32.694,81.403 C 32.694,81.928 32.761,82.411 32.895,82.852 C 33.028,83.294 33.23,83.677 33.499,83.999 C 33.768,84.322 34.104,84.574 34.508,84.754 C 34.911,84.933 35.382,85.023 35.92,85.023 C 36.435,85.023 36.885,84.943 37.271,84.782 C 37.657,84.622 37.979,84.391 38.236,84.087 C 38.493,83.783 38.688,83.416 38.819,82.984 C 38.95,82.552 39.015,82.066 39.015,81.527 Z M 38.098,81.447 C 38.097,81.821 38.061,82.177 37.989,82.518 C 37.916,82.858 37.794,83.157 37.624,83.417 C 37.455,83.677 37.227,83.883 36.94,84.036 C 36.654,84.189 36.297,84.265 35.869,84.265 C 35.476,84.265 35.136,84.195 34.85,84.054 C 34.563,83.914 34.329,83.718 34.147,83.468 C 33.965,83.218 33.831,82.923 33.743,82.583 C 33.656,82.243 33.612,81.877 33.612,81.484 C 33.612,81.105 33.648,80.744 33.721,80.402 C 33.794,80.059 33.915,79.76 34.085,79.503 C 34.255,79.246 34.483,79.042 34.77,78.891 C 35.056,78.74 35.413,78.665 35.84,78.665 C 36.234,78.665 36.573,78.736 36.86,78.877 C 37.146,79.017 37.38,79.211 37.563,79.459 C 37.745,79.707 37.879,80 37.967,80.34 C 38.054,80.68 38.097,81.049 38.098,81.447 Z" marker-start="none" marker-end="none"/>
      <path d="M 46.305,78.163 C 46.305,78.133 46.297,78.107 46.283,78.082 C 46.269,78.058 46.245,78.039 46.214,78.025 C 46.182,78.01 46.139,77.998 46.083,77.988 C 46.027,77.978 45.958,77.974 45.876,77.974 C 45.788,77.974 45.716,77.978 45.66,77.988 C 45.604,77.998 45.561,78.01 45.529,78.025 C 45.498,78.039 45.474,78.058 45.46,78.082 C 45.446,78.107 45.438,78.133 45.438,78.163 L 45.438,82.073 C 45.438,82.481 45.407,82.813 45.344,83.068 C 45.281,83.322 45.186,83.541 45.06,83.722 C 44.934,83.905 44.772,84.046 44.575,84.145 C 44.379,84.244 44.149,84.295 43.887,84.295 C 43.552,84.295 43.218,84.175 42.882,83.938 C 42.547,83.7 42.195,83.35 41.826,82.889 L 41.826,78.163 C 41.826,78.133 41.819,78.107 41.805,78.082 C 41.79,78.058 41.767,78.039 41.736,78.025 C 41.704,78.01 41.66,77.998 41.604,77.988 C 41.548,77.978 41.477,77.974 41.389,77.974 C 41.307,77.974 41.238,77.978 41.182,77.988 C 41.126,77.998 41.081,78.01 41.047,78.025 C 41.013,78.039 40.99,78.058 40.978,78.082 C 40.965,78.107 40.959,78.133 40.959,78.163 L 40.959,84.754 C 40.959,84.782 40.965,84.809 40.978,84.833 C 40.99,84.858 41.013,84.878 41.047,84.895 C 41.081,84.912 41.124,84.925 41.175,84.931 C 41.226,84.939 41.292,84.943 41.375,84.943 C 41.457,84.943 41.525,84.939 41.579,84.931 C 41.632,84.925 41.673,84.912 41.703,84.895 C 41.732,84.878 41.752,84.858 41.764,84.833 C 41.777,84.809 41.783,84.782 41.783,84.754 L 41.783,83.821 C 42.162,84.244 42.533,84.549 42.897,84.739 C 43.261,84.928 43.623,85.023 43.982,85.023 C 44.414,85.023 44.778,84.95 45.074,84.804 C 45.37,84.658 45.609,84.462 45.792,84.214 C 45.974,83.967 46.104,83.678 46.185,83.347 C 46.265,83.017 46.305,82.62 46.305,82.153 L 46.305,78.163 Z" marker-start="none" marker-end="none"/>
     </g>
    </g>
    <path d="M 20.167,58.009 C 30.498,68.34 47.266,68.34 57.596,58.009 C 67.927,47.679 67.927,30.91 57.596,20.58 C 47.266,10.249 30.498,10.249 20.167,20.58 C 9.837,30.91 9.837,47.679 20.167,58.009 Z" stroke="#007f01" fill="#43b344" stroke-width="0.657" stroke-linejoin="round" stroke-linecap="round" marker-start="none" marker-end="none" stroke-miterlimit="79.8403193612775"/>
    <path d="M 61.34,58.009 C 71.67,68.34 88.439,68.34 98.769,58.009 C 109.1,47.679 109.1,30.91 98.769,20.58 C 88.439,10.249 71.67,10.249 61.34,20.58 C 51.009,30.91 51.009,47.679 61.34,58.009 Z" stroke="#007f01" fill="#43b344" stroke-width="0.657" stroke-linejoin="round" stroke-linecap="round" marker-start="none" marker-end="none" stroke-miterlimit="79.8403193612775"/>
    <path d="M 59.469,55.963 C 67.303,46.288 67.303,32.362 59.469,22.689 C 51.633,32.362 51.633,46.288 59.469,55.963 Z" stroke="#007f01" fill="#43b344" stroke-width="0.657" stroke-linejoin="round" stroke-linecap="round" marker-start="none" marker-end="none" stroke-miterlimit="79.8403193612775"/>
    <path d="M 346.385,71.638 L 346.385,11.274 L 443.131,11.274 L 443.131,71.638 L 346.385,71.638 Z" stroke="none" stroke-linecap="round" stroke-width="0.657" fill="#43b344" stroke-linejoin="miter" marker-start="none" marker-end="none" stroke-miterlimit="79.8403193612775"/>
    <g id="Group_6" fill-rule="nonzero" stroke-linejoin="round" stroke-linecap="round" stroke="none" stroke-width="0.266" fill="#000000" stroke-miterlimit="79.8403193612775">
     <g id="Group_7">
      <path d="M 353.891,81.43 C 353.891,81.376 353.889,81.328 353.884,81.284 C 353.879,81.24 353.871,81.202 353.862,81.167 C 353.853,81.133 353.839,81.102 353.822,81.073 C 353.805,81.043 353.773,81.006 353.727,80.96 C 353.681,80.914 353.58,80.839 353.425,80.734 C 353.27,80.629 353.074,80.527 352.839,80.425 C 352.603,80.323 352.332,80.235 352.027,80.162 C 351.721,80.089 351.384,80.053 351.015,80.053 C 350.422,80.053 349.886,80.156 349.405,80.362 C 348.924,80.569 348.516,80.872 348.178,81.269 C 347.841,81.667 347.581,82.158 347.399,82.741 C 347.217,83.323 347.126,83.988 347.126,84.736 C 347.126,85.503 347.223,86.191 347.417,86.8 C 347.611,87.409 347.884,87.927 348.237,88.351 C 348.588,88.776 349.011,89.101 349.503,89.327 C 349.996,89.553 350.541,89.665 351.138,89.665 C 351.42,89.665 351.693,89.639 351.957,89.586 C 352.222,89.533 352.466,89.464 352.689,89.382 C 352.913,89.299 353.113,89.204 353.29,89.098 C 353.467,88.991 353.589,88.905 353.654,88.839 C 353.72,88.774 353.761,88.726 353.778,88.697 C 353.795,88.668 353.808,88.636 353.818,88.599 C 353.828,88.562 353.835,88.521 353.84,88.475 C 353.845,88.429 353.847,88.377 353.847,88.318 C 353.847,88.25 353.844,88.191 353.836,88.14 C 353.829,88.089 353.817,88.045 353.8,88.009 C 353.783,87.973 353.763,87.945 353.738,87.925 C 353.714,87.906 353.685,87.896 353.651,87.896 C 353.583,87.896 353.487,87.946 353.363,88.045 C 353.239,88.145 353.076,88.255 352.875,88.377 C 352.674,88.498 352.427,88.609 352.136,88.708 C 351.845,88.807 351.498,88.858 351.095,88.858 C 350.653,88.858 350.247,88.769 349.878,88.591 C 349.509,88.414 349.193,88.153 348.928,87.808 C 348.663,87.464 348.457,87.039 348.309,86.534 C 348.161,86.029 348.087,85.45 348.087,84.794 C 348.087,84.168 348.155,83.612 348.291,83.126 C 348.427,82.641 348.624,82.231 348.881,81.899 C 349.138,81.567 349.456,81.313 349.835,81.138 C 350.214,80.964 350.643,80.876 351.124,80.876 C 351.517,80.876 351.861,80.926 352.154,81.025 C 352.448,81.125 352.699,81.235 352.908,81.357 C 353.117,81.478 353.288,81.589 353.421,81.688 C 353.555,81.788 353.658,81.838 353.73,81.838 C 353.76,81.838 353.784,81.832 353.804,81.819 C 353.823,81.807 353.839,81.785 353.851,81.754 C 353.863,81.722 353.873,81.679 353.88,81.626 C 353.887,81.573 353.891,81.508 353.891,81.43 Z" marker-start="none" marker-end="none"/>
      <path d="M 361.377,83.658 C 361.377,83.134 361.31,82.651 361.173,82.209 C 361.038,81.767 360.834,81.383 360.565,81.058 C 360.296,80.733 359.96,80.479 359.556,80.297 C 359.154,80.115 358.686,80.024 358.152,80.024 C 357.636,80.024 357.186,80.105 356.801,80.268 C 356.415,80.431 356.091,80.664 355.832,80.967 C 355.572,81.271 355.378,81.638 355.249,82.07 C 355.121,82.502 355.056,82.99 355.056,83.534 C 355.056,84.058 355.123,84.541 355.257,84.983 C 355.39,85.425 355.592,85.807 355.861,86.13 C 356.13,86.453 356.466,86.704 356.87,86.884 C 357.273,87.064 357.744,87.154 358.282,87.154 C 358.797,87.154 359.247,87.073 359.633,86.913 C 360.019,86.753 360.341,86.521 360.598,86.218 C 360.855,85.914 361.05,85.546 361.181,85.114 C 361.312,84.682 361.377,84.196 361.377,83.658 Z M 360.46,83.578 C 360.459,83.952 360.423,84.308 360.351,84.649 C 360.278,84.988 360.156,85.288 359.986,85.548 C 359.817,85.807 359.589,86.014 359.302,86.167 C 359.016,86.32 358.659,86.396 358.231,86.396 C 357.838,86.396 357.498,86.326 357.212,86.185 C 356.925,86.044 356.691,85.849 356.509,85.599 C 356.327,85.348 356.193,85.054 356.105,84.714 C 356.018,84.374 355.974,84.007 355.974,83.614 C 355.974,83.236 356.01,82.875 356.083,82.533 C 356.156,82.19 356.277,81.891 356.447,81.634 C 356.617,81.376 356.845,81.172 357.132,81.022 C 357.418,80.871 357.775,80.796 358.202,80.796 C 358.596,80.796 358.935,80.866 359.222,81.007 C 359.508,81.148 359.742,81.342 359.925,81.59 C 360.107,81.838 360.241,82.131 360.329,82.471 C 360.416,82.81 360.459,83.18 360.46,83.578 Z" marker-start="none" marker-end="none"/>
      <path d="M 372.716,80.293 C 372.716,80.264 372.708,80.238 372.694,80.213 C 372.679,80.189 372.657,80.17 372.624,80.155 C 372.593,80.14 372.549,80.128 372.494,80.119 C 372.438,80.109 372.369,80.104 372.286,80.104 C 372.199,80.104 372.127,80.109 372.071,80.119 C 372.015,80.128 371.97,80.14 371.937,80.155 C 371.903,80.17 371.88,80.189 371.868,80.213 C 371.855,80.238 371.849,80.264 371.849,80.293 L 371.849,84.349 C 371.849,84.661 371.821,84.943 371.766,85.198 C 371.709,85.453 371.622,85.672 371.503,85.853 C 371.385,86.035 371.234,86.176 371.052,86.276 C 370.869,86.375 370.655,86.425 370.407,86.425 C 370.101,86.425 369.792,86.306 369.479,86.068 C 369.165,85.831 368.823,85.481 368.448,85.02 L 368.448,80.293 C 368.448,80.264 368.441,80.238 368.427,80.213 C 368.412,80.189 368.389,80.17 368.358,80.155 C 368.326,80.14 368.283,80.128 368.226,80.119 C 368.171,80.109 368.101,80.104 368.019,80.104 C 367.936,80.104 367.867,80.109 367.811,80.119 C 367.755,80.128 367.71,80.14 367.677,80.155 C 367.643,80.17 367.62,80.189 367.608,80.213 C 367.595,80.238 367.589,80.264 367.589,80.293 L 367.589,84.349 C 367.589,84.661 367.56,84.943 367.502,85.198 C 367.443,85.453 367.355,85.672 367.236,85.853 C 367.117,86.035 366.966,86.176 366.784,86.276 C 366.603,86.375 366.387,86.425 366.14,86.425 C 365.834,86.425 365.525,86.306 365.211,86.068 C 364.899,85.831 364.557,85.481 364.188,85.02 L 364.188,80.293 C 364.188,80.264 364.181,80.238 364.167,80.213 C 364.152,80.189 364.129,80.17 364.098,80.155 C 364.066,80.14 364.022,80.128 363.966,80.119 C 363.91,80.109 363.839,80.104 363.751,80.104 C 363.669,80.104 363.6,80.109 363.544,80.119 C 363.488,80.128 363.443,80.14 363.409,80.155 C 363.375,80.17 363.352,80.189 363.34,80.213 C 363.327,80.238 363.321,80.264 363.321,80.293 L 363.321,86.884 C 363.321,86.913 363.327,86.94 363.34,86.964 C 363.352,86.989 363.375,87.009 363.409,87.026 C 363.443,87.043 363.486,87.055 363.537,87.062 C 363.588,87.07 363.654,87.073 363.737,87.073 C 363.819,87.073 363.887,87.07 363.941,87.062 C 363.994,87.055 364.035,87.043 364.065,87.026 C 364.094,87.009 364.114,86.989 364.126,86.964 C 364.139,86.94 364.145,86.913 364.145,86.884 L 364.145,85.952 C 364.524,86.374 364.883,86.68 365.223,86.869 C 365.562,87.058 365.9,87.154 366.234,87.154 C 366.511,87.154 366.758,87.121 366.974,87.055 C 367.19,86.989 367.38,86.897 367.545,86.779 C 367.71,86.659 367.851,86.518 367.968,86.353 C 368.085,86.187 368.179,86.005 368.252,85.806 C 368.48,86.059 368.695,86.271 368.896,86.443 C 369.098,86.616 369.29,86.754 369.471,86.858 C 369.654,86.963 369.83,87.038 369.999,87.084 C 370.17,87.13 370.337,87.154 370.502,87.154 C 370.915,87.154 371.263,87.081 371.547,86.935 C 371.831,86.789 372.059,86.593 372.231,86.345 C 372.404,86.098 372.528,85.809 372.603,85.478 C 372.678,85.148 372.716,84.799 372.716,84.43 L 372.716,80.293 Z" marker-start="none" marker-end="none"/>
      <path d="M 380.871,83.687 C 380.871,83.124 380.81,82.617 380.685,82.165 C 380.562,81.714 380.38,81.33 380.139,81.015 C 379.899,80.699 379.602,80.455 379.248,80.283 C 378.893,80.11 378.488,80.024 378.031,80.024 C 377.838,80.024 377.655,80.044 377.485,80.086 C 377.316,80.127 377.149,80.191 376.986,80.279 C 376.824,80.366 376.661,80.476 376.498,80.607 C 376.336,80.737 376.164,80.896 375.985,81.08 L 375.985,77.679 C 375.985,77.65 375.978,77.623 375.963,77.599 C 375.948,77.575 375.926,77.554 375.894,77.537 C 375.863,77.521 375.819,77.508 375.763,77.501 C 375.707,77.494 375.636,77.49 375.548,77.49 C 375.465,77.49 375.396,77.494 375.341,77.501 C 375.285,77.508 375.24,77.521 375.206,77.537 C 375.172,77.554 375.149,77.575 375.137,77.599 C 375.124,77.623 375.118,77.65 375.118,77.679 L 375.118,86.884 C 375.118,86.918 375.124,86.947 375.137,86.971 C 375.149,86.995 375.171,87.015 375.202,87.03 C 375.234,87.044 375.275,87.055 375.326,87.062 C 375.377,87.07 375.439,87.073 375.512,87.073 C 375.585,87.073 375.645,87.07 375.693,87.062 C 375.742,87.055 375.783,87.044 375.818,87.03 C 375.852,87.015 375.876,86.995 375.891,86.971 C 375.905,86.947 375.912,86.918 375.912,86.884 L 375.912,85.93 C 376.116,86.139 376.311,86.32 376.495,86.473 C 376.68,86.626 376.864,86.753 377.049,86.855 C 377.233,86.956 377.422,87.032 377.616,87.081 C 377.811,87.129 378.017,87.154 378.235,87.154 C 378.711,87.154 379.116,87.062 379.452,86.881 C 379.787,86.698 380.06,86.449 380.271,86.134 C 380.482,85.819 380.635,85.45 380.73,85.03 C 380.824,84.61 380.871,84.163 380.871,83.687 Z M 379.961,83.548 C 379.961,83.918 379.932,84.273 379.874,84.616 C 379.815,84.958 379.717,85.262 379.579,85.529 C 379.44,85.796 379.256,86.01 379.026,86.17 C 378.795,86.33 378.505,86.41 378.155,86.41 C 377.981,86.41 377.809,86.386 377.642,86.338 C 377.475,86.29 377.303,86.209 377.128,86.098 C 376.953,85.986 376.772,85.841 376.582,85.664 C 376.393,85.487 376.194,85.267 375.985,85.005 L 375.985,82.136 C 376.35,81.694 376.698,81.355 377.03,81.12 C 377.363,80.884 377.711,80.767 378.075,80.767 C 378.41,80.767 378.698,80.848 378.938,81.011 C 379.179,81.174 379.374,81.387 379.524,81.652 C 379.674,81.916 379.785,82.215 379.856,82.547 C 379.926,82.88 379.961,83.214 379.961,83.548 Z" marker-start="none" marker-end="none"/>
      <path d="M 383.733,80.293 C 383.733,80.264 383.726,80.238 383.712,80.213 C 383.697,80.189 383.674,80.17 383.643,80.155 C 383.611,80.14 383.567,80.128 383.511,80.119 C 383.455,80.109 383.384,80.104 383.296,80.104 C 383.214,80.104 383.145,80.109 383.089,80.119 C 383.033,80.128 382.988,80.14 382.954,80.155 C 382.92,80.17 382.897,80.189 382.885,80.213 C 382.872,80.238 382.866,80.264 382.866,80.293 L 382.866,90.11 C 382.866,90.139 382.872,90.166 382.885,90.19 C 382.897,90.214 382.92,90.235 382.954,90.252 C 382.988,90.269 383.033,90.281 383.089,90.289 C 383.145,90.295 383.214,90.299 383.296,90.299 C 383.384,90.299 383.455,90.295 383.511,90.289 C 383.567,90.281 383.611,90.269 383.643,90.252 C 383.674,90.235 383.697,90.214 383.712,90.19 C 383.726,90.166 383.733,90.139 383.733,90.11 L 383.733,80.293 Z" marker-start="none" marker-end="none"/>
      <path d="M 387.025,80.293 C 387.025,80.264 387.018,80.238 387.003,80.213 C 386.988,80.189 386.966,80.17 386.934,80.155 C 386.903,80.14 386.859,80.128 386.803,80.119 C 386.747,80.109 386.676,80.104 386.588,80.104 C 386.505,80.104 386.436,80.109 386.381,80.119 C 386.325,80.128 386.28,80.14 386.246,80.155 C 386.212,80.17 386.189,80.189 386.177,80.213 C 386.164,80.238 386.158,80.264 386.158,80.293 L 386.158,86.884 C 386.158,86.913 386.164,86.94 386.177,86.964 C 386.189,86.989 386.212,87.009 386.246,87.026 C 386.28,87.043 386.325,87.055 386.381,87.062 C 386.436,87.07 386.505,87.073 386.588,87.073 C 386.676,87.073 386.747,87.07 386.803,87.062 C 386.859,87.055 386.903,87.043 386.934,87.026 C 386.966,87.009 386.988,86.989 387.003,86.964 C 387.018,86.94 387.025,86.913 387.025,86.884 L 387.025,80.293 Z M 387.156,89.105 C 387.156,88.872 387.115,88.714 387.033,88.632 C 386.949,88.549 386.799,88.508 386.581,88.508 C 386.367,88.508 386.22,88.548 386.14,88.628 C 386.061,88.708 386.02,88.864 386.02,89.098 C 386.02,89.331 386.061,89.488 386.144,89.571 C 386.226,89.653 386.377,89.695 386.595,89.695 C 386.809,89.695 386.956,89.655 387.036,89.575 C 387.116,89.494 387.156,89.338 387.156,89.105 Z" marker-start="none" marker-end="none"/>
      <path d="M 398.844,80.293 C 398.844,80.264 398.837,80.238 398.823,80.213 C 398.808,80.189 398.785,80.17 398.753,80.155 C 398.721,80.14 398.678,80.128 398.622,80.119 C 398.566,80.109 398.497,80.104 398.415,80.104 C 398.328,80.104 398.256,80.109 398.199,80.119 C 398.144,80.128 398.099,80.14 398.065,80.155 C 398.031,80.17 398.008,80.189 397.996,80.213 C 397.983,80.238 397.977,80.264 397.977,80.293 L 397.977,84.349 C 397.977,84.661 397.95,84.943 397.894,85.198 C 397.838,85.453 397.751,85.672 397.632,85.853 C 397.513,86.035 397.362,86.176 397.18,86.276 C 396.998,86.375 396.783,86.425 396.536,86.425 C 396.23,86.425 395.92,86.306 395.607,86.068 C 395.294,85.831 394.951,85.481 394.577,85.02 L 394.577,80.293 C 394.577,80.264 394.569,80.238 394.555,80.213 C 394.54,80.189 394.518,80.17 394.486,80.155 C 394.455,80.14 394.411,80.128 394.355,80.119 C 394.299,80.109 394.23,80.104 394.147,80.104 C 394.065,80.104 393.996,80.109 393.939,80.119 C 393.884,80.128 393.839,80.14 393.805,80.155 C 393.771,80.17 393.748,80.189 393.736,80.213 C 393.723,80.238 393.717,80.264 393.717,80.293 L 393.717,84.349 C 393.717,84.661 393.688,84.943 393.63,85.198 C 393.572,85.453 393.483,85.672 393.365,85.853 C 393.246,86.035 393.095,86.176 392.913,86.276 C 392.731,86.375 392.516,86.425 392.268,86.425 C 391.962,86.425 391.653,86.306 391.34,86.068 C 391.027,85.831 390.686,85.481 390.317,85.02 L 390.317,80.293 C 390.317,80.264 390.309,80.238 390.295,80.213 C 390.28,80.189 390.258,80.17 390.226,80.155 C 390.195,80.14 390.15,80.128 390.095,80.119 C 390.039,80.109 389.967,80.104 389.88,80.104 C 389.797,80.104 389.728,80.109 389.673,80.119 C 389.616,80.128 389.571,80.14 389.538,80.155 C 389.504,80.17 389.481,80.189 389.469,80.213 C 389.456,80.238 389.45,80.264 389.45,80.293 L 389.45,86.884 C 389.45,86.913 389.456,86.94 389.469,86.964 C 389.481,86.989 389.504,87.009 389.538,87.026 C 389.571,87.043 389.614,87.055 389.665,87.062 C 389.716,87.07 389.783,87.073 389.865,87.073 C 389.948,87.073 390.015,87.07 390.069,87.062 C 390.123,87.055 390.164,87.043 390.193,87.026 C 390.222,87.009 390.243,86.989 390.255,86.964 C 390.267,86.94 390.273,86.913 390.273,86.884 L 390.273,85.952 C 390.652,86.374 391.011,86.68 391.351,86.869 C 391.691,87.058 392.028,87.154 392.363,87.154 C 392.64,87.154 392.886,87.121 393.102,87.055 C 393.318,86.989 393.509,86.897 393.674,86.779 C 393.839,86.659 393.98,86.518 394.096,86.353 C 394.213,86.187 394.308,86.005 394.38,85.806 C 394.608,86.059 394.824,86.271 395.025,86.443 C 395.226,86.616 395.418,86.754 395.6,86.858 C 395.782,86.963 395.958,87.038 396.128,87.084 C 396.298,87.13 396.465,87.154 396.63,87.154 C 397.044,87.154 397.392,87.081 397.675,86.935 C 397.959,86.789 398.187,86.593 398.36,86.345 C 398.532,86.098 398.656,85.809 398.731,85.478 C 398.807,85.148 398.844,84.799 398.844,84.43 L 398.844,80.293 Z" marker-start="none" marker-end="none"/>
      <path d="M 406.621,83.927 C 406.621,83.752 406.575,83.632 406.483,83.567 C 406.391,83.501 406.301,83.469 406.214,83.469 L 401.721,83.469 C 401.721,83.061 401.76,82.692 401.841,82.362 C 401.921,82.032 402.053,81.748 402.237,81.514 C 402.422,81.278 402.662,81.097 402.958,80.971 C 403.254,80.845 403.619,80.782 404.051,80.782 C 404.357,80.782 404.631,80.808 404.874,80.861 C 405.117,80.915 405.327,80.974 405.504,81.04 C 405.681,81.106 405.826,81.165 405.94,81.218 C 406.054,81.272 406.136,81.298 406.185,81.298 C 406.213,81.298 406.24,81.291 406.264,81.277 C 406.289,81.262 406.308,81.239 406.323,81.208 C 406.337,81.176 406.348,81.136 406.356,81.087 C 406.363,81.039 406.366,80.978 406.366,80.905 C 406.366,80.871 406.364,80.839 406.359,80.807 C 406.354,80.776 406.348,80.746 406.341,80.719 C 406.333,80.693 406.323,80.668 406.308,80.643 C 406.293,80.619 406.274,80.595 406.25,80.57 C 406.226,80.546 406.15,80.503 406.024,80.443 C 405.898,80.382 405.733,80.321 405.529,80.261 C 405.325,80.2 405.088,80.146 404.819,80.097 C 404.55,80.048 404.259,80.024 403.949,80.024 C 403.439,80.024 402.987,80.101 402.594,80.254 C 402.201,80.407 401.871,80.632 401.604,80.931 C 401.337,81.229 401.134,81.599 400.995,82.042 C 400.857,82.483 400.788,82.996 400.788,83.578 C 400.788,84.136 400.86,84.636 401.003,85.078 C 401.146,85.52 401.352,85.894 401.619,86.203 C 401.886,86.512 402.207,86.747 402.583,86.909 C 402.96,87.072 403.378,87.154 403.839,87.154 C 404.334,87.154 404.757,87.071 405.107,86.906 C 405.456,86.74 405.744,86.518 405.969,86.239 C 406.195,85.96 406.36,85.636 406.465,85.267 C 406.569,84.898 406.621,84.51 406.621,84.102 L 406.621,83.927 Z M 405.726,84.182 C 405.74,84.881 405.58,85.427 405.245,85.821 C 404.91,86.214 404.422,86.41 403.781,86.41 C 403.451,86.41 403.161,86.349 402.911,86.225 C 402.661,86.101 402.45,85.937 402.277,85.733 C 402.105,85.529 401.973,85.293 401.88,85.024 C 401.788,84.754 401.735,84.474 401.721,84.182 L 405.726,84.182 Z" marker-start="none" marker-end="none"/>
      <path d="M 413.961,80.293 C 413.961,80.264 413.954,80.238 413.94,80.213 C 413.925,80.189 413.902,80.17 413.871,80.155 C 413.839,80.14 413.796,80.128 413.739,80.119 C 413.684,80.109 413.615,80.104 413.532,80.104 C 413.445,80.104 413.373,80.109 413.317,80.119 C 413.261,80.128 413.217,80.14 413.186,80.155 C 413.154,80.17 413.131,80.189 413.117,80.213 C 413.103,80.238 413.095,80.264 413.095,80.293 L 413.095,84.204 C 413.095,84.612 413.064,84.943 413.001,85.198 C 412.938,85.453 412.842,85.672 412.716,85.853 C 412.59,86.035 412.428,86.176 412.232,86.276 C 412.035,86.375 411.806,86.425 411.544,86.425 C 411.209,86.425 410.874,86.306 410.539,86.068 C 410.204,85.831 409.852,85.481 409.483,85.02 L 409.483,80.293 C 409.483,80.264 409.476,80.238 409.461,80.213 C 409.446,80.189 409.424,80.17 409.392,80.155 C 409.361,80.14 409.317,80.128 409.261,80.119 C 409.205,80.109 409.134,80.104 409.046,80.104 C 408.963,80.104 408.894,80.109 408.839,80.119 C 408.783,80.128 408.738,80.14 408.704,80.155 C 408.67,80.17 408.647,80.189 408.635,80.213 C 408.622,80.238 408.616,80.264 408.616,80.293 L 408.616,86.884 C 408.616,86.913 408.622,86.94 408.635,86.964 C 408.647,86.989 408.67,87.009 408.704,87.026 C 408.738,87.043 408.78,87.055 408.831,87.062 C 408.882,87.07 408.949,87.073 409.032,87.073 C 409.114,87.073 409.182,87.07 409.236,87.062 C 409.289,87.055 409.33,87.043 409.359,87.026 C 409.389,87.009 409.409,86.989 409.421,86.964 C 409.434,86.94 409.44,86.913 409.44,86.884 L 409.44,85.952 C 409.818,86.374 410.19,86.68 410.553,86.869 C 410.918,87.058 411.279,87.154 411.639,87.154 C 412.071,87.154 412.435,87.081 412.731,86.935 C 413.027,86.789 413.266,86.593 413.448,86.345 C 413.631,86.098 413.761,85.809 413.841,85.478 C 413.922,85.148 413.961,84.751 413.961,84.284 L 413.961,80.293 Z" marker-start="none" marker-end="none"/>
      <path d="M 419.395,80.687 C 419.395,80.584 419.387,80.503 419.37,80.439 C 419.352,80.376 419.326,80.326 419.289,80.29 C 419.253,80.254 419.199,80.219 419.129,80.188 C 419.059,80.156 418.977,80.13 418.885,80.108 C 418.793,80.086 418.696,80.069 418.594,80.057 C 418.492,80.044 418.392,80.038 418.296,80.038 C 417.97,80.038 417.693,80.082 417.465,80.17 C 417.237,80.257 417.05,80.389 416.904,80.566 C 416.759,80.744 416.653,80.968 416.588,81.24 C 416.522,81.512 416.49,81.832 416.49,82.201 L 416.49,86.302 L 415.506,86.302 C 415.438,86.302 415.385,86.332 415.346,86.392 C 415.308,86.453 415.288,86.544 415.288,86.665 C 415.288,86.728 415.293,86.783 415.302,86.83 C 415.312,86.875 415.327,86.914 415.346,86.946 C 415.365,86.977 415.389,87.001 415.416,87.015 C 415.442,87.03 415.473,87.037 415.506,87.037 L 416.49,87.037 L 416.49,88.654 C 416.49,88.683 416.496,88.709 416.508,88.734 C 416.52,88.758 416.543,88.778 416.577,88.795 C 416.611,88.813 416.656,88.825 416.712,88.832 C 416.767,88.839 416.837,88.843 416.919,88.843 C 417.006,88.843 417.078,88.839 417.134,88.832 C 417.19,88.825 417.234,88.813 417.265,88.795 C 417.297,88.778 417.32,88.758 417.334,88.734 C 417.348,88.709 417.356,88.683 417.356,88.654 L 417.356,87.037 L 419.177,87.037 C 419.211,87.037 419.241,87.03 419.268,87.015 C 419.295,87.001 419.318,86.977 419.337,86.946 C 419.356,86.914 419.371,86.875 419.38,86.83 C 419.39,86.783 419.395,86.728 419.395,86.665 C 419.395,86.544 419.374,86.453 419.333,86.392 C 419.292,86.332 419.24,86.302 419.177,86.302 L 417.356,86.302 L 417.356,82.318 C 417.356,81.818 417.428,81.436 417.571,81.175 C 417.714,80.912 417.975,80.782 418.353,80.782 C 418.47,80.782 418.576,80.794 418.671,80.818 C 418.765,80.842 418.849,80.869 418.922,80.898 C 418.995,80.927 419.057,80.954 419.107,80.978 C 419.158,81.002 419.203,81.015 419.242,81.015 C 419.266,81.015 419.289,81.01 419.307,81 C 419.327,80.99 419.343,80.972 419.355,80.945 C 419.367,80.919 419.377,80.884 419.384,80.843 C 419.391,80.802 419.395,80.75 419.395,80.687 Z" marker-start="none" marker-end="none"/>
     </g>
    </g>
    <path d="M 374.776,60.139 C 385.107,70.47 401.875,70.47 412.205,60.139 C 422.536,49.809 422.536,33.04 412.205,22.71 C 401.875,12.379 385.107,12.379 374.776,22.71 C 364.446,33.04 364.446,49.809 374.776,60.139 Z" stroke="#007f01" fill="#ffffff" stroke-width="0.657" stroke-linejoin="round" stroke-linecap="round" marker-start="none" marker-end="none" stroke-miterlimit="79.8403193612775"/>
   </g>
  </g>
 </g>
</svg>
